%TF.GenerationSoftware,KiCad,Pcbnew,6.0.6*%
%TF.CreationDate,2022-09-30T13:38:31-04:00*%
%TF.ProjectId,hvac-r,68766163-2d72-42e6-9b69-6361645f7063,rev?*%
%TF.SameCoordinates,Original*%
%TF.FileFunction,Soldermask,Bot*%
%TF.FilePolarity,Negative*%
%FSLAX46Y46*%
G04 Gerber Fmt 4.6, Leading zero omitted, Abs format (unit mm)*
G04 Created by KiCad (PCBNEW 6.0.6) date 2022-09-30 13:38:31*
%MOMM*%
%LPD*%
G01*
G04 APERTURE LIST*
G04 Aperture macros list*
%AMRoundRect*
0 Rectangle with rounded corners*
0 $1 Rounding radius*
0 $2 $3 $4 $5 $6 $7 $8 $9 X,Y pos of 4 corners*
0 Add a 4 corners polygon primitive as box body*
4,1,4,$2,$3,$4,$5,$6,$7,$8,$9,$2,$3,0*
0 Add four circle primitives for the rounded corners*
1,1,$1+$1,$2,$3*
1,1,$1+$1,$4,$5*
1,1,$1+$1,$6,$7*
1,1,$1+$1,$8,$9*
0 Add four rect primitives between the rounded corners*
20,1,$1+$1,$2,$3,$4,$5,0*
20,1,$1+$1,$4,$5,$6,$7,0*
20,1,$1+$1,$6,$7,$8,$9,0*
20,1,$1+$1,$8,$9,$2,$3,0*%
G04 Aperture macros list end*
%ADD10R,1.700000X1.300000*%
%ADD11R,1.800000X1.800000*%
%ADD12C,1.800000*%
%ADD13C,3.200000*%
%ADD14RoundRect,0.250000X0.450000X-0.350000X0.450000X0.350000X-0.450000X0.350000X-0.450000X-0.350000X0*%
%ADD15O,1.600000X2.300000*%
%ADD16R,1.700000X1.700000*%
%ADD17O,1.700000X1.700000*%
%ADD18RoundRect,0.250000X-0.350000X-0.625000X0.350000X-0.625000X0.350000X0.625000X-0.350000X0.625000X0*%
%ADD19O,1.200000X1.750000*%
%ADD20R,3.000000X3.000000*%
%ADD21C,3.000000*%
%ADD22R,1.600000X1.600000*%
%ADD23C,1.600000*%
G04 APERTURE END LIST*
D10*
%TO.C,D10*%
X109855000Y-113665000D03*
X109855000Y-110165000D03*
%TD*%
%TO.C,D9*%
X110490000Y-102080000D03*
X110490000Y-98580000D03*
%TD*%
%TO.C,D8*%
X110490000Y-90650000D03*
X110490000Y-87150000D03*
%TD*%
%TO.C,D7*%
X110490000Y-79220000D03*
X110490000Y-75720000D03*
%TD*%
D11*
%TO.C,D6*%
X113660000Y-127000000D03*
D12*
X116200000Y-127000000D03*
%TD*%
D11*
%TO.C,D5*%
X107950000Y-68580000D03*
D12*
X105410000Y-68580000D03*
%TD*%
D13*
%TO.C,H4*%
X127000000Y-63500000D03*
%TD*%
%TO.C,H3*%
X106680000Y-63500000D03*
%TD*%
%TO.C,H2*%
X127000000Y-121920000D03*
%TD*%
%TO.C,H1*%
X106680000Y-121920000D03*
%TD*%
D14*
%TO.C,R8*%
X121920000Y-64500000D03*
X121920000Y-62500000D03*
%TD*%
%TO.C,R6*%
X118745000Y-64500000D03*
X118745000Y-62500000D03*
%TD*%
%TO.C,R4*%
X115840000Y-64500000D03*
X115840000Y-62500000D03*
%TD*%
%TO.C,R2*%
X112395000Y-64500000D03*
X112395000Y-62500000D03*
%TD*%
D15*
%TO.C,K4*%
X118110000Y-107950000D03*
X107950000Y-107950000D03*
X105410000Y-107950000D03*
X105410000Y-115570000D03*
X107950000Y-115570000D03*
X118110000Y-115570000D03*
%TD*%
%TO.C,K3*%
X118110000Y-96520000D03*
X107950000Y-96520000D03*
X105410000Y-96520000D03*
X105410000Y-104140000D03*
X107950000Y-104140000D03*
X118110000Y-104140000D03*
%TD*%
%TO.C,K2*%
X118110000Y-85090000D03*
X107950000Y-85090000D03*
X105410000Y-85090000D03*
X105410000Y-92710000D03*
X107950000Y-92710000D03*
X118110000Y-92710000D03*
%TD*%
%TO.C,K1*%
X118110000Y-73660000D03*
X107950000Y-73660000D03*
X105410000Y-73660000D03*
X105410000Y-81280000D03*
X107950000Y-81280000D03*
X118110000Y-81280000D03*
%TD*%
D16*
%TO.C,JP1*%
X124475000Y-114300000D03*
D17*
X127015000Y-114300000D03*
X129555000Y-114300000D03*
%TD*%
D16*
%TO.C,J5*%
X116840000Y-130810000D03*
D17*
X119380000Y-130810000D03*
X121920000Y-130810000D03*
X124460000Y-130810000D03*
X127000000Y-130810000D03*
X129540000Y-130810000D03*
%TD*%
D18*
%TO.C,J4*%
X113840000Y-121370000D03*
D19*
X115840000Y-121370000D03*
X117840000Y-121370000D03*
X119840000Y-121370000D03*
%TD*%
D20*
%TO.C,J3*%
X114300000Y-55880000D03*
D21*
X119380000Y-55880000D03*
X124460000Y-55880000D03*
X129540000Y-55880000D03*
%TD*%
D20*
%TO.C,J2*%
X104140000Y-55880000D03*
D21*
X109220000Y-55880000D03*
%TD*%
D20*
%TO.C,J1*%
X104140000Y-130810000D03*
D21*
X109220000Y-130810000D03*
%TD*%
D11*
%TO.C,D4*%
X128270000Y-68580000D03*
D12*
X130810000Y-68580000D03*
%TD*%
D11*
%TO.C,D3*%
X123190000Y-68580000D03*
D12*
X125730000Y-68580000D03*
%TD*%
D11*
%TO.C,D2*%
X118110000Y-68580000D03*
D12*
X120650000Y-68580000D03*
%TD*%
D11*
%TO.C,D1*%
X113030000Y-68580000D03*
D12*
X115570000Y-68580000D03*
%TD*%
D22*
%TO.C,C1*%
X125730000Y-85090000D03*
D23*
X128230000Y-85090000D03*
%TD*%
M02*
