M48
; DRILL file {KiCad 6.0.7} date Wed Oct  5 09:31:17 2022
; FORMAT={-:-/ absolute / inch / decimal}
; #@! TF.CreationDate,2022-10-05T09:31:17-04:00
; #@! TF.GenerationSoftware,Kicad,Pcbnew,6.0.7
; #@! TF.FileFunction,Plated,1,2,PTH
FMAT,2
INCH
; #@! TA.AperFunction,Plated,PTH,ViaDrill
T1C0.0157
; #@! TA.AperFunction,Plated,PTH,ComponentDrill
T2C0.0295
; #@! TA.AperFunction,Plated,PTH,ComponentDrill
T3C0.0315
; #@! TA.AperFunction,Plated,PTH,ComponentDrill
T4C0.0354
; #@! TA.AperFunction,Plated,PTH,ComponentDrill
T5C0.0394
; #@! TA.AperFunction,Plated,PTH,ComponentDrill
T6C0.0598
%
G90
G05
T1
X4.3536Y-4.6
X4.3714Y-4.525
X4.4Y-4.425
X4.4Y-4.475
X4.7Y-3.9
X4.725Y-3.525
X4.75Y-3.45
X4.8Y-3.0
X4.8Y-3.275
X4.8Y-4.375
X4.8Y-4.975
X4.825Y-2.825
X4.8464Y-3.8
X4.85Y-5.0
X4.875Y-4.675
X4.875Y-4.925
X4.95Y-3.5
X4.95Y-4.6
X5.0Y-3.25
X5.0Y-3.775
X5.05Y-3.65
X5.125Y-3.975
T2
X4.4819Y-4.7783
X4.5606Y-4.7783
X4.6394Y-4.7783
X4.7181Y-4.7783
T3
X4.95Y-3.35
X5.0484Y-3.35
T4
X4.15Y-2.7
X4.25Y-2.7
X4.45Y-2.7
X4.4748Y-5.0
X4.55Y-2.7
X4.5748Y-5.0
X4.65Y-2.7
X4.75Y-2.7
X4.85Y-2.7
X4.95Y-2.7
X5.05Y-2.7
X5.15Y-2.7
T5
X4.15Y-2.9
X4.15Y-3.2
X4.15Y-3.35
X4.15Y-3.65
X4.15Y-3.8
X4.15Y-4.1
X4.15Y-4.25
X4.15Y-4.55
X4.25Y-2.9
X4.25Y-3.2
X4.25Y-3.35
X4.25Y-3.65
X4.25Y-3.8
X4.25Y-4.1
X4.25Y-4.25
X4.25Y-4.55
X4.6Y-5.15
X4.65Y-2.9
X4.65Y-3.2
X4.65Y-3.35
X4.65Y-3.65
X4.65Y-3.8
X4.65Y-4.1
X4.65Y-4.25
X4.65Y-4.55
X4.7Y-5.15
X4.8Y-5.15
X4.9Y-5.15
X4.9006Y-4.5
X5.0Y-5.15
X5.0006Y-4.5
X5.1Y-5.15
X5.1006Y-4.5
T6
X4.1Y-2.2
X4.1Y-5.15
X4.3Y-2.2
X4.3Y-5.15
X4.5Y-2.2
X4.7Y-2.2
X4.9Y-2.2
X5.1Y-2.2
T0
M30
