M48
; DRILL file {KiCad 7.0.6} date Tue Aug  1 20:56:43 2023
; FORMAT={-:-/ absolute / inch / decimal}
; #@! TF.CreationDate,2023-08-01T20:56:43-04:00
; #@! TF.GenerationSoftware,Kicad,Pcbnew,7.0.6
; #@! TF.FileFunction,Plated,1,2,PTH
FMAT,2
INCH
; #@! TA.AperFunction,Plated,PTH,ViaDrill
T1C0.0157
; #@! TA.AperFunction,Plated,PTH,ComponentDrill
T2C0.0287
; #@! TA.AperFunction,Plated,PTH,ComponentDrill
T3C0.0335
%
G90
G05
T1
X4.0748Y-4.4685
X4.1142Y-4.8425
X4.2144Y-4.2392
X4.2323Y-4.5472
X4.2323Y-5.0394
X4.252Y-4.4094
X4.252Y-4.5079
X4.2717Y-4.252
X4.2918Y-4.4483
X4.3322Y-4.408
X4.3504Y-4.5669
X4.3504Y-4.6063
X4.3898Y-4.9409
X4.4306Y-4.5065
X4.5669Y-4.4291
X4.5669Y-4.5079
X4.5866Y-4.9213
X4.626Y-4.9016
X4.685Y-4.9803
T2
X4.0551Y-5.2165
X4.1142Y-5.2165
X4.1732Y-5.2165
T3
X4.0551Y-4.0157
X4.0551Y-4.0945
X4.1339Y-4.0157
X4.1339Y-4.0945
X4.2126Y-4.0157
X4.2126Y-4.0945
X4.2913Y-4.0157
X4.2913Y-4.0945
X4.3701Y-4.0157
X4.3701Y-4.0945
X4.3701Y-5.1575
X4.3701Y-5.2362
X4.4488Y-4.0157
X4.4488Y-4.0945
X4.4488Y-5.1575
X4.4488Y-5.2362
X4.5276Y-4.0157
X4.5276Y-4.0945
X4.5276Y-5.1575
X4.5276Y-5.2362
X4.6063Y-4.0157
X4.6063Y-4.0945
X4.6063Y-5.1575
X4.6063Y-5.2362
T0
M30
