%TF.GenerationSoftware,KiCad,Pcbnew,7.0.6*%
%TF.CreationDate,2023-08-01T20:56:41-04:00*%
%TF.ProjectId,mcumod-am8,6d63756d-6f64-42d6-916d-382e6b696361,rev?*%
%TF.SameCoordinates,Original*%
%TF.FileFunction,Legend,Bot*%
%TF.FilePolarity,Positive*%
%FSLAX46Y46*%
G04 Gerber Fmt 4.6, Leading zero omitted, Abs format (unit mm)*
G04 Created by KiCad (PCBNEW 7.0.6) date 2023-08-01 20:56:41*
%MOMM*%
%LPD*%
G01*
G04 APERTURE LIST*
%ADD10C,0.150000*%
%ADD11C,0.120000*%
G04 APERTURE END LIST*
D10*
X114761904Y-124454819D02*
X114761904Y-125264342D01*
X114761904Y-125264342D02*
X114714285Y-125359580D01*
X114714285Y-125359580D02*
X114666666Y-125407200D01*
X114666666Y-125407200D02*
X114571428Y-125454819D01*
X114571428Y-125454819D02*
X114380952Y-125454819D01*
X114380952Y-125454819D02*
X114285714Y-125407200D01*
X114285714Y-125407200D02*
X114238095Y-125359580D01*
X114238095Y-125359580D02*
X114190476Y-125264342D01*
X114190476Y-125264342D02*
X114190476Y-124454819D01*
X113809523Y-124454819D02*
X113190476Y-124454819D01*
X113190476Y-124454819D02*
X113523809Y-124835771D01*
X113523809Y-124835771D02*
X113380952Y-124835771D01*
X113380952Y-124835771D02*
X113285714Y-124883390D01*
X113285714Y-124883390D02*
X113238095Y-124931009D01*
X113238095Y-124931009D02*
X113190476Y-125026247D01*
X113190476Y-125026247D02*
X113190476Y-125264342D01*
X113190476Y-125264342D02*
X113238095Y-125359580D01*
X113238095Y-125359580D02*
X113285714Y-125407200D01*
X113285714Y-125407200D02*
X113380952Y-125454819D01*
X113380952Y-125454819D02*
X113666666Y-125454819D01*
X113666666Y-125454819D02*
X113761904Y-125407200D01*
X113761904Y-125407200D02*
X113809523Y-125359580D01*
X116666666Y-107804819D02*
X116999999Y-107328628D01*
X117238094Y-107804819D02*
X117238094Y-106804819D01*
X117238094Y-106804819D02*
X116857142Y-106804819D01*
X116857142Y-106804819D02*
X116761904Y-106852438D01*
X116761904Y-106852438D02*
X116714285Y-106900057D01*
X116714285Y-106900057D02*
X116666666Y-106995295D01*
X116666666Y-106995295D02*
X116666666Y-107138152D01*
X116666666Y-107138152D02*
X116714285Y-107233390D01*
X116714285Y-107233390D02*
X116761904Y-107281009D01*
X116761904Y-107281009D02*
X116857142Y-107328628D01*
X116857142Y-107328628D02*
X117238094Y-107328628D01*
X115714285Y-107804819D02*
X116285713Y-107804819D01*
X115999999Y-107804819D02*
X115999999Y-106804819D01*
X115999999Y-106804819D02*
X116095237Y-106947676D01*
X116095237Y-106947676D02*
X116190475Y-107042914D01*
X116190475Y-107042914D02*
X116285713Y-107090533D01*
X109833333Y-117454819D02*
X109833333Y-118169104D01*
X109833333Y-118169104D02*
X109880952Y-118311961D01*
X109880952Y-118311961D02*
X109976190Y-118407200D01*
X109976190Y-118407200D02*
X110119047Y-118454819D01*
X110119047Y-118454819D02*
X110214285Y-118454819D01*
X109452380Y-117454819D02*
X108833333Y-117454819D01*
X108833333Y-117454819D02*
X109166666Y-117835771D01*
X109166666Y-117835771D02*
X109023809Y-117835771D01*
X109023809Y-117835771D02*
X108928571Y-117883390D01*
X108928571Y-117883390D02*
X108880952Y-117931009D01*
X108880952Y-117931009D02*
X108833333Y-118026247D01*
X108833333Y-118026247D02*
X108833333Y-118264342D01*
X108833333Y-118264342D02*
X108880952Y-118359580D01*
X108880952Y-118359580D02*
X108928571Y-118407200D01*
X108928571Y-118407200D02*
X109023809Y-118454819D01*
X109023809Y-118454819D02*
X109309523Y-118454819D01*
X109309523Y-118454819D02*
X109404761Y-118407200D01*
X109404761Y-118407200D02*
X109452380Y-118359580D01*
X115738094Y-111954819D02*
X115738094Y-110954819D01*
X115738094Y-110954819D02*
X115499999Y-110954819D01*
X115499999Y-110954819D02*
X115357142Y-111002438D01*
X115357142Y-111002438D02*
X115261904Y-111097676D01*
X115261904Y-111097676D02*
X115214285Y-111192914D01*
X115214285Y-111192914D02*
X115166666Y-111383390D01*
X115166666Y-111383390D02*
X115166666Y-111526247D01*
X115166666Y-111526247D02*
X115214285Y-111716723D01*
X115214285Y-111716723D02*
X115261904Y-111811961D01*
X115261904Y-111811961D02*
X115357142Y-111907200D01*
X115357142Y-111907200D02*
X115499999Y-111954819D01*
X115499999Y-111954819D02*
X115738094Y-111954819D01*
X114214285Y-111954819D02*
X114785713Y-111954819D01*
X114499999Y-111954819D02*
X114499999Y-110954819D01*
X114499999Y-110954819D02*
X114595237Y-111097676D01*
X114595237Y-111097676D02*
X114690475Y-111192914D01*
X114690475Y-111192914D02*
X114785713Y-111240533D01*
D11*
%TO.C,U3*%
X112940000Y-120000000D02*
X112940000Y-121950000D01*
X118060000Y-120000000D02*
X118060000Y-121950000D01*
X112940000Y-120000000D02*
X112940000Y-116550000D01*
X118060000Y-120000000D02*
X118060000Y-118050000D01*
%TO.C,R1*%
X116727064Y-108265000D02*
X116272936Y-108265000D01*
X116727064Y-109735000D02*
X116272936Y-109735000D01*
%TO.C,J3*%
X108310000Y-129060000D02*
X108310000Y-128040000D01*
X108310000Y-128040000D02*
X106710000Y-128040000D01*
X108310000Y-117960000D02*
X106710000Y-117960000D01*
X104060000Y-116940000D02*
X108310000Y-116940000D01*
X106710000Y-128040000D02*
X106710000Y-126760000D01*
X106710000Y-126760000D02*
X109600000Y-126760000D01*
X104060000Y-129060000D02*
X108310000Y-129060000D01*
X100490000Y-127340000D02*
X100490000Y-118660000D01*
X106710000Y-117960000D02*
X106710000Y-119240000D01*
X108310000Y-116940000D02*
X108310000Y-117960000D01*
%TO.C,D1*%
X118610000Y-111250000D02*
X118610000Y-115660000D01*
X118610000Y-115660000D02*
X116390000Y-115660000D01*
X116390000Y-115660000D02*
X116390000Y-111250000D01*
%TD*%
M02*
