%TF.GenerationSoftware,KiCad,Pcbnew,7.0.6*%
%TF.CreationDate,2023-08-01T20:56:40-04:00*%
%TF.ProjectId,mcumod-am8,6d63756d-6f64-42d6-916d-382e6b696361,rev?*%
%TF.SameCoordinates,Original*%
%TF.FileFunction,Copper,L1,Top*%
%TF.FilePolarity,Positive*%
%FSLAX46Y46*%
G04 Gerber Fmt 4.6, Leading zero omitted, Abs format (unit mm)*
G04 Created by KiCad (PCBNEW 7.0.6) date 2023-08-01 20:56:40*
%MOMM*%
%LPD*%
G01*
G04 APERTURE LIST*
G04 Aperture macros list*
%AMRoundRect*
0 Rectangle with rounded corners*
0 $1 Rounding radius*
0 $2 $3 $4 $5 $6 $7 $8 $9 X,Y pos of 4 corners*
0 Add a 4 corners polygon primitive as box body*
4,1,4,$2,$3,$4,$5,$6,$7,$8,$9,$2,$3,0*
0 Add four circle primitives for the rounded corners*
1,1,$1+$1,$2,$3*
1,1,$1+$1,$4,$5*
1,1,$1+$1,$6,$7*
1,1,$1+$1,$8,$9*
0 Add four rect primitives between the rounded corners*
20,1,$1+$1,$2,$3,$4,$5,0*
20,1,$1+$1,$4,$5,$6,$7,0*
20,1,$1+$1,$6,$7,$8,$9,0*
20,1,$1+$1,$8,$9,$2,$3,0*%
G04 Aperture macros list end*
%TA.AperFunction,SMDPad,CuDef*%
%ADD10RoundRect,0.150000X0.150000X-0.512500X0.150000X0.512500X-0.150000X0.512500X-0.150000X-0.512500X0*%
%TD*%
%TA.AperFunction,SMDPad,CuDef*%
%ADD11R,0.550000X1.600000*%
%TD*%
%TA.AperFunction,SMDPad,CuDef*%
%ADD12R,1.600000X0.550000*%
%TD*%
%TA.AperFunction,ComponentPad*%
%ADD13RoundRect,0.250000X0.265000X0.615000X-0.265000X0.615000X-0.265000X-0.615000X0.265000X-0.615000X0*%
%TD*%
%TA.AperFunction,ComponentPad*%
%ADD14O,1.030000X1.730000*%
%TD*%
%TA.AperFunction,ComponentPad*%
%ADD15RoundRect,0.250000X-0.350000X-0.575000X0.350000X-0.575000X0.350000X0.575000X-0.350000X0.575000X0*%
%TD*%
%TA.AperFunction,ComponentPad*%
%ADD16O,1.200000X1.650000*%
%TD*%
%TA.AperFunction,ComponentPad*%
%ADD17RoundRect,0.250000X0.350000X0.575000X-0.350000X0.575000X-0.350000X-0.575000X0.350000X-0.575000X0*%
%TD*%
%TA.AperFunction,SMDPad,CuDef*%
%ADD18RoundRect,0.250000X-0.475000X0.337500X-0.475000X-0.337500X0.475000X-0.337500X0.475000X0.337500X0*%
%TD*%
%TA.AperFunction,SMDPad,CuDef*%
%ADD19RoundRect,0.250000X0.475000X-0.337500X0.475000X0.337500X-0.475000X0.337500X-0.475000X-0.337500X0*%
%TD*%
%TA.AperFunction,ViaPad*%
%ADD20C,0.800000*%
%TD*%
%TA.AperFunction,Conductor*%
%ADD21C,0.250000*%
%TD*%
G04 APERTURE END LIST*
D10*
%TO.P,U2,1,VIN*%
%TO.N,+5V*%
X113550000Y-126637500D03*
%TO.P,U2,2,GND*%
%TO.N,GND*%
X114500000Y-126637500D03*
%TO.P,U2,3,EN*%
%TO.N,unconnected-(U2-EN-Pad3)*%
X115450000Y-126637500D03*
%TO.P,U2,4,SENSE/ADJ*%
%TO.N,unconnected-(U2-SENSE{slash}ADJ-Pad4)*%
X115450000Y-124362500D03*
%TO.P,U2,5,VOUT*%
%TO.N,+3.3V*%
X113550000Y-124362500D03*
%TD*%
D11*
%TO.P,U1,32,PA2*%
%TO.N,IO5*%
X112800000Y-118750000D03*
%TO.P,U1,31,PA1*%
%TO.N,IO7*%
X112000000Y-118750000D03*
%TO.P,U1,30,EXTCLK/PA0*%
%TO.N,IO6*%
X111200000Y-118750000D03*
%TO.P,U1,29,GND*%
%TO.N,GND*%
X110400000Y-118750000D03*
%TO.P,U1,28,VDD*%
%TO.N,+3.3V*%
X109600000Y-118750000D03*
%TO.P,U1,27,UPDI*%
%TO.N,UPDI*%
X108800000Y-118750000D03*
%TO.P,U1,26,PF6/~{RESET}*%
%TO.N,RST*%
X108000000Y-118750000D03*
%TO.P,U1,25,PF5*%
%TO.N,unconnected-(U1-PF5-Pad25)*%
X107200000Y-118750000D03*
D12*
%TO.P,U1,24,PF4*%
%TO.N,unconnected-(U1-PF4-Pad24)*%
X105750000Y-117300000D03*
%TO.P,U1,23,PF3*%
%TO.N,unconnected-(U1-PF3-Pad23)*%
X105750000Y-116500000D03*
%TO.P,U1,22,PF2*%
%TO.N,unconnected-(U1-PF2-Pad22)*%
X105750000Y-115700000D03*
%TO.P,U1,21,PF1/TOSC2*%
%TO.N,IO13*%
X105750000Y-114900000D03*
%TO.P,U1,20,PF0/TOSC1*%
%TO.N,IO12*%
X105750000Y-114100000D03*
%TO.P,U1,19,GND*%
%TO.N,GND*%
X105750000Y-113300000D03*
%TO.P,U1,18,AVDD*%
%TO.N,+3.3V*%
X105750000Y-112500000D03*
%TO.P,U1,17,PD7*%
%TO.N,unconnected-(U1-PD7-Pad17)*%
X105750000Y-111700000D03*
D11*
%TO.P,U1,16,PD6*%
%TO.N,unconnected-(U1-PD6-Pad16)*%
X107200000Y-110250000D03*
%TO.P,U1,15,PD5*%
%TO.N,unconnected-(U1-PD5-Pad15)*%
X108000000Y-110250000D03*
%TO.P,U1,14,PD4*%
%TO.N,IO3*%
X108800000Y-110250000D03*
%TO.P,U1,13,PD3*%
%TO.N,IO9*%
X109600000Y-110250000D03*
%TO.P,U1,12,PD2*%
%TO.N,IO2*%
X110400000Y-110250000D03*
%TO.P,U1,11,PD1*%
%TO.N,IO1*%
X111200000Y-110250000D03*
%TO.P,U1,10,PD0*%
%TO.N,IO0*%
X112000000Y-110250000D03*
%TO.P,U1,9,PC3*%
%TO.N,Net-(U1-PC3)*%
X112800000Y-110250000D03*
D12*
%TO.P,U1,8,PC2*%
%TO.N,IO8*%
X114250000Y-111700000D03*
%TO.P,U1,7,PC1*%
%TO.N,Net-(D1-A)*%
X114250000Y-112500000D03*
%TO.P,U1,6,PC0*%
%TO.N,Net-(U1-PC0)*%
X114250000Y-113300000D03*
%TO.P,U1,5,PA7*%
%TO.N,unconnected-(U1-PA7-Pad5)*%
X114250000Y-114100000D03*
%TO.P,U1,4,PA6*%
%TO.N,unconnected-(U1-PA6-Pad4)*%
X114250000Y-114900000D03*
%TO.P,U1,3,PA5*%
%TO.N,IO11*%
X114250000Y-115700000D03*
%TO.P,U1,2,PA4*%
%TO.N,IO10*%
X114250000Y-116500000D03*
%TO.P,U1,1,PA3*%
%TO.N,IO4*%
X114250000Y-117300000D03*
%TD*%
D13*
%TO.P,J2,1,Pin_1*%
%TO.N,+3.3V*%
X106000000Y-132500000D03*
D14*
%TO.P,J2,2,Pin_2*%
%TO.N,UPDI*%
X104500000Y-132500000D03*
%TO.P,J2,3,Pin_3*%
%TO.N,GND*%
X103000000Y-132500000D03*
%TD*%
D15*
%TO.P,J1,1,Pin_1*%
%TO.N,GND*%
X103000000Y-102000000D03*
D16*
%TO.P,J1,2,Pin_2*%
%TO.N,+3.3V*%
X103000000Y-104000000D03*
%TO.P,J1,3,Pin_3*%
%TO.N,IO0*%
X105000000Y-102000000D03*
%TO.P,J1,4,Pin_4*%
%TO.N,IO1*%
X105000000Y-104000000D03*
%TO.P,J1,5,Pin_5*%
%TO.N,IO2*%
X107000000Y-102000000D03*
%TO.P,J1,6,Pin_6*%
%TO.N,IO3*%
X107000000Y-104000000D03*
%TO.P,J1,7,Pin_7*%
%TO.N,IO6*%
X109000000Y-102000000D03*
%TO.P,J1,8,Pin_8*%
%TO.N,IO7*%
X109000000Y-104000000D03*
%TO.P,J1,9,Pin_9*%
%TO.N,IO8*%
X111000000Y-102000000D03*
%TO.P,J1,10,Pin_10*%
%TO.N,IO9*%
X111000000Y-104000000D03*
%TO.P,J1,11,Pin_11*%
%TO.N,IO10*%
X113000000Y-102000000D03*
%TO.P,J1,12,Pin_12*%
%TO.N,IO11*%
X113000000Y-104000000D03*
%TO.P,J1,13,Pin_13*%
%TO.N,IO12*%
X115000000Y-102000000D03*
%TO.P,J1,14,Pin_14*%
%TO.N,IO13*%
X115000000Y-104000000D03*
%TO.P,J1,15,Pin_15*%
%TO.N,GND*%
X117000000Y-102000000D03*
%TO.P,J1,16,Pin_16*%
%TO.N,+3.3V*%
X117000000Y-104000000D03*
D17*
%TO.P,J1,17,Pin_17*%
%TO.N,GND*%
X117000000Y-133000000D03*
D16*
%TO.P,J1,18,Pin_18*%
%TO.N,+5V*%
X117000000Y-131000000D03*
%TO.P,J1,19,Pin_19*%
%TO.N,IO4*%
X115000000Y-133000000D03*
%TO.P,J1,20,Pin_20*%
%TO.N,IO5*%
X115000000Y-131000000D03*
%TO.P,J1,21,Pin_21*%
%TO.N,RS485A*%
X113000000Y-133000000D03*
%TO.P,J1,22,Pin_22*%
%TO.N,RS485B*%
X113000000Y-131000000D03*
%TO.P,J1,23,Pin_23*%
%TO.N,UPDI*%
X111000000Y-133000000D03*
%TO.P,J1,24,Pin_24*%
%TO.N,RST*%
X111000000Y-131000000D03*
%TD*%
D18*
%TO.P,C3,1*%
%TO.N,+3.3V*%
X102000000Y-111962500D03*
%TO.P,C3,2*%
%TO.N,GND*%
X102000000Y-114037500D03*
%TD*%
%TO.P,C2,1*%
%TO.N,+3.3V*%
X110000000Y-124462500D03*
%TO.P,C2,2*%
%TO.N,GND*%
X110000000Y-126537500D03*
%TD*%
D19*
%TO.P,C1,1*%
%TO.N,+5V*%
X118000000Y-128037500D03*
%TO.P,C1,2*%
%TO.N,GND*%
X118000000Y-125962500D03*
%TD*%
D20*
%TO.N,Net-(U1-PC3)*%
X112538465Y-114465374D03*
%TO.N,+3.3V*%
X110500000Y-116000000D03*
%TO.N,IO13*%
X107500000Y-115500000D03*
%TO.N,IO12*%
X108000000Y-114500000D03*
%TO.N,IO9*%
X110037251Y-111962749D03*
%TO.N,IO7*%
X108000000Y-112000000D03*
%TO.N,IO6*%
X109012299Y-112987701D03*
%TO.N,IO3*%
X107046147Y-107674500D03*
%TO.N,IO2*%
X108500000Y-108000000D03*
%TO.N,Net-(D1-A)*%
X116000000Y-112500000D03*
%TO.N,Net-(U1-PC0)*%
X116000000Y-114500000D03*
%TO.N,GND*%
X110500000Y-117000000D03*
X103500000Y-113500000D03*
X111500000Y-125500000D03*
%TO.N,+5V*%
X107500000Y-128000000D03*
%TO.N,GND*%
X119000000Y-126500000D03*
%TO.N,IO4*%
X117500000Y-124500000D03*
%TO.N,IO5*%
X116500000Y-125000000D03*
%TO.N,RST*%
X104500000Y-123000000D03*
%TD*%
D21*
%TO.N,IO10*%
X114250000Y-116500000D02*
X115661701Y-116500000D01*
X117175000Y-108675000D02*
X114075000Y-105575000D01*
X114075000Y-103075000D02*
X113000000Y-102000000D01*
X115661701Y-116500000D02*
X117175000Y-114986701D01*
X117175000Y-114986701D02*
X117175000Y-108675000D01*
X114075000Y-105575000D02*
X114075000Y-103075000D01*
%TO.N,IO11*%
X114250000Y-115700000D02*
X115825305Y-115700000D01*
X115825305Y-115700000D02*
X116725000Y-114800305D01*
X116725000Y-114800305D02*
X116725000Y-108861396D01*
X116725000Y-108861396D02*
X113000000Y-105136396D01*
X113000000Y-105136396D02*
X113000000Y-104000000D01*
%TO.N,Net-(U1-PC3)*%
X112800000Y-113700000D02*
X112538465Y-113961535D01*
X112538465Y-113961535D02*
X112538465Y-114465374D01*
%TO.N,+3.3V*%
X109600000Y-115000000D02*
X109600000Y-116000000D01*
X109600000Y-116000000D02*
X109600000Y-118750000D01*
X110500000Y-116000000D02*
X109600000Y-116000000D01*
%TO.N,IO13*%
X107500000Y-115500000D02*
X106900000Y-114900000D01*
X106900000Y-114900000D02*
X105750000Y-114900000D01*
%TO.N,IO12*%
X107600000Y-114100000D02*
X108000000Y-114500000D01*
X105750000Y-114100000D02*
X107600000Y-114100000D01*
%TO.N,IO8*%
X114250000Y-111700000D02*
X114250000Y-109975000D01*
X114250000Y-109975000D02*
X110075000Y-105800000D01*
X110075000Y-105800000D02*
X110075000Y-102925000D01*
X110075000Y-102925000D02*
X111000000Y-102000000D01*
%TO.N,IO9*%
X109600000Y-111525498D02*
X110037251Y-111962749D01*
X109600000Y-110250000D02*
X109600000Y-111525498D01*
%TO.N,IO7*%
X108000000Y-112000000D02*
X109049903Y-112000000D01*
X109049903Y-112000000D02*
X112000000Y-114950097D01*
X112000000Y-114950097D02*
X112000000Y-118750000D01*
%TO.N,+3.3V*%
X105750000Y-112500000D02*
X107100000Y-112500000D01*
X107100000Y-112500000D02*
X109600000Y-115000000D01*
%TO.N,IO6*%
X111225000Y-115200402D02*
X109012299Y-112987701D01*
X111225000Y-118725000D02*
X111225000Y-115200402D01*
X111200000Y-118750000D02*
X111225000Y-118725000D01*
%TO.N,IO3*%
X108800000Y-109428353D02*
X107046147Y-107674500D01*
X108800000Y-110250000D02*
X108800000Y-109428353D01*
%TO.N,IO2*%
X110400000Y-110250000D02*
X110400000Y-109200000D01*
X110400000Y-109200000D02*
X109200000Y-108000000D01*
X109200000Y-108000000D02*
X108500000Y-108000000D01*
%TO.N,IO1*%
X111200000Y-110250000D02*
X111200000Y-109200000D01*
X111200000Y-109200000D02*
X108950000Y-106950000D01*
X108950000Y-106950000D02*
X106813604Y-106950000D01*
X106813604Y-106950000D02*
X105000000Y-105136396D01*
X105000000Y-105136396D02*
X105000000Y-104000000D01*
%TO.N,IO0*%
X109300000Y-106500000D02*
X107000000Y-106500000D01*
X112000000Y-110250000D02*
X112000000Y-109200000D01*
X112000000Y-109200000D02*
X109300000Y-106500000D01*
X107000000Y-106500000D02*
X105925000Y-105425000D01*
X105925000Y-102925000D02*
X105000000Y-102000000D01*
X105925000Y-105425000D02*
X105925000Y-102925000D01*
%TO.N,Net-(D1-A)*%
X114250000Y-112500000D02*
X116000000Y-112500000D01*
%TO.N,Net-(U1-PC0)*%
X116000000Y-114500000D02*
X116000000Y-114000000D01*
X116000000Y-114000000D02*
X115300000Y-113300000D01*
X115300000Y-113300000D02*
X114250000Y-113300000D01*
%TO.N,Net-(U1-PC3)*%
X112800000Y-113700000D02*
X112800000Y-110250000D01*
%TO.N,+3.3V*%
X103000000Y-104000000D02*
X102000000Y-105000000D01*
X102000000Y-105000000D02*
X102000000Y-111962500D01*
%TO.N,GND*%
X110400000Y-117100000D02*
X110500000Y-117000000D01*
X110400000Y-118750000D02*
X110400000Y-117100000D01*
X103500000Y-113500000D02*
X103700000Y-113300000D01*
X102000000Y-114037500D02*
X102962500Y-114037500D01*
X102962500Y-114037500D02*
X103500000Y-113500000D01*
X103700000Y-113300000D02*
X105750000Y-113300000D01*
X111500000Y-125500000D02*
X114000000Y-125500000D01*
X114000000Y-125500000D02*
X114500000Y-126000000D01*
%TO.N,+5V*%
X113550000Y-128000000D02*
X107500000Y-128000000D01*
X113550000Y-128550000D02*
X113550000Y-128000000D01*
X113550000Y-128000000D02*
X113550000Y-126637500D01*
%TO.N,IO5*%
X112800000Y-118750000D02*
X113750000Y-118750000D01*
X113750000Y-118750000D02*
X116500000Y-121500000D01*
%TO.N,IO4*%
X114250000Y-117300000D02*
X114250000Y-117750000D01*
X114250000Y-117750000D02*
X117500000Y-121000000D01*
X117500000Y-121000000D02*
X117500000Y-124500000D01*
%TO.N,GND*%
X118462500Y-125962500D02*
X119000000Y-126500000D01*
X118000000Y-125962500D02*
X118462500Y-125962500D01*
X114850000Y-125650000D02*
X116124695Y-125650000D01*
X116124695Y-125650000D02*
X116437195Y-125962500D01*
X116437195Y-125962500D02*
X118000000Y-125962500D01*
%TO.N,IO5*%
X116500000Y-125000000D02*
X116500000Y-121500000D01*
%TO.N,RST*%
X104500000Y-123000000D02*
X108000000Y-119500000D01*
X108000000Y-119500000D02*
X108000000Y-118750000D01*
%TO.N,UPDI*%
X104500000Y-132500000D02*
X104500000Y-126000000D01*
X104500000Y-126000000D02*
X108800000Y-121700000D01*
X108800000Y-121700000D02*
X108800000Y-118750000D01*
%TO.N,+3.3V*%
X106000000Y-132500000D02*
X106000000Y-126500000D01*
X106000000Y-126500000D02*
X108037500Y-124462500D01*
X108037500Y-124462500D02*
X110000000Y-124462500D01*
%TO.N,UPDI*%
X111000000Y-133000000D02*
X110310000Y-133690000D01*
X104500000Y-133000000D02*
X104500000Y-132500000D01*
X110310000Y-133690000D02*
X105190000Y-133690000D01*
X105190000Y-133690000D02*
X104500000Y-133000000D01*
%TO.N,GND*%
X110000000Y-126537500D02*
X110462500Y-126537500D01*
X110462500Y-126537500D02*
X111350000Y-125650000D01*
X111350000Y-125650000D02*
X111500000Y-125500000D01*
X114500000Y-126637500D02*
X114500000Y-126000000D01*
X114500000Y-126000000D02*
X114850000Y-125650000D01*
%TO.N,+3.3V*%
X105750000Y-112500000D02*
X102537500Y-112500000D01*
X102537500Y-112500000D02*
X102000000Y-111962500D01*
X110000000Y-124462500D02*
X109600000Y-124062500D01*
X109600000Y-124062500D02*
X109600000Y-118750000D01*
X110000000Y-124462500D02*
X113450000Y-124462500D01*
X113450000Y-124462500D02*
X113550000Y-124362500D01*
%TO.N,+5V*%
X117000000Y-129037500D02*
X114037500Y-129037500D01*
X114037500Y-129037500D02*
X113550000Y-128550000D01*
X117000000Y-131000000D02*
X117000000Y-129037500D01*
X117000000Y-129037500D02*
X118000000Y-128037500D01*
%TD*%
M02*
