%TF.GenerationSoftware,KiCad,Pcbnew,7.0.6*%
%TF.CreationDate,2023-08-01T20:56:41-04:00*%
%TF.ProjectId,mcumod-am8,6d63756d-6f64-42d6-916d-382e6b696361,rev?*%
%TF.SameCoordinates,Original*%
%TF.FileFunction,Legend,Top*%
%TF.FilePolarity,Positive*%
%FSLAX46Y46*%
G04 Gerber Fmt 4.6, Leading zero omitted, Abs format (unit mm)*
G04 Created by KiCad (PCBNEW 7.0.6) date 2023-08-01 20:56:41*
%MOMM*%
%LPD*%
G01*
G04 APERTURE LIST*
%ADD10C,0.200000*%
%ADD11C,0.150000*%
%ADD12C,0.120000*%
G04 APERTURE END LIST*
D10*
X117757219Y-122130326D02*
X116757219Y-122130326D01*
X116757219Y-122130326D02*
X117471504Y-121796993D01*
X117471504Y-121796993D02*
X116757219Y-121463660D01*
X116757219Y-121463660D02*
X117757219Y-121463660D01*
X117661980Y-120416041D02*
X117709600Y-120463660D01*
X117709600Y-120463660D02*
X117757219Y-120606517D01*
X117757219Y-120606517D02*
X117757219Y-120701755D01*
X117757219Y-120701755D02*
X117709600Y-120844612D01*
X117709600Y-120844612D02*
X117614361Y-120939850D01*
X117614361Y-120939850D02*
X117519123Y-120987469D01*
X117519123Y-120987469D02*
X117328647Y-121035088D01*
X117328647Y-121035088D02*
X117185790Y-121035088D01*
X117185790Y-121035088D02*
X116995314Y-120987469D01*
X116995314Y-120987469D02*
X116900076Y-120939850D01*
X116900076Y-120939850D02*
X116804838Y-120844612D01*
X116804838Y-120844612D02*
X116757219Y-120701755D01*
X116757219Y-120701755D02*
X116757219Y-120606517D01*
X116757219Y-120606517D02*
X116804838Y-120463660D01*
X116804838Y-120463660D02*
X116852457Y-120416041D01*
X116757219Y-119987469D02*
X117566742Y-119987469D01*
X117566742Y-119987469D02*
X117661980Y-119939850D01*
X117661980Y-119939850D02*
X117709600Y-119892231D01*
X117709600Y-119892231D02*
X117757219Y-119796993D01*
X117757219Y-119796993D02*
X117757219Y-119606517D01*
X117757219Y-119606517D02*
X117709600Y-119511279D01*
X117709600Y-119511279D02*
X117661980Y-119463660D01*
X117661980Y-119463660D02*
X117566742Y-119416041D01*
X117566742Y-119416041D02*
X116757219Y-119416041D01*
X117757219Y-118939850D02*
X116757219Y-118939850D01*
X116757219Y-118939850D02*
X117471504Y-118606517D01*
X117471504Y-118606517D02*
X116757219Y-118273184D01*
X116757219Y-118273184D02*
X117757219Y-118273184D01*
X116757219Y-117606517D02*
X116757219Y-117416041D01*
X116757219Y-117416041D02*
X116804838Y-117320803D01*
X116804838Y-117320803D02*
X116900076Y-117225565D01*
X116900076Y-117225565D02*
X117090552Y-117177946D01*
X117090552Y-117177946D02*
X117423885Y-117177946D01*
X117423885Y-117177946D02*
X117614361Y-117225565D01*
X117614361Y-117225565D02*
X117709600Y-117320803D01*
X117709600Y-117320803D02*
X117757219Y-117416041D01*
X117757219Y-117416041D02*
X117757219Y-117606517D01*
X117757219Y-117606517D02*
X117709600Y-117701755D01*
X117709600Y-117701755D02*
X117614361Y-117796993D01*
X117614361Y-117796993D02*
X117423885Y-117844612D01*
X117423885Y-117844612D02*
X117090552Y-117844612D01*
X117090552Y-117844612D02*
X116900076Y-117796993D01*
X116900076Y-117796993D02*
X116804838Y-117701755D01*
X116804838Y-117701755D02*
X116757219Y-117606517D01*
X117757219Y-116749374D02*
X116757219Y-116749374D01*
X116757219Y-116749374D02*
X116757219Y-116511279D01*
X116757219Y-116511279D02*
X116804838Y-116368422D01*
X116804838Y-116368422D02*
X116900076Y-116273184D01*
X116900076Y-116273184D02*
X116995314Y-116225565D01*
X116995314Y-116225565D02*
X117185790Y-116177946D01*
X117185790Y-116177946D02*
X117328647Y-116177946D01*
X117328647Y-116177946D02*
X117519123Y-116225565D01*
X117519123Y-116225565D02*
X117614361Y-116273184D01*
X117614361Y-116273184D02*
X117709600Y-116368422D01*
X117709600Y-116368422D02*
X117757219Y-116511279D01*
X117757219Y-116511279D02*
X117757219Y-116749374D01*
X119081504Y-122177945D02*
X119081504Y-121701755D01*
X119367219Y-122273183D02*
X118367219Y-121939850D01*
X118367219Y-121939850D02*
X119367219Y-121606517D01*
X118367219Y-121416040D02*
X119367219Y-121082707D01*
X119367219Y-121082707D02*
X118367219Y-120749374D01*
X119367219Y-119844612D02*
X118891028Y-120177945D01*
X119367219Y-120416040D02*
X118367219Y-120416040D01*
X118367219Y-120416040D02*
X118367219Y-120035088D01*
X118367219Y-120035088D02*
X118414838Y-119939850D01*
X118414838Y-119939850D02*
X118462457Y-119892231D01*
X118462457Y-119892231D02*
X118557695Y-119844612D01*
X118557695Y-119844612D02*
X118700552Y-119844612D01*
X118700552Y-119844612D02*
X118795790Y-119892231D01*
X118795790Y-119892231D02*
X118843409Y-119939850D01*
X118843409Y-119939850D02*
X118891028Y-120035088D01*
X118891028Y-120035088D02*
X118891028Y-120416040D01*
X119367219Y-118654135D02*
X118700552Y-118654135D01*
X118795790Y-118654135D02*
X118748171Y-118606516D01*
X118748171Y-118606516D02*
X118700552Y-118511278D01*
X118700552Y-118511278D02*
X118700552Y-118368421D01*
X118700552Y-118368421D02*
X118748171Y-118273183D01*
X118748171Y-118273183D02*
X118843409Y-118225564D01*
X118843409Y-118225564D02*
X119367219Y-118225564D01*
X118843409Y-118225564D02*
X118748171Y-118177945D01*
X118748171Y-118177945D02*
X118700552Y-118082707D01*
X118700552Y-118082707D02*
X118700552Y-117939850D01*
X118700552Y-117939850D02*
X118748171Y-117844611D01*
X118748171Y-117844611D02*
X118843409Y-117796992D01*
X118843409Y-117796992D02*
X119367219Y-117796992D01*
X119319600Y-116939850D02*
X119367219Y-117035088D01*
X119367219Y-117035088D02*
X119367219Y-117225564D01*
X119367219Y-117225564D02*
X119319600Y-117320802D01*
X119319600Y-117320802D02*
X119224361Y-117368421D01*
X119224361Y-117368421D02*
X118843409Y-117368421D01*
X118843409Y-117368421D02*
X118748171Y-117320802D01*
X118748171Y-117320802D02*
X118700552Y-117225564D01*
X118700552Y-117225564D02*
X118700552Y-117035088D01*
X118700552Y-117035088D02*
X118748171Y-116939850D01*
X118748171Y-116939850D02*
X118843409Y-116892231D01*
X118843409Y-116892231D02*
X118938647Y-116892231D01*
X118938647Y-116892231D02*
X119033885Y-117368421D01*
X118700552Y-116035088D02*
X119510076Y-116035088D01*
X119510076Y-116035088D02*
X119605314Y-116082707D01*
X119605314Y-116082707D02*
X119652933Y-116130326D01*
X119652933Y-116130326D02*
X119700552Y-116225564D01*
X119700552Y-116225564D02*
X119700552Y-116368421D01*
X119700552Y-116368421D02*
X119652933Y-116463659D01*
X119319600Y-116035088D02*
X119367219Y-116130326D01*
X119367219Y-116130326D02*
X119367219Y-116320802D01*
X119367219Y-116320802D02*
X119319600Y-116416040D01*
X119319600Y-116416040D02*
X119271980Y-116463659D01*
X119271980Y-116463659D02*
X119176742Y-116511278D01*
X119176742Y-116511278D02*
X118891028Y-116511278D01*
X118891028Y-116511278D02*
X118795790Y-116463659D01*
X118795790Y-116463659D02*
X118748171Y-116416040D01*
X118748171Y-116416040D02*
X118700552Y-116320802D01*
X118700552Y-116320802D02*
X118700552Y-116130326D01*
X118700552Y-116130326D02*
X118748171Y-116035088D01*
X119367219Y-115130326D02*
X118843409Y-115130326D01*
X118843409Y-115130326D02*
X118748171Y-115177945D01*
X118748171Y-115177945D02*
X118700552Y-115273183D01*
X118700552Y-115273183D02*
X118700552Y-115463659D01*
X118700552Y-115463659D02*
X118748171Y-115558897D01*
X119319600Y-115130326D02*
X119367219Y-115225564D01*
X119367219Y-115225564D02*
X119367219Y-115463659D01*
X119367219Y-115463659D02*
X119319600Y-115558897D01*
X119319600Y-115558897D02*
X119224361Y-115606516D01*
X119224361Y-115606516D02*
X119129123Y-115606516D01*
X119129123Y-115606516D02*
X119033885Y-115558897D01*
X119033885Y-115558897D02*
X118986266Y-115463659D01*
X118986266Y-115463659D02*
X118986266Y-115225564D01*
X118986266Y-115225564D02*
X118938647Y-115130326D01*
X118367219Y-113701754D02*
X118367219Y-113606516D01*
X118367219Y-113606516D02*
X118414838Y-113511278D01*
X118414838Y-113511278D02*
X118462457Y-113463659D01*
X118462457Y-113463659D02*
X118557695Y-113416040D01*
X118557695Y-113416040D02*
X118748171Y-113368421D01*
X118748171Y-113368421D02*
X118986266Y-113368421D01*
X118986266Y-113368421D02*
X119176742Y-113416040D01*
X119176742Y-113416040D02*
X119271980Y-113463659D01*
X119271980Y-113463659D02*
X119319600Y-113511278D01*
X119319600Y-113511278D02*
X119367219Y-113606516D01*
X119367219Y-113606516D02*
X119367219Y-113701754D01*
X119367219Y-113701754D02*
X119319600Y-113796992D01*
X119319600Y-113796992D02*
X119271980Y-113844611D01*
X119271980Y-113844611D02*
X119176742Y-113892230D01*
X119176742Y-113892230D02*
X118986266Y-113939849D01*
X118986266Y-113939849D02*
X118748171Y-113939849D01*
X118748171Y-113939849D02*
X118557695Y-113892230D01*
X118557695Y-113892230D02*
X118462457Y-113844611D01*
X118462457Y-113844611D02*
X118414838Y-113796992D01*
X118414838Y-113796992D02*
X118367219Y-113701754D01*
X118795790Y-112796992D02*
X118748171Y-112892230D01*
X118748171Y-112892230D02*
X118700552Y-112939849D01*
X118700552Y-112939849D02*
X118605314Y-112987468D01*
X118605314Y-112987468D02*
X118557695Y-112987468D01*
X118557695Y-112987468D02*
X118462457Y-112939849D01*
X118462457Y-112939849D02*
X118414838Y-112892230D01*
X118414838Y-112892230D02*
X118367219Y-112796992D01*
X118367219Y-112796992D02*
X118367219Y-112606516D01*
X118367219Y-112606516D02*
X118414838Y-112511278D01*
X118414838Y-112511278D02*
X118462457Y-112463659D01*
X118462457Y-112463659D02*
X118557695Y-112416040D01*
X118557695Y-112416040D02*
X118605314Y-112416040D01*
X118605314Y-112416040D02*
X118700552Y-112463659D01*
X118700552Y-112463659D02*
X118748171Y-112511278D01*
X118748171Y-112511278D02*
X118795790Y-112606516D01*
X118795790Y-112606516D02*
X118795790Y-112796992D01*
X118795790Y-112796992D02*
X118843409Y-112892230D01*
X118843409Y-112892230D02*
X118891028Y-112939849D01*
X118891028Y-112939849D02*
X118986266Y-112987468D01*
X118986266Y-112987468D02*
X119176742Y-112987468D01*
X119176742Y-112987468D02*
X119271980Y-112939849D01*
X119271980Y-112939849D02*
X119319600Y-112892230D01*
X119319600Y-112892230D02*
X119367219Y-112796992D01*
X119367219Y-112796992D02*
X119367219Y-112606516D01*
X119367219Y-112606516D02*
X119319600Y-112511278D01*
X119319600Y-112511278D02*
X119271980Y-112463659D01*
X119271980Y-112463659D02*
X119176742Y-112416040D01*
X119176742Y-112416040D02*
X118986266Y-112416040D01*
X118986266Y-112416040D02*
X118891028Y-112463659D01*
X118891028Y-112463659D02*
X118843409Y-112511278D01*
X118843409Y-112511278D02*
X118795790Y-112606516D01*
D11*
X113187030Y-106759819D02*
X113187030Y-105759819D01*
X113758458Y-106759819D02*
X113329887Y-106188390D01*
X113758458Y-105759819D02*
X113187030Y-106331247D01*
X114758458Y-106664580D02*
X114710839Y-106712200D01*
X114710839Y-106712200D02*
X114567982Y-106759819D01*
X114567982Y-106759819D02*
X114472744Y-106759819D01*
X114472744Y-106759819D02*
X114329887Y-106712200D01*
X114329887Y-106712200D02*
X114234649Y-106616961D01*
X114234649Y-106616961D02*
X114187030Y-106521723D01*
X114187030Y-106521723D02*
X114139411Y-106331247D01*
X114139411Y-106331247D02*
X114139411Y-106188390D01*
X114139411Y-106188390D02*
X114187030Y-105997914D01*
X114187030Y-105997914D02*
X114234649Y-105902676D01*
X114234649Y-105902676D02*
X114329887Y-105807438D01*
X114329887Y-105807438D02*
X114472744Y-105759819D01*
X114472744Y-105759819D02*
X114567982Y-105759819D01*
X114567982Y-105759819D02*
X114710839Y-105807438D01*
X114710839Y-105807438D02*
X114758458Y-105855057D01*
X115139411Y-105855057D02*
X115187030Y-105807438D01*
X115187030Y-105807438D02*
X115282268Y-105759819D01*
X115282268Y-105759819D02*
X115520363Y-105759819D01*
X115520363Y-105759819D02*
X115615601Y-105807438D01*
X115615601Y-105807438D02*
X115663220Y-105855057D01*
X115663220Y-105855057D02*
X115710839Y-105950295D01*
X115710839Y-105950295D02*
X115710839Y-106045533D01*
X115710839Y-106045533D02*
X115663220Y-106188390D01*
X115663220Y-106188390D02*
X115091792Y-106759819D01*
X115091792Y-106759819D02*
X115710839Y-106759819D01*
X116044173Y-105759819D02*
X116710839Y-105759819D01*
X116710839Y-105759819D02*
X116044173Y-106759819D01*
X116044173Y-106759819D02*
X116710839Y-106759819D01*
X117615601Y-105807438D02*
X117520363Y-105759819D01*
X117520363Y-105759819D02*
X117377506Y-105759819D01*
X117377506Y-105759819D02*
X117234649Y-105807438D01*
X117234649Y-105807438D02*
X117139411Y-105902676D01*
X117139411Y-105902676D02*
X117091792Y-105997914D01*
X117091792Y-105997914D02*
X117044173Y-106188390D01*
X117044173Y-106188390D02*
X117044173Y-106331247D01*
X117044173Y-106331247D02*
X117091792Y-106521723D01*
X117091792Y-106521723D02*
X117139411Y-106616961D01*
X117139411Y-106616961D02*
X117234649Y-106712200D01*
X117234649Y-106712200D02*
X117377506Y-106759819D01*
X117377506Y-106759819D02*
X117472744Y-106759819D01*
X117472744Y-106759819D02*
X117615601Y-106712200D01*
X117615601Y-106712200D02*
X117663220Y-106664580D01*
X117663220Y-106664580D02*
X117663220Y-106331247D01*
X117663220Y-106331247D02*
X117472744Y-106331247D01*
X118091792Y-105759819D02*
X118091792Y-106569342D01*
X118091792Y-106569342D02*
X118139411Y-106664580D01*
X118139411Y-106664580D02*
X118187030Y-106712200D01*
X118187030Y-106712200D02*
X118282268Y-106759819D01*
X118282268Y-106759819D02*
X118472744Y-106759819D01*
X118472744Y-106759819D02*
X118567982Y-106712200D01*
X118567982Y-106712200D02*
X118615601Y-106664580D01*
X118615601Y-106664580D02*
X118663220Y-106569342D01*
X118663220Y-106569342D02*
X118663220Y-105759819D01*
X111567982Y-108369819D02*
X111567982Y-107703152D01*
X111567982Y-107893628D02*
X111615601Y-107798390D01*
X111615601Y-107798390D02*
X111663220Y-107750771D01*
X111663220Y-107750771D02*
X111758458Y-107703152D01*
X111758458Y-107703152D02*
X111853696Y-107703152D01*
X112710839Y-108369819D02*
X112139411Y-108369819D01*
X112425125Y-108369819D02*
X112425125Y-107369819D01*
X112425125Y-107369819D02*
X112329887Y-107512676D01*
X112329887Y-107512676D02*
X112234649Y-107607914D01*
X112234649Y-107607914D02*
X112139411Y-107655533D01*
X113139411Y-108274580D02*
X113187030Y-108322200D01*
X113187030Y-108322200D02*
X113139411Y-108369819D01*
X113139411Y-108369819D02*
X113091792Y-108322200D01*
X113091792Y-108322200D02*
X113139411Y-108274580D01*
X113139411Y-108274580D02*
X113139411Y-108369819D01*
X113806077Y-107369819D02*
X113901315Y-107369819D01*
X113901315Y-107369819D02*
X113996553Y-107417438D01*
X113996553Y-107417438D02*
X114044172Y-107465057D01*
X114044172Y-107465057D02*
X114091791Y-107560295D01*
X114091791Y-107560295D02*
X114139410Y-107750771D01*
X114139410Y-107750771D02*
X114139410Y-107988866D01*
X114139410Y-107988866D02*
X114091791Y-108179342D01*
X114091791Y-108179342D02*
X114044172Y-108274580D01*
X114044172Y-108274580D02*
X113996553Y-108322200D01*
X113996553Y-108322200D02*
X113901315Y-108369819D01*
X113901315Y-108369819D02*
X113806077Y-108369819D01*
X113806077Y-108369819D02*
X113710839Y-108322200D01*
X113710839Y-108322200D02*
X113663220Y-108274580D01*
X113663220Y-108274580D02*
X113615601Y-108179342D01*
X113615601Y-108179342D02*
X113567982Y-107988866D01*
X113567982Y-107988866D02*
X113567982Y-107750771D01*
X113567982Y-107750771D02*
X113615601Y-107560295D01*
X113615601Y-107560295D02*
X113663220Y-107465057D01*
X113663220Y-107465057D02*
X113710839Y-107417438D01*
X113710839Y-107417438D02*
X113806077Y-107369819D01*
X115282268Y-107465057D02*
X115329887Y-107417438D01*
X115329887Y-107417438D02*
X115425125Y-107369819D01*
X115425125Y-107369819D02*
X115663220Y-107369819D01*
X115663220Y-107369819D02*
X115758458Y-107417438D01*
X115758458Y-107417438D02*
X115806077Y-107465057D01*
X115806077Y-107465057D02*
X115853696Y-107560295D01*
X115853696Y-107560295D02*
X115853696Y-107655533D01*
X115853696Y-107655533D02*
X115806077Y-107798390D01*
X115806077Y-107798390D02*
X115234649Y-108369819D01*
X115234649Y-108369819D02*
X115853696Y-108369819D01*
X116472744Y-107369819D02*
X116567982Y-107369819D01*
X116567982Y-107369819D02*
X116663220Y-107417438D01*
X116663220Y-107417438D02*
X116710839Y-107465057D01*
X116710839Y-107465057D02*
X116758458Y-107560295D01*
X116758458Y-107560295D02*
X116806077Y-107750771D01*
X116806077Y-107750771D02*
X116806077Y-107988866D01*
X116806077Y-107988866D02*
X116758458Y-108179342D01*
X116758458Y-108179342D02*
X116710839Y-108274580D01*
X116710839Y-108274580D02*
X116663220Y-108322200D01*
X116663220Y-108322200D02*
X116567982Y-108369819D01*
X116567982Y-108369819D02*
X116472744Y-108369819D01*
X116472744Y-108369819D02*
X116377506Y-108322200D01*
X116377506Y-108322200D02*
X116329887Y-108274580D01*
X116329887Y-108274580D02*
X116282268Y-108179342D01*
X116282268Y-108179342D02*
X116234649Y-107988866D01*
X116234649Y-107988866D02*
X116234649Y-107750771D01*
X116234649Y-107750771D02*
X116282268Y-107560295D01*
X116282268Y-107560295D02*
X116329887Y-107465057D01*
X116329887Y-107465057D02*
X116377506Y-107417438D01*
X116377506Y-107417438D02*
X116472744Y-107369819D01*
X117187030Y-107465057D02*
X117234649Y-107417438D01*
X117234649Y-107417438D02*
X117329887Y-107369819D01*
X117329887Y-107369819D02*
X117567982Y-107369819D01*
X117567982Y-107369819D02*
X117663220Y-107417438D01*
X117663220Y-107417438D02*
X117710839Y-107465057D01*
X117710839Y-107465057D02*
X117758458Y-107560295D01*
X117758458Y-107560295D02*
X117758458Y-107655533D01*
X117758458Y-107655533D02*
X117710839Y-107798390D01*
X117710839Y-107798390D02*
X117139411Y-108369819D01*
X117139411Y-108369819D02*
X117758458Y-108369819D01*
X118091792Y-107369819D02*
X118710839Y-107369819D01*
X118710839Y-107369819D02*
X118377506Y-107750771D01*
X118377506Y-107750771D02*
X118520363Y-107750771D01*
X118520363Y-107750771D02*
X118615601Y-107798390D01*
X118615601Y-107798390D02*
X118663220Y-107846009D01*
X118663220Y-107846009D02*
X118710839Y-107941247D01*
X118710839Y-107941247D02*
X118710839Y-108179342D01*
X118710839Y-108179342D02*
X118663220Y-108274580D01*
X118663220Y-108274580D02*
X118615601Y-108322200D01*
X118615601Y-108322200D02*
X118520363Y-108369819D01*
X118520363Y-108369819D02*
X118234649Y-108369819D01*
X118234649Y-108369819D02*
X118139411Y-108322200D01*
X118139411Y-108322200D02*
X118091792Y-108274580D01*
X112738095Y-121954819D02*
X112738095Y-122764342D01*
X112738095Y-122764342D02*
X112785714Y-122859580D01*
X112785714Y-122859580D02*
X112833333Y-122907200D01*
X112833333Y-122907200D02*
X112928571Y-122954819D01*
X112928571Y-122954819D02*
X113119047Y-122954819D01*
X113119047Y-122954819D02*
X113214285Y-122907200D01*
X113214285Y-122907200D02*
X113261904Y-122859580D01*
X113261904Y-122859580D02*
X113309523Y-122764342D01*
X113309523Y-122764342D02*
X113309523Y-121954819D01*
X113738095Y-122050057D02*
X113785714Y-122002438D01*
X113785714Y-122002438D02*
X113880952Y-121954819D01*
X113880952Y-121954819D02*
X114119047Y-121954819D01*
X114119047Y-121954819D02*
X114214285Y-122002438D01*
X114214285Y-122002438D02*
X114261904Y-122050057D01*
X114261904Y-122050057D02*
X114309523Y-122145295D01*
X114309523Y-122145295D02*
X114309523Y-122240533D01*
X114309523Y-122240533D02*
X114261904Y-122383390D01*
X114261904Y-122383390D02*
X113690476Y-122954819D01*
X113690476Y-122954819D02*
X114309523Y-122954819D01*
X109238095Y-120004819D02*
X109238095Y-120814342D01*
X109238095Y-120814342D02*
X109285714Y-120909580D01*
X109285714Y-120909580D02*
X109333333Y-120957200D01*
X109333333Y-120957200D02*
X109428571Y-121004819D01*
X109428571Y-121004819D02*
X109619047Y-121004819D01*
X109619047Y-121004819D02*
X109714285Y-120957200D01*
X109714285Y-120957200D02*
X109761904Y-120909580D01*
X109761904Y-120909580D02*
X109809523Y-120814342D01*
X109809523Y-120814342D02*
X109809523Y-120004819D01*
X110809523Y-121004819D02*
X110238095Y-121004819D01*
X110523809Y-121004819D02*
X110523809Y-120004819D01*
X110523809Y-120004819D02*
X110428571Y-120147676D01*
X110428571Y-120147676D02*
X110333333Y-120242914D01*
X110333333Y-120242914D02*
X110238095Y-120290533D01*
X105166666Y-128454819D02*
X105166666Y-129169104D01*
X105166666Y-129169104D02*
X105119047Y-129311961D01*
X105119047Y-129311961D02*
X105023809Y-129407200D01*
X105023809Y-129407200D02*
X104880952Y-129454819D01*
X104880952Y-129454819D02*
X104785714Y-129454819D01*
X105595238Y-128550057D02*
X105642857Y-128502438D01*
X105642857Y-128502438D02*
X105738095Y-128454819D01*
X105738095Y-128454819D02*
X105976190Y-128454819D01*
X105976190Y-128454819D02*
X106071428Y-128502438D01*
X106071428Y-128502438D02*
X106119047Y-128550057D01*
X106119047Y-128550057D02*
X106166666Y-128645295D01*
X106166666Y-128645295D02*
X106166666Y-128740533D01*
X106166666Y-128740533D02*
X106119047Y-128883390D01*
X106119047Y-128883390D02*
X105547619Y-129454819D01*
X105547619Y-129454819D02*
X106166666Y-129454819D01*
X102666666Y-106454819D02*
X102666666Y-107169104D01*
X102666666Y-107169104D02*
X102619047Y-107311961D01*
X102619047Y-107311961D02*
X102523809Y-107407200D01*
X102523809Y-107407200D02*
X102380952Y-107454819D01*
X102380952Y-107454819D02*
X102285714Y-107454819D01*
X103666666Y-107454819D02*
X103095238Y-107454819D01*
X103380952Y-107454819D02*
X103380952Y-106454819D01*
X103380952Y-106454819D02*
X103285714Y-106597676D01*
X103285714Y-106597676D02*
X103190476Y-106692914D01*
X103190476Y-106692914D02*
X103095238Y-106740533D01*
X101833333Y-116359580D02*
X101785714Y-116407200D01*
X101785714Y-116407200D02*
X101642857Y-116454819D01*
X101642857Y-116454819D02*
X101547619Y-116454819D01*
X101547619Y-116454819D02*
X101404762Y-116407200D01*
X101404762Y-116407200D02*
X101309524Y-116311961D01*
X101309524Y-116311961D02*
X101261905Y-116216723D01*
X101261905Y-116216723D02*
X101214286Y-116026247D01*
X101214286Y-116026247D02*
X101214286Y-115883390D01*
X101214286Y-115883390D02*
X101261905Y-115692914D01*
X101261905Y-115692914D02*
X101309524Y-115597676D01*
X101309524Y-115597676D02*
X101404762Y-115502438D01*
X101404762Y-115502438D02*
X101547619Y-115454819D01*
X101547619Y-115454819D02*
X101642857Y-115454819D01*
X101642857Y-115454819D02*
X101785714Y-115502438D01*
X101785714Y-115502438D02*
X101833333Y-115550057D01*
X102166667Y-115454819D02*
X102785714Y-115454819D01*
X102785714Y-115454819D02*
X102452381Y-115835771D01*
X102452381Y-115835771D02*
X102595238Y-115835771D01*
X102595238Y-115835771D02*
X102690476Y-115883390D01*
X102690476Y-115883390D02*
X102738095Y-115931009D01*
X102738095Y-115931009D02*
X102785714Y-116026247D01*
X102785714Y-116026247D02*
X102785714Y-116264342D01*
X102785714Y-116264342D02*
X102738095Y-116359580D01*
X102738095Y-116359580D02*
X102690476Y-116407200D01*
X102690476Y-116407200D02*
X102595238Y-116454819D01*
X102595238Y-116454819D02*
X102309524Y-116454819D01*
X102309524Y-116454819D02*
X102214286Y-116407200D01*
X102214286Y-116407200D02*
X102166667Y-116359580D01*
X107833333Y-126359580D02*
X107785714Y-126407200D01*
X107785714Y-126407200D02*
X107642857Y-126454819D01*
X107642857Y-126454819D02*
X107547619Y-126454819D01*
X107547619Y-126454819D02*
X107404762Y-126407200D01*
X107404762Y-126407200D02*
X107309524Y-126311961D01*
X107309524Y-126311961D02*
X107261905Y-126216723D01*
X107261905Y-126216723D02*
X107214286Y-126026247D01*
X107214286Y-126026247D02*
X107214286Y-125883390D01*
X107214286Y-125883390D02*
X107261905Y-125692914D01*
X107261905Y-125692914D02*
X107309524Y-125597676D01*
X107309524Y-125597676D02*
X107404762Y-125502438D01*
X107404762Y-125502438D02*
X107547619Y-125454819D01*
X107547619Y-125454819D02*
X107642857Y-125454819D01*
X107642857Y-125454819D02*
X107785714Y-125502438D01*
X107785714Y-125502438D02*
X107833333Y-125550057D01*
X108214286Y-125550057D02*
X108261905Y-125502438D01*
X108261905Y-125502438D02*
X108357143Y-125454819D01*
X108357143Y-125454819D02*
X108595238Y-125454819D01*
X108595238Y-125454819D02*
X108690476Y-125502438D01*
X108690476Y-125502438D02*
X108738095Y-125550057D01*
X108738095Y-125550057D02*
X108785714Y-125645295D01*
X108785714Y-125645295D02*
X108785714Y-125740533D01*
X108785714Y-125740533D02*
X108738095Y-125883390D01*
X108738095Y-125883390D02*
X108166667Y-126454819D01*
X108166667Y-126454819D02*
X108785714Y-126454819D01*
X118333333Y-124859580D02*
X118285714Y-124907200D01*
X118285714Y-124907200D02*
X118142857Y-124954819D01*
X118142857Y-124954819D02*
X118047619Y-124954819D01*
X118047619Y-124954819D02*
X117904762Y-124907200D01*
X117904762Y-124907200D02*
X117809524Y-124811961D01*
X117809524Y-124811961D02*
X117761905Y-124716723D01*
X117761905Y-124716723D02*
X117714286Y-124526247D01*
X117714286Y-124526247D02*
X117714286Y-124383390D01*
X117714286Y-124383390D02*
X117761905Y-124192914D01*
X117761905Y-124192914D02*
X117809524Y-124097676D01*
X117809524Y-124097676D02*
X117904762Y-124002438D01*
X117904762Y-124002438D02*
X118047619Y-123954819D01*
X118047619Y-123954819D02*
X118142857Y-123954819D01*
X118142857Y-123954819D02*
X118285714Y-124002438D01*
X118285714Y-124002438D02*
X118333333Y-124050057D01*
X119285714Y-124954819D02*
X118714286Y-124954819D01*
X119000000Y-124954819D02*
X119000000Y-123954819D01*
X119000000Y-123954819D02*
X118904762Y-124097676D01*
X118904762Y-124097676D02*
X118809524Y-124192914D01*
X118809524Y-124192914D02*
X118714286Y-124240533D01*
D12*
%TO.C,U2*%
X116060000Y-125500000D02*
X116060000Y-126300000D01*
X116060000Y-125500000D02*
X116060000Y-124700000D01*
X112940000Y-125500000D02*
X112940000Y-127300000D01*
X112940000Y-125500000D02*
X112940000Y-124700000D01*
D11*
%TO.C,U1*%
X113625000Y-117900000D02*
X115050000Y-117900000D01*
X113625000Y-110875000D02*
X113625000Y-111200000D01*
X106375000Y-110875000D02*
X106700000Y-110875000D01*
X106375000Y-110875000D02*
X106375000Y-111200000D01*
X106375000Y-118125000D02*
X106375000Y-117800000D01*
X106375000Y-118125000D02*
X106700000Y-118125000D01*
X113625000Y-118125000D02*
X113300000Y-118125000D01*
X113625000Y-118125000D02*
X113625000Y-117900000D01*
X113625000Y-110875000D02*
X113300000Y-110875000D01*
D12*
%TO.C,J2*%
X107610000Y-133910000D02*
X107610000Y-130190000D01*
X107610000Y-130190000D02*
X101390000Y-130190000D01*
X101390000Y-130190000D02*
X101390000Y-133910000D01*
X101390000Y-133910000D02*
X107610000Y-133910000D01*
X106300000Y-133910000D02*
X106300000Y-134110000D01*
X106300000Y-134110000D02*
X106600000Y-134110000D01*
X106600000Y-134110000D02*
X106600000Y-133910000D01*
X106300000Y-134010000D02*
X106600000Y-134010000D01*
X107210000Y-133510000D02*
X107210000Y-130590000D01*
X107210000Y-130590000D02*
X101790000Y-130590000D01*
X101790000Y-130590000D02*
X101790000Y-133510000D01*
X101790000Y-133510000D02*
X107210000Y-133510000D01*
X107610000Y-133000000D02*
X107210000Y-133000000D01*
X107610000Y-132000000D02*
X107210000Y-132000000D01*
X101390000Y-133000000D02*
X101790000Y-133000000D01*
X101390000Y-132000000D02*
X101790000Y-132000000D01*
X105350000Y-130590000D02*
X105350000Y-130990000D01*
X105350000Y-130990000D02*
X105150000Y-130990000D01*
X105150000Y-130990000D02*
X105150000Y-130590000D01*
X105250000Y-130590000D02*
X105250000Y-130990000D01*
X103850000Y-130590000D02*
X103850000Y-130990000D01*
X103850000Y-130990000D02*
X103650000Y-130990000D01*
X103650000Y-130990000D02*
X103650000Y-130590000D01*
X103750000Y-130590000D02*
X103750000Y-130990000D01*
X107010000Y-134110000D02*
X107810000Y-134110000D01*
X107810000Y-134110000D02*
X107810000Y-133310000D01*
%TO.C,J1*%
X100590000Y-100090000D02*
X102500000Y-100090000D01*
X100590000Y-102000000D02*
X100590000Y-100090000D01*
X100900000Y-100400000D02*
X100900000Y-105600000D01*
X100900000Y-103000000D02*
X101300000Y-103000000D01*
X100900000Y-104000000D02*
X101300000Y-104000000D01*
X100900000Y-105600000D02*
X119100000Y-105600000D01*
X101300000Y-100800000D02*
X103500000Y-100800000D01*
X101300000Y-103000000D02*
X101300000Y-100800000D01*
X101300000Y-104000000D02*
X101300000Y-105200000D01*
X101300000Y-105200000D02*
X118700000Y-105200000D01*
X103500000Y-100800000D02*
X103500000Y-100400000D01*
X104500000Y-100400000D02*
X104500000Y-100800000D01*
X104500000Y-100800000D02*
X115500000Y-100800000D01*
X108900000Y-129400000D02*
X108900000Y-134600000D01*
X108900000Y-132000000D02*
X109300000Y-132000000D01*
X108900000Y-134600000D02*
X119100000Y-134600000D01*
X109300000Y-129800000D02*
X109300000Y-131000000D01*
X109300000Y-131000000D02*
X108900000Y-131000000D01*
X109300000Y-132000000D02*
X109300000Y-134200000D01*
X109300000Y-134200000D02*
X111500000Y-134200000D01*
X111500000Y-134200000D02*
X111500000Y-134600000D01*
X112500000Y-134200000D02*
X112500000Y-134600000D01*
X115500000Y-100800000D02*
X115500000Y-100400000D01*
X115500000Y-134200000D02*
X112500000Y-134200000D01*
X115500000Y-134600000D02*
X115500000Y-134200000D01*
X116500000Y-100800000D02*
X116500000Y-100400000D01*
X116500000Y-134200000D02*
X116500000Y-134600000D01*
X118700000Y-100800000D02*
X116500000Y-100800000D01*
X118700000Y-103000000D02*
X118700000Y-100800000D01*
X118700000Y-104000000D02*
X119100000Y-104000000D01*
X118700000Y-105200000D02*
X118700000Y-104000000D01*
X118700000Y-129800000D02*
X109300000Y-129800000D01*
X118700000Y-131000000D02*
X118700000Y-129800000D01*
X118700000Y-132000000D02*
X118700000Y-134200000D01*
X118700000Y-134200000D02*
X116500000Y-134200000D01*
X119100000Y-100400000D02*
X100900000Y-100400000D01*
X119100000Y-103000000D02*
X118700000Y-103000000D01*
X119100000Y-105600000D02*
X119100000Y-100400000D01*
X119100000Y-129400000D02*
X108900000Y-129400000D01*
X119100000Y-131000000D02*
X118700000Y-131000000D01*
X119100000Y-132000000D02*
X118700000Y-132000000D01*
X119100000Y-134600000D02*
X119100000Y-129400000D01*
X119410000Y-133000000D02*
X119410000Y-134910000D01*
X119410000Y-134910000D02*
X117500000Y-134910000D01*
X100000000Y-100000000D02*
X120000000Y-100000000D01*
X120000000Y-100000000D02*
X120000000Y-135000000D01*
X120000000Y-135000000D02*
X100000000Y-135000000D01*
X100000000Y-135000000D02*
X100000000Y-100000000D01*
%TO.C,C3*%
X102735000Y-112738748D02*
X102735000Y-113261252D01*
X101265000Y-112738748D02*
X101265000Y-113261252D01*
%TO.C,C2*%
X110735000Y-125238748D02*
X110735000Y-125761252D01*
X109265000Y-125238748D02*
X109265000Y-125761252D01*
%TO.C,C1*%
X117265000Y-127261252D02*
X117265000Y-126738748D01*
X118735000Y-127261252D02*
X118735000Y-126738748D01*
%TD*%
M02*
