M48
; DRILL file {KiCad 7.0.2} date Wed Jul 26 10:45:48 2023
; FORMAT={-:-/ absolute / inch / decimal}
; #@! TF.CreationDate,2023-07-26T10:45:48-04:00
; #@! TF.GenerationSoftware,Kicad,Pcbnew,7.0.2
; #@! TF.FileFunction,Plated,1,2,PTH
FMAT,2
INCH
; #@! TA.AperFunction,Plated,PTH,ViaDrill
T1C0.0157
; #@! TA.AperFunction,Plated,PTH,ComponentDrill
T2C0.0295
; #@! TA.AperFunction,Plated,PTH,ComponentDrill
T3C0.0354
; #@! TA.AperFunction,Plated,PTH,ComponentDrill
T4C0.1260
%
G90
G05
T1
X4.5669Y-3.7008
X4.626Y-3.878
T2
X4.1929Y-2.9134
X4.1929Y-2.9634
X4.1929Y-3.0134
X4.2126Y-2.3228
X4.2126Y-2.4016
X4.2126Y-3.5039
X4.2126Y-3.5827
X4.4094Y-1.9685
X4.4094Y-2.3622
X4.4094Y-2.7559
X4.4094Y-3.1496
X4.4094Y-3.5433
X4.4094Y-4.1339
X4.4882Y-1.9685
X4.4882Y-2.3622
X4.4882Y-2.7559
X4.4882Y-3.1496
X4.4882Y-3.5433
X4.4882Y-4.1339
X4.5669Y-1.9685
X4.5669Y-2.3622
X4.5669Y-2.7559
X4.5669Y-3.1496
X4.5669Y-3.5433
X4.5669Y-4.1339
X4.6457Y-1.9685
X4.6457Y-2.3622
X4.6457Y-2.7559
X4.6457Y-3.1496
X4.6457Y-3.5433
X4.6457Y-4.1339
T3
X4.1929Y-1.9291
X4.1929Y-2.0291
X4.1929Y-4.1037
X4.1929Y-4.2037
T4
X4.4488Y-1.7323
X4.4488Y-3.8583
T0
M30
