%TF.GenerationSoftware,KiCad,Pcbnew,7.0.2*%
%TF.CreationDate,2023-07-26T10:45:45-04:00*%
%TF.ProjectId,i2csplitter,69326373-706c-4697-9474-65722e6b6963,rev?*%
%TF.SameCoordinates,Original*%
%TF.FileFunction,Copper,L1,Top*%
%TF.FilePolarity,Positive*%
%FSLAX46Y46*%
G04 Gerber Fmt 4.6, Leading zero omitted, Abs format (unit mm)*
G04 Created by KiCad (PCBNEW 7.0.2) date 2023-07-26 10:45:45*
%MOMM*%
%LPD*%
G01*
G04 APERTURE LIST*
G04 Aperture macros list*
%AMRoundRect*
0 Rectangle with rounded corners*
0 $1 Rounding radius*
0 $2 $3 $4 $5 $6 $7 $8 $9 X,Y pos of 4 corners*
0 Add a 4 corners polygon primitive as box body*
4,1,4,$2,$3,$4,$5,$6,$7,$8,$9,$2,$3,0*
0 Add four circle primitives for the rounded corners*
1,1,$1+$1,$2,$3*
1,1,$1+$1,$4,$5*
1,1,$1+$1,$6,$7*
1,1,$1+$1,$8,$9*
0 Add four rect primitives between the rounded corners*
20,1,$1+$1,$2,$3,$4,$5,0*
20,1,$1+$1,$4,$5,$6,$7,0*
20,1,$1+$1,$6,$7,$8,$9,0*
20,1,$1+$1,$8,$9,$2,$3,0*%
G04 Aperture macros list end*
%TA.AperFunction,ComponentPad*%
%ADD10RoundRect,0.250000X-0.350000X-0.625000X0.350000X-0.625000X0.350000X0.625000X-0.350000X0.625000X0*%
%TD*%
%TA.AperFunction,ComponentPad*%
%ADD11O,1.200000X1.750000*%
%TD*%
%TA.AperFunction,SMDPad,CuDef*%
%ADD12RoundRect,0.250000X-0.350000X-0.450000X0.350000X-0.450000X0.350000X0.450000X-0.350000X0.450000X0*%
%TD*%
%TA.AperFunction,ComponentPad*%
%ADD13R,1.800000X1.800000*%
%TD*%
%TA.AperFunction,ComponentPad*%
%ADD14C,1.800000*%
%TD*%
%TA.AperFunction,ComponentPad*%
%ADD15R,1.500000X1.050000*%
%TD*%
%TA.AperFunction,ComponentPad*%
%ADD16O,1.500000X1.050000*%
%TD*%
%TA.AperFunction,ComponentPad*%
%ADD17C,5.600000*%
%TD*%
%TA.AperFunction,SMDPad,CuDef*%
%ADD18RoundRect,0.250000X-0.450000X0.350000X-0.450000X-0.350000X0.450000X-0.350000X0.450000X0.350000X0*%
%TD*%
%TA.AperFunction,ComponentPad*%
%ADD19RoundRect,0.250000X-0.625000X0.350000X-0.625000X-0.350000X0.625000X-0.350000X0.625000X0.350000X0*%
%TD*%
%TA.AperFunction,ComponentPad*%
%ADD20O,1.750000X1.200000*%
%TD*%
%TA.AperFunction,SMDPad,CuDef*%
%ADD21RoundRect,0.250000X0.350000X0.450000X-0.350000X0.450000X-0.350000X-0.450000X0.350000X-0.450000X0*%
%TD*%
%TA.AperFunction,SMDPad,CuDef*%
%ADD22R,1.500000X1.000000*%
%TD*%
%TA.AperFunction,SMDPad,CuDef*%
%ADD23RoundRect,0.250000X0.450000X-0.350000X0.450000X0.350000X-0.450000X0.350000X-0.450000X-0.350000X0*%
%TD*%
%TA.AperFunction,SMDPad,CuDef*%
%ADD24R,1.000000X1.500000*%
%TD*%
%TA.AperFunction,ViaPad*%
%ADD25C,0.800000*%
%TD*%
%TA.AperFunction,Conductor*%
%ADD26C,0.250000*%
%TD*%
G04 APERTURE END LIST*
%TA.AperFunction,EtchedComponent*%
%TO.C,JP1*%
G36*
X108300000Y-66250000D02*
G01*
X107700000Y-66250000D01*
X107700000Y-65750000D01*
X108300000Y-65750000D01*
X108300000Y-66250000D01*
G37*
%TD.AperFunction*%
%TA.AperFunction,EtchedComponent*%
%TO.C,JP2*%
G36*
X107100000Y-97800000D02*
G01*
X106600000Y-97800000D01*
X106600000Y-97200000D01*
X107100000Y-97200000D01*
X107100000Y-97800000D01*
G37*
%TD.AperFunction*%
%TD*%
D10*
%TO.P,J4,1,Pin_1*%
%TO.N,SCL*%
X112000000Y-70000000D03*
D11*
%TO.P,J4,2,Pin_2*%
%TO.N,SDA*%
X114000000Y-70000000D03*
%TO.P,J4,3,Pin_3*%
%TO.N,+3.3V*%
X116000000Y-70000000D03*
%TO.P,J4,4,Pin_4*%
%TO.N,GND*%
X118000000Y-70000000D03*
%TD*%
D12*
%TO.P,R5,1*%
%TO.N,SDA*%
X117500000Y-97000000D03*
%TO.P,R5,2*%
%TO.N,VCC*%
X119500000Y-97000000D03*
%TD*%
D13*
%TO.P,D1,1,K*%
%TO.N,Net-(D1-K)*%
X106500000Y-106775000D03*
D14*
%TO.P,D1,2,A*%
%TO.N,VCC*%
X106500000Y-104235000D03*
%TD*%
D15*
%TO.P,Q1,1,E*%
%TO.N,VCC*%
X106500000Y-76540000D03*
D16*
%TO.P,Q1,2,B*%
%TO.N,Net-(Q1-B)*%
X106500000Y-75270000D03*
%TO.P,Q1,3,C*%
%TO.N,Net-(D2-A)*%
X106500000Y-74000000D03*
%TD*%
D10*
%TO.P,J5,1,Pin_1*%
%TO.N,SCL*%
X112000000Y-60000000D03*
D11*
%TO.P,J5,2,Pin_2*%
%TO.N,SDA*%
X114000000Y-60000000D03*
%TO.P,J5,3,Pin_3*%
%TO.N,Net-(J5-Pin_3)*%
X116000000Y-60000000D03*
%TO.P,J5,4,Pin_4*%
%TO.N,GND*%
X118000000Y-60000000D03*
%TD*%
D17*
%TO.P,H2,1,1*%
%TO.N,GND*%
X113000000Y-44000000D03*
%TD*%
D18*
%TO.P,R3,1*%
%TO.N,GND*%
X106500000Y-44000000D03*
%TO.P,R3,2*%
%TO.N,Net-(D2-K)*%
X106500000Y-46000000D03*
%TD*%
D17*
%TO.P,H1,1,1*%
%TO.N,GND*%
X113000000Y-98000000D03*
%TD*%
D19*
%TO.P,J8,1,Pin_1*%
%TO.N,Net-(J5-Pin_3)*%
X107000000Y-59000000D03*
D20*
%TO.P,J8,2,Pin_2*%
%TO.N,GND*%
X107000000Y-61000000D03*
%TD*%
D13*
%TO.P,D2,1,K*%
%TO.N,Net-(D2-K)*%
X106500000Y-49000000D03*
D14*
%TO.P,D2,2,A*%
%TO.N,Net-(D2-A)*%
X106500000Y-51540000D03*
%TD*%
D12*
%TO.P,R4,1*%
%TO.N,SCL*%
X117500000Y-95000000D03*
%TO.P,R4,2*%
%TO.N,VCC*%
X119500000Y-95000000D03*
%TD*%
D10*
%TO.P,J2,1,Pin_1*%
%TO.N,SCL*%
X112000000Y-90000000D03*
D11*
%TO.P,J2,2,Pin_2*%
%TO.N,SDA*%
X114000000Y-90000000D03*
%TO.P,J2,3,Pin_3*%
%TO.N,+3.3V*%
X116000000Y-90000000D03*
%TO.P,J2,4,Pin_4*%
%TO.N,GND*%
X118000000Y-90000000D03*
%TD*%
D19*
%TO.P,J7,1,Pin_1*%
%TO.N,+3.3V*%
X107000000Y-89000000D03*
D20*
%TO.P,J7,2,Pin_2*%
%TO.N,GND*%
X107000000Y-91000000D03*
%TD*%
D21*
%TO.P,R1,1*%
%TO.N,Net-(D1-K)*%
X119500000Y-100500000D03*
%TO.P,R1,2*%
%TO.N,GND*%
X117500000Y-100500000D03*
%TD*%
D22*
%TO.P,JP1,1,A*%
%TO.N,+3.3V*%
X108000000Y-66650000D03*
%TO.P,JP1,2,B*%
%TO.N,Net-(J5-Pin_3)*%
X108000000Y-65350000D03*
%TD*%
D23*
%TO.P,R2,1*%
%TO.N,SCL*%
X106500000Y-82500000D03*
%TO.P,R2,2*%
%TO.N,Net-(Q1-B)*%
X106500000Y-80500000D03*
%TD*%
D10*
%TO.P,J3,1,Pin_1*%
%TO.N,SCL*%
X112000000Y-80000000D03*
D11*
%TO.P,J3,2,Pin_2*%
%TO.N,SDA*%
X114000000Y-80000000D03*
%TO.P,J3,3,Pin_3*%
%TO.N,+3.3V*%
X116000000Y-80000000D03*
%TO.P,J3,4,Pin_4*%
%TO.N,GND*%
X118000000Y-80000000D03*
%TD*%
D10*
%TO.P,J1,1,Pin_1*%
%TO.N,SCL*%
X112000000Y-105000000D03*
D11*
%TO.P,J1,2,Pin_2*%
%TO.N,SDA*%
X114000000Y-105000000D03*
%TO.P,J1,3,Pin_3*%
%TO.N,VCC*%
X116000000Y-105000000D03*
%TO.P,J1,4,Pin_4*%
%TO.N,GND*%
X118000000Y-105000000D03*
%TD*%
D10*
%TO.P,J6,1,Pin_1*%
%TO.N,SCL*%
X112000000Y-50000000D03*
D11*
%TO.P,J6,2,Pin_2*%
%TO.N,SDA*%
X114000000Y-50000000D03*
%TO.P,J6,3,Pin_3*%
%TO.N,Net-(J5-Pin_3)*%
X116000000Y-50000000D03*
%TO.P,J6,4,Pin_4*%
%TO.N,GND*%
X118000000Y-50000000D03*
%TD*%
D24*
%TO.P,JP2,1,A*%
%TO.N,VCC*%
X106200000Y-97500000D03*
%TO.P,JP2,2,B*%
%TO.N,+3.3V*%
X107500000Y-97500000D03*
%TD*%
D25*
%TO.N,SCL*%
X116000000Y-94000000D03*
%TO.N,SDA*%
X117500000Y-98500000D03*
%TD*%
D26*
%TO.N,Net-(D2-A)*%
X105000000Y-72500000D02*
X105000000Y-53000000D01*
X106500000Y-74000000D02*
X105000000Y-72500000D01*
X105000000Y-53000000D02*
X105040000Y-53000000D01*
X105040000Y-53000000D02*
X106500000Y-51540000D01*
%TO.N,+3.3V*%
X108000000Y-66650000D02*
X114150000Y-66650000D01*
X114150000Y-66650000D02*
X116000000Y-68500000D01*
X116000000Y-68500000D02*
X116000000Y-70000000D01*
%TO.N,Net-(J5-Pin_3)*%
X107000000Y-59000000D02*
X108000000Y-59000000D01*
X108000000Y-59000000D02*
X108200000Y-59200000D01*
X108200000Y-59200000D02*
X108200000Y-65150000D01*
X108200000Y-65150000D02*
X108000000Y-65350000D01*
%TO.N,GND*%
X117500000Y-100500000D02*
X118000000Y-101000000D01*
X106500000Y-44000000D02*
X113000000Y-44000000D01*
X118000000Y-101000000D02*
X118000000Y-105000000D01*
%TO.N,SCL*%
X117000000Y-95000000D02*
X116000000Y-94000000D01*
X109500000Y-82500000D02*
X112000000Y-80000000D01*
X117500000Y-95000000D02*
X117000000Y-95000000D01*
X106500000Y-82500000D02*
X109500000Y-82500000D01*
%TO.N,SDA*%
X117500000Y-97000000D02*
X117500000Y-98500000D01*
%TO.N,VCC*%
X119500000Y-95000000D02*
X119500000Y-97000000D01*
X106000000Y-100000000D02*
X106000000Y-95000000D01*
X116000000Y-105000000D02*
X116000000Y-103000000D01*
X119500000Y-97525305D02*
X117800305Y-99225000D01*
X116000000Y-103000000D02*
X115000000Y-102000000D01*
X106000000Y-95000000D02*
X105000000Y-94000000D01*
X108000000Y-102735000D02*
X108000000Y-102000000D01*
X117800305Y-99225000D02*
X116775000Y-99225000D01*
X119500000Y-97000000D02*
X119500000Y-97525305D01*
X105000000Y-78040000D02*
X106500000Y-76540000D01*
X116775000Y-99225000D02*
X115000000Y-101000000D01*
X115000000Y-102000000D02*
X108000000Y-102000000D01*
X108000000Y-102000000D02*
X106000000Y-100000000D01*
X115000000Y-101000000D02*
X115000000Y-102000000D01*
X106500000Y-104235000D02*
X108000000Y-102735000D01*
X105000000Y-94000000D02*
X105000000Y-78040000D01*
%TO.N,+3.3V*%
X108500000Y-86000000D02*
X116000000Y-86000000D01*
X109000000Y-93500000D02*
X114500000Y-93500000D01*
X116000000Y-92000000D02*
X116000000Y-90000000D01*
X116000000Y-86000000D02*
X116000000Y-90000000D01*
X107500000Y-95000000D02*
X109000000Y-93500000D01*
X107000000Y-87500000D02*
X108500000Y-86000000D01*
X116000000Y-70000000D02*
X116000000Y-86000000D01*
X107500000Y-97500000D02*
X107500000Y-95000000D01*
X107000000Y-89000000D02*
X107000000Y-87500000D01*
X114500000Y-93500000D02*
X116000000Y-92000000D01*
%TO.N,Net-(J5-Pin_3)*%
X108500000Y-55500000D02*
X116000000Y-55500000D01*
X116000000Y-55500000D02*
X116000000Y-60000000D01*
X107000000Y-59000000D02*
X107000000Y-57000000D01*
X116000000Y-50000000D02*
X116000000Y-55500000D01*
X107000000Y-57000000D02*
X108500000Y-55500000D01*
%TO.N,Net-(D1-K)*%
X107000000Y-108500000D02*
X119000000Y-108500000D01*
X106500000Y-106775000D02*
X106500000Y-108000000D01*
X106500000Y-108000000D02*
X107000000Y-108500000D01*
X119500000Y-108000000D02*
X119500000Y-100500000D01*
X119000000Y-108500000D02*
X119500000Y-108000000D01*
%TO.N,Net-(D2-K)*%
X106500000Y-49000000D02*
X106500000Y-46000000D01*
%TO.N,Net-(Q1-B)*%
X107500000Y-75270000D02*
X106500000Y-75270000D01*
X106500000Y-80500000D02*
X108500000Y-78500000D01*
X108500000Y-78500000D02*
X108500000Y-76270000D01*
X108500000Y-76270000D02*
X107500000Y-75270000D01*
%TD*%
M02*
