%TF.GenerationSoftware,KiCad,Pcbnew,7.0.6*%
%TF.CreationDate,2023-08-24T17:15:50-04:00*%
%TF.ProjectId,mcumod-carrier-breakout,6d63756d-6f64-42d6-9361-72726965722d,rev?*%
%TF.SameCoordinates,Original*%
%TF.FileFunction,Soldermask,Bot*%
%TF.FilePolarity,Negative*%
%FSLAX46Y46*%
G04 Gerber Fmt 4.6, Leading zero omitted, Abs format (unit mm)*
G04 Created by KiCad (PCBNEW 7.0.6) date 2023-08-24 17:15:50*
%MOMM*%
%LPD*%
G01*
G04 APERTURE LIST*
G04 Aperture macros list*
%AMRoundRect*
0 Rectangle with rounded corners*
0 $1 Rounding radius*
0 $2 $3 $4 $5 $6 $7 $8 $9 X,Y pos of 4 corners*
0 Add a 4 corners polygon primitive as box body*
4,1,4,$2,$3,$4,$5,$6,$7,$8,$9,$2,$3,0*
0 Add four circle primitives for the rounded corners*
1,1,$1+$1,$2,$3*
1,1,$1+$1,$4,$5*
1,1,$1+$1,$6,$7*
1,1,$1+$1,$8,$9*
0 Add four rect primitives between the rounded corners*
20,1,$1+$1,$2,$3,$4,$5,0*
20,1,$1+$1,$4,$5,$6,$7,0*
20,1,$1+$1,$6,$7,$8,$9,0*
20,1,$1+$1,$8,$9,$2,$3,0*%
G04 Aperture macros list end*
%ADD10RoundRect,0.250000X-0.350000X-0.575000X0.350000X-0.575000X0.350000X0.575000X-0.350000X0.575000X0*%
%ADD11O,1.200000X1.650000*%
%ADD12C,5.600000*%
%ADD13RoundRect,0.250000X0.350000X0.575000X-0.350000X0.575000X-0.350000X-0.575000X0.350000X-0.575000X0*%
%ADD14R,1.700000X1.700000*%
%ADD15O,1.700000X1.700000*%
%ADD16R,1.600000X1.600000*%
%ADD17C,1.600000*%
%ADD18RoundRect,0.250000X-0.265000X-0.615000X0.265000X-0.615000X0.265000X0.615000X-0.265000X0.615000X0*%
%ADD19O,1.030000X1.730000*%
%ADD20RoundRect,0.250000X-0.350000X-0.625000X0.350000X-0.625000X0.350000X0.625000X-0.350000X0.625000X0*%
%ADD21O,1.200000X1.750000*%
G04 APERTURE END LIST*
D10*
%TO.C,J1*%
X103000000Y-52000000D03*
D11*
X103000000Y-54000000D03*
X105000000Y-52000000D03*
X105000000Y-54000000D03*
X107000000Y-52000000D03*
X107000000Y-54000000D03*
X109000000Y-52000000D03*
X109000000Y-54000000D03*
X111000000Y-52000000D03*
X111000000Y-54000000D03*
X113000000Y-52000000D03*
X113000000Y-54000000D03*
X115000000Y-52000000D03*
X115000000Y-54000000D03*
X117000000Y-52000000D03*
X117000000Y-54000000D03*
%TD*%
D12*
%TO.C,H1*%
X94000000Y-54000000D03*
%TD*%
D13*
%TO.C,J2*%
X117000000Y-83000000D03*
D11*
X117000000Y-81000000D03*
X115000000Y-83000000D03*
X115000000Y-81000000D03*
X113000000Y-83000000D03*
X113000000Y-81000000D03*
X111000000Y-83000000D03*
X111000000Y-81000000D03*
%TD*%
D12*
%TO.C,H2*%
X136000000Y-54000000D03*
%TD*%
D14*
%TO.C,J6*%
X123000000Y-66000000D03*
D15*
X123000000Y-63460000D03*
X125540000Y-66000000D03*
X125540000Y-63460000D03*
X128080000Y-66000000D03*
X128080000Y-63460000D03*
X130620000Y-66000000D03*
X130620000Y-63460000D03*
%TD*%
D16*
%TO.C,C2*%
X96000000Y-59794888D03*
D17*
X96000000Y-62294888D03*
%TD*%
D18*
%TO.C,J4*%
X125750000Y-81550000D03*
D19*
X127250000Y-81550000D03*
X128750000Y-81550000D03*
X130250000Y-81550000D03*
%TD*%
D20*
%TO.C,J5*%
X124000000Y-75000000D03*
D21*
X126000000Y-75000000D03*
X128000000Y-75000000D03*
X130000000Y-75000000D03*
%TD*%
D14*
%TO.C,J3*%
X137000000Y-59650000D03*
D15*
X137000000Y-62190000D03*
X137000000Y-64730000D03*
X137000000Y-67270000D03*
X137000000Y-69810000D03*
X137000000Y-72350000D03*
%TD*%
D12*
%TO.C,H4*%
X136000000Y-81000000D03*
%TD*%
%TO.C,H3*%
X94000000Y-81000000D03*
%TD*%
D14*
%TO.C,J7*%
X123000000Y-57000000D03*
D15*
X123000000Y-54460000D03*
X125540000Y-57000000D03*
X125540000Y-54460000D03*
X128080000Y-57000000D03*
X128080000Y-54460000D03*
X130620000Y-57000000D03*
X130620000Y-54460000D03*
%TD*%
M02*
