%TF.GenerationSoftware,KiCad,Pcbnew,7.0.6*%
%TF.CreationDate,2023-08-24T17:15:42-04:00*%
%TF.ProjectId,mcumod-carrier-breakout,6d63756d-6f64-42d6-9361-72726965722d,rev?*%
%TF.SameCoordinates,Original*%
%TF.FileFunction,Drillmap*%
%TF.FilePolarity,Positive*%
%FSLAX45Y45*%
G04 Gerber Fmt 4.5, Leading zero omitted, Abs format (unit mm)*
G04 Created by KiCad (PCBNEW 7.0.6) date 2023-08-24 17:15:42*
%MOMM*%
%LPD*%
G01*
G04 APERTURE LIST*
%ADD10C,0.100000*%
%ADD11C,0.200000*%
G04 APERTURE END LIST*
D10*
X9000000Y-5000000D02*
X14000000Y-5000000D01*
X14000000Y-8500000D01*
X9000000Y-8500000D01*
X9000000Y-5000000D01*
D11*
X9255777Y-8816484D02*
X9255777Y-8616484D01*
X9255777Y-8616484D02*
X9303396Y-8616484D01*
X9303396Y-8616484D02*
X9331967Y-8626008D01*
X9331967Y-8626008D02*
X9351015Y-8645055D01*
X9351015Y-8645055D02*
X9360539Y-8664103D01*
X9360539Y-8664103D02*
X9370063Y-8702198D01*
X9370063Y-8702198D02*
X9370063Y-8730770D01*
X9370063Y-8730770D02*
X9360539Y-8768865D01*
X9360539Y-8768865D02*
X9351015Y-8787912D01*
X9351015Y-8787912D02*
X9331967Y-8806960D01*
X9331967Y-8806960D02*
X9303396Y-8816484D01*
X9303396Y-8816484D02*
X9255777Y-8816484D01*
X9455777Y-8816484D02*
X9455777Y-8683150D01*
X9455777Y-8721246D02*
X9465301Y-8702198D01*
X9465301Y-8702198D02*
X9474824Y-8692674D01*
X9474824Y-8692674D02*
X9493872Y-8683150D01*
X9493872Y-8683150D02*
X9512920Y-8683150D01*
X9579586Y-8816484D02*
X9579586Y-8683150D01*
X9579586Y-8616484D02*
X9570063Y-8626008D01*
X9570063Y-8626008D02*
X9579586Y-8635531D01*
X9579586Y-8635531D02*
X9589110Y-8626008D01*
X9589110Y-8626008D02*
X9579586Y-8616484D01*
X9579586Y-8616484D02*
X9579586Y-8635531D01*
X9703396Y-8816484D02*
X9684348Y-8806960D01*
X9684348Y-8806960D02*
X9674824Y-8787912D01*
X9674824Y-8787912D02*
X9674824Y-8616484D01*
X9808158Y-8816484D02*
X9789110Y-8806960D01*
X9789110Y-8806960D02*
X9779586Y-8787912D01*
X9779586Y-8787912D02*
X9779586Y-8616484D01*
X10036729Y-8816484D02*
X10036729Y-8616484D01*
X10036729Y-8616484D02*
X10103396Y-8759341D01*
X10103396Y-8759341D02*
X10170063Y-8616484D01*
X10170063Y-8616484D02*
X10170063Y-8816484D01*
X10351015Y-8816484D02*
X10351015Y-8711722D01*
X10351015Y-8711722D02*
X10341491Y-8692674D01*
X10341491Y-8692674D02*
X10322444Y-8683150D01*
X10322444Y-8683150D02*
X10284348Y-8683150D01*
X10284348Y-8683150D02*
X10265301Y-8692674D01*
X10351015Y-8806960D02*
X10331967Y-8816484D01*
X10331967Y-8816484D02*
X10284348Y-8816484D01*
X10284348Y-8816484D02*
X10265301Y-8806960D01*
X10265301Y-8806960D02*
X10255777Y-8787912D01*
X10255777Y-8787912D02*
X10255777Y-8768865D01*
X10255777Y-8768865D02*
X10265301Y-8749817D01*
X10265301Y-8749817D02*
X10284348Y-8740293D01*
X10284348Y-8740293D02*
X10331967Y-8740293D01*
X10331967Y-8740293D02*
X10351015Y-8730770D01*
X10446253Y-8683150D02*
X10446253Y-8883150D01*
X10446253Y-8692674D02*
X10465301Y-8683150D01*
X10465301Y-8683150D02*
X10503396Y-8683150D01*
X10503396Y-8683150D02*
X10522444Y-8692674D01*
X10522444Y-8692674D02*
X10531967Y-8702198D01*
X10531967Y-8702198D02*
X10541491Y-8721246D01*
X10541491Y-8721246D02*
X10541491Y-8778389D01*
X10541491Y-8778389D02*
X10531967Y-8797436D01*
X10531967Y-8797436D02*
X10522444Y-8806960D01*
X10522444Y-8806960D02*
X10503396Y-8816484D01*
X10503396Y-8816484D02*
X10465301Y-8816484D01*
X10465301Y-8816484D02*
X10446253Y-8806960D01*
X10627205Y-8797436D02*
X10636729Y-8806960D01*
X10636729Y-8806960D02*
X10627205Y-8816484D01*
X10627205Y-8816484D02*
X10617682Y-8806960D01*
X10617682Y-8806960D02*
X10627205Y-8797436D01*
X10627205Y-8797436D02*
X10627205Y-8816484D01*
X10627205Y-8692674D02*
X10636729Y-8702198D01*
X10636729Y-8702198D02*
X10627205Y-8711722D01*
X10627205Y-8711722D02*
X10617682Y-8702198D01*
X10617682Y-8702198D02*
X10627205Y-8692674D01*
X10627205Y-8692674D02*
X10627205Y-8711722D01*
M02*
