M48
; DRILL file {KiCad 7.0.6} date Thu Aug 24 17:16:20 2023
; FORMAT={-:-/ absolute / inch / decimal}
; #@! TF.CreationDate,2023-08-24T17:16:20-04:00
; #@! TF.GenerationSoftware,Kicad,Pcbnew,7.0.6
; #@! TF.FileFunction,Plated,1,2,PTH
FMAT,2
INCH
; #@! TA.AperFunction,Plated,PTH,ViaDrill
T1C0.0157
; #@! TA.AperFunction,Plated,PTH,ComponentDrill
T2C0.0287
; #@! TA.AperFunction,Plated,PTH,ComponentDrill
T3C0.0295
; #@! TA.AperFunction,Plated,PTH,ComponentDrill
T4C0.0315
; #@! TA.AperFunction,Plated,PTH,ComponentDrill
T5C0.0335
; #@! TA.AperFunction,Plated,PTH,ComponentDrill
T6C0.0394
; #@! TA.AperFunction,Plated,PTH,ComponentDrill
T7C0.1260
%
G90
G05
T1
X4.0945Y-2.5197
X4.1535Y-2.5
X4.2126Y-2.6772
X4.252Y-2.6378
X4.4685Y-2.5
X4.5276Y-3.0315
X4.5669Y-3.0709
X4.626Y-2.7756
X4.6457Y-2.4409
X4.7638Y-3.0906
X4.8228Y-3.1299
X5.0984Y-2.3819
X5.1772Y-2.7756
T2
X4.9508Y-3.2106
X5.0098Y-3.2106
X5.0689Y-3.2106
X5.128Y-3.2106
T3
X4.8819Y-2.9528
X4.9606Y-2.9528
X5.0394Y-2.9528
X5.1181Y-2.9528
T4
X3.7795Y-2.3541
X3.7795Y-2.4526
T5
X4.0551Y-2.0472
X4.0551Y-2.126
X4.1339Y-2.0472
X4.1339Y-2.126
X4.2126Y-2.0472
X4.2126Y-2.126
X4.2913Y-2.0472
X4.2913Y-2.126
X4.3701Y-2.0472
X4.3701Y-2.126
X4.3701Y-3.189
X4.3701Y-3.2677
X4.4488Y-2.0472
X4.4488Y-2.126
X4.4488Y-3.189
X4.4488Y-3.2677
X4.5276Y-2.0472
X4.5276Y-2.126
X4.5276Y-3.189
X4.5276Y-3.2677
X4.6063Y-2.0472
X4.6063Y-2.126
X4.6063Y-3.189
X4.6063Y-3.2677
T6
X4.8425Y-2.1441
X4.8425Y-2.2441
X4.8425Y-2.4984
X4.8425Y-2.5984
X4.9425Y-2.1441
X4.9425Y-2.2441
X4.9425Y-2.4984
X4.9425Y-2.5984
X5.0425Y-2.1441
X5.0425Y-2.2441
X5.0425Y-2.4984
X5.0425Y-2.5984
X5.1425Y-2.1441
X5.1425Y-2.2441
X5.1425Y-2.4984
X5.1425Y-2.5984
X5.3937Y-2.3484
X5.3937Y-2.4484
X5.3937Y-2.5484
X5.3937Y-2.6484
X5.3937Y-2.7484
X5.3937Y-2.8484
T7
X3.7008Y-2.126
X3.7008Y-3.189
X5.3543Y-2.126
X5.3543Y-3.189
T0
M30
