%TF.GenerationSoftware,KiCad,Pcbnew,7.0.6*%
%TF.CreationDate,2023-08-24T15:39:13-04:00*%
%TF.ProjectId,miniald,6d696e69-616c-4642-9e6b-696361645f70,rev?*%
%TF.SameCoordinates,Original*%
%TF.FileFunction,Soldermask,Top*%
%TF.FilePolarity,Negative*%
%FSLAX46Y46*%
G04 Gerber Fmt 4.6, Leading zero omitted, Abs format (unit mm)*
G04 Created by KiCad (PCBNEW 7.0.6) date 2023-08-24 15:39:13*
%MOMM*%
%LPD*%
G01*
G04 APERTURE LIST*
G04 Aperture macros list*
%AMRoundRect*
0 Rectangle with rounded corners*
0 $1 Rounding radius*
0 $2 $3 $4 $5 $6 $7 $8 $9 X,Y pos of 4 corners*
0 Add a 4 corners polygon primitive as box body*
4,1,4,$2,$3,$4,$5,$6,$7,$8,$9,$2,$3,0*
0 Add four circle primitives for the rounded corners*
1,1,$1+$1,$2,$3*
1,1,$1+$1,$4,$5*
1,1,$1+$1,$6,$7*
1,1,$1+$1,$8,$9*
0 Add four rect primitives between the rounded corners*
20,1,$1+$1,$2,$3,$4,$5,0*
20,1,$1+$1,$4,$5,$6,$7,0*
20,1,$1+$1,$6,$7,$8,$9,0*
20,1,$1+$1,$8,$9,$2,$3,0*%
G04 Aperture macros list end*
%ADD10RoundRect,0.250000X-0.475000X0.337500X-0.475000X-0.337500X0.475000X-0.337500X0.475000X0.337500X0*%
%ADD11R,1.500000X1.500000*%
%ADD12C,1.500000*%
%ADD13RoundRect,0.250000X-0.350000X-0.625000X0.350000X-0.625000X0.350000X0.625000X-0.350000X0.625000X0*%
%ADD14O,1.200000X1.750000*%
%ADD15R,1.000000X1.500000*%
%ADD16C,5.500000*%
%ADD17RoundRect,0.250000X-0.337500X-0.475000X0.337500X-0.475000X0.337500X0.475000X-0.337500X0.475000X0*%
%ADD18R,3.000000X3.000000*%
%ADD19C,3.000000*%
%ADD20RoundRect,0.150000X0.150000X-0.512500X0.150000X0.512500X-0.150000X0.512500X-0.150000X-0.512500X0*%
%ADD21RoundRect,0.250000X-0.265000X-0.615000X0.265000X-0.615000X0.265000X0.615000X-0.265000X0.615000X0*%
%ADD22O,1.030000X1.730000*%
%ADD23RoundRect,0.150000X-0.150000X0.825000X-0.150000X-0.825000X0.150000X-0.825000X0.150000X0.825000X0*%
%ADD24RoundRect,0.150000X-0.825000X-0.150000X0.825000X-0.150000X0.825000X0.150000X-0.825000X0.150000X0*%
%ADD25RoundRect,0.250000X0.337500X0.475000X-0.337500X0.475000X-0.337500X-0.475000X0.337500X-0.475000X0*%
%ADD26R,1.700000X1.700000*%
%ADD27O,1.700000X1.700000*%
%ADD28R,1.500000X1.000000*%
G04 APERTURE END LIST*
D10*
%TO.C,C4*%
X116845000Y-56747500D03*
X116845000Y-58822500D03*
%TD*%
D11*
%TO.C,U4*%
X97155000Y-53615000D03*
D12*
X94615000Y-53615000D03*
X92075000Y-53615000D03*
%TD*%
D13*
%TO.C,J5*%
X104680000Y-62865000D03*
D14*
X106680000Y-62865000D03*
X108680000Y-62865000D03*
%TD*%
D15*
%TO.C,JP2*%
X90835000Y-62865000D03*
X89535000Y-62865000D03*
X88235000Y-62865000D03*
%TD*%
D16*
%TO.C,H1*%
X139700000Y-58420000D03*
%TD*%
D17*
%TO.C,C2*%
X101832500Y-53340000D03*
X103907500Y-53340000D03*
%TD*%
D18*
%TO.C,J2*%
X147320000Y-63500000D03*
D19*
X147320000Y-58420000D03*
X147320000Y-53340000D03*
%TD*%
D20*
%TO.C,U1*%
X96205000Y-59557500D03*
X97155000Y-59557500D03*
X98105000Y-59557500D03*
X98105000Y-57282500D03*
X96205000Y-57282500D03*
%TD*%
D18*
%TO.C,J1*%
X81280000Y-53340000D03*
D19*
X81280000Y-58420000D03*
%TD*%
D21*
%TO.C,J3*%
X79780000Y-63050000D03*
D22*
X81280000Y-63050000D03*
X82780000Y-63050000D03*
%TD*%
D13*
%TO.C,J6*%
X114935000Y-62865000D03*
D14*
X116935000Y-62865000D03*
X118935000Y-62865000D03*
X120935000Y-62865000D03*
%TD*%
D13*
%TO.C,J4*%
X94520000Y-62865000D03*
D14*
X96520000Y-62865000D03*
X98520000Y-62865000D03*
%TD*%
D16*
%TO.C,H2*%
X88900000Y-58420000D03*
%TD*%
D23*
%TO.C,U2*%
X114935000Y-54040000D03*
X113665000Y-54040000D03*
X112395000Y-54040000D03*
X111125000Y-54040000D03*
X109855000Y-54040000D03*
X108585000Y-54040000D03*
X107315000Y-54040000D03*
X107315000Y-58990000D03*
X108585000Y-58990000D03*
X109855000Y-58990000D03*
X111125000Y-58990000D03*
X112395000Y-58990000D03*
X113665000Y-58990000D03*
X114935000Y-58990000D03*
%TD*%
D24*
%TO.C,U3*%
X124525000Y-57785000D03*
X124525000Y-59055000D03*
X124525000Y-60325000D03*
X124525000Y-61595000D03*
X129475000Y-61595000D03*
X129475000Y-60325000D03*
X129475000Y-59055000D03*
X129475000Y-57785000D03*
%TD*%
D10*
%TO.C,C5*%
X93345000Y-57382500D03*
X93345000Y-59457500D03*
%TD*%
D25*
%TO.C,C1*%
X128672500Y-63500000D03*
X126597500Y-63500000D03*
%TD*%
D26*
%TO.C,R1*%
X121285000Y-53975000D03*
D27*
X118745000Y-53975000D03*
%TD*%
D28*
%TO.C,JP1*%
X99695000Y-52055000D03*
X99695000Y-53355000D03*
%TD*%
D26*
%TO.C,J7*%
X101600000Y-55880000D03*
D27*
X104140000Y-55880000D03*
X101600000Y-58420000D03*
X104140000Y-58420000D03*
%TD*%
M02*
