M48
; DRILL file {KiCad 7.0.6} date Thu Aug 24 15:39:15 2023
; FORMAT={-:-/ absolute / inch / decimal}
; #@! TF.CreationDate,2023-08-24T15:39:15-04:00
; #@! TF.GenerationSoftware,Kicad,Pcbnew,7.0.6
; #@! TF.FileFunction,Plated,1,2,PTH
FMAT,2
INCH
; #@! TA.AperFunction,Plated,PTH,ViaDrill
T1C0.0157
; #@! TA.AperFunction,Plated,PTH,ComponentDrill
T2C0.0287
; #@! TA.AperFunction,Plated,PTH,ComponentDrill
T3C0.0295
; #@! TA.AperFunction,Plated,PTH,ComponentDrill
T4C0.0315
; #@! TA.AperFunction,Plated,PTH,ComponentDrill
T5C0.0394
; #@! TA.AperFunction,Plated,PTH,ComponentDrill
T6C0.0598
; #@! TA.AperFunction,Plated,PTH,ComponentDrill
T7C0.1260
%
G90
G05
T1
X3.8Y-2.3965
X3.825Y-2.175
X4.0Y-2.475
X4.175Y-2.1
X4.175Y-2.3214
X4.225Y-2.2
X4.25Y-2.4
X4.2964Y-2.3964
X4.3Y-2.2
X4.375Y-2.45
X4.425Y-2.2286
X4.475Y-2.25
X4.65Y-2.3
X4.775Y-2.3464
X4.8036Y-2.375
X4.975Y-2.4
X5.025Y-2.25
X5.025Y-2.55
X5.05Y-2.1
T2
X3.1409Y-2.4823
X3.2Y-2.4823
X3.2591Y-2.4823
T3
X3.7213Y-2.475
X3.8Y-2.475
X3.8787Y-2.475
X4.1213Y-2.475
X4.2Y-2.475
X4.2787Y-2.475
X4.525Y-2.475
X4.6037Y-2.475
X4.6825Y-2.475
X4.7612Y-2.475
T4
X3.625Y-2.1108
X3.725Y-2.1108
X3.825Y-2.1108
T5
X4.0Y-2.2
X4.0Y-2.3
X4.1Y-2.2
X4.1Y-2.3
X4.675Y-2.125
X4.775Y-2.125
T6
X3.2Y-2.1
X3.2Y-2.3
X5.8Y-2.1
X5.8Y-2.3
X5.8Y-2.5
T7
X3.5Y-2.3
X5.5Y-2.3
T0
M30
