%TF.GenerationSoftware,KiCad,Pcbnew,7.0.6*%
%TF.CreationDate,2023-08-24T15:39:12-04:00*%
%TF.ProjectId,miniald,6d696e69-616c-4642-9e6b-696361645f70,rev?*%
%TF.SameCoordinates,Original*%
%TF.FileFunction,Copper,L1,Top*%
%TF.FilePolarity,Positive*%
%FSLAX46Y46*%
G04 Gerber Fmt 4.6, Leading zero omitted, Abs format (unit mm)*
G04 Created by KiCad (PCBNEW 7.0.6) date 2023-08-24 15:39:12*
%MOMM*%
%LPD*%
G01*
G04 APERTURE LIST*
G04 Aperture macros list*
%AMRoundRect*
0 Rectangle with rounded corners*
0 $1 Rounding radius*
0 $2 $3 $4 $5 $6 $7 $8 $9 X,Y pos of 4 corners*
0 Add a 4 corners polygon primitive as box body*
4,1,4,$2,$3,$4,$5,$6,$7,$8,$9,$2,$3,0*
0 Add four circle primitives for the rounded corners*
1,1,$1+$1,$2,$3*
1,1,$1+$1,$4,$5*
1,1,$1+$1,$6,$7*
1,1,$1+$1,$8,$9*
0 Add four rect primitives between the rounded corners*
20,1,$1+$1,$2,$3,$4,$5,0*
20,1,$1+$1,$4,$5,$6,$7,0*
20,1,$1+$1,$6,$7,$8,$9,0*
20,1,$1+$1,$8,$9,$2,$3,0*%
G04 Aperture macros list end*
%TA.AperFunction,SMDPad,CuDef*%
%ADD10RoundRect,0.250000X-0.475000X0.337500X-0.475000X-0.337500X0.475000X-0.337500X0.475000X0.337500X0*%
%TD*%
%TA.AperFunction,ComponentPad*%
%ADD11R,1.500000X1.500000*%
%TD*%
%TA.AperFunction,ComponentPad*%
%ADD12C,1.500000*%
%TD*%
%TA.AperFunction,ComponentPad*%
%ADD13RoundRect,0.250000X-0.350000X-0.625000X0.350000X-0.625000X0.350000X0.625000X-0.350000X0.625000X0*%
%TD*%
%TA.AperFunction,ComponentPad*%
%ADD14O,1.200000X1.750000*%
%TD*%
%TA.AperFunction,SMDPad,CuDef*%
%ADD15R,1.000000X1.500000*%
%TD*%
%TA.AperFunction,ComponentPad*%
%ADD16C,5.500000*%
%TD*%
%TA.AperFunction,SMDPad,CuDef*%
%ADD17RoundRect,0.250000X-0.337500X-0.475000X0.337500X-0.475000X0.337500X0.475000X-0.337500X0.475000X0*%
%TD*%
%TA.AperFunction,ComponentPad*%
%ADD18R,3.000000X3.000000*%
%TD*%
%TA.AperFunction,ComponentPad*%
%ADD19C,3.000000*%
%TD*%
%TA.AperFunction,SMDPad,CuDef*%
%ADD20RoundRect,0.150000X0.150000X-0.512500X0.150000X0.512500X-0.150000X0.512500X-0.150000X-0.512500X0*%
%TD*%
%TA.AperFunction,ComponentPad*%
%ADD21RoundRect,0.250000X-0.265000X-0.615000X0.265000X-0.615000X0.265000X0.615000X-0.265000X0.615000X0*%
%TD*%
%TA.AperFunction,ComponentPad*%
%ADD22O,1.030000X1.730000*%
%TD*%
%TA.AperFunction,SMDPad,CuDef*%
%ADD23RoundRect,0.150000X-0.150000X0.825000X-0.150000X-0.825000X0.150000X-0.825000X0.150000X0.825000X0*%
%TD*%
%TA.AperFunction,SMDPad,CuDef*%
%ADD24RoundRect,0.150000X-0.825000X-0.150000X0.825000X-0.150000X0.825000X0.150000X-0.825000X0.150000X0*%
%TD*%
%TA.AperFunction,SMDPad,CuDef*%
%ADD25RoundRect,0.250000X0.337500X0.475000X-0.337500X0.475000X-0.337500X-0.475000X0.337500X-0.475000X0*%
%TD*%
%TA.AperFunction,ComponentPad*%
%ADD26R,1.700000X1.700000*%
%TD*%
%TA.AperFunction,ComponentPad*%
%ADD27O,1.700000X1.700000*%
%TD*%
%TA.AperFunction,SMDPad,CuDef*%
%ADD28R,1.500000X1.000000*%
%TD*%
%TA.AperFunction,ViaPad*%
%ADD29C,0.800000*%
%TD*%
%TA.AperFunction,Conductor*%
%ADD30C,0.250000*%
%TD*%
%TA.AperFunction,Conductor*%
%ADD31C,0.254000*%
%TD*%
%TA.AperFunction,Conductor*%
%ADD32C,1.270000*%
%TD*%
%TA.AperFunction,Conductor*%
%ADD33C,1.016000*%
%TD*%
G04 APERTURE END LIST*
%TA.AperFunction,EtchedComponent*%
%TO.C,JP2*%
G36*
X90435000Y-63165000D02*
G01*
X89935000Y-63165000D01*
X89935000Y-62565000D01*
X90435000Y-62565000D01*
X90435000Y-63165000D01*
G37*
%TD.AperFunction*%
%TA.AperFunction,EtchedComponent*%
%TO.C,JP1*%
G36*
X99995000Y-52955000D02*
G01*
X99395000Y-52955000D01*
X99395000Y-52455000D01*
X99995000Y-52455000D01*
X99995000Y-52955000D01*
G37*
%TD.AperFunction*%
%TD*%
D10*
%TO.P,C4,1*%
%TO.N,+3.3V*%
X116845000Y-56747500D03*
%TO.P,C4,2*%
%TO.N,GND*%
X116845000Y-58822500D03*
%TD*%
D11*
%TO.P,U4,1,VO*%
%TO.N,+5V*%
X97155000Y-53615000D03*
D12*
%TO.P,U4,2,GND*%
%TO.N,GND*%
X94615000Y-53615000D03*
%TO.P,U4,3,VI*%
%TO.N,+BATT*%
X92075000Y-53615000D03*
%TD*%
D13*
%TO.P,J5,1,Pin_1*%
%TO.N,Net-(J4-Pin_1)*%
X104680000Y-62865000D03*
D14*
%TO.P,J5,2,Pin_2*%
%TO.N,Net-(J5-Pin_2)*%
X106680000Y-62865000D03*
%TO.P,J5,3,Pin_3*%
%TO.N,GND*%
X108680000Y-62865000D03*
%TD*%
D15*
%TO.P,JP2,1,A*%
%TO.N,+5V*%
X90835000Y-62865000D03*
%TO.P,JP2,2,C*%
%TO.N,Net-(J4-Pin_1)*%
X89535000Y-62865000D03*
%TO.P,JP2,3,B*%
%TO.N,+3.3V*%
X88235000Y-62865000D03*
%TD*%
D16*
%TO.P,H1,1,1*%
%TO.N,GND*%
X139700000Y-58420000D03*
%TD*%
D17*
%TO.P,C2,1*%
%TO.N,+5V*%
X101832500Y-53340000D03*
%TO.P,C2,2*%
%TO.N,GND*%
X103907500Y-53340000D03*
%TD*%
D18*
%TO.P,J2,1,Pin_1*%
%TO.N,Net-(J2-Pin_1)*%
X147320000Y-63500000D03*
D19*
%TO.P,J2,2,Pin_2*%
%TO.N,Net-(J2-Pin_2)*%
X147320000Y-58420000D03*
%TO.P,J2,3,Pin_3*%
%TO.N,+BATT*%
X147320000Y-53340000D03*
%TD*%
D20*
%TO.P,U1,1,VIN*%
%TO.N,+5V*%
X96205000Y-59557500D03*
%TO.P,U1,2,GND*%
%TO.N,GND*%
X97155000Y-59557500D03*
%TO.P,U1,3,EN*%
%TO.N,+5V*%
X98105000Y-59557500D03*
%TO.P,U1,4,SENSE/ADJ*%
%TO.N,unconnected-(U1-SENSE{slash}ADJ-Pad4)*%
X98105000Y-57282500D03*
%TO.P,U1,5,VOUT*%
%TO.N,+3.3V*%
X96205000Y-57282500D03*
%TD*%
D18*
%TO.P,J1,1,Pin_1*%
%TO.N,+BATT*%
X81280000Y-53340000D03*
D19*
%TO.P,J1,2,Pin_2*%
%TO.N,GND*%
X81280000Y-58420000D03*
%TD*%
D21*
%TO.P,J3,1,Pin_1*%
%TO.N,+3.3V*%
X79780000Y-63050000D03*
D22*
%TO.P,J3,2,Pin_2*%
%TO.N,UPDI*%
X81280000Y-63050000D03*
%TO.P,J3,3,Pin_3*%
%TO.N,GND*%
X82780000Y-63050000D03*
%TD*%
D13*
%TO.P,J6,1,Pin_1*%
%TO.N,SCL*%
X114935000Y-62865000D03*
D14*
%TO.P,J6,2,Pin_2*%
%TO.N,SDA*%
X116935000Y-62865000D03*
%TO.P,J6,3,Pin_3*%
%TO.N,+3.3V*%
X118935000Y-62865000D03*
%TO.P,J6,4,Pin_4*%
%TO.N,GND*%
X120935000Y-62865000D03*
%TD*%
D13*
%TO.P,J4,1,Pin_1*%
%TO.N,Net-(J4-Pin_1)*%
X94520000Y-62865000D03*
D14*
%TO.P,J4,2,Pin_2*%
%TO.N,Net-(J4-Pin_2)*%
X96520000Y-62865000D03*
%TO.P,J4,3,Pin_3*%
%TO.N,GND*%
X98520000Y-62865000D03*
%TD*%
D16*
%TO.P,H2,1,1*%
%TO.N,GND*%
X88900000Y-58420000D03*
%TD*%
D23*
%TO.P,U2,1,VCC*%
%TO.N,+3.3V*%
X114935000Y-54040000D03*
%TO.P,U2,2,PA4*%
%TO.N,CDS*%
X113665000Y-54040000D03*
%TO.P,U2,3,PA5*%
%TO.N,Net-(U2-PA5)*%
X112395000Y-54040000D03*
%TO.P,U2,4,PA6*%
%TO.N,Net-(J4-Pin_2)*%
X111125000Y-54040000D03*
%TO.P,U2,5,PA7*%
%TO.N,Net-(J5-Pin_2)*%
X109855000Y-54040000D03*
%TO.P,U2,6,PB3*%
%TO.N,PWM2*%
X108585000Y-54040000D03*
%TO.P,U2,7,PB2*%
%TO.N,PWM1*%
X107315000Y-54040000D03*
%TO.P,U2,8,PB1*%
%TO.N,SDA*%
X107315000Y-58990000D03*
%TO.P,U2,9,PB0*%
%TO.N,SCL*%
X108585000Y-58990000D03*
%TO.P,U2,10,~{RESET}/PA0*%
%TO.N,UPDI*%
X109855000Y-58990000D03*
%TO.P,U2,11,PA1*%
%TO.N,IO0*%
X111125000Y-58990000D03*
%TO.P,U2,12,PA2*%
%TO.N,IO1*%
X112395000Y-58990000D03*
%TO.P,U2,13,PA3*%
%TO.N,unconnected-(U2-PA3-Pad13)*%
X113665000Y-58990000D03*
%TO.P,U2,14,GND*%
%TO.N,GND*%
X114935000Y-58990000D03*
%TD*%
D24*
%TO.P,U3,1,NC*%
%TO.N,unconnected-(U3-NC-Pad1)*%
X124525000Y-57785000D03*
%TO.P,U3,2,IN_A*%
%TO.N,PWM1*%
X124525000Y-59055000D03*
%TO.P,U3,3,GND*%
%TO.N,GND*%
X124525000Y-60325000D03*
%TO.P,U3,4,IN_B*%
%TO.N,PWM2*%
X124525000Y-61595000D03*
%TO.P,U3,5,OUT_B*%
%TO.N,Net-(Q2-G)*%
X129475000Y-61595000D03*
%TO.P,U3,6,V+*%
%TO.N,+5V*%
X129475000Y-60325000D03*
%TO.P,U3,7,OUT_A*%
%TO.N,Net-(Q1-G)*%
X129475000Y-59055000D03*
%TO.P,U3,8,NC*%
%TO.N,unconnected-(U3-NC-Pad8)*%
X129475000Y-57785000D03*
%TD*%
D10*
%TO.P,C5,1*%
%TO.N,+3.3V*%
X93345000Y-57382500D03*
%TO.P,C5,2*%
%TO.N,GND*%
X93345000Y-59457500D03*
%TD*%
D25*
%TO.P,C1,1*%
%TO.N,+5V*%
X128672500Y-63500000D03*
%TO.P,C1,2*%
%TO.N,GND*%
X126597500Y-63500000D03*
%TD*%
D26*
%TO.P,R1,1*%
%TO.N,+3.3V*%
X121285000Y-53975000D03*
D27*
%TO.P,R1,2*%
%TO.N,CDS*%
X118745000Y-53975000D03*
%TD*%
D28*
%TO.P,JP1,1,A*%
%TO.N,+BATT*%
X99695000Y-52055000D03*
%TO.P,JP1,2,B*%
%TO.N,+5V*%
X99695000Y-53355000D03*
%TD*%
D26*
%TO.P,J7,1,Pin_1*%
%TO.N,GND*%
X101600000Y-55880000D03*
D27*
%TO.P,J7,2,Pin_2*%
%TO.N,IO1*%
X104140000Y-55880000D03*
%TO.P,J7,3,Pin_3*%
%TO.N,GND*%
X101600000Y-58420000D03*
%TO.P,J7,4,Pin_4*%
%TO.N,IO0*%
X104140000Y-58420000D03*
%TD*%
D29*
%TO.N,+5V*%
X128270000Y-53340000D03*
%TO.N,GND*%
X118110000Y-58420000D03*
X126365000Y-60960000D03*
X96520000Y-60870500D03*
%TO.N,+3.3V*%
X97155000Y-55245000D03*
%TO.N,Net-(J4-Pin_2)*%
X112395000Y-56606500D03*
X101600000Y-62865000D03*
%TO.N,Net-(J5-Pin_2)*%
X106045000Y-53340000D03*
X106045000Y-58963500D03*
%TO.N,PWM2*%
X109220000Y-55880000D03*
X121285000Y-59598500D03*
%TO.N,PWM1*%
X122011500Y-60325000D03*
X107315000Y-55880000D03*
%TO.N,Net-(Q1-G)*%
X127635000Y-57150000D03*
%TO.N,Net-(Q2-G)*%
X127635000Y-64770000D03*
%TO.N,SCL*%
X109128500Y-60868500D03*
%TO.N,SDA*%
X107950000Y-60960000D03*
X111125000Y-62230000D03*
%TO.N,Net-(U2-PA5)*%
X113665000Y-57150000D03*
%TD*%
D30*
%TO.N,+5V*%
X92731827Y-62865000D02*
X96039327Y-59557500D01*
X101832500Y-53340000D02*
X99710000Y-53340000D01*
X97155000Y-53615000D02*
X99435000Y-53615000D01*
D31*
X129475000Y-60325000D02*
X130810000Y-60325000D01*
D30*
X99695000Y-57785000D02*
X99060000Y-58420000D01*
D31*
X127635000Y-62462500D02*
X127635000Y-60960000D01*
D30*
X98105000Y-59557500D02*
X98105000Y-58740000D01*
X99435000Y-53615000D02*
X99695000Y-53355000D01*
D31*
X129475000Y-60325000D02*
X130175000Y-60325000D01*
D30*
X96039327Y-59557500D02*
X96205000Y-59557500D01*
D31*
X131445000Y-59690000D02*
X131445000Y-56515000D01*
D30*
X96205000Y-59557500D02*
X96205000Y-58735000D01*
X96205000Y-58735000D02*
X96520000Y-58420000D01*
D31*
X131445000Y-56515000D02*
X128270000Y-53340000D01*
D30*
X99710000Y-53340000D02*
X99695000Y-53355000D01*
D31*
X128270000Y-60325000D02*
X129475000Y-60325000D01*
D30*
X98105000Y-58740000D02*
X98425000Y-58420000D01*
X90835000Y-62865000D02*
X92731827Y-62865000D01*
X98425000Y-58420000D02*
X99060000Y-58420000D01*
D31*
X127635000Y-60960000D02*
X128270000Y-60325000D01*
X130810000Y-60325000D02*
X131445000Y-59690000D01*
D30*
X99695000Y-53355000D02*
X99695000Y-57785000D01*
D31*
X128672500Y-63500000D02*
X127635000Y-62462500D01*
D30*
X96520000Y-58420000D02*
X98425000Y-58420000D01*
%TO.N,GND*%
X97155000Y-59557500D02*
X97155000Y-60325000D01*
D31*
X115102500Y-58822500D02*
X114935000Y-58990000D01*
D30*
X103907500Y-53340000D02*
X103907500Y-53572500D01*
X97155000Y-60325000D02*
X97790000Y-60960000D01*
D31*
X117707500Y-58822500D02*
X118110000Y-58420000D01*
X116845000Y-58822500D02*
X115102500Y-58822500D01*
X126597500Y-61192500D02*
X126365000Y-60960000D01*
D30*
X97790000Y-60960000D02*
X100965000Y-60960000D01*
D31*
X126597500Y-63500000D02*
X126597500Y-61192500D01*
D30*
X103907500Y-53572500D02*
X101600000Y-55880000D01*
X89937500Y-59457500D02*
X88900000Y-58420000D01*
X101600000Y-60325000D02*
X101600000Y-58420000D01*
D31*
X125730000Y-60325000D02*
X126365000Y-60960000D01*
X124525000Y-60325000D02*
X125730000Y-60325000D01*
D30*
X96609500Y-60870500D02*
X96520000Y-60870500D01*
X93345000Y-59457500D02*
X89937500Y-59457500D01*
D31*
X116845000Y-58822500D02*
X117707500Y-58822500D01*
D30*
X100965000Y-60960000D02*
X101600000Y-60325000D01*
X97155000Y-60325000D02*
X96609500Y-60870500D01*
X101600000Y-58420000D02*
X101600000Y-55880000D01*
D32*
%TO.N,+BATT*%
X91800000Y-53340000D02*
X92075000Y-53615000D01*
D33*
X132080000Y-51879500D02*
X93810500Y-51879500D01*
X93810500Y-51879500D02*
X92075000Y-53615000D01*
D32*
X81280000Y-53340000D02*
X91800000Y-53340000D01*
D33*
X142049500Y-51879500D02*
X132080000Y-51879500D01*
X143510000Y-53340000D02*
X142049500Y-51879500D01*
X147320000Y-53340000D02*
X143510000Y-53340000D01*
D30*
%TO.N,+3.3V*%
X96105000Y-57382500D02*
X96205000Y-57282500D01*
X96205000Y-57282500D02*
X96205000Y-56195000D01*
X88235000Y-62260000D02*
X88900000Y-61595000D01*
X93345000Y-60960000D02*
X93468173Y-60960000D01*
D31*
X119147500Y-56747500D02*
X116845000Y-56747500D01*
D30*
X79780000Y-63012061D02*
X79780000Y-63050000D01*
X94615000Y-57382500D02*
X96105000Y-57382500D01*
X94615000Y-59813173D02*
X94615000Y-57382500D01*
X88235000Y-62865000D02*
X88235000Y-62260000D01*
X92710000Y-61595000D02*
X93345000Y-60960000D01*
X93345000Y-57382500D02*
X94615000Y-57382500D01*
D31*
X121285000Y-53975000D02*
X121285000Y-54610000D01*
X116845000Y-56747500D02*
X116845000Y-55950000D01*
D30*
X88900000Y-61595000D02*
X92710000Y-61595000D01*
X88900000Y-61595000D02*
X81197061Y-61595000D01*
X81197061Y-61595000D02*
X79780000Y-63012061D01*
X96205000Y-56195000D02*
X97155000Y-55245000D01*
D31*
X118935000Y-56960000D02*
X118935000Y-62865000D01*
X116845000Y-55950000D02*
X114935000Y-54040000D01*
X119147500Y-56747500D02*
X118935000Y-56960000D01*
X121285000Y-54610000D02*
X119147500Y-56747500D01*
D30*
X93468173Y-60960000D02*
X94615000Y-59813173D01*
D31*
%TO.N,UPDI*%
X111125000Y-63500000D02*
X111125000Y-64770000D01*
X109855000Y-58990000D02*
X109855000Y-62230000D01*
D30*
X81280000Y-64135000D02*
X82550000Y-65405000D01*
D31*
X109855000Y-62230000D02*
X111125000Y-63500000D01*
X108585000Y-65405000D02*
X87010000Y-65405000D01*
D30*
X81280000Y-63050000D02*
X81280000Y-64135000D01*
D31*
X111125000Y-64770000D02*
X110490000Y-65405000D01*
D30*
X82550000Y-65405000D02*
X87010000Y-65405000D01*
D31*
X110490000Y-65405000D02*
X108585000Y-65405000D01*
D30*
%TO.N,Net-(J4-Pin_1)*%
X104680000Y-62865000D02*
X103410000Y-61595000D01*
X95790000Y-61595000D02*
X94520000Y-62865000D01*
X89535000Y-64135000D02*
X90170000Y-64770000D01*
X92615000Y-64770000D02*
X94520000Y-62865000D01*
X103410000Y-61595000D02*
X95790000Y-61595000D01*
X90170000Y-64770000D02*
X92615000Y-64770000D01*
X89535000Y-62865000D02*
X89535000Y-64135000D01*
D31*
%TO.N,Net-(J4-Pin_2)*%
X97722000Y-64067000D02*
X100398000Y-64067000D01*
X96520000Y-62865000D02*
X97722000Y-64067000D01*
X100398000Y-64067000D02*
X101600000Y-62865000D01*
X111125000Y-55336500D02*
X112395000Y-56606500D01*
X111125000Y-54040000D02*
X111125000Y-55336500D01*
%TO.N,Net-(J5-Pin_2)*%
X106670500Y-52714500D02*
X106045000Y-53340000D01*
X106045000Y-58963500D02*
X106680000Y-59598500D01*
X109855000Y-54040000D02*
X109855000Y-53340000D01*
X106680000Y-59598500D02*
X106680000Y-62865000D01*
X109229500Y-52714500D02*
X106670500Y-52714500D01*
X109855000Y-53340000D02*
X109229500Y-52714500D01*
%TO.N,PWM2*%
X121285000Y-60960000D02*
X121920000Y-61595000D01*
X108585000Y-55245000D02*
X109220000Y-55880000D01*
X121920000Y-61595000D02*
X124525000Y-61595000D01*
X108585000Y-54040000D02*
X108585000Y-55245000D01*
X121285000Y-59598500D02*
X121285000Y-60960000D01*
%TO.N,PWM1*%
X122011500Y-60233500D02*
X122011500Y-60325000D01*
X123190000Y-59055000D02*
X124525000Y-59055000D01*
X107315000Y-54040000D02*
X107315000Y-55880000D01*
X123190000Y-59055000D02*
X122011500Y-60233500D01*
%TO.N,Net-(Q1-G)*%
X129475000Y-59055000D02*
X128270000Y-59055000D01*
X127635000Y-58420000D02*
X127635000Y-57150000D01*
X128270000Y-59055000D02*
X127635000Y-58420000D01*
%TO.N,Net-(Q2-G)*%
X129475000Y-61595000D02*
X129540000Y-61595000D01*
X129540000Y-61595000D02*
X130175000Y-62230000D01*
X130175000Y-64135000D02*
X129540000Y-64770000D01*
X130175000Y-62230000D02*
X130175000Y-64135000D01*
X129540000Y-64770000D02*
X127635000Y-64770000D01*
%TO.N,CDS*%
X114290500Y-52714500D02*
X117484500Y-52714500D01*
X113665000Y-54040000D02*
X113665000Y-53340000D01*
X117484500Y-52714500D02*
X118745000Y-53975000D01*
X113665000Y-53340000D02*
X114290500Y-52714500D01*
%TO.N,SCL*%
X108585000Y-58990000D02*
X108585000Y-60325000D01*
X108585000Y-60325000D02*
X109128500Y-60868500D01*
%TO.N,SDA*%
X111125000Y-62230000D02*
X113030000Y-62230000D01*
X107315000Y-58990000D02*
X107315000Y-60325000D01*
X107315000Y-60325000D02*
X107950000Y-60960000D01*
X113597000Y-61663000D02*
X115733000Y-61663000D01*
X115733000Y-61663000D02*
X116935000Y-62865000D01*
X113030000Y-62230000D02*
X113597000Y-61663000D01*
%TO.N,IO1*%
X111760000Y-57150000D02*
X112395000Y-57785000D01*
X105410000Y-57150000D02*
X111760000Y-57150000D01*
X104140000Y-55880000D02*
X105410000Y-57150000D01*
X112395000Y-57785000D02*
X112395000Y-58990000D01*
%TO.N,IO0*%
X111125000Y-58990000D02*
X111125000Y-58610420D01*
X104872000Y-57688000D02*
X104140000Y-58420000D01*
X111125000Y-58610420D02*
X110202580Y-57688000D01*
X110202580Y-57688000D02*
X104872000Y-57688000D01*
%TO.N,Net-(U2-PA5)*%
X112395000Y-54040000D02*
X112395000Y-55578366D01*
X112395000Y-55578366D02*
X113665000Y-56848366D01*
X113665000Y-56848366D02*
X113665000Y-57150000D01*
%TD*%
M02*
