%TF.GenerationSoftware,KiCad,Pcbnew,6.0.7*%
%TF.CreationDate,2022-11-08T21:44:20-05:00*%
%TF.ProjectId,led-mc-50x16,6c65642d-6d63-42d3-9530-7831362e6b69,rev?*%
%TF.SameCoordinates,Original*%
%TF.FileFunction,Legend,Top*%
%TF.FilePolarity,Positive*%
%FSLAX46Y46*%
G04 Gerber Fmt 4.6, Leading zero omitted, Abs format (unit mm)*
G04 Created by KiCad (PCBNEW 6.0.7) date 2022-11-08 21:44:20*
%MOMM*%
%LPD*%
G01*
G04 APERTURE LIST*
%ADD10C,0.150000*%
%ADD11C,0.120000*%
G04 APERTURE END LIST*
D10*
X83738095Y-118642857D02*
X85261904Y-118642857D01*
X74738095Y-118642857D02*
X76261904Y-118642857D01*
X75500000Y-119404761D02*
X75500000Y-117880952D01*
X70952380Y-103547619D02*
X70952380Y-102928571D01*
X71333333Y-103261904D01*
X71333333Y-103119047D01*
X71380952Y-103023809D01*
X71428571Y-102976190D01*
X71523809Y-102928571D01*
X71761904Y-102928571D01*
X71857142Y-102976190D01*
X71904761Y-103023809D01*
X71952380Y-103119047D01*
X71952380Y-103404761D01*
X71904761Y-103500000D01*
X71857142Y-103547619D01*
X71904761Y-102547619D02*
X71952380Y-102404761D01*
X71952380Y-102166666D01*
X71904761Y-102071428D01*
X71857142Y-102023809D01*
X71761904Y-101976190D01*
X71666666Y-101976190D01*
X71571428Y-102023809D01*
X71523809Y-102071428D01*
X71476190Y-102166666D01*
X71428571Y-102357142D01*
X71380952Y-102452380D01*
X71333333Y-102500000D01*
X71238095Y-102547619D01*
X71142857Y-102547619D01*
X71047619Y-102500000D01*
X71000000Y-102452380D01*
X70952380Y-102357142D01*
X70952380Y-102119047D01*
X71000000Y-101976190D01*
X71047619Y-101595238D02*
X71000000Y-101547619D01*
X70952380Y-101452380D01*
X70952380Y-101214285D01*
X71000000Y-101119047D01*
X71047619Y-101071428D01*
X71142857Y-101023809D01*
X71238095Y-101023809D01*
X71380952Y-101071428D01*
X71952380Y-101642857D01*
X71952380Y-101023809D01*
X71952380Y-100595238D02*
X70952380Y-100595238D01*
X70952380Y-100214285D01*
X71000000Y-100119047D01*
X71047619Y-100071428D01*
X71142857Y-100023809D01*
X71285714Y-100023809D01*
X71380952Y-100071428D01*
X71428571Y-100119047D01*
X71476190Y-100214285D01*
X71476190Y-100595238D01*
X71857142Y-99595238D02*
X71904761Y-99547619D01*
X71952380Y-99595238D01*
X71904761Y-99642857D01*
X71857142Y-99595238D01*
X71952380Y-99595238D01*
X71333333Y-99595238D02*
X71380952Y-99547619D01*
X71428571Y-99595238D01*
X71380952Y-99642857D01*
X71333333Y-99595238D01*
X71428571Y-99595238D01*
X71952380Y-97785714D02*
X71476190Y-98119047D01*
X71952380Y-98357142D02*
X70952380Y-98357142D01*
X70952380Y-97976190D01*
X71000000Y-97880952D01*
X71047619Y-97833333D01*
X71142857Y-97785714D01*
X71285714Y-97785714D01*
X71380952Y-97833333D01*
X71428571Y-97880952D01*
X71476190Y-97976190D01*
X71476190Y-98357142D01*
X71952380Y-96833333D02*
X71952380Y-97404761D01*
X71952380Y-97119047D02*
X70952380Y-97119047D01*
X71095238Y-97214285D01*
X71190476Y-97309523D01*
X71238095Y-97404761D01*
X71904761Y-96357142D02*
X71952380Y-96357142D01*
X72047619Y-96404761D01*
X72095238Y-96452380D01*
X71047619Y-95976190D02*
X71000000Y-95928571D01*
X70952380Y-95833333D01*
X70952380Y-95595238D01*
X71000000Y-95500000D01*
X71047619Y-95452380D01*
X71142857Y-95404761D01*
X71238095Y-95404761D01*
X71380952Y-95452380D01*
X71952380Y-96023809D01*
X71952380Y-95404761D01*
X71904761Y-94928571D02*
X71952380Y-94928571D01*
X72047619Y-94976190D01*
X72095238Y-95023809D01*
X71333333Y-94976190D02*
X71380952Y-94928571D01*
X71428571Y-94976190D01*
X71380952Y-95023809D01*
X71333333Y-94976190D01*
X71428571Y-94976190D01*
X71047619Y-93785714D02*
X71000000Y-93738095D01*
X70952380Y-93642857D01*
X70952380Y-93404761D01*
X71000000Y-93309523D01*
X71047619Y-93261904D01*
X71142857Y-93214285D01*
X71238095Y-93214285D01*
X71380952Y-93261904D01*
X71952380Y-93833333D01*
X71952380Y-93214285D01*
X71904761Y-92833333D02*
X71952380Y-92690476D01*
X71952380Y-92452380D01*
X71904761Y-92357142D01*
X71857142Y-92309523D01*
X71761904Y-92261904D01*
X71666666Y-92261904D01*
X71571428Y-92309523D01*
X71523809Y-92357142D01*
X71476190Y-92452380D01*
X71428571Y-92642857D01*
X71380952Y-92738095D01*
X71333333Y-92785714D01*
X71238095Y-92833333D01*
X71142857Y-92833333D01*
X71047619Y-92785714D01*
X71000000Y-92738095D01*
X70952380Y-92642857D01*
X70952380Y-92404761D01*
X71000000Y-92261904D01*
X71047619Y-91880952D02*
X71000000Y-91833333D01*
X70952380Y-91738095D01*
X70952380Y-91500000D01*
X71000000Y-91404761D01*
X71047619Y-91357142D01*
X71142857Y-91309523D01*
X71238095Y-91309523D01*
X71380952Y-91357142D01*
X71952380Y-91928571D01*
X71952380Y-91309523D01*
X71952380Y-90880952D02*
X70952380Y-90880952D01*
X70952380Y-90500000D01*
X71000000Y-90404761D01*
X71047619Y-90357142D01*
X71142857Y-90309523D01*
X71285714Y-90309523D01*
X71380952Y-90357142D01*
X71428571Y-90404761D01*
X71476190Y-90500000D01*
X71476190Y-90880952D01*
X71857142Y-89880952D02*
X71904761Y-89833333D01*
X71952380Y-89880952D01*
X71904761Y-89928571D01*
X71857142Y-89880952D01*
X71952380Y-89880952D01*
X71333333Y-89880952D02*
X71380952Y-89833333D01*
X71428571Y-89880952D01*
X71380952Y-89928571D01*
X71333333Y-89880952D01*
X71428571Y-89880952D01*
X71952380Y-88071428D02*
X71476190Y-88404761D01*
X71952380Y-88642857D02*
X70952380Y-88642857D01*
X70952380Y-88261904D01*
X71000000Y-88166666D01*
X71047619Y-88119047D01*
X71142857Y-88071428D01*
X71285714Y-88071428D01*
X71380952Y-88119047D01*
X71428571Y-88166666D01*
X71476190Y-88261904D01*
X71476190Y-88642857D01*
X71952380Y-87119047D02*
X71952380Y-87690476D01*
X71952380Y-87404761D02*
X70952380Y-87404761D01*
X71095238Y-87500000D01*
X71190476Y-87595238D01*
X71238095Y-87690476D01*
X71904761Y-86642857D02*
X71952380Y-86642857D01*
X72047619Y-86690476D01*
X72095238Y-86738095D01*
X71047619Y-86261904D02*
X71000000Y-86214285D01*
X70952380Y-86119047D01*
X70952380Y-85880952D01*
X71000000Y-85785714D01*
X71047619Y-85738095D01*
X71142857Y-85690476D01*
X71238095Y-85690476D01*
X71380952Y-85738095D01*
X71952380Y-86309523D01*
X71952380Y-85690476D01*
X70952380Y-84214285D02*
X71666666Y-84214285D01*
X71809523Y-84261904D01*
X71904761Y-84357142D01*
X71952380Y-84500000D01*
X71952380Y-84595238D01*
X71952380Y-83738095D02*
X70952380Y-83738095D01*
X70952380Y-83357142D01*
X71000000Y-83261904D01*
X71047619Y-83214285D01*
X71142857Y-83166666D01*
X71285714Y-83166666D01*
X71380952Y-83214285D01*
X71428571Y-83261904D01*
X71476190Y-83357142D01*
X71476190Y-83738095D01*
X71952380Y-82214285D02*
X71952380Y-82785714D01*
X71952380Y-82500000D02*
X70952380Y-82500000D01*
X71095238Y-82595238D01*
X71190476Y-82690476D01*
X71238095Y-82785714D01*
X71904761Y-81738095D02*
X71952380Y-81738095D01*
X72047619Y-81785714D01*
X72095238Y-81833333D01*
X71047619Y-81357142D02*
X71000000Y-81309523D01*
X70952380Y-81214285D01*
X70952380Y-80976190D01*
X71000000Y-80880952D01*
X71047619Y-80833333D01*
X71142857Y-80785714D01*
X71238095Y-80785714D01*
X71380952Y-80833333D01*
X71952380Y-81404761D01*
X71952380Y-80785714D01*
X71904761Y-80309523D02*
X71952380Y-80309523D01*
X72047619Y-80357142D01*
X72095238Y-80404761D01*
X71333333Y-80357142D02*
X71380952Y-80309523D01*
X71428571Y-80357142D01*
X71380952Y-80404761D01*
X71333333Y-80357142D01*
X71428571Y-80357142D01*
X70952380Y-78690476D02*
X70952380Y-78880952D01*
X71000000Y-78976190D01*
X71047619Y-79023809D01*
X71190476Y-79119047D01*
X71380952Y-79166666D01*
X71761904Y-79166666D01*
X71857142Y-79119047D01*
X71904761Y-79071428D01*
X71952380Y-78976190D01*
X71952380Y-78785714D01*
X71904761Y-78690476D01*
X71857142Y-78642857D01*
X71761904Y-78595238D01*
X71523809Y-78595238D01*
X71428571Y-78642857D01*
X71380952Y-78690476D01*
X71333333Y-78785714D01*
X71333333Y-78976190D01*
X71380952Y-79071428D01*
X71428571Y-79119047D01*
X71523809Y-79166666D01*
X71904761Y-78214285D02*
X71952380Y-78071428D01*
X71952380Y-77833333D01*
X71904761Y-77738095D01*
X71857142Y-77690476D01*
X71761904Y-77642857D01*
X71666666Y-77642857D01*
X71571428Y-77690476D01*
X71523809Y-77738095D01*
X71476190Y-77833333D01*
X71428571Y-78023809D01*
X71380952Y-78119047D01*
X71333333Y-78166666D01*
X71238095Y-78214285D01*
X71142857Y-78214285D01*
X71047619Y-78166666D01*
X71000000Y-78119047D01*
X70952380Y-78023809D01*
X70952380Y-77785714D01*
X71000000Y-77642857D01*
X71952380Y-76690476D02*
X71952380Y-77261904D01*
X71952380Y-76976190D02*
X70952380Y-76976190D01*
X71095238Y-77071428D01*
X71190476Y-77166666D01*
X71238095Y-77261904D01*
X71952380Y-76261904D02*
X70952380Y-76261904D01*
X70952380Y-75880952D01*
X71000000Y-75785714D01*
X71047619Y-75738095D01*
X71142857Y-75690476D01*
X71285714Y-75690476D01*
X71380952Y-75738095D01*
X71428571Y-75785714D01*
X71476190Y-75880952D01*
X71476190Y-76261904D01*
X71857142Y-75261904D02*
X71904761Y-75214285D01*
X71952380Y-75261904D01*
X71904761Y-75309523D01*
X71857142Y-75261904D01*
X71952380Y-75261904D01*
X71333333Y-75261904D02*
X71380952Y-75214285D01*
X71428571Y-75261904D01*
X71380952Y-75309523D01*
X71333333Y-75261904D01*
X71428571Y-75261904D01*
X71952380Y-73452380D02*
X71476190Y-73785714D01*
X71952380Y-74023809D02*
X70952380Y-74023809D01*
X70952380Y-73642857D01*
X71000000Y-73547619D01*
X71047619Y-73500000D01*
X71142857Y-73452380D01*
X71285714Y-73452380D01*
X71380952Y-73500000D01*
X71428571Y-73547619D01*
X71476190Y-73642857D01*
X71476190Y-74023809D01*
X70952380Y-73119047D02*
X70952380Y-72500000D01*
X71333333Y-72833333D01*
X71333333Y-72690476D01*
X71380952Y-72595238D01*
X71428571Y-72547619D01*
X71523809Y-72500000D01*
X71761904Y-72500000D01*
X71857142Y-72547619D01*
X71904761Y-72595238D01*
X71952380Y-72690476D01*
X71952380Y-72976190D01*
X71904761Y-73071428D01*
X71857142Y-73119047D01*
X77730833Y-83233333D02*
X78197500Y-84633333D01*
X78664166Y-83233333D01*
X79530833Y-85100000D02*
X79197500Y-85100000D01*
X79197500Y-83100000D01*
X79530833Y-83100000D01*
X84197500Y-85100000D02*
X84530833Y-85100000D01*
X84530833Y-83100000D01*
X84197500Y-83100000D01*
X70738095Y-71142857D02*
X72261904Y-71142857D01*
X71500000Y-71904761D02*
X71500000Y-70380952D01*
X78230833Y-99873000D02*
X78164166Y-99939666D01*
X77964166Y-100006333D01*
X77830833Y-100006333D01*
X77630833Y-99939666D01*
X77497500Y-99806333D01*
X77430833Y-99673000D01*
X77364166Y-99406333D01*
X77364166Y-99206333D01*
X77430833Y-98939666D01*
X77497500Y-98806333D01*
X77630833Y-98673000D01*
X77830833Y-98606333D01*
X77964166Y-98606333D01*
X78164166Y-98673000D01*
X78230833Y-98739666D01*
X79630833Y-99873000D02*
X79564166Y-99939666D01*
X79364166Y-100006333D01*
X79230833Y-100006333D01*
X79030833Y-99939666D01*
X78897500Y-99806333D01*
X78830833Y-99673000D01*
X78764166Y-99406333D01*
X78764166Y-99206333D01*
X78830833Y-98939666D01*
X78897500Y-98806333D01*
X79030833Y-98673000D01*
X79230833Y-98606333D01*
X79364166Y-98606333D01*
X79564166Y-98673000D01*
X79630833Y-98739666D01*
X80030833Y-98606333D02*
X80830833Y-98606333D01*
X80430833Y-100006333D02*
X80430833Y-98606333D01*
X77830833Y-102727000D02*
X77497500Y-102727000D01*
X77497500Y-100727000D01*
X77830833Y-100727000D01*
X83564166Y-102727000D02*
X83897500Y-102727000D01*
X83897500Y-100727000D01*
X83564166Y-100727000D01*
X77864166Y-86733333D02*
X78530833Y-86733333D01*
X77730833Y-87133333D02*
X78197500Y-85733333D01*
X78664166Y-87133333D01*
X79530833Y-87600000D02*
X79197500Y-87600000D01*
X79197500Y-85600000D01*
X79530833Y-85600000D01*
X84197500Y-87600000D02*
X84530833Y-87600000D01*
X84530833Y-85600000D01*
X84197500Y-85600000D01*
X80238095Y-71142857D02*
X81761904Y-71142857D01*
X84952380Y-81023809D02*
X83952380Y-81023809D01*
X84952380Y-80452380D02*
X84380952Y-80880952D01*
X83952380Y-80452380D02*
X84523809Y-81023809D01*
X84857142Y-79452380D02*
X84904761Y-79500000D01*
X84952380Y-79642857D01*
X84952380Y-79738095D01*
X84904761Y-79880952D01*
X84809523Y-79976190D01*
X84714285Y-80023809D01*
X84523809Y-80071428D01*
X84380952Y-80071428D01*
X84190476Y-80023809D01*
X84095238Y-79976190D01*
X84000000Y-79880952D01*
X83952380Y-79738095D01*
X83952380Y-79642857D01*
X84000000Y-79500000D01*
X84047619Y-79452380D01*
X84047619Y-79071428D02*
X84000000Y-79023809D01*
X83952380Y-78928571D01*
X83952380Y-78690476D01*
X84000000Y-78595238D01*
X84047619Y-78547619D01*
X84142857Y-78500000D01*
X84238095Y-78500000D01*
X84380952Y-78547619D01*
X84952380Y-79119047D01*
X84952380Y-78500000D01*
X83952380Y-78166666D02*
X83952380Y-77500000D01*
X84952380Y-78166666D01*
X84952380Y-77500000D01*
X84000000Y-76595238D02*
X83952380Y-76690476D01*
X83952380Y-76833333D01*
X84000000Y-76976190D01*
X84095238Y-77071428D01*
X84190476Y-77119047D01*
X84380952Y-77166666D01*
X84523809Y-77166666D01*
X84714285Y-77119047D01*
X84809523Y-77071428D01*
X84904761Y-76976190D01*
X84952380Y-76833333D01*
X84952380Y-76738095D01*
X84904761Y-76595238D01*
X84857142Y-76547619D01*
X84523809Y-76547619D01*
X84523809Y-76738095D01*
X83952380Y-76119047D02*
X84761904Y-76119047D01*
X84857142Y-76071428D01*
X84904761Y-76023809D01*
X84952380Y-75928571D01*
X84952380Y-75738095D01*
X84904761Y-75642857D01*
X84857142Y-75595238D01*
X84761904Y-75547619D01*
X83952380Y-75547619D01*
X84047619Y-74357142D02*
X84000000Y-74309523D01*
X83952380Y-74214285D01*
X83952380Y-73976190D01*
X84000000Y-73880952D01*
X84047619Y-73833333D01*
X84142857Y-73785714D01*
X84238095Y-73785714D01*
X84380952Y-73833333D01*
X84952380Y-74404761D01*
X84952380Y-73785714D01*
X83952380Y-73166666D02*
X83952380Y-73071428D01*
X84000000Y-72976190D01*
X84047619Y-72928571D01*
X84142857Y-72880952D01*
X84333333Y-72833333D01*
X84571428Y-72833333D01*
X84761904Y-72880952D01*
X84857142Y-72928571D01*
X84904761Y-72976190D01*
X84952380Y-73071428D01*
X84952380Y-73166666D01*
X84904761Y-73261904D01*
X84857142Y-73309523D01*
X84761904Y-73357142D01*
X84571428Y-73404761D01*
X84333333Y-73404761D01*
X84142857Y-73357142D01*
X84047619Y-73309523D01*
X84000000Y-73261904D01*
X83952380Y-73166666D01*
X84047619Y-72452380D02*
X84000000Y-72404761D01*
X83952380Y-72309523D01*
X83952380Y-72071428D01*
X84000000Y-71976190D01*
X84047619Y-71928571D01*
X84142857Y-71880952D01*
X84238095Y-71880952D01*
X84380952Y-71928571D01*
X84952380Y-72500000D01*
X84952380Y-71880952D01*
X84047619Y-71500000D02*
X84000000Y-71452380D01*
X83952380Y-71357142D01*
X83952380Y-71119047D01*
X84000000Y-71023809D01*
X84047619Y-70976190D01*
X84142857Y-70928571D01*
X84238095Y-70928571D01*
X84380952Y-70976190D01*
X84952380Y-71547619D01*
X84952380Y-70928571D01*
%TO.C,JP2*%
X79166666Y-81252380D02*
X79166666Y-81966666D01*
X79119047Y-82109523D01*
X79023809Y-82204761D01*
X78880952Y-82252380D01*
X78785714Y-82252380D01*
X79642857Y-82252380D02*
X79642857Y-81252380D01*
X80023809Y-81252380D01*
X80119047Y-81300000D01*
X80166666Y-81347619D01*
X80214285Y-81442857D01*
X80214285Y-81585714D01*
X80166666Y-81680952D01*
X80119047Y-81728571D01*
X80023809Y-81776190D01*
X79642857Y-81776190D01*
X80595238Y-81347619D02*
X80642857Y-81300000D01*
X80738095Y-81252380D01*
X80976190Y-81252380D01*
X81071428Y-81300000D01*
X81119047Y-81347619D01*
X81166666Y-81442857D01*
X81166666Y-81538095D01*
X81119047Y-81680952D01*
X80547619Y-82252380D01*
X81166666Y-82252380D01*
%TO.C,D4*%
X78261904Y-108952380D02*
X78261904Y-107952380D01*
X78500000Y-107952380D01*
X78642857Y-108000000D01*
X78738095Y-108095238D01*
X78785714Y-108190476D01*
X78833333Y-108380952D01*
X78833333Y-108523809D01*
X78785714Y-108714285D01*
X78738095Y-108809523D01*
X78642857Y-108904761D01*
X78500000Y-108952380D01*
X78261904Y-108952380D01*
X79690476Y-108285714D02*
X79690476Y-108952380D01*
X79452380Y-107904761D02*
X79214285Y-108619047D01*
X79833333Y-108619047D01*
%TO.C,J4*%
X77666666Y-71054380D02*
X77666666Y-71768666D01*
X77619047Y-71911523D01*
X77523809Y-72006761D01*
X77380952Y-72054380D01*
X77285714Y-72054380D01*
X78571428Y-71387714D02*
X78571428Y-72054380D01*
X78333333Y-71006761D02*
X78095238Y-71721047D01*
X78714285Y-71721047D01*
%TO.C,D2*%
X73261904Y-102952380D02*
X73261904Y-101952380D01*
X73500000Y-101952380D01*
X73642857Y-102000000D01*
X73738095Y-102095238D01*
X73785714Y-102190476D01*
X73833333Y-102380952D01*
X73833333Y-102523809D01*
X73785714Y-102714285D01*
X73738095Y-102809523D01*
X73642857Y-102904761D01*
X73500000Y-102952380D01*
X73261904Y-102952380D01*
X74214285Y-102047619D02*
X74261904Y-102000000D01*
X74357142Y-101952380D01*
X74595238Y-101952380D01*
X74690476Y-102000000D01*
X74738095Y-102047619D01*
X74785714Y-102142857D01*
X74785714Y-102238095D01*
X74738095Y-102380952D01*
X74166666Y-102952380D01*
X74785714Y-102952380D01*
%TO.C,JP1*%
X75166666Y-107452380D02*
X75166666Y-108166666D01*
X75119047Y-108309523D01*
X75023809Y-108404761D01*
X74880952Y-108452380D01*
X74785714Y-108452380D01*
X75642857Y-108452380D02*
X75642857Y-107452380D01*
X76023809Y-107452380D01*
X76119047Y-107500000D01*
X76166666Y-107547619D01*
X76214285Y-107642857D01*
X76214285Y-107785714D01*
X76166666Y-107880952D01*
X76119047Y-107928571D01*
X76023809Y-107976190D01*
X75642857Y-107976190D01*
X77166666Y-108452380D02*
X76595238Y-108452380D01*
X76880952Y-108452380D02*
X76880952Y-107452380D01*
X76785714Y-107595238D01*
X76690476Y-107690476D01*
X76595238Y-107738095D01*
%TO.C,D1*%
X72761904Y-111952380D02*
X72761904Y-110952380D01*
X73000000Y-110952380D01*
X73142857Y-111000000D01*
X73238095Y-111095238D01*
X73285714Y-111190476D01*
X73333333Y-111380952D01*
X73333333Y-111523809D01*
X73285714Y-111714285D01*
X73238095Y-111809523D01*
X73142857Y-111904761D01*
X73000000Y-111952380D01*
X72761904Y-111952380D01*
X74285714Y-111952380D02*
X73714285Y-111952380D01*
X74000000Y-111952380D02*
X74000000Y-110952380D01*
X73904761Y-111095238D01*
X73809523Y-111190476D01*
X73714285Y-111238095D01*
%TO.C,R2*%
X80833333Y-110632380D02*
X80500000Y-110156190D01*
X80261904Y-110632380D02*
X80261904Y-109632380D01*
X80642857Y-109632380D01*
X80738095Y-109680000D01*
X80785714Y-109727619D01*
X80833333Y-109822857D01*
X80833333Y-109965714D01*
X80785714Y-110060952D01*
X80738095Y-110108571D01*
X80642857Y-110156190D01*
X80261904Y-110156190D01*
X81214285Y-109727619D02*
X81261904Y-109680000D01*
X81357142Y-109632380D01*
X81595238Y-109632380D01*
X81690476Y-109680000D01*
X81738095Y-109727619D01*
X81785714Y-109822857D01*
X81785714Y-109918095D01*
X81738095Y-110060952D01*
X81166666Y-110632380D01*
X81785714Y-110632380D01*
%TO.C,R1*%
X76833333Y-80452380D02*
X76500000Y-79976190D01*
X76261904Y-80452380D02*
X76261904Y-79452380D01*
X76642857Y-79452380D01*
X76738095Y-79500000D01*
X76785714Y-79547619D01*
X76833333Y-79642857D01*
X76833333Y-79785714D01*
X76785714Y-79880952D01*
X76738095Y-79928571D01*
X76642857Y-79976190D01*
X76261904Y-79976190D01*
X77785714Y-80452380D02*
X77214285Y-80452380D01*
X77500000Y-80452380D02*
X77500000Y-79452380D01*
X77404761Y-79595238D01*
X77309523Y-79690476D01*
X77214285Y-79738095D01*
%TO.C,D6*%
X81761904Y-78952380D02*
X81761904Y-77952380D01*
X82000000Y-77952380D01*
X82142857Y-78000000D01*
X82238095Y-78095238D01*
X82285714Y-78190476D01*
X82333333Y-78380952D01*
X82333333Y-78523809D01*
X82285714Y-78714285D01*
X82238095Y-78809523D01*
X82142857Y-78904761D01*
X82000000Y-78952380D01*
X81761904Y-78952380D01*
X83190476Y-77952380D02*
X83000000Y-77952380D01*
X82904761Y-78000000D01*
X82857142Y-78047619D01*
X82761904Y-78190476D01*
X82714285Y-78380952D01*
X82714285Y-78761904D01*
X82761904Y-78857142D01*
X82809523Y-78904761D01*
X82904761Y-78952380D01*
X83095238Y-78952380D01*
X83190476Y-78904761D01*
X83238095Y-78857142D01*
X83285714Y-78761904D01*
X83285714Y-78523809D01*
X83238095Y-78428571D01*
X83190476Y-78380952D01*
X83095238Y-78333333D01*
X82904761Y-78333333D01*
X82809523Y-78380952D01*
X82761904Y-78428571D01*
X82714285Y-78523809D01*
%TO.C,D5*%
X81261904Y-94952380D02*
X81261904Y-93952380D01*
X81500000Y-93952380D01*
X81642857Y-94000000D01*
X81738095Y-94095238D01*
X81785714Y-94190476D01*
X81833333Y-94380952D01*
X81833333Y-94523809D01*
X81785714Y-94714285D01*
X81738095Y-94809523D01*
X81642857Y-94904761D01*
X81500000Y-94952380D01*
X81261904Y-94952380D01*
X82738095Y-93952380D02*
X82261904Y-93952380D01*
X82214285Y-94428571D01*
X82261904Y-94380952D01*
X82357142Y-94333333D01*
X82595238Y-94333333D01*
X82690476Y-94380952D01*
X82738095Y-94428571D01*
X82785714Y-94523809D01*
X82785714Y-94761904D01*
X82738095Y-94857142D01*
X82690476Y-94904761D01*
X82595238Y-94952380D01*
X82357142Y-94952380D01*
X82261904Y-94904761D01*
X82214285Y-94857142D01*
%TO.C,J1*%
X77666666Y-118452380D02*
X77666666Y-119166666D01*
X77619047Y-119309523D01*
X77523809Y-119404761D01*
X77380952Y-119452380D01*
X77285714Y-119452380D01*
X78666666Y-119452380D02*
X78095238Y-119452380D01*
X78380952Y-119452380D02*
X78380952Y-118452380D01*
X78285714Y-118595238D01*
X78190476Y-118690476D01*
X78095238Y-118738095D01*
%TO.C,J2*%
X73666666Y-71054380D02*
X73666666Y-71768666D01*
X73619047Y-71911523D01*
X73523809Y-72006761D01*
X73380952Y-72054380D01*
X73285714Y-72054380D01*
X74095238Y-71149619D02*
X74142857Y-71102000D01*
X74238095Y-71054380D01*
X74476190Y-71054380D01*
X74571428Y-71102000D01*
X74619047Y-71149619D01*
X74666666Y-71244857D01*
X74666666Y-71340095D01*
X74619047Y-71482952D01*
X74047619Y-72054380D01*
X74666666Y-72054380D01*
%TO.C,J3*%
X81666666Y-118452380D02*
X81666666Y-119166666D01*
X81619047Y-119309523D01*
X81523809Y-119404761D01*
X81380952Y-119452380D01*
X81285714Y-119452380D01*
X82047619Y-118452380D02*
X82666666Y-118452380D01*
X82333333Y-118833333D01*
X82476190Y-118833333D01*
X82571428Y-118880952D01*
X82619047Y-118928571D01*
X82666666Y-119023809D01*
X82666666Y-119261904D01*
X82619047Y-119357142D01*
X82571428Y-119404761D01*
X82476190Y-119452380D01*
X82190476Y-119452380D01*
X82095238Y-119404761D01*
X82047619Y-119357142D01*
%TO.C,D3*%
X73261904Y-86952380D02*
X73261904Y-85952380D01*
X73500000Y-85952380D01*
X73642857Y-86000000D01*
X73738095Y-86095238D01*
X73785714Y-86190476D01*
X73833333Y-86380952D01*
X73833333Y-86523809D01*
X73785714Y-86714285D01*
X73738095Y-86809523D01*
X73642857Y-86904761D01*
X73500000Y-86952380D01*
X73261904Y-86952380D01*
X74166666Y-85952380D02*
X74785714Y-85952380D01*
X74452380Y-86333333D01*
X74595238Y-86333333D01*
X74690476Y-86380952D01*
X74738095Y-86428571D01*
X74785714Y-86523809D01*
X74785714Y-86761904D01*
X74738095Y-86857142D01*
X74690476Y-86904761D01*
X74595238Y-86952380D01*
X74309523Y-86952380D01*
X74214285Y-86904761D01*
X74166666Y-86857142D01*
%TO.C,R3*%
X77833333Y-92452380D02*
X77500000Y-91976190D01*
X77261904Y-92452380D02*
X77261904Y-91452380D01*
X77642857Y-91452380D01*
X77738095Y-91500000D01*
X77785714Y-91547619D01*
X77833333Y-91642857D01*
X77833333Y-91785714D01*
X77785714Y-91880952D01*
X77738095Y-91928571D01*
X77642857Y-91976190D01*
X77261904Y-91976190D01*
X78166666Y-91452380D02*
X78785714Y-91452380D01*
X78452380Y-91833333D01*
X78595238Y-91833333D01*
X78690476Y-91880952D01*
X78738095Y-91928571D01*
X78785714Y-92023809D01*
X78785714Y-92261904D01*
X78738095Y-92357142D01*
X78690476Y-92404761D01*
X78595238Y-92452380D01*
X78309523Y-92452380D01*
X78214285Y-92404761D01*
X78166666Y-92357142D01*
D11*
%TO.C,JP2*%
X81400000Y-81000000D02*
X78600000Y-81000000D01*
X78600000Y-81000000D02*
X78600000Y-79000000D01*
X78600000Y-79000000D02*
X81400000Y-79000000D01*
X81400000Y-79000000D02*
X81400000Y-81000000D01*
%TO.C,D4*%
X83600000Y-104500000D02*
X80400000Y-104500000D01*
X80400000Y-108400000D02*
X80400000Y-104500000D01*
X83600000Y-108400000D02*
X83600000Y-104500000D01*
%TO.C,J4*%
X79700000Y-75700000D02*
X76300000Y-75700000D01*
X79700000Y-72300000D02*
X79700000Y-75700000D01*
X76300000Y-72300000D02*
X79700000Y-72300000D01*
X76300000Y-75700000D02*
X76300000Y-72300000D01*
%TO.C,D2*%
X75600000Y-100400000D02*
X75600000Y-96500000D01*
X72400000Y-100400000D02*
X72400000Y-96500000D01*
X75600000Y-96500000D02*
X72400000Y-96500000D01*
%TO.C,JP1*%
X74600000Y-109000000D02*
X77400000Y-109000000D01*
X74600000Y-111000000D02*
X74600000Y-109000000D01*
X77400000Y-111000000D02*
X74600000Y-111000000D01*
X77400000Y-109000000D02*
X77400000Y-111000000D01*
%TO.C,D1*%
X75600000Y-112500000D02*
X72400000Y-112500000D01*
X72400000Y-116400000D02*
X72400000Y-112500000D01*
X75600000Y-116400000D02*
X75600000Y-112500000D01*
%TO.C,R2*%
X80272936Y-112910000D02*
X81727064Y-112910000D01*
X80272936Y-111090000D02*
X81727064Y-111090000D01*
%TO.C,R1*%
X74272936Y-78910000D02*
X75727064Y-78910000D01*
X74272936Y-77090000D02*
X75727064Y-77090000D01*
%TO.C,D6*%
X83600000Y-72500000D02*
X80400000Y-72500000D01*
X83600000Y-76400000D02*
X83600000Y-72500000D01*
X80400000Y-76400000D02*
X80400000Y-72500000D01*
%TO.C,D5*%
X83600000Y-92400000D02*
X83600000Y-88500000D01*
X83600000Y-88500000D02*
X80400000Y-88500000D01*
X80400000Y-92400000D02*
X80400000Y-88500000D01*
%TO.C,J1*%
X76300000Y-117700000D02*
X76300000Y-114300000D01*
X79700000Y-114300000D02*
X79700000Y-117700000D01*
X79700000Y-117700000D02*
X76300000Y-117700000D01*
X76300000Y-114300000D02*
X79700000Y-114300000D01*
%TO.C,J2*%
X75700000Y-72300000D02*
X75700000Y-75700000D01*
X75700000Y-75700000D02*
X72300000Y-75700000D01*
X72300000Y-72300000D02*
X75700000Y-72300000D01*
X72300000Y-75700000D02*
X72300000Y-72300000D01*
%TO.C,J3*%
X83700000Y-114300000D02*
X83700000Y-117700000D01*
X80300000Y-114300000D02*
X83700000Y-114300000D01*
X80300000Y-117700000D02*
X80300000Y-114300000D01*
X83700000Y-117700000D02*
X80300000Y-117700000D01*
%TO.C,D3*%
X75600000Y-84400000D02*
X75600000Y-80500000D01*
X72400000Y-84400000D02*
X72400000Y-80500000D01*
X75600000Y-80500000D02*
X72400000Y-80500000D01*
%TO.C,R3*%
X78910000Y-96227064D02*
X78910000Y-94772936D01*
X77090000Y-96227064D02*
X77090000Y-94772936D01*
%TD*%
M02*
