%TF.GenerationSoftware,KiCad,Pcbnew,7.0.2*%
%TF.CreationDate,2023-05-18T15:11:27-04:00*%
%TF.ProjectId,smartpir,736d6172-7470-4697-922e-6b696361645f,rev?*%
%TF.SameCoordinates,Original*%
%TF.FileFunction,Legend,Top*%
%TF.FilePolarity,Positive*%
%FSLAX46Y46*%
G04 Gerber Fmt 4.6, Leading zero omitted, Abs format (unit mm)*
G04 Created by KiCad (PCBNEW 7.0.2) date 2023-05-18 15:11:27*
%MOMM*%
%LPD*%
G01*
G04 APERTURE LIST*
%ADD10C,0.150000*%
%ADD11C,0.120000*%
G04 APERTURE END LIST*
D10*
X128238095Y-110606095D02*
X128238095Y-110072761D01*
X128238095Y-110225142D02*
X128285714Y-110148952D01*
X128285714Y-110148952D02*
X128333333Y-110110857D01*
X128333333Y-110110857D02*
X128428571Y-110072761D01*
X128428571Y-110072761D02*
X128523809Y-110072761D01*
X129380952Y-110606095D02*
X128809524Y-110606095D01*
X129095238Y-110606095D02*
X129095238Y-109806095D01*
X129095238Y-109806095D02*
X129000000Y-109920380D01*
X129000000Y-109920380D02*
X128904762Y-109996571D01*
X128904762Y-109996571D02*
X128809524Y-110034666D01*
X129809524Y-110529904D02*
X129857143Y-110568000D01*
X129857143Y-110568000D02*
X129809524Y-110606095D01*
X129809524Y-110606095D02*
X129761905Y-110568000D01*
X129761905Y-110568000D02*
X129809524Y-110529904D01*
X129809524Y-110529904D02*
X129809524Y-110606095D01*
X130476190Y-109806095D02*
X130571428Y-109806095D01*
X130571428Y-109806095D02*
X130666666Y-109844190D01*
X130666666Y-109844190D02*
X130714285Y-109882285D01*
X130714285Y-109882285D02*
X130761904Y-109958476D01*
X130761904Y-109958476D02*
X130809523Y-110110857D01*
X130809523Y-110110857D02*
X130809523Y-110301333D01*
X130809523Y-110301333D02*
X130761904Y-110453714D01*
X130761904Y-110453714D02*
X130714285Y-110529904D01*
X130714285Y-110529904D02*
X130666666Y-110568000D01*
X130666666Y-110568000D02*
X130571428Y-110606095D01*
X130571428Y-110606095D02*
X130476190Y-110606095D01*
X130476190Y-110606095D02*
X130380952Y-110568000D01*
X130380952Y-110568000D02*
X130333333Y-110529904D01*
X130333333Y-110529904D02*
X130285714Y-110453714D01*
X130285714Y-110453714D02*
X130238095Y-110301333D01*
X130238095Y-110301333D02*
X130238095Y-110110857D01*
X130238095Y-110110857D02*
X130285714Y-109958476D01*
X130285714Y-109958476D02*
X130333333Y-109882285D01*
X130333333Y-109882285D02*
X130380952Y-109844190D01*
X130380952Y-109844190D02*
X130476190Y-109806095D01*
X128190476Y-111178285D02*
X128238095Y-111140190D01*
X128238095Y-111140190D02*
X128333333Y-111102095D01*
X128333333Y-111102095D02*
X128571428Y-111102095D01*
X128571428Y-111102095D02*
X128666666Y-111140190D01*
X128666666Y-111140190D02*
X128714285Y-111178285D01*
X128714285Y-111178285D02*
X128761904Y-111254476D01*
X128761904Y-111254476D02*
X128761904Y-111330666D01*
X128761904Y-111330666D02*
X128714285Y-111444952D01*
X128714285Y-111444952D02*
X128142857Y-111902095D01*
X128142857Y-111902095D02*
X128761904Y-111902095D01*
X129380952Y-111102095D02*
X129476190Y-111102095D01*
X129476190Y-111102095D02*
X129571428Y-111140190D01*
X129571428Y-111140190D02*
X129619047Y-111178285D01*
X129619047Y-111178285D02*
X129666666Y-111254476D01*
X129666666Y-111254476D02*
X129714285Y-111406857D01*
X129714285Y-111406857D02*
X129714285Y-111597333D01*
X129714285Y-111597333D02*
X129666666Y-111749714D01*
X129666666Y-111749714D02*
X129619047Y-111825904D01*
X129619047Y-111825904D02*
X129571428Y-111864000D01*
X129571428Y-111864000D02*
X129476190Y-111902095D01*
X129476190Y-111902095D02*
X129380952Y-111902095D01*
X129380952Y-111902095D02*
X129285714Y-111864000D01*
X129285714Y-111864000D02*
X129238095Y-111825904D01*
X129238095Y-111825904D02*
X129190476Y-111749714D01*
X129190476Y-111749714D02*
X129142857Y-111597333D01*
X129142857Y-111597333D02*
X129142857Y-111406857D01*
X129142857Y-111406857D02*
X129190476Y-111254476D01*
X129190476Y-111254476D02*
X129238095Y-111178285D01*
X129238095Y-111178285D02*
X129285714Y-111140190D01*
X129285714Y-111140190D02*
X129380952Y-111102095D01*
X130095238Y-111178285D02*
X130142857Y-111140190D01*
X130142857Y-111140190D02*
X130238095Y-111102095D01*
X130238095Y-111102095D02*
X130476190Y-111102095D01*
X130476190Y-111102095D02*
X130571428Y-111140190D01*
X130571428Y-111140190D02*
X130619047Y-111178285D01*
X130619047Y-111178285D02*
X130666666Y-111254476D01*
X130666666Y-111254476D02*
X130666666Y-111330666D01*
X130666666Y-111330666D02*
X130619047Y-111444952D01*
X130619047Y-111444952D02*
X130047619Y-111902095D01*
X130047619Y-111902095D02*
X130666666Y-111902095D01*
X131000000Y-111102095D02*
X131619047Y-111102095D01*
X131619047Y-111102095D02*
X131285714Y-111406857D01*
X131285714Y-111406857D02*
X131428571Y-111406857D01*
X131428571Y-111406857D02*
X131523809Y-111444952D01*
X131523809Y-111444952D02*
X131571428Y-111483047D01*
X131571428Y-111483047D02*
X131619047Y-111559238D01*
X131619047Y-111559238D02*
X131619047Y-111749714D01*
X131619047Y-111749714D02*
X131571428Y-111825904D01*
X131571428Y-111825904D02*
X131523809Y-111864000D01*
X131523809Y-111864000D02*
X131428571Y-111902095D01*
X131428571Y-111902095D02*
X131142857Y-111902095D01*
X131142857Y-111902095D02*
X131047619Y-111864000D01*
X131047619Y-111864000D02*
X131000000Y-111825904D01*
G36*
X103782686Y-111890579D02*
G01*
X103782686Y-111750628D01*
X104251632Y-111750628D01*
X104251632Y-111582588D01*
X103782686Y-111322226D01*
X103782686Y-111172260D01*
X104312693Y-111471946D01*
X104830000Y-111166643D01*
X104830000Y-111317829D01*
X104376685Y-111584054D01*
X104376685Y-111750628D01*
X104830000Y-111750628D01*
X104830000Y-111890579D01*
X103782686Y-111890579D01*
G37*
G36*
X104837815Y-110709665D02*
G01*
X104837652Y-110726118D01*
X104837163Y-110742141D01*
X104836347Y-110757733D01*
X104835205Y-110772893D01*
X104833737Y-110787622D01*
X104831942Y-110801920D01*
X104829821Y-110815786D01*
X104827374Y-110829221D01*
X104824600Y-110842225D01*
X104821501Y-110854798D01*
X104818075Y-110866940D01*
X104814322Y-110878650D01*
X104810243Y-110889929D01*
X104805839Y-110900777D01*
X104801107Y-110911194D01*
X104796050Y-110921179D01*
X104790511Y-110930767D01*
X104784399Y-110940054D01*
X104777711Y-110949040D01*
X104770450Y-110957724D01*
X104762614Y-110966106D01*
X104754204Y-110974187D01*
X104745220Y-110981967D01*
X104735661Y-110989445D01*
X104725527Y-110996621D01*
X104714820Y-111003496D01*
X104703538Y-111010070D01*
X104691682Y-111016342D01*
X104679251Y-111022313D01*
X104666246Y-111027982D01*
X104652667Y-111033349D01*
X104638513Y-111038415D01*
X104623635Y-111043177D01*
X104607945Y-111047632D01*
X104591441Y-111051779D01*
X104574125Y-111055619D01*
X104555995Y-111059152D01*
X104537053Y-111062378D01*
X104527277Y-111063876D01*
X104517298Y-111065296D01*
X104507116Y-111066640D01*
X104496730Y-111067908D01*
X104486141Y-111069098D01*
X104475349Y-111070212D01*
X104464354Y-111071249D01*
X104453156Y-111072209D01*
X104441754Y-111073092D01*
X104430149Y-111073898D01*
X104418341Y-111074628D01*
X104406330Y-111075281D01*
X104394115Y-111075857D01*
X104381697Y-111076356D01*
X104369077Y-111076778D01*
X104356252Y-111077124D01*
X104343225Y-111077393D01*
X104329994Y-111077585D01*
X104316560Y-111077700D01*
X104302923Y-111077739D01*
X104289964Y-111077699D01*
X104277187Y-111077579D01*
X104264595Y-111077380D01*
X104252186Y-111077101D01*
X104239961Y-111076743D01*
X104227919Y-111076305D01*
X104216061Y-111075787D01*
X104204387Y-111075189D01*
X104192896Y-111074512D01*
X104181589Y-111073755D01*
X104170466Y-111072919D01*
X104159526Y-111072003D01*
X104148770Y-111071007D01*
X104138198Y-111069931D01*
X104127809Y-111068776D01*
X104117604Y-111067541D01*
X104107583Y-111066227D01*
X104097745Y-111064833D01*
X104078621Y-111061805D01*
X104060231Y-111058460D01*
X104042576Y-111054795D01*
X104025655Y-111050812D01*
X104009469Y-111046510D01*
X103994018Y-111041889D01*
X103979302Y-111036950D01*
X103965226Y-111031699D01*
X103951698Y-111026142D01*
X103938718Y-111020280D01*
X103926286Y-111014113D01*
X103914401Y-111007641D01*
X103903064Y-111000863D01*
X103892274Y-110993780D01*
X103882032Y-110986392D01*
X103872338Y-110978698D01*
X103863191Y-110970699D01*
X103854592Y-110962395D01*
X103846540Y-110953785D01*
X103839037Y-110944870D01*
X103832080Y-110935650D01*
X103825672Y-110926125D01*
X103819811Y-110916294D01*
X103814369Y-110906077D01*
X103809278Y-110895453D01*
X103804538Y-110884423D01*
X103800150Y-110872987D01*
X103796112Y-110861144D01*
X103792425Y-110848894D01*
X103789090Y-110836239D01*
X103786106Y-110823176D01*
X103783472Y-110809708D01*
X103781190Y-110795833D01*
X103779259Y-110781551D01*
X103777679Y-110766863D01*
X103776450Y-110751769D01*
X103775573Y-110736268D01*
X103775046Y-110720361D01*
X103774870Y-110704047D01*
X103774976Y-110690255D01*
X103775291Y-110676266D01*
X103775817Y-110662080D01*
X103776553Y-110647696D01*
X103777500Y-110633114D01*
X103778248Y-110623283D01*
X103779090Y-110613365D01*
X103780025Y-110603358D01*
X103781053Y-110593264D01*
X103782175Y-110583082D01*
X103783391Y-110572813D01*
X103784700Y-110562455D01*
X103786102Y-110552010D01*
X103786838Y-110546755D01*
X103788323Y-110536298D01*
X103789846Y-110525994D01*
X103791406Y-110515843D01*
X103793005Y-110505844D01*
X103794643Y-110495998D01*
X103796318Y-110486304D01*
X103798903Y-110472051D01*
X103801573Y-110458140D01*
X103804329Y-110444573D01*
X103807172Y-110431350D01*
X103810100Y-110418470D01*
X103813113Y-110405933D01*
X103815170Y-110397766D01*
X103921416Y-110397766D01*
X103919645Y-110409585D01*
X103917875Y-110422450D01*
X103916547Y-110432785D01*
X103915218Y-110443708D01*
X103913890Y-110455219D01*
X103912562Y-110467318D01*
X103911234Y-110480006D01*
X103909906Y-110493282D01*
X103908578Y-110507145D01*
X103907250Y-110521598D01*
X103906363Y-110531429D01*
X103905533Y-110541263D01*
X103904760Y-110551098D01*
X103904044Y-110560936D01*
X103903386Y-110570775D01*
X103902785Y-110580617D01*
X103902241Y-110590460D01*
X103901755Y-110600305D01*
X103901325Y-110610152D01*
X103900953Y-110620001D01*
X103900638Y-110629852D01*
X103900381Y-110639704D01*
X103900180Y-110649559D01*
X103900037Y-110659415D01*
X103899951Y-110669274D01*
X103899923Y-110679134D01*
X103900049Y-110691413D01*
X103900426Y-110703337D01*
X103901056Y-110714906D01*
X103901938Y-110726120D01*
X103903071Y-110736980D01*
X103904456Y-110747484D01*
X103906094Y-110757633D01*
X103907983Y-110767428D01*
X103911289Y-110781454D01*
X103915161Y-110794682D01*
X103919601Y-110807111D01*
X103924607Y-110818742D01*
X103930179Y-110829574D01*
X103932163Y-110833007D01*
X103938641Y-110842877D01*
X103946076Y-110852244D01*
X103954469Y-110861109D01*
X103963819Y-110869472D01*
X103974127Y-110877332D01*
X103985392Y-110884690D01*
X103997614Y-110891546D01*
X104010794Y-110897899D01*
X104020112Y-110901856D01*
X104029856Y-110905589D01*
X104040026Y-110909099D01*
X104050621Y-110912386D01*
X104061715Y-110915462D01*
X104073442Y-110918340D01*
X104085803Y-110921019D01*
X104098797Y-110923499D01*
X104112425Y-110925781D01*
X104126687Y-110927865D01*
X104141582Y-110929750D01*
X104157110Y-110931437D01*
X104173272Y-110932925D01*
X104190068Y-110934215D01*
X104207497Y-110935307D01*
X104225560Y-110936200D01*
X104244256Y-110936894D01*
X104263585Y-110937390D01*
X104273487Y-110937564D01*
X104283548Y-110937688D01*
X104293767Y-110937763D01*
X104304145Y-110937787D01*
X104314778Y-110937764D01*
X104325245Y-110937694D01*
X104335546Y-110937577D01*
X104345681Y-110937413D01*
X104355650Y-110937203D01*
X104365453Y-110936946D01*
X104384562Y-110936291D01*
X104403006Y-110935450D01*
X104420786Y-110934421D01*
X104437902Y-110933206D01*
X104454354Y-110931803D01*
X104470142Y-110930214D01*
X104485266Y-110928437D01*
X104499726Y-110926474D01*
X104513522Y-110924323D01*
X104526654Y-110921986D01*
X104539122Y-110919462D01*
X104550925Y-110916750D01*
X104562065Y-110913852D01*
X104572661Y-110910744D01*
X104582833Y-110907406D01*
X104592582Y-110903837D01*
X104601907Y-110900037D01*
X104610809Y-110896006D01*
X104623367Y-110889526D01*
X104634972Y-110882527D01*
X104645623Y-110875009D01*
X104655322Y-110866971D01*
X104664067Y-110858414D01*
X104671860Y-110849337D01*
X104678699Y-110839741D01*
X104680767Y-110836427D01*
X104686485Y-110825968D01*
X104691641Y-110814651D01*
X104696234Y-110802475D01*
X104700265Y-110789440D01*
X104703733Y-110775547D01*
X104705733Y-110765808D01*
X104707482Y-110755687D01*
X104708982Y-110745185D01*
X104710232Y-110734301D01*
X104711232Y-110723035D01*
X104711982Y-110711388D01*
X104712482Y-110699359D01*
X104712732Y-110686948D01*
X104712763Y-110680600D01*
X104712746Y-110670016D01*
X104712696Y-110659545D01*
X104712613Y-110649187D01*
X104712496Y-110638941D01*
X104712346Y-110628808D01*
X104712162Y-110618787D01*
X104711945Y-110608879D01*
X104711694Y-110599084D01*
X104711093Y-110579830D01*
X104710359Y-110561028D01*
X104709490Y-110542675D01*
X104708489Y-110524773D01*
X104707353Y-110507321D01*
X104706084Y-110490319D01*
X104704682Y-110473768D01*
X104703146Y-110457667D01*
X104701476Y-110442016D01*
X104699673Y-110426816D01*
X104697736Y-110412066D01*
X104695666Y-110397766D01*
X104803133Y-110397766D01*
X104807333Y-110415471D01*
X104811261Y-110433414D01*
X104814919Y-110451596D01*
X104818306Y-110470017D01*
X104821422Y-110488675D01*
X104824267Y-110507573D01*
X104826842Y-110526709D01*
X104829145Y-110546083D01*
X104830195Y-110555860D01*
X104831177Y-110565696D01*
X104832091Y-110575592D01*
X104832938Y-110585547D01*
X104833717Y-110595562D01*
X104834428Y-110605637D01*
X104835072Y-110615772D01*
X104835648Y-110625966D01*
X104836156Y-110636219D01*
X104836596Y-110646533D01*
X104836969Y-110656905D01*
X104837273Y-110667338D01*
X104837510Y-110677830D01*
X104837680Y-110688382D01*
X104837781Y-110698993D01*
X104837815Y-110709665D01*
G37*
G36*
X104719846Y-110262944D02*
G01*
X104355436Y-109893405D01*
X104345903Y-109883603D01*
X104336476Y-109874163D01*
X104327157Y-109865086D01*
X104317944Y-109856372D01*
X104308839Y-109848020D01*
X104299840Y-109840030D01*
X104290948Y-109832403D01*
X104282163Y-109825139D01*
X104273485Y-109818237D01*
X104264913Y-109811698D01*
X104256449Y-109805521D01*
X104248091Y-109799707D01*
X104239840Y-109794256D01*
X104227664Y-109786758D01*
X104215729Y-109780076D01*
X104203739Y-109774053D01*
X104191491Y-109768622D01*
X104178986Y-109763783D01*
X104166224Y-109759537D01*
X104153204Y-109755883D01*
X104139926Y-109752822D01*
X104126390Y-109750354D01*
X104112597Y-109748477D01*
X104098547Y-109747194D01*
X104084238Y-109746502D01*
X104074556Y-109746371D01*
X104060490Y-109746766D01*
X104047050Y-109747951D01*
X104034238Y-109749926D01*
X104022052Y-109752691D01*
X104010493Y-109756245D01*
X103999560Y-109760590D01*
X103989255Y-109765725D01*
X103979576Y-109771650D01*
X103970525Y-109778365D01*
X103962100Y-109785869D01*
X103956831Y-109791311D01*
X103949455Y-109800282D01*
X103942804Y-109810434D01*
X103936878Y-109821766D01*
X103931678Y-109834279D01*
X103927204Y-109847973D01*
X103924624Y-109857758D01*
X103922367Y-109868067D01*
X103920432Y-109878902D01*
X103918819Y-109890261D01*
X103917529Y-109902145D01*
X103916562Y-109914554D01*
X103915917Y-109927487D01*
X103915595Y-109940945D01*
X103915554Y-109947871D01*
X103915554Y-110230704D01*
X103800027Y-110230704D01*
X103798480Y-110219382D01*
X103796981Y-110208161D01*
X103795532Y-110197042D01*
X103794131Y-110186023D01*
X103792780Y-110175106D01*
X103791478Y-110164289D01*
X103790225Y-110153574D01*
X103789021Y-110142960D01*
X103787867Y-110132447D01*
X103786761Y-110122035D01*
X103785705Y-110111725D01*
X103784697Y-110101515D01*
X103783739Y-110091407D01*
X103782830Y-110081399D01*
X103781970Y-110071493D01*
X103781160Y-110061688D01*
X103779686Y-110042382D01*
X103778408Y-110023480D01*
X103777327Y-110004982D01*
X103776443Y-109986889D01*
X103775755Y-109969200D01*
X103775263Y-109951916D01*
X103774969Y-109935037D01*
X103774870Y-109918562D01*
X103774940Y-109908064D01*
X103775147Y-109897757D01*
X103775493Y-109887643D01*
X103775977Y-109877720D01*
X103777361Y-109858450D01*
X103779297Y-109839946D01*
X103781787Y-109822210D01*
X103784831Y-109805241D01*
X103788428Y-109789039D01*
X103792578Y-109773604D01*
X103797282Y-109758936D01*
X103802539Y-109745035D01*
X103808349Y-109731901D01*
X103814713Y-109719535D01*
X103821630Y-109707935D01*
X103829100Y-109697102D01*
X103837124Y-109687037D01*
X103845701Y-109677739D01*
X103854773Y-109669102D01*
X103864343Y-109661023D01*
X103874412Y-109653501D01*
X103884978Y-109646536D01*
X103896043Y-109640129D01*
X103907605Y-109634279D01*
X103919665Y-109628985D01*
X103932224Y-109624249D01*
X103945280Y-109620070D01*
X103958835Y-109616449D01*
X103972887Y-109613384D01*
X103987438Y-109610877D01*
X104002487Y-109608927D01*
X104018033Y-109607534D01*
X104034078Y-109606698D01*
X104050621Y-109606420D01*
X104063934Y-109606581D01*
X104077067Y-109607065D01*
X104090022Y-109607871D01*
X104102797Y-109608999D01*
X104115393Y-109610451D01*
X104127809Y-109612224D01*
X104140046Y-109614320D01*
X104152103Y-109616739D01*
X104163982Y-109619480D01*
X104175681Y-109622543D01*
X104187200Y-109625929D01*
X104198540Y-109629638D01*
X104209701Y-109633669D01*
X104220682Y-109638022D01*
X104231484Y-109642698D01*
X104242107Y-109647697D01*
X104252673Y-109653067D01*
X104263306Y-109658859D01*
X104274006Y-109665073D01*
X104284773Y-109671709D01*
X104295607Y-109678766D01*
X104306507Y-109686245D01*
X104317474Y-109694146D01*
X104328508Y-109702468D01*
X104339609Y-109711212D01*
X104350776Y-109720378D01*
X104362010Y-109729965D01*
X104373311Y-109739975D01*
X104384679Y-109750406D01*
X104396114Y-109761258D01*
X104407615Y-109772532D01*
X104419183Y-109784228D01*
X104704947Y-110073900D01*
X104704947Y-109575157D01*
X104830000Y-109575157D01*
X104830000Y-110262944D01*
X104719846Y-110262944D01*
G37*
G36*
X104717404Y-109451081D02*
G01*
X103907739Y-108947941D01*
X103907739Y-109451081D01*
X103782686Y-109451081D01*
X103782686Y-108778925D01*
X103895282Y-108778925D01*
X104704947Y-109282065D01*
X104704947Y-108778925D01*
X104830000Y-108778925D01*
X104830000Y-109451081D01*
X104717404Y-109451081D01*
G37*
G36*
X104837815Y-108318527D02*
G01*
X104837588Y-108334391D01*
X104836907Y-108349805D01*
X104835772Y-108364769D01*
X104834182Y-108379282D01*
X104832139Y-108393346D01*
X104829641Y-108406958D01*
X104826689Y-108420121D01*
X104823283Y-108432833D01*
X104819423Y-108445094D01*
X104815108Y-108456906D01*
X104810340Y-108468267D01*
X104805117Y-108479178D01*
X104799441Y-108489638D01*
X104793310Y-108499648D01*
X104786725Y-108509208D01*
X104779685Y-108518318D01*
X104772167Y-108527035D01*
X104764207Y-108535419D01*
X104755803Y-108543468D01*
X104746957Y-108551184D01*
X104737668Y-108558565D01*
X104727937Y-108565613D01*
X104717762Y-108572327D01*
X104707145Y-108578707D01*
X104696086Y-108584753D01*
X104684583Y-108590465D01*
X104672638Y-108595843D01*
X104660251Y-108600887D01*
X104647420Y-108605597D01*
X104634147Y-108609974D01*
X104620432Y-108614016D01*
X104606273Y-108617725D01*
X104591586Y-108621155D01*
X104576346Y-108624365D01*
X104560552Y-108627353D01*
X104544205Y-108630120D01*
X104527304Y-108632665D01*
X104509851Y-108634989D01*
X104491843Y-108637092D01*
X104473283Y-108638974D01*
X104454169Y-108640634D01*
X104444404Y-108641381D01*
X104434502Y-108642073D01*
X104424460Y-108642709D01*
X104414281Y-108643290D01*
X104403963Y-108643816D01*
X104393507Y-108644286D01*
X104382912Y-108644701D01*
X104372180Y-108645061D01*
X104361308Y-108645365D01*
X104350299Y-108645614D01*
X104339151Y-108645808D01*
X104327865Y-108645946D01*
X104316440Y-108646029D01*
X104304877Y-108646057D01*
X104293406Y-108646026D01*
X104282071Y-108645936D01*
X104270874Y-108645784D01*
X104259815Y-108645572D01*
X104248892Y-108645299D01*
X104238107Y-108644966D01*
X104227460Y-108644572D01*
X104216950Y-108644118D01*
X104206577Y-108643603D01*
X104196342Y-108643028D01*
X104186244Y-108642391D01*
X104176284Y-108641695D01*
X104166460Y-108640937D01*
X104147226Y-108639241D01*
X104128542Y-108637302D01*
X104110407Y-108635121D01*
X104092821Y-108632698D01*
X104075785Y-108630032D01*
X104059299Y-108627124D01*
X104043362Y-108623974D01*
X104027975Y-108620581D01*
X104013137Y-108616946D01*
X104005924Y-108615038D01*
X103991854Y-108610943D01*
X103978222Y-108606474D01*
X103965026Y-108601631D01*
X103952267Y-108596414D01*
X103939945Y-108590823D01*
X103928060Y-108584859D01*
X103916612Y-108578520D01*
X103905601Y-108571807D01*
X103895027Y-108564720D01*
X103884890Y-108557259D01*
X103875190Y-108549424D01*
X103865927Y-108541215D01*
X103857101Y-108532633D01*
X103848712Y-108523676D01*
X103840760Y-108514345D01*
X103833244Y-108504640D01*
X103826176Y-108494474D01*
X103819563Y-108483822D01*
X103813406Y-108472683D01*
X103807706Y-108461058D01*
X103802461Y-108448946D01*
X103797673Y-108436348D01*
X103793340Y-108423262D01*
X103789464Y-108409691D01*
X103786044Y-108395632D01*
X103783079Y-108381088D01*
X103780571Y-108366056D01*
X103778519Y-108350538D01*
X103776923Y-108334534D01*
X103775782Y-108318042D01*
X103775098Y-108301065D01*
X103774870Y-108283600D01*
X103774907Y-108272901D01*
X103775017Y-108262204D01*
X103775201Y-108251511D01*
X103775458Y-108240820D01*
X103775789Y-108230132D01*
X103776193Y-108219447D01*
X103776670Y-108208764D01*
X103777221Y-108198085D01*
X103777846Y-108187408D01*
X103778544Y-108176735D01*
X103779315Y-108166064D01*
X103780160Y-108155396D01*
X103781078Y-108144731D01*
X103782070Y-108134068D01*
X103783135Y-108123409D01*
X103784274Y-108112752D01*
X103785486Y-108102099D01*
X103786772Y-108091448D01*
X103788131Y-108080800D01*
X103789563Y-108070155D01*
X103791069Y-108059513D01*
X103792649Y-108048873D01*
X103794302Y-108038237D01*
X103796028Y-108027603D01*
X103797828Y-108016973D01*
X103799701Y-108006345D01*
X103801648Y-107995720D01*
X103803668Y-107985097D01*
X103805762Y-107974478D01*
X103807929Y-107963862D01*
X103810170Y-107953248D01*
X103812484Y-107942637D01*
X103920439Y-107942637D01*
X103919177Y-107952826D01*
X103917955Y-107962998D01*
X103916773Y-107973154D01*
X103915631Y-107983292D01*
X103914529Y-107993414D01*
X103913467Y-108003520D01*
X103912445Y-108013608D01*
X103911463Y-108023680D01*
X103910522Y-108033735D01*
X103909620Y-108043774D01*
X103908758Y-108053796D01*
X103907937Y-108063801D01*
X103907156Y-108073789D01*
X103906414Y-108083761D01*
X103905713Y-108093716D01*
X103905052Y-108103654D01*
X103904431Y-108113576D01*
X103903850Y-108123481D01*
X103903309Y-108133369D01*
X103902808Y-108143241D01*
X103902347Y-108153096D01*
X103901926Y-108162934D01*
X103901546Y-108172755D01*
X103901205Y-108182560D01*
X103900904Y-108192348D01*
X103900644Y-108202120D01*
X103900243Y-108221612D01*
X103900003Y-108241038D01*
X103899923Y-108260397D01*
X103900077Y-108272640D01*
X103900541Y-108284516D01*
X103901314Y-108296026D01*
X103902396Y-108307170D01*
X103903787Y-108317947D01*
X103905487Y-108328358D01*
X103907496Y-108338402D01*
X103909815Y-108348080D01*
X103913872Y-108361911D01*
X103918624Y-108374917D01*
X103924073Y-108387098D01*
X103930216Y-108398456D01*
X103937056Y-108408989D01*
X103939490Y-108412316D01*
X103947282Y-108421883D01*
X103955911Y-108430892D01*
X103965377Y-108439343D01*
X103975680Y-108447235D01*
X103986820Y-108454570D01*
X103998798Y-108461346D01*
X104011613Y-108467564D01*
X104020621Y-108471400D01*
X104030002Y-108474987D01*
X104039754Y-108478326D01*
X104049879Y-108481417D01*
X104060376Y-108484261D01*
X104065764Y-108485589D01*
X104076870Y-108488074D01*
X104088513Y-108490398D01*
X104100691Y-108492562D01*
X104113406Y-108494565D01*
X104126657Y-108496408D01*
X104140445Y-108498091D01*
X104154768Y-108499614D01*
X104169628Y-108500976D01*
X104185024Y-108502179D01*
X104200956Y-108503220D01*
X104217424Y-108504102D01*
X104234429Y-108504823D01*
X104251969Y-108505384D01*
X104270046Y-108505785D01*
X104288659Y-108506025D01*
X104307808Y-108506106D01*
X104317870Y-108506086D01*
X104327784Y-108506025D01*
X104347166Y-108505785D01*
X104365954Y-108505384D01*
X104384149Y-108504823D01*
X104401751Y-108504102D01*
X104418759Y-108503220D01*
X104435174Y-108502179D01*
X104450996Y-108500976D01*
X104466224Y-108499614D01*
X104480858Y-108498091D01*
X104494899Y-108496408D01*
X104508347Y-108494565D01*
X104521201Y-108492562D01*
X104533462Y-108490398D01*
X104545129Y-108488074D01*
X104556203Y-108485589D01*
X104566752Y-108482885D01*
X104576907Y-108479964D01*
X104586666Y-108476825D01*
X104596030Y-108473469D01*
X104609336Y-108468026D01*
X104621753Y-108462094D01*
X104633281Y-108455673D01*
X104643921Y-108448762D01*
X104653672Y-108441362D01*
X104662534Y-108433472D01*
X104670507Y-108425093D01*
X104677592Y-108416224D01*
X104683877Y-108406685D01*
X104689545Y-108396386D01*
X104694594Y-108385327D01*
X104699024Y-108373508D01*
X104702837Y-108360930D01*
X104706031Y-108347591D01*
X104708607Y-108333492D01*
X104709981Y-108323671D01*
X104711080Y-108313512D01*
X104711904Y-108303015D01*
X104712454Y-108292181D01*
X104712729Y-108281009D01*
X104712763Y-108275296D01*
X104712576Y-108261626D01*
X104712015Y-108247788D01*
X104711080Y-108233782D01*
X104709771Y-108219609D01*
X104708088Y-108205267D01*
X104706031Y-108190758D01*
X104703600Y-108176080D01*
X104700795Y-108161235D01*
X104697616Y-108146221D01*
X104694063Y-108131040D01*
X104690136Y-108115691D01*
X104685835Y-108100174D01*
X104681160Y-108084489D01*
X104676111Y-108068636D01*
X104670688Y-108052615D01*
X104664891Y-108036427D01*
X104381814Y-108036427D01*
X104381814Y-108268457D01*
X104280453Y-108268457D01*
X104278856Y-108256651D01*
X104277362Y-108244434D01*
X104275971Y-108231807D01*
X104274683Y-108218769D01*
X104273498Y-108205321D01*
X104272416Y-108191464D01*
X104271437Y-108177195D01*
X104270561Y-108162517D01*
X104269788Y-108147428D01*
X104269119Y-108131929D01*
X104268552Y-108116020D01*
X104268088Y-108099701D01*
X104267728Y-108082971D01*
X104267470Y-108065831D01*
X104267316Y-108048281D01*
X104267264Y-108030321D01*
X104267311Y-108018478D01*
X104267453Y-108006490D01*
X104267689Y-107994355D01*
X104268020Y-107982075D01*
X104268445Y-107969649D01*
X104268964Y-107957076D01*
X104269578Y-107944358D01*
X104270286Y-107931494D01*
X104271089Y-107918484D01*
X104271987Y-107905327D01*
X104272637Y-107896475D01*
X104830000Y-107896475D01*
X104830000Y-108004675D01*
X104761367Y-108026413D01*
X104766940Y-108037434D01*
X104772393Y-108048789D01*
X104777725Y-108060480D01*
X104782937Y-108072506D01*
X104788029Y-108084866D01*
X104793001Y-108097562D01*
X104797852Y-108110592D01*
X104802583Y-108123957D01*
X104807194Y-108137657D01*
X104810202Y-108146977D01*
X104813155Y-108156445D01*
X104814612Y-108161235D01*
X104817422Y-108170865D01*
X104820050Y-108180522D01*
X104822498Y-108190206D01*
X104824764Y-108199917D01*
X104826848Y-108209654D01*
X104828752Y-108219418D01*
X104830474Y-108229209D01*
X104832015Y-108239026D01*
X104833374Y-108248870D01*
X104834552Y-108258741D01*
X104835549Y-108268639D01*
X104836365Y-108278563D01*
X104837000Y-108288514D01*
X104837453Y-108298492D01*
X104837725Y-108308496D01*
X104837815Y-108318527D01*
G37*
G36*
X104837815Y-107321039D02*
G01*
X104837743Y-107332872D01*
X104837524Y-107344528D01*
X104837161Y-107356005D01*
X104836651Y-107367304D01*
X104835997Y-107378426D01*
X104835196Y-107389369D01*
X104834251Y-107400135D01*
X104833159Y-107410722D01*
X104831923Y-107421132D01*
X104830540Y-107431364D01*
X104829013Y-107441417D01*
X104827340Y-107451293D01*
X104825521Y-107460991D01*
X104821447Y-107479853D01*
X104816791Y-107498003D01*
X104811553Y-107515442D01*
X104805733Y-107532169D01*
X104799332Y-107548184D01*
X104792348Y-107563487D01*
X104784782Y-107578079D01*
X104776634Y-107591959D01*
X104767904Y-107605127D01*
X104763321Y-107611444D01*
X104753539Y-107623511D01*
X104742877Y-107634800D01*
X104731336Y-107645310D01*
X104718915Y-107655041D01*
X104705614Y-107663994D01*
X104691434Y-107672169D01*
X104676374Y-107679565D01*
X104660434Y-107686182D01*
X104643615Y-107692021D01*
X104625916Y-107697082D01*
X104607337Y-107701364D01*
X104597718Y-107703213D01*
X104587879Y-107704867D01*
X104577819Y-107706327D01*
X104567541Y-107707592D01*
X104557042Y-107708662D01*
X104546323Y-107709538D01*
X104535384Y-107710219D01*
X104524226Y-107710706D01*
X104512847Y-107710998D01*
X104501249Y-107711095D01*
X103782686Y-107711095D01*
X103782686Y-107571144D01*
X104503203Y-107571144D01*
X104517347Y-107570899D01*
X104530958Y-107570163D01*
X104544038Y-107568937D01*
X104556585Y-107567221D01*
X104568600Y-107565014D01*
X104580082Y-107562317D01*
X104591032Y-107559129D01*
X104601449Y-107555451D01*
X104611334Y-107551283D01*
X104620687Y-107546624D01*
X104629508Y-107541475D01*
X104637796Y-107535836D01*
X104645551Y-107529706D01*
X104652775Y-107523085D01*
X104662611Y-107512235D01*
X104665624Y-107508374D01*
X104671332Y-107500257D01*
X104676672Y-107491662D01*
X104681644Y-107482588D01*
X104686247Y-107473035D01*
X104690482Y-107463003D01*
X104694349Y-107452492D01*
X104697848Y-107441502D01*
X104700978Y-107430033D01*
X104703740Y-107418085D01*
X104706134Y-107405658D01*
X104708160Y-107392752D01*
X104709817Y-107379368D01*
X104711106Y-107365504D01*
X104712026Y-107351161D01*
X104712579Y-107336340D01*
X104712763Y-107321039D01*
X104712579Y-107305562D01*
X104712026Y-107290578D01*
X104711106Y-107276085D01*
X104709817Y-107262085D01*
X104708160Y-107248577D01*
X104706134Y-107235562D01*
X104703740Y-107223039D01*
X104700978Y-107211008D01*
X104697848Y-107199469D01*
X104694349Y-107188423D01*
X104690482Y-107177869D01*
X104686247Y-107167807D01*
X104681644Y-107158238D01*
X104676672Y-107149161D01*
X104671332Y-107140576D01*
X104665624Y-107132484D01*
X104659466Y-107124853D01*
X104652775Y-107117715D01*
X104645551Y-107111069D01*
X104637796Y-107104915D01*
X104629508Y-107099253D01*
X104620687Y-107094084D01*
X104611334Y-107089407D01*
X104601449Y-107085223D01*
X104591032Y-107081531D01*
X104580082Y-107078331D01*
X104568600Y-107075623D01*
X104556585Y-107073408D01*
X104544038Y-107071685D01*
X104530958Y-107070454D01*
X104517347Y-107069715D01*
X104503203Y-107069469D01*
X103782686Y-107069469D01*
X103782686Y-106929518D01*
X104501249Y-106929518D01*
X104512847Y-106929616D01*
X104524226Y-106929910D01*
X104535384Y-106930400D01*
X104546323Y-106931086D01*
X104557042Y-106931969D01*
X104567541Y-106933047D01*
X104577819Y-106934322D01*
X104587879Y-106935792D01*
X104597718Y-106937459D01*
X104607337Y-106939321D01*
X104625916Y-106943634D01*
X104643615Y-106948732D01*
X104660434Y-106954614D01*
X104676374Y-106961280D01*
X104691434Y-106968730D01*
X104705614Y-106976965D01*
X104718915Y-106985984D01*
X104731336Y-106995787D01*
X104742877Y-107006374D01*
X104753539Y-107017746D01*
X104763321Y-107029902D01*
X104772342Y-107042803D01*
X104780781Y-107056410D01*
X104788638Y-107070723D01*
X104795912Y-107085742D01*
X104802605Y-107101467D01*
X104808716Y-107117898D01*
X104814245Y-107135035D01*
X104819192Y-107152878D01*
X104823557Y-107171427D01*
X104827340Y-107190682D01*
X104829013Y-107200575D01*
X104830540Y-107210643D01*
X104831923Y-107220889D01*
X104833159Y-107231311D01*
X104834251Y-107241909D01*
X104835196Y-107252684D01*
X104835997Y-107263635D01*
X104836651Y-107274763D01*
X104837161Y-107286067D01*
X104837524Y-107297548D01*
X104837743Y-107309205D01*
X104837815Y-107321039D01*
G37*
X110095238Y-100377619D02*
X110666666Y-100377619D01*
X110380952Y-101377619D02*
X110380952Y-100377619D01*
X111761905Y-100996666D02*
X112523810Y-100996666D01*
X116190476Y-101330000D02*
X116333333Y-101377619D01*
X116333333Y-101377619D02*
X116571428Y-101377619D01*
X116571428Y-101377619D02*
X116666666Y-101330000D01*
X116666666Y-101330000D02*
X116714285Y-101282380D01*
X116714285Y-101282380D02*
X116761904Y-101187142D01*
X116761904Y-101187142D02*
X116761904Y-101091904D01*
X116761904Y-101091904D02*
X116714285Y-100996666D01*
X116714285Y-100996666D02*
X116666666Y-100949047D01*
X116666666Y-100949047D02*
X116571428Y-100901428D01*
X116571428Y-100901428D02*
X116380952Y-100853809D01*
X116380952Y-100853809D02*
X116285714Y-100806190D01*
X116285714Y-100806190D02*
X116238095Y-100758571D01*
X116238095Y-100758571D02*
X116190476Y-100663333D01*
X116190476Y-100663333D02*
X116190476Y-100568095D01*
X116190476Y-100568095D02*
X116238095Y-100472857D01*
X116238095Y-100472857D02*
X116285714Y-100425238D01*
X116285714Y-100425238D02*
X116380952Y-100377619D01*
X116380952Y-100377619D02*
X116619047Y-100377619D01*
X116619047Y-100377619D02*
X116761904Y-100425238D01*
X117190476Y-100853809D02*
X117523809Y-100853809D01*
X117666666Y-101377619D02*
X117190476Y-101377619D01*
X117190476Y-101377619D02*
X117190476Y-100377619D01*
X117190476Y-100377619D02*
X117666666Y-100377619D01*
X118095238Y-101377619D02*
X118095238Y-100377619D01*
X118095238Y-100377619D02*
X118666666Y-101377619D01*
X118666666Y-101377619D02*
X118666666Y-100377619D01*
X119095238Y-101330000D02*
X119238095Y-101377619D01*
X119238095Y-101377619D02*
X119476190Y-101377619D01*
X119476190Y-101377619D02*
X119571428Y-101330000D01*
X119571428Y-101330000D02*
X119619047Y-101282380D01*
X119619047Y-101282380D02*
X119666666Y-101187142D01*
X119666666Y-101187142D02*
X119666666Y-101091904D01*
X119666666Y-101091904D02*
X119619047Y-100996666D01*
X119619047Y-100996666D02*
X119571428Y-100949047D01*
X119571428Y-100949047D02*
X119476190Y-100901428D01*
X119476190Y-100901428D02*
X119285714Y-100853809D01*
X119285714Y-100853809D02*
X119190476Y-100806190D01*
X119190476Y-100806190D02*
X119142857Y-100758571D01*
X119142857Y-100758571D02*
X119095238Y-100663333D01*
X119095238Y-100663333D02*
X119095238Y-100568095D01*
X119095238Y-100568095D02*
X119142857Y-100472857D01*
X119142857Y-100472857D02*
X119190476Y-100425238D01*
X119190476Y-100425238D02*
X119285714Y-100377619D01*
X119285714Y-100377619D02*
X119523809Y-100377619D01*
X119523809Y-100377619D02*
X119666666Y-100425238D01*
X120857143Y-100996666D02*
X121619048Y-100996666D01*
X121238095Y-101377619D02*
X121238095Y-100615714D01*
X106166666Y-114877619D02*
X106166666Y-114353809D01*
X106166666Y-114353809D02*
X106119047Y-114258571D01*
X106119047Y-114258571D02*
X106023809Y-114210952D01*
X106023809Y-114210952D02*
X105833333Y-114210952D01*
X105833333Y-114210952D02*
X105738095Y-114258571D01*
X106166666Y-114830000D02*
X106071428Y-114877619D01*
X106071428Y-114877619D02*
X105833333Y-114877619D01*
X105833333Y-114877619D02*
X105738095Y-114830000D01*
X105738095Y-114830000D02*
X105690476Y-114734761D01*
X105690476Y-114734761D02*
X105690476Y-114639523D01*
X105690476Y-114639523D02*
X105738095Y-114544285D01*
X105738095Y-114544285D02*
X105833333Y-114496666D01*
X105833333Y-114496666D02*
X106071428Y-114496666D01*
X106071428Y-114496666D02*
X106166666Y-114449047D01*
X107071428Y-114210952D02*
X107071428Y-114877619D01*
X106642857Y-114210952D02*
X106642857Y-114734761D01*
X106642857Y-114734761D02*
X106690476Y-114830000D01*
X106690476Y-114830000D02*
X106785714Y-114877619D01*
X106785714Y-114877619D02*
X106928571Y-114877619D01*
X106928571Y-114877619D02*
X107023809Y-114830000D01*
X107023809Y-114830000D02*
X107071428Y-114782380D01*
X107452381Y-114877619D02*
X107976190Y-114210952D01*
X107452381Y-114210952D02*
X107976190Y-114877619D01*
X128996666Y-108761904D02*
X128996666Y-108000000D01*
X129377619Y-108380952D02*
X128615714Y-108380952D01*
X128377619Y-106571428D02*
X128377619Y-106380952D01*
X128377619Y-106380952D02*
X128425238Y-106285714D01*
X128425238Y-106285714D02*
X128520476Y-106190476D01*
X128520476Y-106190476D02*
X128710952Y-106142857D01*
X128710952Y-106142857D02*
X129044285Y-106142857D01*
X129044285Y-106142857D02*
X129234761Y-106190476D01*
X129234761Y-106190476D02*
X129330000Y-106285714D01*
X129330000Y-106285714D02*
X129377619Y-106380952D01*
X129377619Y-106380952D02*
X129377619Y-106571428D01*
X129377619Y-106571428D02*
X129330000Y-106666666D01*
X129330000Y-106666666D02*
X129234761Y-106761904D01*
X129234761Y-106761904D02*
X129044285Y-106809523D01*
X129044285Y-106809523D02*
X128710952Y-106809523D01*
X128710952Y-106809523D02*
X128520476Y-106761904D01*
X128520476Y-106761904D02*
X128425238Y-106666666D01*
X128425238Y-106666666D02*
X128377619Y-106571428D01*
X128377619Y-105714285D02*
X129187142Y-105714285D01*
X129187142Y-105714285D02*
X129282380Y-105666666D01*
X129282380Y-105666666D02*
X129330000Y-105619047D01*
X129330000Y-105619047D02*
X129377619Y-105523809D01*
X129377619Y-105523809D02*
X129377619Y-105333333D01*
X129377619Y-105333333D02*
X129330000Y-105238095D01*
X129330000Y-105238095D02*
X129282380Y-105190476D01*
X129282380Y-105190476D02*
X129187142Y-105142857D01*
X129187142Y-105142857D02*
X128377619Y-105142857D01*
X128377619Y-104809523D02*
X128377619Y-104238095D01*
X129377619Y-104523809D02*
X128377619Y-104523809D01*
X127309523Y-103282380D02*
X127261904Y-103330000D01*
X127261904Y-103330000D02*
X127119047Y-103377619D01*
X127119047Y-103377619D02*
X127023809Y-103377619D01*
X127023809Y-103377619D02*
X126880952Y-103330000D01*
X126880952Y-103330000D02*
X126785714Y-103234761D01*
X126785714Y-103234761D02*
X126738095Y-103139523D01*
X126738095Y-103139523D02*
X126690476Y-102949047D01*
X126690476Y-102949047D02*
X126690476Y-102806190D01*
X126690476Y-102806190D02*
X126738095Y-102615714D01*
X126738095Y-102615714D02*
X126785714Y-102520476D01*
X126785714Y-102520476D02*
X126880952Y-102425238D01*
X126880952Y-102425238D02*
X127023809Y-102377619D01*
X127023809Y-102377619D02*
X127119047Y-102377619D01*
X127119047Y-102377619D02*
X127261904Y-102425238D01*
X127261904Y-102425238D02*
X127309523Y-102472857D01*
X128166666Y-103377619D02*
X128166666Y-102377619D01*
X128166666Y-103330000D02*
X128071428Y-103377619D01*
X128071428Y-103377619D02*
X127880952Y-103377619D01*
X127880952Y-103377619D02*
X127785714Y-103330000D01*
X127785714Y-103330000D02*
X127738095Y-103282380D01*
X127738095Y-103282380D02*
X127690476Y-103187142D01*
X127690476Y-103187142D02*
X127690476Y-102901428D01*
X127690476Y-102901428D02*
X127738095Y-102806190D01*
X127738095Y-102806190D02*
X127785714Y-102758571D01*
X127785714Y-102758571D02*
X127880952Y-102710952D01*
X127880952Y-102710952D02*
X128071428Y-102710952D01*
X128071428Y-102710952D02*
X128166666Y-102758571D01*
X128595238Y-103330000D02*
X128738095Y-103377619D01*
X128738095Y-103377619D02*
X128976190Y-103377619D01*
X128976190Y-103377619D02*
X129071428Y-103330000D01*
X129071428Y-103330000D02*
X129119047Y-103282380D01*
X129119047Y-103282380D02*
X129166666Y-103187142D01*
X129166666Y-103187142D02*
X129166666Y-103091904D01*
X129166666Y-103091904D02*
X129119047Y-102996666D01*
X129119047Y-102996666D02*
X129071428Y-102949047D01*
X129071428Y-102949047D02*
X128976190Y-102901428D01*
X128976190Y-102901428D02*
X128785714Y-102853809D01*
X128785714Y-102853809D02*
X128690476Y-102806190D01*
X128690476Y-102806190D02*
X128642857Y-102758571D01*
X128642857Y-102758571D02*
X128595238Y-102663333D01*
X128595238Y-102663333D02*
X128595238Y-102568095D01*
X128595238Y-102568095D02*
X128642857Y-102472857D01*
X128642857Y-102472857D02*
X128690476Y-102425238D01*
X128690476Y-102425238D02*
X128785714Y-102377619D01*
X128785714Y-102377619D02*
X129023809Y-102377619D01*
X129023809Y-102377619D02*
X129166666Y-102425238D01*
X101708095Y-104436666D02*
X102470000Y-104436666D01*
X102089047Y-104817619D02*
X102089047Y-104055714D01*
X113713333Y-111210000D02*
X113873333Y-111257619D01*
X113873333Y-111257619D02*
X114140000Y-111257619D01*
X114140000Y-111257619D02*
X114246666Y-111210000D01*
X114246666Y-111210000D02*
X114300000Y-111162380D01*
X114300000Y-111162380D02*
X114353333Y-111067142D01*
X114353333Y-111067142D02*
X114353333Y-110971904D01*
X114353333Y-110971904D02*
X114300000Y-110876666D01*
X114300000Y-110876666D02*
X114246666Y-110829047D01*
X114246666Y-110829047D02*
X114140000Y-110781428D01*
X114140000Y-110781428D02*
X113926666Y-110733809D01*
X113926666Y-110733809D02*
X113820000Y-110686190D01*
X113820000Y-110686190D02*
X113766666Y-110638571D01*
X113766666Y-110638571D02*
X113713333Y-110543333D01*
X113713333Y-110543333D02*
X113713333Y-110448095D01*
X113713333Y-110448095D02*
X113766666Y-110352857D01*
X113766666Y-110352857D02*
X113820000Y-110305238D01*
X113820000Y-110305238D02*
X113926666Y-110257619D01*
X113926666Y-110257619D02*
X114193333Y-110257619D01*
X114193333Y-110257619D02*
X114353333Y-110305238D01*
X114833333Y-111257619D02*
X114833333Y-110257619D01*
X114833333Y-110257619D02*
X115206667Y-110971904D01*
X115206667Y-110971904D02*
X115580000Y-110257619D01*
X115580000Y-110257619D02*
X115580000Y-111257619D01*
X116060000Y-110971904D02*
X116593333Y-110971904D01*
X115953333Y-111257619D02*
X116326667Y-110257619D01*
X116326667Y-110257619D02*
X116700000Y-111257619D01*
X117713333Y-111257619D02*
X117340000Y-110781428D01*
X117073333Y-111257619D02*
X117073333Y-110257619D01*
X117073333Y-110257619D02*
X117500000Y-110257619D01*
X117500000Y-110257619D02*
X117606667Y-110305238D01*
X117606667Y-110305238D02*
X117660000Y-110352857D01*
X117660000Y-110352857D02*
X117713333Y-110448095D01*
X117713333Y-110448095D02*
X117713333Y-110590952D01*
X117713333Y-110590952D02*
X117660000Y-110686190D01*
X117660000Y-110686190D02*
X117606667Y-110733809D01*
X117606667Y-110733809D02*
X117500000Y-110781428D01*
X117500000Y-110781428D02*
X117073333Y-110781428D01*
X118033333Y-110257619D02*
X118673333Y-110257619D01*
X118353333Y-111257619D02*
X118353333Y-110257619D01*
X119899999Y-111257619D02*
X119899999Y-110257619D01*
X119899999Y-110257619D02*
X120326666Y-110257619D01*
X120326666Y-110257619D02*
X120433333Y-110305238D01*
X120433333Y-110305238D02*
X120486666Y-110352857D01*
X120486666Y-110352857D02*
X120539999Y-110448095D01*
X120539999Y-110448095D02*
X120539999Y-110590952D01*
X120539999Y-110590952D02*
X120486666Y-110686190D01*
X120486666Y-110686190D02*
X120433333Y-110733809D01*
X120433333Y-110733809D02*
X120326666Y-110781428D01*
X120326666Y-110781428D02*
X119899999Y-110781428D01*
X121019999Y-111257619D02*
X121019999Y-110257619D01*
X122193332Y-111257619D02*
X121819999Y-110781428D01*
X121553332Y-111257619D02*
X121553332Y-110257619D01*
X121553332Y-110257619D02*
X121979999Y-110257619D01*
X121979999Y-110257619D02*
X122086666Y-110305238D01*
X122086666Y-110305238D02*
X122139999Y-110352857D01*
X122139999Y-110352857D02*
X122193332Y-110448095D01*
X122193332Y-110448095D02*
X122193332Y-110590952D01*
X122193332Y-110590952D02*
X122139999Y-110686190D01*
X122139999Y-110686190D02*
X122086666Y-110733809D01*
X122086666Y-110733809D02*
X121979999Y-110781428D01*
X121979999Y-110781428D02*
X121553332Y-110781428D01*
X113766666Y-112877619D02*
X113766666Y-111877619D01*
X113766666Y-111877619D02*
X114033333Y-111877619D01*
X114033333Y-111877619D02*
X114193333Y-111925238D01*
X114193333Y-111925238D02*
X114300000Y-112020476D01*
X114300000Y-112020476D02*
X114353333Y-112115714D01*
X114353333Y-112115714D02*
X114406666Y-112306190D01*
X114406666Y-112306190D02*
X114406666Y-112449047D01*
X114406666Y-112449047D02*
X114353333Y-112639523D01*
X114353333Y-112639523D02*
X114300000Y-112734761D01*
X114300000Y-112734761D02*
X114193333Y-112830000D01*
X114193333Y-112830000D02*
X114033333Y-112877619D01*
X114033333Y-112877619D02*
X113766666Y-112877619D01*
X114886666Y-112877619D02*
X114886666Y-112210952D01*
X114886666Y-112401428D02*
X114940000Y-112306190D01*
X114940000Y-112306190D02*
X114993333Y-112258571D01*
X114993333Y-112258571D02*
X115100000Y-112210952D01*
X115100000Y-112210952D02*
X115206666Y-112210952D01*
X115579999Y-112877619D02*
X115579999Y-112210952D01*
X115579999Y-111877619D02*
X115526666Y-111925238D01*
X115526666Y-111925238D02*
X115579999Y-111972857D01*
X115579999Y-111972857D02*
X115633333Y-111925238D01*
X115633333Y-111925238D02*
X115579999Y-111877619D01*
X115579999Y-111877619D02*
X115579999Y-111972857D01*
X116006666Y-112210952D02*
X116273332Y-112877619D01*
X116273332Y-112877619D02*
X116539999Y-112210952D01*
X117393332Y-112830000D02*
X117286665Y-112877619D01*
X117286665Y-112877619D02*
X117073332Y-112877619D01*
X117073332Y-112877619D02*
X116966665Y-112830000D01*
X116966665Y-112830000D02*
X116913332Y-112734761D01*
X116913332Y-112734761D02*
X116913332Y-112353809D01*
X116913332Y-112353809D02*
X116966665Y-112258571D01*
X116966665Y-112258571D02*
X117073332Y-112210952D01*
X117073332Y-112210952D02*
X117286665Y-112210952D01*
X117286665Y-112210952D02*
X117393332Y-112258571D01*
X117393332Y-112258571D02*
X117446665Y-112353809D01*
X117446665Y-112353809D02*
X117446665Y-112449047D01*
X117446665Y-112449047D02*
X116913332Y-112544285D01*
X117926665Y-112877619D02*
X117926665Y-112210952D01*
X117926665Y-112401428D02*
X117979999Y-112306190D01*
X117979999Y-112306190D02*
X118033332Y-112258571D01*
X118033332Y-112258571D02*
X118139999Y-112210952D01*
X118139999Y-112210952D02*
X118246665Y-112210952D01*
%TO.C,R3*%
X120833333Y-103462619D02*
X120500000Y-102986428D01*
X120261905Y-103462619D02*
X120261905Y-102462619D01*
X120261905Y-102462619D02*
X120642857Y-102462619D01*
X120642857Y-102462619D02*
X120738095Y-102510238D01*
X120738095Y-102510238D02*
X120785714Y-102557857D01*
X120785714Y-102557857D02*
X120833333Y-102653095D01*
X120833333Y-102653095D02*
X120833333Y-102795952D01*
X120833333Y-102795952D02*
X120785714Y-102891190D01*
X120785714Y-102891190D02*
X120738095Y-102938809D01*
X120738095Y-102938809D02*
X120642857Y-102986428D01*
X120642857Y-102986428D02*
X120261905Y-102986428D01*
X121166667Y-102462619D02*
X121785714Y-102462619D01*
X121785714Y-102462619D02*
X121452381Y-102843571D01*
X121452381Y-102843571D02*
X121595238Y-102843571D01*
X121595238Y-102843571D02*
X121690476Y-102891190D01*
X121690476Y-102891190D02*
X121738095Y-102938809D01*
X121738095Y-102938809D02*
X121785714Y-103034047D01*
X121785714Y-103034047D02*
X121785714Y-103272142D01*
X121785714Y-103272142D02*
X121738095Y-103367380D01*
X121738095Y-103367380D02*
X121690476Y-103415000D01*
X121690476Y-103415000D02*
X121595238Y-103462619D01*
X121595238Y-103462619D02*
X121309524Y-103462619D01*
X121309524Y-103462619D02*
X121214286Y-103415000D01*
X121214286Y-103415000D02*
X121166667Y-103367380D01*
%TO.C,C1*%
X102333333Y-102367380D02*
X102285714Y-102415000D01*
X102285714Y-102415000D02*
X102142857Y-102462619D01*
X102142857Y-102462619D02*
X102047619Y-102462619D01*
X102047619Y-102462619D02*
X101904762Y-102415000D01*
X101904762Y-102415000D02*
X101809524Y-102319761D01*
X101809524Y-102319761D02*
X101761905Y-102224523D01*
X101761905Y-102224523D02*
X101714286Y-102034047D01*
X101714286Y-102034047D02*
X101714286Y-101891190D01*
X101714286Y-101891190D02*
X101761905Y-101700714D01*
X101761905Y-101700714D02*
X101809524Y-101605476D01*
X101809524Y-101605476D02*
X101904762Y-101510238D01*
X101904762Y-101510238D02*
X102047619Y-101462619D01*
X102047619Y-101462619D02*
X102142857Y-101462619D01*
X102142857Y-101462619D02*
X102285714Y-101510238D01*
X102285714Y-101510238D02*
X102333333Y-101557857D01*
X103285714Y-102462619D02*
X102714286Y-102462619D01*
X103000000Y-102462619D02*
X103000000Y-101462619D01*
X103000000Y-101462619D02*
X102904762Y-101605476D01*
X102904762Y-101605476D02*
X102809524Y-101700714D01*
X102809524Y-101700714D02*
X102714286Y-101748333D01*
%TO.C,J5*%
X121666666Y-111962619D02*
X121666666Y-112676904D01*
X121666666Y-112676904D02*
X121619047Y-112819761D01*
X121619047Y-112819761D02*
X121523809Y-112915000D01*
X121523809Y-112915000D02*
X121380952Y-112962619D01*
X121380952Y-112962619D02*
X121285714Y-112962619D01*
X122619047Y-111962619D02*
X122142857Y-111962619D01*
X122142857Y-111962619D02*
X122095238Y-112438809D01*
X122095238Y-112438809D02*
X122142857Y-112391190D01*
X122142857Y-112391190D02*
X122238095Y-112343571D01*
X122238095Y-112343571D02*
X122476190Y-112343571D01*
X122476190Y-112343571D02*
X122571428Y-112391190D01*
X122571428Y-112391190D02*
X122619047Y-112438809D01*
X122619047Y-112438809D02*
X122666666Y-112534047D01*
X122666666Y-112534047D02*
X122666666Y-112772142D01*
X122666666Y-112772142D02*
X122619047Y-112867380D01*
X122619047Y-112867380D02*
X122571428Y-112915000D01*
X122571428Y-112915000D02*
X122476190Y-112962619D01*
X122476190Y-112962619D02*
X122238095Y-112962619D01*
X122238095Y-112962619D02*
X122142857Y-112915000D01*
X122142857Y-112915000D02*
X122095238Y-112867380D01*
%TO.C,J1*%
X101666666Y-109962619D02*
X101666666Y-110676904D01*
X101666666Y-110676904D02*
X101619047Y-110819761D01*
X101619047Y-110819761D02*
X101523809Y-110915000D01*
X101523809Y-110915000D02*
X101380952Y-110962619D01*
X101380952Y-110962619D02*
X101285714Y-110962619D01*
X102666666Y-110962619D02*
X102095238Y-110962619D01*
X102380952Y-110962619D02*
X102380952Y-109962619D01*
X102380952Y-109962619D02*
X102285714Y-110105476D01*
X102285714Y-110105476D02*
X102190476Y-110200714D01*
X102190476Y-110200714D02*
X102095238Y-110248333D01*
%TO.C,R4*%
X123333333Y-108112619D02*
X123000000Y-107636428D01*
X122761905Y-108112619D02*
X122761905Y-107112619D01*
X122761905Y-107112619D02*
X123142857Y-107112619D01*
X123142857Y-107112619D02*
X123238095Y-107160238D01*
X123238095Y-107160238D02*
X123285714Y-107207857D01*
X123285714Y-107207857D02*
X123333333Y-107303095D01*
X123333333Y-107303095D02*
X123333333Y-107445952D01*
X123333333Y-107445952D02*
X123285714Y-107541190D01*
X123285714Y-107541190D02*
X123238095Y-107588809D01*
X123238095Y-107588809D02*
X123142857Y-107636428D01*
X123142857Y-107636428D02*
X122761905Y-107636428D01*
X124190476Y-107445952D02*
X124190476Y-108112619D01*
X123952381Y-107065000D02*
X123714286Y-107779285D01*
X123714286Y-107779285D02*
X124333333Y-107779285D01*
%TO.C,U1*%
X111738095Y-107462619D02*
X111738095Y-108272142D01*
X111738095Y-108272142D02*
X111785714Y-108367380D01*
X111785714Y-108367380D02*
X111833333Y-108415000D01*
X111833333Y-108415000D02*
X111928571Y-108462619D01*
X111928571Y-108462619D02*
X112119047Y-108462619D01*
X112119047Y-108462619D02*
X112214285Y-108415000D01*
X112214285Y-108415000D02*
X112261904Y-108367380D01*
X112261904Y-108367380D02*
X112309523Y-108272142D01*
X112309523Y-108272142D02*
X112309523Y-107462619D01*
X113309523Y-108462619D02*
X112738095Y-108462619D01*
X113023809Y-108462619D02*
X113023809Y-107462619D01*
X113023809Y-107462619D02*
X112928571Y-107605476D01*
X112928571Y-107605476D02*
X112833333Y-107700714D01*
X112833333Y-107700714D02*
X112738095Y-107748333D01*
%TO.C,U2*%
X108238095Y-107462619D02*
X108238095Y-108272142D01*
X108238095Y-108272142D02*
X108285714Y-108367380D01*
X108285714Y-108367380D02*
X108333333Y-108415000D01*
X108333333Y-108415000D02*
X108428571Y-108462619D01*
X108428571Y-108462619D02*
X108619047Y-108462619D01*
X108619047Y-108462619D02*
X108714285Y-108415000D01*
X108714285Y-108415000D02*
X108761904Y-108367380D01*
X108761904Y-108367380D02*
X108809523Y-108272142D01*
X108809523Y-108272142D02*
X108809523Y-107462619D01*
X109238095Y-107557857D02*
X109285714Y-107510238D01*
X109285714Y-107510238D02*
X109380952Y-107462619D01*
X109380952Y-107462619D02*
X109619047Y-107462619D01*
X109619047Y-107462619D02*
X109714285Y-107510238D01*
X109714285Y-107510238D02*
X109761904Y-107557857D01*
X109761904Y-107557857D02*
X109809523Y-107653095D01*
X109809523Y-107653095D02*
X109809523Y-107748333D01*
X109809523Y-107748333D02*
X109761904Y-107891190D01*
X109761904Y-107891190D02*
X109190476Y-108462619D01*
X109190476Y-108462619D02*
X109809523Y-108462619D01*
%TO.C,R2*%
X113112619Y-111166666D02*
X112636428Y-111499999D01*
X113112619Y-111738094D02*
X112112619Y-111738094D01*
X112112619Y-111738094D02*
X112112619Y-111357142D01*
X112112619Y-111357142D02*
X112160238Y-111261904D01*
X112160238Y-111261904D02*
X112207857Y-111214285D01*
X112207857Y-111214285D02*
X112303095Y-111166666D01*
X112303095Y-111166666D02*
X112445952Y-111166666D01*
X112445952Y-111166666D02*
X112541190Y-111214285D01*
X112541190Y-111214285D02*
X112588809Y-111261904D01*
X112588809Y-111261904D02*
X112636428Y-111357142D01*
X112636428Y-111357142D02*
X112636428Y-111738094D01*
X112207857Y-110785713D02*
X112160238Y-110738094D01*
X112160238Y-110738094D02*
X112112619Y-110642856D01*
X112112619Y-110642856D02*
X112112619Y-110404761D01*
X112112619Y-110404761D02*
X112160238Y-110309523D01*
X112160238Y-110309523D02*
X112207857Y-110261904D01*
X112207857Y-110261904D02*
X112303095Y-110214285D01*
X112303095Y-110214285D02*
X112398333Y-110214285D01*
X112398333Y-110214285D02*
X112541190Y-110261904D01*
X112541190Y-110261904D02*
X113112619Y-110833332D01*
X113112619Y-110833332D02*
X113112619Y-110214285D01*
%TO.C,R1*%
X108333333Y-112462619D02*
X108000000Y-111986428D01*
X107761905Y-112462619D02*
X107761905Y-111462619D01*
X107761905Y-111462619D02*
X108142857Y-111462619D01*
X108142857Y-111462619D02*
X108238095Y-111510238D01*
X108238095Y-111510238D02*
X108285714Y-111557857D01*
X108285714Y-111557857D02*
X108333333Y-111653095D01*
X108333333Y-111653095D02*
X108333333Y-111795952D01*
X108333333Y-111795952D02*
X108285714Y-111891190D01*
X108285714Y-111891190D02*
X108238095Y-111938809D01*
X108238095Y-111938809D02*
X108142857Y-111986428D01*
X108142857Y-111986428D02*
X107761905Y-111986428D01*
X109285714Y-112462619D02*
X108714286Y-112462619D01*
X109000000Y-112462619D02*
X109000000Y-111462619D01*
X109000000Y-111462619D02*
X108904762Y-111605476D01*
X108904762Y-111605476D02*
X108809524Y-111700714D01*
X108809524Y-111700714D02*
X108714286Y-111748333D01*
%TO.C,Q1*%
X125404761Y-109057857D02*
X125309523Y-109010238D01*
X125309523Y-109010238D02*
X125214285Y-108915000D01*
X125214285Y-108915000D02*
X125071428Y-108772142D01*
X125071428Y-108772142D02*
X124976190Y-108724523D01*
X124976190Y-108724523D02*
X124880952Y-108724523D01*
X124928571Y-108962619D02*
X124833333Y-108915000D01*
X124833333Y-108915000D02*
X124738095Y-108819761D01*
X124738095Y-108819761D02*
X124690476Y-108629285D01*
X124690476Y-108629285D02*
X124690476Y-108295952D01*
X124690476Y-108295952D02*
X124738095Y-108105476D01*
X124738095Y-108105476D02*
X124833333Y-108010238D01*
X124833333Y-108010238D02*
X124928571Y-107962619D01*
X124928571Y-107962619D02*
X125119047Y-107962619D01*
X125119047Y-107962619D02*
X125214285Y-108010238D01*
X125214285Y-108010238D02*
X125309523Y-108105476D01*
X125309523Y-108105476D02*
X125357142Y-108295952D01*
X125357142Y-108295952D02*
X125357142Y-108629285D01*
X125357142Y-108629285D02*
X125309523Y-108819761D01*
X125309523Y-108819761D02*
X125214285Y-108915000D01*
X125214285Y-108915000D02*
X125119047Y-108962619D01*
X125119047Y-108962619D02*
X124928571Y-108962619D01*
X126309523Y-108962619D02*
X125738095Y-108962619D01*
X126023809Y-108962619D02*
X126023809Y-107962619D01*
X126023809Y-107962619D02*
X125928571Y-108105476D01*
X125928571Y-108105476D02*
X125833333Y-108200714D01*
X125833333Y-108200714D02*
X125738095Y-108248333D01*
%TO.C,J4*%
X108666666Y-113462619D02*
X108666666Y-114176904D01*
X108666666Y-114176904D02*
X108619047Y-114319761D01*
X108619047Y-114319761D02*
X108523809Y-114415000D01*
X108523809Y-114415000D02*
X108380952Y-114462619D01*
X108380952Y-114462619D02*
X108285714Y-114462619D01*
X109571428Y-113795952D02*
X109571428Y-114462619D01*
X109333333Y-113415000D02*
X109095238Y-114129285D01*
X109095238Y-114129285D02*
X109714285Y-114129285D01*
%TO.C,J3*%
X131666666Y-103462619D02*
X131666666Y-104176904D01*
X131666666Y-104176904D02*
X131619047Y-104319761D01*
X131619047Y-104319761D02*
X131523809Y-104415000D01*
X131523809Y-104415000D02*
X131380952Y-104462619D01*
X131380952Y-104462619D02*
X131285714Y-104462619D01*
X132047619Y-103462619D02*
X132666666Y-103462619D01*
X132666666Y-103462619D02*
X132333333Y-103843571D01*
X132333333Y-103843571D02*
X132476190Y-103843571D01*
X132476190Y-103843571D02*
X132571428Y-103891190D01*
X132571428Y-103891190D02*
X132619047Y-103938809D01*
X132619047Y-103938809D02*
X132666666Y-104034047D01*
X132666666Y-104034047D02*
X132666666Y-104272142D01*
X132666666Y-104272142D02*
X132619047Y-104367380D01*
X132619047Y-104367380D02*
X132571428Y-104415000D01*
X132571428Y-104415000D02*
X132476190Y-104462619D01*
X132476190Y-104462619D02*
X132190476Y-104462619D01*
X132190476Y-104462619D02*
X132095238Y-104415000D01*
X132095238Y-104415000D02*
X132047619Y-104367380D01*
%TO.C,R5*%
X113112619Y-105166666D02*
X112636428Y-105499999D01*
X113112619Y-105738094D02*
X112112619Y-105738094D01*
X112112619Y-105738094D02*
X112112619Y-105357142D01*
X112112619Y-105357142D02*
X112160238Y-105261904D01*
X112160238Y-105261904D02*
X112207857Y-105214285D01*
X112207857Y-105214285D02*
X112303095Y-105166666D01*
X112303095Y-105166666D02*
X112445952Y-105166666D01*
X112445952Y-105166666D02*
X112541190Y-105214285D01*
X112541190Y-105214285D02*
X112588809Y-105261904D01*
X112588809Y-105261904D02*
X112636428Y-105357142D01*
X112636428Y-105357142D02*
X112636428Y-105738094D01*
X112112619Y-104261904D02*
X112112619Y-104738094D01*
X112112619Y-104738094D02*
X112588809Y-104785713D01*
X112588809Y-104785713D02*
X112541190Y-104738094D01*
X112541190Y-104738094D02*
X112493571Y-104642856D01*
X112493571Y-104642856D02*
X112493571Y-104404761D01*
X112493571Y-104404761D02*
X112541190Y-104309523D01*
X112541190Y-104309523D02*
X112588809Y-104261904D01*
X112588809Y-104261904D02*
X112684047Y-104214285D01*
X112684047Y-104214285D02*
X112922142Y-104214285D01*
X112922142Y-104214285D02*
X113017380Y-104261904D01*
X113017380Y-104261904D02*
X113065000Y-104309523D01*
X113065000Y-104309523D02*
X113112619Y-104404761D01*
X113112619Y-104404761D02*
X113112619Y-104642856D01*
X113112619Y-104642856D02*
X113065000Y-104738094D01*
X113065000Y-104738094D02*
X113017380Y-104785713D01*
%TO.C,C2*%
X113833333Y-103367380D02*
X113785714Y-103415000D01*
X113785714Y-103415000D02*
X113642857Y-103462619D01*
X113642857Y-103462619D02*
X113547619Y-103462619D01*
X113547619Y-103462619D02*
X113404762Y-103415000D01*
X113404762Y-103415000D02*
X113309524Y-103319761D01*
X113309524Y-103319761D02*
X113261905Y-103224523D01*
X113261905Y-103224523D02*
X113214286Y-103034047D01*
X113214286Y-103034047D02*
X113214286Y-102891190D01*
X113214286Y-102891190D02*
X113261905Y-102700714D01*
X113261905Y-102700714D02*
X113309524Y-102605476D01*
X113309524Y-102605476D02*
X113404762Y-102510238D01*
X113404762Y-102510238D02*
X113547619Y-102462619D01*
X113547619Y-102462619D02*
X113642857Y-102462619D01*
X113642857Y-102462619D02*
X113785714Y-102510238D01*
X113785714Y-102510238D02*
X113833333Y-102557857D01*
X114214286Y-102557857D02*
X114261905Y-102510238D01*
X114261905Y-102510238D02*
X114357143Y-102462619D01*
X114357143Y-102462619D02*
X114595238Y-102462619D01*
X114595238Y-102462619D02*
X114690476Y-102510238D01*
X114690476Y-102510238D02*
X114738095Y-102557857D01*
X114738095Y-102557857D02*
X114785714Y-102653095D01*
X114785714Y-102653095D02*
X114785714Y-102748333D01*
X114785714Y-102748333D02*
X114738095Y-102891190D01*
X114738095Y-102891190D02*
X114166667Y-103462619D01*
X114166667Y-103462619D02*
X114785714Y-103462619D01*
%TO.C,J2*%
X111666666Y-113462619D02*
X111666666Y-114176904D01*
X111666666Y-114176904D02*
X111619047Y-114319761D01*
X111619047Y-114319761D02*
X111523809Y-114415000D01*
X111523809Y-114415000D02*
X111380952Y-114462619D01*
X111380952Y-114462619D02*
X111285714Y-114462619D01*
X112095238Y-113557857D02*
X112142857Y-113510238D01*
X112142857Y-113510238D02*
X112238095Y-113462619D01*
X112238095Y-113462619D02*
X112476190Y-113462619D01*
X112476190Y-113462619D02*
X112571428Y-113510238D01*
X112571428Y-113510238D02*
X112619047Y-113557857D01*
X112619047Y-113557857D02*
X112666666Y-113653095D01*
X112666666Y-113653095D02*
X112666666Y-113748333D01*
X112666666Y-113748333D02*
X112619047Y-113891190D01*
X112619047Y-113891190D02*
X112047619Y-114462619D01*
X112047619Y-114462619D02*
X112666666Y-114462619D01*
D11*
%TO.C,R3*%
X126140000Y-102500000D02*
G75*
G03*
X126140000Y-102500000I-920000J0D01*
G01*
X124300000Y-102500000D02*
X123680000Y-102500000D01*
%TO.C,C1*%
X105235000Y-104261252D02*
X105235000Y-103738748D01*
X103765000Y-104261252D02*
X103765000Y-103738748D01*
%TO.C,J5*%
X121390000Y-113590000D02*
X121390000Y-117310000D01*
X121390000Y-117310000D02*
X127610000Y-117310000D01*
X127610000Y-117310000D02*
X127610000Y-113590000D01*
X127610000Y-113590000D02*
X121390000Y-113590000D01*
X122700000Y-113590000D02*
X122700000Y-113390000D01*
X122700000Y-113390000D02*
X122400000Y-113390000D01*
X122400000Y-113390000D02*
X122400000Y-113590000D01*
X122700000Y-113490000D02*
X122400000Y-113490000D01*
X121790000Y-113990000D02*
X121790000Y-116910000D01*
X121790000Y-116910000D02*
X127210000Y-116910000D01*
X127210000Y-116910000D02*
X127210000Y-113990000D01*
X127210000Y-113990000D02*
X121790000Y-113990000D01*
X121390000Y-114500000D02*
X121790000Y-114500000D01*
X121390000Y-115500000D02*
X121790000Y-115500000D01*
X127610000Y-114500000D02*
X127210000Y-114500000D01*
X127610000Y-115500000D02*
X127210000Y-115500000D01*
X123650000Y-116910000D02*
X123650000Y-116510000D01*
X123650000Y-116510000D02*
X123850000Y-116510000D01*
X123850000Y-116510000D02*
X123850000Y-116910000D01*
X123750000Y-116910000D02*
X123750000Y-116510000D01*
X125150000Y-116910000D02*
X125150000Y-116510000D01*
X125150000Y-116510000D02*
X125350000Y-116510000D01*
X125350000Y-116510000D02*
X125350000Y-116910000D01*
X125250000Y-116910000D02*
X125250000Y-116510000D01*
X121990000Y-113390000D02*
X121190000Y-113390000D01*
X121190000Y-113390000D02*
X121190000Y-114190000D01*
%TO.C,J1*%
X103060000Y-107000000D02*
X103060000Y-109060000D01*
X100940000Y-106000000D02*
X100940000Y-104940000D01*
X100940000Y-104940000D02*
X102000000Y-104940000D01*
X100940000Y-107000000D02*
X103060000Y-107000000D01*
X100940000Y-109060000D02*
X103060000Y-109060000D01*
X100940000Y-107000000D02*
X100940000Y-109060000D01*
%TO.C,R4*%
X124227064Y-106735000D02*
X123772936Y-106735000D01*
X124227064Y-105265000D02*
X123772936Y-105265000D01*
%TO.C,U1*%
X117000000Y-104440000D02*
X113550000Y-104440000D01*
X117000000Y-104440000D02*
X118950000Y-104440000D01*
X117000000Y-109560000D02*
X115050000Y-109560000D01*
X117000000Y-109560000D02*
X118950000Y-109560000D01*
%TO.C,U2*%
X109560000Y-105000000D02*
X109560000Y-103200000D01*
X109560000Y-105000000D02*
X109560000Y-105800000D01*
X106440000Y-105000000D02*
X106440000Y-104200000D01*
X106440000Y-105000000D02*
X106440000Y-105800000D01*
%TO.C,R2*%
X111735000Y-110772936D02*
X111735000Y-111227064D01*
X110265000Y-110772936D02*
X110265000Y-111227064D01*
%TO.C,R1*%
X106772936Y-109265000D02*
X107227064Y-109265000D01*
X106772936Y-110735000D02*
X107227064Y-110735000D01*
%TO.C,Q1*%
X124937500Y-109390000D02*
X123262500Y-109390000D01*
X124937500Y-109390000D02*
X125587500Y-109390000D01*
X124937500Y-112510000D02*
X124287500Y-112510000D01*
X124937500Y-112510000D02*
X125587500Y-112510000D01*
%TO.C,J4*%
X105940000Y-117060000D02*
X105940000Y-116000000D01*
X107000000Y-117060000D02*
X105940000Y-117060000D01*
X108000000Y-117060000D02*
X110060000Y-117060000D01*
X108000000Y-117060000D02*
X108000000Y-114940000D01*
X110060000Y-117060000D02*
X110060000Y-114940000D01*
X108000000Y-114940000D02*
X110060000Y-114940000D01*
%TO.C,J3*%
X132060000Y-109060000D02*
X131000000Y-109060000D01*
X132060000Y-108000000D02*
X132060000Y-109060000D01*
X132060000Y-107000000D02*
X132060000Y-104940000D01*
X132060000Y-107000000D02*
X129940000Y-107000000D01*
X132060000Y-104940000D02*
X129940000Y-104940000D01*
X129940000Y-107000000D02*
X129940000Y-104940000D01*
%TO.C,R5*%
X111735000Y-104772936D02*
X111735000Y-105227064D01*
X110265000Y-104772936D02*
X110265000Y-105227064D01*
%TO.C,C2*%
X116738748Y-102265000D02*
X117261252Y-102265000D01*
X116738748Y-103735000D02*
X117261252Y-103735000D01*
%TO.C,J2*%
X112645000Y-116830000D02*
X112645000Y-115500000D01*
X113975000Y-116830000D02*
X112645000Y-116830000D01*
X115245000Y-116830000D02*
X120385000Y-116830000D01*
X115245000Y-116830000D02*
X115245000Y-114170000D01*
X120385000Y-116830000D02*
X120385000Y-114170000D01*
X115245000Y-114170000D02*
X120385000Y-114170000D01*
%TD*%
M02*
