M48
; DRILL file {KiCad 7.0.2} date Thu May 18 15:11:28 2023
; FORMAT={-:-/ absolute / inch / decimal}
; #@! TF.CreationDate,2023-05-18T15:11:28-04:00
; #@! TF.GenerationSoftware,Kicad,Pcbnew,7.0.2
; #@! TF.FileFunction,Plated,1,2,PTH
FMAT,2
INCH
; #@! TA.AperFunction,Plated,PTH,ViaDrill
T1C0.0157
; #@! TA.AperFunction,Plated,PTH,ComponentDrill
T2C0.0276
; #@! TA.AperFunction,Plated,PTH,ComponentDrill
T3C0.0287
; #@! TA.AperFunction,Plated,PTH,ComponentDrill
T4C0.0315
; #@! TA.AperFunction,Plated,PTH,ComponentDrill
T5C0.0394
%
G90
G05
T1
X4.2126Y-4.3898
X4.252Y-4.0157
X4.3701Y-4.2126
X4.6063Y-4.0157
X4.6063Y-4.1535
X4.6063Y-4.252
X4.685Y-4.0945
X4.7835Y-4.2913
X4.8819Y-4.3701
T2
X4.8299Y-4.0354
X4.9299Y-4.0354
T3
X4.8425Y-4.5276
X4.9016Y-4.5276
X4.9606Y-4.5276
T4
X4.0157Y-4.1732
X4.0157Y-4.252
X4.2126Y-4.5669
X4.2913Y-4.5669
X5.1575Y-4.1732
X5.1575Y-4.252
T5
X4.4872Y-4.5472
X4.5872Y-4.5472
X4.6872Y-4.5472
T0
M30
