%TF.GenerationSoftware,KiCad,Pcbnew,7.0.2*%
%TF.CreationDate,2023-05-18T15:11:27-04:00*%
%TF.ProjectId,smartpir,736d6172-7470-4697-922e-6b696361645f,rev?*%
%TF.SameCoordinates,Original*%
%TF.FileFunction,Soldermask,Top*%
%TF.FilePolarity,Negative*%
%FSLAX46Y46*%
G04 Gerber Fmt 4.6, Leading zero omitted, Abs format (unit mm)*
G04 Created by KiCad (PCBNEW 7.0.2) date 2023-05-18 15:11:27*
%MOMM*%
%LPD*%
G01*
G04 APERTURE LIST*
G04 Aperture macros list*
%AMRoundRect*
0 Rectangle with rounded corners*
0 $1 Rounding radius*
0 $2 $3 $4 $5 $6 $7 $8 $9 X,Y pos of 4 corners*
0 Add a 4 corners polygon primitive as box body*
4,1,4,$2,$3,$4,$5,$6,$7,$8,$9,$2,$3,0*
0 Add four circle primitives for the rounded corners*
1,1,$1+$1,$2,$3*
1,1,$1+$1,$4,$5*
1,1,$1+$1,$6,$7*
1,1,$1+$1,$8,$9*
0 Add four rect primitives between the rounded corners*
20,1,$1+$1,$2,$3,$4,$5,0*
20,1,$1+$1,$4,$5,$6,$7,0*
20,1,$1+$1,$6,$7,$8,$9,0*
20,1,$1+$1,$8,$9,$2,$3,0*%
G04 Aperture macros list end*
%ADD10O,1.400000X1.400000*%
%ADD11C,1.400000*%
%ADD12RoundRect,0.250000X0.475000X-0.337500X0.475000X0.337500X-0.475000X0.337500X-0.475000X-0.337500X0*%
%ADD13RoundRect,0.250000X-0.265000X-0.615000X0.265000X-0.615000X0.265000X0.615000X-0.265000X0.615000X0*%
%ADD14O,1.030000X1.730000*%
%ADD15R,1.350000X1.350000*%
%ADD16O,1.350000X1.350000*%
%ADD17RoundRect,0.250000X0.350000X0.450000X-0.350000X0.450000X-0.350000X-0.450000X0.350000X-0.450000X0*%
%ADD18RoundRect,0.150000X-0.825000X-0.150000X0.825000X-0.150000X0.825000X0.150000X-0.825000X0.150000X0*%
%ADD19RoundRect,0.150000X-0.150000X0.512500X-0.150000X-0.512500X0.150000X-0.512500X0.150000X0.512500X0*%
%ADD20RoundRect,0.250000X-0.450000X0.350000X-0.450000X-0.350000X0.450000X-0.350000X0.450000X0.350000X0*%
%ADD21RoundRect,0.250000X-0.350000X-0.450000X0.350000X-0.450000X0.350000X0.450000X-0.350000X0.450000X0*%
%ADD22RoundRect,0.150000X-0.587500X-0.150000X0.587500X-0.150000X0.587500X0.150000X-0.587500X0.150000X0*%
%ADD23RoundRect,0.250000X-0.337500X-0.475000X0.337500X-0.475000X0.337500X0.475000X-0.337500X0.475000X0*%
%ADD24R,1.700000X1.700000*%
%ADD25O,1.700000X1.700000*%
G04 APERTURE END LIST*
D10*
%TO.C,R3*%
X122680000Y-102500000D03*
D11*
X125220000Y-102500000D03*
%TD*%
D12*
%TO.C,C1*%
X104500000Y-102962500D03*
X104500000Y-105037500D03*
%TD*%
D13*
%TO.C,J5*%
X123000000Y-115000000D03*
D14*
X124500000Y-115000000D03*
X126000000Y-115000000D03*
%TD*%
D15*
%TO.C,J1*%
X102000000Y-106000000D03*
D16*
X102000000Y-108000000D03*
%TD*%
D17*
%TO.C,R4*%
X125000000Y-106000000D03*
X123000000Y-106000000D03*
%TD*%
D18*
%TO.C,U1*%
X114525000Y-105095000D03*
X114525000Y-106365000D03*
X114525000Y-107635000D03*
X114525000Y-108905000D03*
X119475000Y-108905000D03*
X119475000Y-107635000D03*
X119475000Y-106365000D03*
X119475000Y-105095000D03*
%TD*%
D19*
%TO.C,U2*%
X108950000Y-103862500D03*
X108000000Y-103862500D03*
X107050000Y-103862500D03*
X107050000Y-106137500D03*
X108950000Y-106137500D03*
%TD*%
D20*
%TO.C,R2*%
X111000000Y-110000000D03*
X111000000Y-112000000D03*
%TD*%
D21*
%TO.C,R1*%
X106000000Y-110000000D03*
X108000000Y-110000000D03*
%TD*%
D22*
%TO.C,Q1*%
X124000000Y-110000000D03*
X124000000Y-111900000D03*
X125875000Y-110950000D03*
%TD*%
D15*
%TO.C,J4*%
X107000000Y-116000000D03*
D16*
X109000000Y-116000000D03*
%TD*%
D15*
%TO.C,J3*%
X131000000Y-108000000D03*
D16*
X131000000Y-106000000D03*
%TD*%
D20*
%TO.C,R5*%
X111000000Y-104000000D03*
X111000000Y-106000000D03*
%TD*%
D23*
%TO.C,C2*%
X115962500Y-103000000D03*
X118037500Y-103000000D03*
%TD*%
D24*
%TO.C,J2*%
X113975000Y-115500000D03*
D25*
X116515000Y-115500000D03*
X119055000Y-115500000D03*
%TD*%
M02*
