%TF.GenerationSoftware,KiCad,Pcbnew,7.0.2*%
%TF.CreationDate,2023-05-24T14:34:07-04:00*%
%TF.ProjectId,mcumod-at6,6d63756d-6f64-42d6-9174-362e6b696361,rev?*%
%TF.SameCoordinates,Original*%
%TF.FileFunction,Legend,Top*%
%TF.FilePolarity,Positive*%
%FSLAX46Y46*%
G04 Gerber Fmt 4.6, Leading zero omitted, Abs format (unit mm)*
G04 Created by KiCad (PCBNEW 7.0.2) date 2023-05-24 14:34:07*
%MOMM*%
%LPD*%
G01*
G04 APERTURE LIST*
%ADD10C,0.150000*%
%ADD11C,0.300000*%
%ADD12C,0.120000*%
G04 APERTURE END LIST*
D10*
X101238095Y-107007619D02*
X101238095Y-106007619D01*
X101809523Y-107007619D02*
X101380952Y-106436190D01*
X101809523Y-106007619D02*
X101238095Y-106579047D01*
X102809523Y-106912380D02*
X102761904Y-106960000D01*
X102761904Y-106960000D02*
X102619047Y-107007619D01*
X102619047Y-107007619D02*
X102523809Y-107007619D01*
X102523809Y-107007619D02*
X102380952Y-106960000D01*
X102380952Y-106960000D02*
X102285714Y-106864761D01*
X102285714Y-106864761D02*
X102238095Y-106769523D01*
X102238095Y-106769523D02*
X102190476Y-106579047D01*
X102190476Y-106579047D02*
X102190476Y-106436190D01*
X102190476Y-106436190D02*
X102238095Y-106245714D01*
X102238095Y-106245714D02*
X102285714Y-106150476D01*
X102285714Y-106150476D02*
X102380952Y-106055238D01*
X102380952Y-106055238D02*
X102523809Y-106007619D01*
X102523809Y-106007619D02*
X102619047Y-106007619D01*
X102619047Y-106007619D02*
X102761904Y-106055238D01*
X102761904Y-106055238D02*
X102809523Y-106102857D01*
X103190476Y-106102857D02*
X103238095Y-106055238D01*
X103238095Y-106055238D02*
X103333333Y-106007619D01*
X103333333Y-106007619D02*
X103571428Y-106007619D01*
X103571428Y-106007619D02*
X103666666Y-106055238D01*
X103666666Y-106055238D02*
X103714285Y-106102857D01*
X103714285Y-106102857D02*
X103761904Y-106198095D01*
X103761904Y-106198095D02*
X103761904Y-106293333D01*
X103761904Y-106293333D02*
X103714285Y-106436190D01*
X103714285Y-106436190D02*
X103142857Y-107007619D01*
X103142857Y-107007619D02*
X103761904Y-107007619D01*
X104095238Y-106007619D02*
X104761904Y-106007619D01*
X104761904Y-106007619D02*
X104095238Y-107007619D01*
X104095238Y-107007619D02*
X104761904Y-107007619D01*
X105666666Y-106055238D02*
X105571428Y-106007619D01*
X105571428Y-106007619D02*
X105428571Y-106007619D01*
X105428571Y-106007619D02*
X105285714Y-106055238D01*
X105285714Y-106055238D02*
X105190476Y-106150476D01*
X105190476Y-106150476D02*
X105142857Y-106245714D01*
X105142857Y-106245714D02*
X105095238Y-106436190D01*
X105095238Y-106436190D02*
X105095238Y-106579047D01*
X105095238Y-106579047D02*
X105142857Y-106769523D01*
X105142857Y-106769523D02*
X105190476Y-106864761D01*
X105190476Y-106864761D02*
X105285714Y-106960000D01*
X105285714Y-106960000D02*
X105428571Y-107007619D01*
X105428571Y-107007619D02*
X105523809Y-107007619D01*
X105523809Y-107007619D02*
X105666666Y-106960000D01*
X105666666Y-106960000D02*
X105714285Y-106912380D01*
X105714285Y-106912380D02*
X105714285Y-106579047D01*
X105714285Y-106579047D02*
X105523809Y-106579047D01*
X106142857Y-106007619D02*
X106142857Y-106817142D01*
X106142857Y-106817142D02*
X106190476Y-106912380D01*
X106190476Y-106912380D02*
X106238095Y-106960000D01*
X106238095Y-106960000D02*
X106333333Y-107007619D01*
X106333333Y-107007619D02*
X106523809Y-107007619D01*
X106523809Y-107007619D02*
X106619047Y-106960000D01*
X106619047Y-106960000D02*
X106666666Y-106912380D01*
X106666666Y-106912380D02*
X106714285Y-106817142D01*
X106714285Y-106817142D02*
X106714285Y-106007619D01*
X101238095Y-108627619D02*
X101238095Y-107960952D01*
X101238095Y-108151428D02*
X101285714Y-108056190D01*
X101285714Y-108056190D02*
X101333333Y-108008571D01*
X101333333Y-108008571D02*
X101428571Y-107960952D01*
X101428571Y-107960952D02*
X101523809Y-107960952D01*
X102380952Y-108627619D02*
X101809524Y-108627619D01*
X102095238Y-108627619D02*
X102095238Y-107627619D01*
X102095238Y-107627619D02*
X102000000Y-107770476D01*
X102000000Y-107770476D02*
X101904762Y-107865714D01*
X101904762Y-107865714D02*
X101809524Y-107913333D01*
X102809524Y-108532380D02*
X102857143Y-108580000D01*
X102857143Y-108580000D02*
X102809524Y-108627619D01*
X102809524Y-108627619D02*
X102761905Y-108580000D01*
X102761905Y-108580000D02*
X102809524Y-108532380D01*
X102809524Y-108532380D02*
X102809524Y-108627619D01*
X103476190Y-107627619D02*
X103571428Y-107627619D01*
X103571428Y-107627619D02*
X103666666Y-107675238D01*
X103666666Y-107675238D02*
X103714285Y-107722857D01*
X103714285Y-107722857D02*
X103761904Y-107818095D01*
X103761904Y-107818095D02*
X103809523Y-108008571D01*
X103809523Y-108008571D02*
X103809523Y-108246666D01*
X103809523Y-108246666D02*
X103761904Y-108437142D01*
X103761904Y-108437142D02*
X103714285Y-108532380D01*
X103714285Y-108532380D02*
X103666666Y-108580000D01*
X103666666Y-108580000D02*
X103571428Y-108627619D01*
X103571428Y-108627619D02*
X103476190Y-108627619D01*
X103476190Y-108627619D02*
X103380952Y-108580000D01*
X103380952Y-108580000D02*
X103333333Y-108532380D01*
X103333333Y-108532380D02*
X103285714Y-108437142D01*
X103285714Y-108437142D02*
X103238095Y-108246666D01*
X103238095Y-108246666D02*
X103238095Y-108008571D01*
X103238095Y-108008571D02*
X103285714Y-107818095D01*
X103285714Y-107818095D02*
X103333333Y-107722857D01*
X103333333Y-107722857D02*
X103380952Y-107675238D01*
X103380952Y-107675238D02*
X103476190Y-107627619D01*
X104952381Y-107722857D02*
X105000000Y-107675238D01*
X105000000Y-107675238D02*
X105095238Y-107627619D01*
X105095238Y-107627619D02*
X105333333Y-107627619D01*
X105333333Y-107627619D02*
X105428571Y-107675238D01*
X105428571Y-107675238D02*
X105476190Y-107722857D01*
X105476190Y-107722857D02*
X105523809Y-107818095D01*
X105523809Y-107818095D02*
X105523809Y-107913333D01*
X105523809Y-107913333D02*
X105476190Y-108056190D01*
X105476190Y-108056190D02*
X104904762Y-108627619D01*
X104904762Y-108627619D02*
X105523809Y-108627619D01*
X106142857Y-107627619D02*
X106238095Y-107627619D01*
X106238095Y-107627619D02*
X106333333Y-107675238D01*
X106333333Y-107675238D02*
X106380952Y-107722857D01*
X106380952Y-107722857D02*
X106428571Y-107818095D01*
X106428571Y-107818095D02*
X106476190Y-108008571D01*
X106476190Y-108008571D02*
X106476190Y-108246666D01*
X106476190Y-108246666D02*
X106428571Y-108437142D01*
X106428571Y-108437142D02*
X106380952Y-108532380D01*
X106380952Y-108532380D02*
X106333333Y-108580000D01*
X106333333Y-108580000D02*
X106238095Y-108627619D01*
X106238095Y-108627619D02*
X106142857Y-108627619D01*
X106142857Y-108627619D02*
X106047619Y-108580000D01*
X106047619Y-108580000D02*
X106000000Y-108532380D01*
X106000000Y-108532380D02*
X105952381Y-108437142D01*
X105952381Y-108437142D02*
X105904762Y-108246666D01*
X105904762Y-108246666D02*
X105904762Y-108008571D01*
X105904762Y-108008571D02*
X105952381Y-107818095D01*
X105952381Y-107818095D02*
X106000000Y-107722857D01*
X106000000Y-107722857D02*
X106047619Y-107675238D01*
X106047619Y-107675238D02*
X106142857Y-107627619D01*
X106857143Y-107722857D02*
X106904762Y-107675238D01*
X106904762Y-107675238D02*
X107000000Y-107627619D01*
X107000000Y-107627619D02*
X107238095Y-107627619D01*
X107238095Y-107627619D02*
X107333333Y-107675238D01*
X107333333Y-107675238D02*
X107380952Y-107722857D01*
X107380952Y-107722857D02*
X107428571Y-107818095D01*
X107428571Y-107818095D02*
X107428571Y-107913333D01*
X107428571Y-107913333D02*
X107380952Y-108056190D01*
X107380952Y-108056190D02*
X106809524Y-108627619D01*
X106809524Y-108627619D02*
X107428571Y-108627619D01*
X107761905Y-107627619D02*
X108380952Y-107627619D01*
X108380952Y-107627619D02*
X108047619Y-108008571D01*
X108047619Y-108008571D02*
X108190476Y-108008571D01*
X108190476Y-108008571D02*
X108285714Y-108056190D01*
X108285714Y-108056190D02*
X108333333Y-108103809D01*
X108333333Y-108103809D02*
X108380952Y-108199047D01*
X108380952Y-108199047D02*
X108380952Y-108437142D01*
X108380952Y-108437142D02*
X108333333Y-108532380D01*
X108333333Y-108532380D02*
X108285714Y-108580000D01*
X108285714Y-108580000D02*
X108190476Y-108627619D01*
X108190476Y-108627619D02*
X107904762Y-108627619D01*
X107904762Y-108627619D02*
X107809524Y-108580000D01*
X107809524Y-108580000D02*
X107761905Y-108532380D01*
D11*
X119097023Y-127702380D02*
X117847023Y-127702380D01*
X117847023Y-127702380D02*
X118739880Y-127285714D01*
X118739880Y-127285714D02*
X117847023Y-126869047D01*
X117847023Y-126869047D02*
X119097023Y-126869047D01*
X118977976Y-125559524D02*
X119037500Y-125619048D01*
X119037500Y-125619048D02*
X119097023Y-125797619D01*
X119097023Y-125797619D02*
X119097023Y-125916667D01*
X119097023Y-125916667D02*
X119037500Y-126095238D01*
X119037500Y-126095238D02*
X118918452Y-126214286D01*
X118918452Y-126214286D02*
X118799404Y-126273809D01*
X118799404Y-126273809D02*
X118561309Y-126333333D01*
X118561309Y-126333333D02*
X118382738Y-126333333D01*
X118382738Y-126333333D02*
X118144642Y-126273809D01*
X118144642Y-126273809D02*
X118025595Y-126214286D01*
X118025595Y-126214286D02*
X117906547Y-126095238D01*
X117906547Y-126095238D02*
X117847023Y-125916667D01*
X117847023Y-125916667D02*
X117847023Y-125797619D01*
X117847023Y-125797619D02*
X117906547Y-125619048D01*
X117906547Y-125619048D02*
X117966071Y-125559524D01*
X117847023Y-125023809D02*
X118858928Y-125023809D01*
X118858928Y-125023809D02*
X118977976Y-124964286D01*
X118977976Y-124964286D02*
X119037500Y-124904762D01*
X119037500Y-124904762D02*
X119097023Y-124785714D01*
X119097023Y-124785714D02*
X119097023Y-124547619D01*
X119097023Y-124547619D02*
X119037500Y-124428571D01*
X119037500Y-124428571D02*
X118977976Y-124369048D01*
X118977976Y-124369048D02*
X118858928Y-124309524D01*
X118858928Y-124309524D02*
X117847023Y-124309524D01*
X119097023Y-123714285D02*
X117847023Y-123714285D01*
X117847023Y-123714285D02*
X118739880Y-123297619D01*
X118739880Y-123297619D02*
X117847023Y-122880952D01*
X117847023Y-122880952D02*
X119097023Y-122880952D01*
X117847023Y-122047619D02*
X117847023Y-121809524D01*
X117847023Y-121809524D02*
X117906547Y-121690476D01*
X117906547Y-121690476D02*
X118025595Y-121571429D01*
X118025595Y-121571429D02*
X118263690Y-121511905D01*
X118263690Y-121511905D02*
X118680357Y-121511905D01*
X118680357Y-121511905D02*
X118918452Y-121571429D01*
X118918452Y-121571429D02*
X119037500Y-121690476D01*
X119037500Y-121690476D02*
X119097023Y-121809524D01*
X119097023Y-121809524D02*
X119097023Y-122047619D01*
X119097023Y-122047619D02*
X119037500Y-122166667D01*
X119037500Y-122166667D02*
X118918452Y-122285714D01*
X118918452Y-122285714D02*
X118680357Y-122345238D01*
X118680357Y-122345238D02*
X118263690Y-122345238D01*
X118263690Y-122345238D02*
X118025595Y-122285714D01*
X118025595Y-122285714D02*
X117906547Y-122166667D01*
X117906547Y-122166667D02*
X117847023Y-122047619D01*
X119097023Y-120976190D02*
X117847023Y-120976190D01*
X117847023Y-120976190D02*
X117847023Y-120678571D01*
X117847023Y-120678571D02*
X117906547Y-120500000D01*
X117906547Y-120500000D02*
X118025595Y-120380952D01*
X118025595Y-120380952D02*
X118144642Y-120321429D01*
X118144642Y-120321429D02*
X118382738Y-120261905D01*
X118382738Y-120261905D02*
X118561309Y-120261905D01*
X118561309Y-120261905D02*
X118799404Y-120321429D01*
X118799404Y-120321429D02*
X118918452Y-120380952D01*
X118918452Y-120380952D02*
X119037500Y-120500000D01*
X119037500Y-120500000D02*
X119097023Y-120678571D01*
X119097023Y-120678571D02*
X119097023Y-120976190D01*
X118620833Y-119726190D02*
X118620833Y-118773810D01*
X118739880Y-118238095D02*
X118739880Y-117642857D01*
X119097023Y-118357143D02*
X117847023Y-117940476D01*
X117847023Y-117940476D02*
X119097023Y-117523810D01*
X117847023Y-117285714D02*
X117847023Y-116571428D01*
X119097023Y-116928571D02*
X117847023Y-116928571D01*
X117847023Y-115619047D02*
X117847023Y-115857142D01*
X117847023Y-115857142D02*
X117906547Y-115976190D01*
X117906547Y-115976190D02*
X117966071Y-116035714D01*
X117966071Y-116035714D02*
X118144642Y-116154761D01*
X118144642Y-116154761D02*
X118382738Y-116214285D01*
X118382738Y-116214285D02*
X118858928Y-116214285D01*
X118858928Y-116214285D02*
X118977976Y-116154761D01*
X118977976Y-116154761D02*
X119037500Y-116095238D01*
X119037500Y-116095238D02*
X119097023Y-115976190D01*
X119097023Y-115976190D02*
X119097023Y-115738095D01*
X119097023Y-115738095D02*
X119037500Y-115619047D01*
X119037500Y-115619047D02*
X118977976Y-115559523D01*
X118977976Y-115559523D02*
X118858928Y-115500000D01*
X118858928Y-115500000D02*
X118561309Y-115500000D01*
X118561309Y-115500000D02*
X118442261Y-115559523D01*
X118442261Y-115559523D02*
X118382738Y-115619047D01*
X118382738Y-115619047D02*
X118323214Y-115738095D01*
X118323214Y-115738095D02*
X118323214Y-115976190D01*
X118323214Y-115976190D02*
X118382738Y-116095238D01*
X118382738Y-116095238D02*
X118442261Y-116154761D01*
X118442261Y-116154761D02*
X118561309Y-116214285D01*
D10*
%TO.C,U1*%
X102488095Y-119962619D02*
X102488095Y-120772142D01*
X102488095Y-120772142D02*
X102535714Y-120867380D01*
X102535714Y-120867380D02*
X102583333Y-120915000D01*
X102583333Y-120915000D02*
X102678571Y-120962619D01*
X102678571Y-120962619D02*
X102869047Y-120962619D01*
X102869047Y-120962619D02*
X102964285Y-120915000D01*
X102964285Y-120915000D02*
X103011904Y-120867380D01*
X103011904Y-120867380D02*
X103059523Y-120772142D01*
X103059523Y-120772142D02*
X103059523Y-119962619D01*
X104059523Y-120962619D02*
X103488095Y-120962619D01*
X103773809Y-120962619D02*
X103773809Y-119962619D01*
X103773809Y-119962619D02*
X103678571Y-120105476D01*
X103678571Y-120105476D02*
X103583333Y-120200714D01*
X103583333Y-120200714D02*
X103488095Y-120248333D01*
%TO.C,J3*%
X101916666Y-128462619D02*
X101916666Y-129176904D01*
X101916666Y-129176904D02*
X101869047Y-129319761D01*
X101869047Y-129319761D02*
X101773809Y-129415000D01*
X101773809Y-129415000D02*
X101630952Y-129462619D01*
X101630952Y-129462619D02*
X101535714Y-129462619D01*
X102297619Y-128462619D02*
X102916666Y-128462619D01*
X102916666Y-128462619D02*
X102583333Y-128843571D01*
X102583333Y-128843571D02*
X102726190Y-128843571D01*
X102726190Y-128843571D02*
X102821428Y-128891190D01*
X102821428Y-128891190D02*
X102869047Y-128938809D01*
X102869047Y-128938809D02*
X102916666Y-129034047D01*
X102916666Y-129034047D02*
X102916666Y-129272142D01*
X102916666Y-129272142D02*
X102869047Y-129367380D01*
X102869047Y-129367380D02*
X102821428Y-129415000D01*
X102821428Y-129415000D02*
X102726190Y-129462619D01*
X102726190Y-129462619D02*
X102440476Y-129462619D01*
X102440476Y-129462619D02*
X102345238Y-129415000D01*
X102345238Y-129415000D02*
X102297619Y-129367380D01*
%TO.C,C3*%
X117833333Y-109117380D02*
X117785714Y-109165000D01*
X117785714Y-109165000D02*
X117642857Y-109212619D01*
X117642857Y-109212619D02*
X117547619Y-109212619D01*
X117547619Y-109212619D02*
X117404762Y-109165000D01*
X117404762Y-109165000D02*
X117309524Y-109069761D01*
X117309524Y-109069761D02*
X117261905Y-108974523D01*
X117261905Y-108974523D02*
X117214286Y-108784047D01*
X117214286Y-108784047D02*
X117214286Y-108641190D01*
X117214286Y-108641190D02*
X117261905Y-108450714D01*
X117261905Y-108450714D02*
X117309524Y-108355476D01*
X117309524Y-108355476D02*
X117404762Y-108260238D01*
X117404762Y-108260238D02*
X117547619Y-108212619D01*
X117547619Y-108212619D02*
X117642857Y-108212619D01*
X117642857Y-108212619D02*
X117785714Y-108260238D01*
X117785714Y-108260238D02*
X117833333Y-108307857D01*
X118166667Y-108212619D02*
X118785714Y-108212619D01*
X118785714Y-108212619D02*
X118452381Y-108593571D01*
X118452381Y-108593571D02*
X118595238Y-108593571D01*
X118595238Y-108593571D02*
X118690476Y-108641190D01*
X118690476Y-108641190D02*
X118738095Y-108688809D01*
X118738095Y-108688809D02*
X118785714Y-108784047D01*
X118785714Y-108784047D02*
X118785714Y-109022142D01*
X118785714Y-109022142D02*
X118738095Y-109117380D01*
X118738095Y-109117380D02*
X118690476Y-109165000D01*
X118690476Y-109165000D02*
X118595238Y-109212619D01*
X118595238Y-109212619D02*
X118309524Y-109212619D01*
X118309524Y-109212619D02*
X118214286Y-109165000D01*
X118214286Y-109165000D02*
X118166667Y-109117380D01*
%TO.C,C1*%
X105083333Y-128367380D02*
X105035714Y-128415000D01*
X105035714Y-128415000D02*
X104892857Y-128462619D01*
X104892857Y-128462619D02*
X104797619Y-128462619D01*
X104797619Y-128462619D02*
X104654762Y-128415000D01*
X104654762Y-128415000D02*
X104559524Y-128319761D01*
X104559524Y-128319761D02*
X104511905Y-128224523D01*
X104511905Y-128224523D02*
X104464286Y-128034047D01*
X104464286Y-128034047D02*
X104464286Y-127891190D01*
X104464286Y-127891190D02*
X104511905Y-127700714D01*
X104511905Y-127700714D02*
X104559524Y-127605476D01*
X104559524Y-127605476D02*
X104654762Y-127510238D01*
X104654762Y-127510238D02*
X104797619Y-127462619D01*
X104797619Y-127462619D02*
X104892857Y-127462619D01*
X104892857Y-127462619D02*
X105035714Y-127510238D01*
X105035714Y-127510238D02*
X105083333Y-127557857D01*
X106035714Y-128462619D02*
X105464286Y-128462619D01*
X105750000Y-128462619D02*
X105750000Y-127462619D01*
X105750000Y-127462619D02*
X105654762Y-127605476D01*
X105654762Y-127605476D02*
X105559524Y-127700714D01*
X105559524Y-127700714D02*
X105464286Y-127748333D01*
D12*
%TO.C,U1*%
X117510000Y-117000000D02*
X117510000Y-113140000D01*
X104490000Y-117000000D02*
X104490000Y-113140000D01*
X104490000Y-117000000D02*
X104490000Y-120860000D01*
X104490000Y-113140000D02*
X104725000Y-113140000D01*
X117275000Y-113140000D02*
X117275000Y-111325000D01*
X117510000Y-113140000D02*
X117275000Y-113140000D01*
X104490000Y-120860000D02*
X104725000Y-120860000D01*
X117510000Y-120860000D02*
X117275000Y-120860000D01*
X117510000Y-117000000D02*
X117510000Y-120860000D01*
%TO.C,J2*%
X112500000Y-134200000D02*
X112500000Y-134600000D01*
X111500000Y-134200000D02*
X111500000Y-134600000D01*
X118700000Y-131000000D02*
X118700000Y-129800000D01*
X115500000Y-134600000D02*
X115500000Y-134200000D01*
X118700000Y-129800000D02*
X109300000Y-129800000D01*
X108900000Y-132000000D02*
X109300000Y-132000000D01*
X109300000Y-129800000D02*
X109300000Y-131000000D01*
X118700000Y-132000000D02*
X118700000Y-134200000D01*
X109300000Y-132000000D02*
X109300000Y-134200000D01*
X116500000Y-134200000D02*
X116500000Y-134600000D01*
X108900000Y-134600000D02*
X119100000Y-134600000D01*
X119100000Y-129400000D02*
X108900000Y-129400000D01*
X109300000Y-131000000D02*
X108900000Y-131000000D01*
X119410000Y-133000000D02*
X119410000Y-134910000D01*
X115500000Y-134200000D02*
X112500000Y-134200000D01*
X118700000Y-134200000D02*
X116500000Y-134200000D01*
X119100000Y-131000000D02*
X118700000Y-131000000D01*
X119100000Y-132000000D02*
X118700000Y-132000000D01*
X108900000Y-129400000D02*
X108900000Y-134600000D01*
X119100000Y-134600000D02*
X119100000Y-129400000D01*
X109300000Y-134200000D02*
X111500000Y-134200000D01*
X119410000Y-134910000D02*
X117500000Y-134910000D01*
%TO.C,J3*%
X107610000Y-133910000D02*
X107610000Y-130190000D01*
X107610000Y-130190000D02*
X101390000Y-130190000D01*
X101390000Y-130190000D02*
X101390000Y-133910000D01*
X101390000Y-133910000D02*
X107610000Y-133910000D01*
X106300000Y-133910000D02*
X106300000Y-134110000D01*
X106300000Y-134110000D02*
X106600000Y-134110000D01*
X106600000Y-134110000D02*
X106600000Y-133910000D01*
X106300000Y-134010000D02*
X106600000Y-134010000D01*
X107210000Y-133510000D02*
X107210000Y-130590000D01*
X107210000Y-130590000D02*
X101790000Y-130590000D01*
X101790000Y-130590000D02*
X101790000Y-133510000D01*
X101790000Y-133510000D02*
X107210000Y-133510000D01*
X107610000Y-133000000D02*
X107210000Y-133000000D01*
X107610000Y-132000000D02*
X107210000Y-132000000D01*
X101390000Y-133000000D02*
X101790000Y-133000000D01*
X101390000Y-132000000D02*
X101790000Y-132000000D01*
X105350000Y-130590000D02*
X105350000Y-130990000D01*
X105350000Y-130990000D02*
X105150000Y-130990000D01*
X105150000Y-130990000D02*
X105150000Y-130590000D01*
X105250000Y-130590000D02*
X105250000Y-130990000D01*
X103850000Y-130590000D02*
X103850000Y-130990000D01*
X103850000Y-130990000D02*
X103650000Y-130990000D01*
X103650000Y-130990000D02*
X103650000Y-130590000D01*
X103750000Y-130590000D02*
X103750000Y-130990000D01*
X107010000Y-134110000D02*
X107810000Y-134110000D01*
X107810000Y-134110000D02*
X107810000Y-133310000D01*
%TO.C,J1*%
X103500000Y-100800000D02*
X103500000Y-100400000D01*
X118700000Y-105200000D02*
X118700000Y-104000000D01*
X101300000Y-100800000D02*
X103500000Y-100800000D01*
X100590000Y-100090000D02*
X102500000Y-100090000D01*
X119100000Y-103000000D02*
X118700000Y-103000000D01*
X118700000Y-104000000D02*
X119100000Y-104000000D01*
X116500000Y-100800000D02*
X116500000Y-100400000D01*
X115500000Y-100800000D02*
X115500000Y-100400000D01*
X118700000Y-100800000D02*
X116500000Y-100800000D01*
X101300000Y-105200000D02*
X118700000Y-105200000D01*
X104500000Y-100800000D02*
X115500000Y-100800000D01*
X100900000Y-105600000D02*
X119100000Y-105600000D01*
X100900000Y-100400000D02*
X100900000Y-105600000D01*
X118700000Y-103000000D02*
X118700000Y-100800000D01*
X104500000Y-100400000D02*
X104500000Y-100800000D01*
X101300000Y-104000000D02*
X101300000Y-105200000D01*
X101300000Y-103000000D02*
X101300000Y-100800000D01*
X100590000Y-102000000D02*
X100590000Y-100090000D01*
X119100000Y-100400000D02*
X100900000Y-100400000D01*
X100900000Y-104000000D02*
X101300000Y-104000000D01*
X100900000Y-103000000D02*
X101300000Y-103000000D01*
X119100000Y-105600000D02*
X119100000Y-100400000D01*
%TO.C,C3*%
X117238748Y-106265000D02*
X117761252Y-106265000D01*
X117238748Y-107735000D02*
X117761252Y-107735000D01*
%TO.C,C1*%
X107738748Y-127265000D02*
X108261252Y-127265000D01*
X107738748Y-128735000D02*
X108261252Y-128735000D01*
%TD*%
M02*
