M48
; DRILL file {KiCad 7.0.2} date Wed May 24 14:34:09 2023
; FORMAT={-:-/ absolute / inch / decimal}
; #@! TF.CreationDate,2023-05-24T14:34:09-04:00
; #@! TF.GenerationSoftware,Kicad,Pcbnew,7.0.2
; #@! TF.FileFunction,Plated,1,2,PTH
FMAT,2
INCH
; #@! TA.AperFunction,Plated,PTH,ViaDrill
T1C0.0157
; #@! TA.AperFunction,Plated,PTH,ComponentDrill
T2C0.0287
; #@! TA.AperFunction,Plated,PTH,ComponentDrill
T3C0.0335
%
G90
G05
T1
X4.0354Y-4.3406
X4.0551Y-4.3799
X4.0846Y-4.2618
X4.0945Y-4.5079
X4.1339Y-4.2126
X4.1634Y-4.2618
X4.1929Y-4.6358
X4.252Y-5.0787
X4.2701Y-4.4802
X4.311Y-4.3209
X4.3504Y-4.2913
X4.3898Y-4.9016
X4.4291Y-4.9213
X4.4891Y-4.2314
X4.5186Y-4.2609
X4.5472Y-4.2913
X4.5472Y-4.5079
X4.5768Y-4.872
X4.5866Y-4.5276
X4.5965Y-5.0374
X4.6161Y-4.685
X4.685Y-3.9961
T2
X4.0551Y-5.2165
X4.1142Y-5.2165
X4.1732Y-5.2165
T3
X4.0551Y-4.0157
X4.0551Y-4.0945
X4.1339Y-4.0157
X4.1339Y-4.0945
X4.2126Y-4.0157
X4.2126Y-4.0945
X4.2913Y-4.0157
X4.2913Y-4.0945
X4.3701Y-4.0157
X4.3701Y-4.0945
X4.3701Y-5.1575
X4.3701Y-5.2362
X4.4488Y-4.0157
X4.4488Y-4.0945
X4.4488Y-5.1575
X4.4488Y-5.2362
X4.5276Y-4.0157
X4.5276Y-4.0945
X4.5276Y-5.1575
X4.5276Y-5.2362
X4.6063Y-4.0157
X4.6063Y-4.0945
X4.6063Y-5.1575
X4.6063Y-5.2362
T0
M30
