%TF.GenerationSoftware,KiCad,Pcbnew,7.0.2*%
%TF.CreationDate,2023-05-24T14:34:07-04:00*%
%TF.ProjectId,mcumod-at6,6d63756d-6f64-42d6-9174-362e6b696361,rev?*%
%TF.SameCoordinates,Original*%
%TF.FileFunction,Legend,Bot*%
%TF.FilePolarity,Positive*%
%FSLAX46Y46*%
G04 Gerber Fmt 4.6, Leading zero omitted, Abs format (unit mm)*
G04 Created by KiCad (PCBNEW 7.0.2) date 2023-05-24 14:34:07*
%MOMM*%
%LPD*%
G01*
G04 APERTURE LIST*
%ADD10C,0.150000*%
%ADD11C,0.120000*%
G04 APERTURE END LIST*
D10*
%TO.C,D1*%
X113238094Y-111462619D02*
X113238094Y-110462619D01*
X113238094Y-110462619D02*
X112999999Y-110462619D01*
X112999999Y-110462619D02*
X112857142Y-110510238D01*
X112857142Y-110510238D02*
X112761904Y-110605476D01*
X112761904Y-110605476D02*
X112714285Y-110700714D01*
X112714285Y-110700714D02*
X112666666Y-110891190D01*
X112666666Y-110891190D02*
X112666666Y-111034047D01*
X112666666Y-111034047D02*
X112714285Y-111224523D01*
X112714285Y-111224523D02*
X112761904Y-111319761D01*
X112761904Y-111319761D02*
X112857142Y-111415000D01*
X112857142Y-111415000D02*
X112999999Y-111462619D01*
X112999999Y-111462619D02*
X113238094Y-111462619D01*
X111714285Y-111462619D02*
X112285713Y-111462619D01*
X111999999Y-111462619D02*
X111999999Y-110462619D01*
X111999999Y-110462619D02*
X112095237Y-110605476D01*
X112095237Y-110605476D02*
X112190475Y-110700714D01*
X112190475Y-110700714D02*
X112285713Y-110748333D01*
%TO.C,J4*%
X110833333Y-125962619D02*
X110833333Y-126676904D01*
X110833333Y-126676904D02*
X110880952Y-126819761D01*
X110880952Y-126819761D02*
X110976190Y-126915000D01*
X110976190Y-126915000D02*
X111119047Y-126962619D01*
X111119047Y-126962619D02*
X111214285Y-126962619D01*
X109928571Y-126295952D02*
X109928571Y-126962619D01*
X110166666Y-125915000D02*
X110404761Y-126629285D01*
X110404761Y-126629285D02*
X109785714Y-126629285D01*
%TO.C,U3*%
X116761904Y-118212619D02*
X116761904Y-119022142D01*
X116761904Y-119022142D02*
X116714285Y-119117380D01*
X116714285Y-119117380D02*
X116666666Y-119165000D01*
X116666666Y-119165000D02*
X116571428Y-119212619D01*
X116571428Y-119212619D02*
X116380952Y-119212619D01*
X116380952Y-119212619D02*
X116285714Y-119165000D01*
X116285714Y-119165000D02*
X116238095Y-119117380D01*
X116238095Y-119117380D02*
X116190476Y-119022142D01*
X116190476Y-119022142D02*
X116190476Y-118212619D01*
X115809523Y-118212619D02*
X115190476Y-118212619D01*
X115190476Y-118212619D02*
X115523809Y-118593571D01*
X115523809Y-118593571D02*
X115380952Y-118593571D01*
X115380952Y-118593571D02*
X115285714Y-118641190D01*
X115285714Y-118641190D02*
X115238095Y-118688809D01*
X115238095Y-118688809D02*
X115190476Y-118784047D01*
X115190476Y-118784047D02*
X115190476Y-119022142D01*
X115190476Y-119022142D02*
X115238095Y-119117380D01*
X115238095Y-119117380D02*
X115285714Y-119165000D01*
X115285714Y-119165000D02*
X115380952Y-119212619D01*
X115380952Y-119212619D02*
X115666666Y-119212619D01*
X115666666Y-119212619D02*
X115761904Y-119165000D01*
X115761904Y-119165000D02*
X115809523Y-119117380D01*
%TO.C,U2*%
X115261904Y-123962619D02*
X115261904Y-124772142D01*
X115261904Y-124772142D02*
X115214285Y-124867380D01*
X115214285Y-124867380D02*
X115166666Y-124915000D01*
X115166666Y-124915000D02*
X115071428Y-124962619D01*
X115071428Y-124962619D02*
X114880952Y-124962619D01*
X114880952Y-124962619D02*
X114785714Y-124915000D01*
X114785714Y-124915000D02*
X114738095Y-124867380D01*
X114738095Y-124867380D02*
X114690476Y-124772142D01*
X114690476Y-124772142D02*
X114690476Y-123962619D01*
X114261904Y-124057857D02*
X114214285Y-124010238D01*
X114214285Y-124010238D02*
X114119047Y-123962619D01*
X114119047Y-123962619D02*
X113880952Y-123962619D01*
X113880952Y-123962619D02*
X113785714Y-124010238D01*
X113785714Y-124010238D02*
X113738095Y-124057857D01*
X113738095Y-124057857D02*
X113690476Y-124153095D01*
X113690476Y-124153095D02*
X113690476Y-124248333D01*
X113690476Y-124248333D02*
X113738095Y-124391190D01*
X113738095Y-124391190D02*
X114309523Y-124962619D01*
X114309523Y-124962619D02*
X113690476Y-124962619D01*
%TO.C,R1*%
X116166666Y-107212619D02*
X116499999Y-106736428D01*
X116738094Y-107212619D02*
X116738094Y-106212619D01*
X116738094Y-106212619D02*
X116357142Y-106212619D01*
X116357142Y-106212619D02*
X116261904Y-106260238D01*
X116261904Y-106260238D02*
X116214285Y-106307857D01*
X116214285Y-106307857D02*
X116166666Y-106403095D01*
X116166666Y-106403095D02*
X116166666Y-106545952D01*
X116166666Y-106545952D02*
X116214285Y-106641190D01*
X116214285Y-106641190D02*
X116261904Y-106688809D01*
X116261904Y-106688809D02*
X116357142Y-106736428D01*
X116357142Y-106736428D02*
X116738094Y-106736428D01*
X115214285Y-107212619D02*
X115785713Y-107212619D01*
X115499999Y-107212619D02*
X115499999Y-106212619D01*
X115499999Y-106212619D02*
X115595237Y-106355476D01*
X115595237Y-106355476D02*
X115690475Y-106450714D01*
X115690475Y-106450714D02*
X115785713Y-106498333D01*
%TO.C,C2*%
X117916666Y-124117380D02*
X117964285Y-124165000D01*
X117964285Y-124165000D02*
X118107142Y-124212619D01*
X118107142Y-124212619D02*
X118202380Y-124212619D01*
X118202380Y-124212619D02*
X118345237Y-124165000D01*
X118345237Y-124165000D02*
X118440475Y-124069761D01*
X118440475Y-124069761D02*
X118488094Y-123974523D01*
X118488094Y-123974523D02*
X118535713Y-123784047D01*
X118535713Y-123784047D02*
X118535713Y-123641190D01*
X118535713Y-123641190D02*
X118488094Y-123450714D01*
X118488094Y-123450714D02*
X118440475Y-123355476D01*
X118440475Y-123355476D02*
X118345237Y-123260238D01*
X118345237Y-123260238D02*
X118202380Y-123212619D01*
X118202380Y-123212619D02*
X118107142Y-123212619D01*
X118107142Y-123212619D02*
X117964285Y-123260238D01*
X117964285Y-123260238D02*
X117916666Y-123307857D01*
X117535713Y-123307857D02*
X117488094Y-123260238D01*
X117488094Y-123260238D02*
X117392856Y-123212619D01*
X117392856Y-123212619D02*
X117154761Y-123212619D01*
X117154761Y-123212619D02*
X117059523Y-123260238D01*
X117059523Y-123260238D02*
X117011904Y-123307857D01*
X117011904Y-123307857D02*
X116964285Y-123403095D01*
X116964285Y-123403095D02*
X116964285Y-123498333D01*
X116964285Y-123498333D02*
X117011904Y-123641190D01*
X117011904Y-123641190D02*
X117583332Y-124212619D01*
X117583332Y-124212619D02*
X116964285Y-124212619D01*
D11*
%TO.C,D1*%
X114500000Y-109890000D02*
X118910000Y-109890000D01*
X118910000Y-109890000D02*
X118910000Y-112110000D01*
X118910000Y-112110000D02*
X114500000Y-112110000D01*
%TO.C,J4*%
X108310000Y-128060000D02*
X108310000Y-127040000D01*
X108310000Y-127040000D02*
X106710000Y-127040000D01*
X108310000Y-116960000D02*
X106710000Y-116960000D01*
X104060000Y-115940000D02*
X108310000Y-115940000D01*
X106710000Y-127040000D02*
X106710000Y-125760000D01*
X106710000Y-125760000D02*
X109600000Y-125760000D01*
X104060000Y-128060000D02*
X108310000Y-128060000D01*
X100490000Y-126340000D02*
X100490000Y-117660000D01*
X106710000Y-116960000D02*
X106710000Y-118240000D01*
X108310000Y-115940000D02*
X108310000Y-116960000D01*
%TO.C,U3*%
X115500000Y-112440000D02*
X113550000Y-112440000D01*
X115500000Y-117560000D02*
X113550000Y-117560000D01*
X115500000Y-112440000D02*
X118950000Y-112440000D01*
X115500000Y-117560000D02*
X117450000Y-117560000D01*
%TO.C,U2*%
X114500000Y-125440000D02*
X113700000Y-125440000D01*
X114500000Y-125440000D02*
X115300000Y-125440000D01*
X114500000Y-128560000D02*
X112700000Y-128560000D01*
X114500000Y-128560000D02*
X115300000Y-128560000D01*
%TO.C,R1*%
X118735000Y-107977064D02*
X118735000Y-107522936D01*
X117265000Y-107977064D02*
X117265000Y-107522936D01*
%TO.C,C2*%
X118735000Y-126761252D02*
X118735000Y-126238748D01*
X117265000Y-126761252D02*
X117265000Y-126238748D01*
%TD*%
M02*
