%TF.GenerationSoftware,KiCad,Pcbnew,6.0.6*%
%TF.CreationDate,2022-09-05T11:32:40-04:00*%
%TF.ProjectId,mpio8,6d70696f-382e-46b6-9963-61645f706362,rev?*%
%TF.SameCoordinates,Original*%
%TF.FileFunction,Soldermask,Bot*%
%TF.FilePolarity,Negative*%
%FSLAX46Y46*%
G04 Gerber Fmt 4.6, Leading zero omitted, Abs format (unit mm)*
G04 Created by KiCad (PCBNEW 6.0.6) date 2022-09-05 11:32:40*
%MOMM*%
%LPD*%
G01*
G04 APERTURE LIST*
G04 Aperture macros list*
%AMRoundRect*
0 Rectangle with rounded corners*
0 $1 Rounding radius*
0 $2 $3 $4 $5 $6 $7 $8 $9 X,Y pos of 4 corners*
0 Add a 4 corners polygon primitive as box body*
4,1,4,$2,$3,$4,$5,$6,$7,$8,$9,$2,$3,0*
0 Add four circle primitives for the rounded corners*
1,1,$1+$1,$2,$3*
1,1,$1+$1,$4,$5*
1,1,$1+$1,$6,$7*
1,1,$1+$1,$8,$9*
0 Add four rect primitives between the rounded corners*
20,1,$1+$1,$2,$3,$4,$5,0*
20,1,$1+$1,$4,$5,$6,$7,0*
20,1,$1+$1,$6,$7,$8,$9,0*
20,1,$1+$1,$8,$9,$2,$3,0*%
G04 Aperture macros list end*
%ADD10R,1.800000X1.800000*%
%ADD11C,1.800000*%
%ADD12R,1.350000X1.350000*%
%ADD13O,1.350000X1.350000*%
%ADD14C,5.600000*%
%ADD15R,1.600000X1.600000*%
%ADD16C,1.600000*%
%ADD17R,1.700000X1.700000*%
%ADD18O,1.700000X1.700000*%
%ADD19R,3.000000X3.000000*%
%ADD20C,3.000000*%
%ADD21O,2.300000X1.600000*%
%ADD22O,1.600000X1.600000*%
%ADD23R,1.905000X2.000000*%
%ADD24O,1.905000X2.000000*%
%ADD25RoundRect,0.250000X-0.350000X-0.625000X0.350000X-0.625000X0.350000X0.625000X-0.350000X0.625000X0*%
%ADD26O,1.200000X1.750000*%
G04 APERTURE END LIST*
D10*
%TO.C,D5*%
X85725000Y-84455000D03*
D11*
X85725000Y-81915000D03*
%TD*%
D12*
%TO.C,JP12*%
X117475000Y-87630000D03*
D13*
X119475000Y-87630000D03*
%TD*%
D12*
%TO.C,JP11*%
X117475000Y-83820000D03*
D13*
X119475000Y-83820000D03*
%TD*%
D14*
%TO.C,H3*%
X83820000Y-132080000D03*
%TD*%
D15*
%TO.C,C1*%
X117592349Y-104775000D03*
D16*
X120092349Y-104775000D03*
%TD*%
D17*
%TO.C,J3*%
X129540000Y-124460000D03*
D18*
X129540000Y-127000000D03*
X127000000Y-124460000D03*
X127000000Y-127000000D03*
X124460000Y-124460000D03*
X124460000Y-127000000D03*
X121920000Y-124460000D03*
X121920000Y-127000000D03*
X119380000Y-124460000D03*
X119380000Y-127000000D03*
%TD*%
D14*
%TO.C,H1*%
X134620000Y-60960000D03*
%TD*%
D17*
%TO.C,J11*%
X88900000Y-63500000D03*
D18*
X86360000Y-63500000D03*
X88900000Y-60960000D03*
X86360000Y-60960000D03*
%TD*%
D17*
%TO.C,J9*%
X88900000Y-73660000D03*
D18*
X86360000Y-73660000D03*
X88900000Y-71120000D03*
X86360000Y-71120000D03*
%TD*%
D19*
%TO.C,J5*%
X81280000Y-109220000D03*
D20*
X81280000Y-114300000D03*
%TD*%
D21*
%TO.C,K2*%
X101600000Y-109220000D03*
X101600000Y-119380000D03*
X101600000Y-121920000D03*
X109220000Y-121920000D03*
X109220000Y-119380000D03*
X109220000Y-109220000D03*
%TD*%
D15*
%TO.C,U5*%
X96520000Y-72390000D03*
D22*
X96520000Y-74930000D03*
X104140000Y-74930000D03*
X104140000Y-72390000D03*
%TD*%
D23*
%TO.C,Q5*%
X90170000Y-101600000D03*
D24*
X92710000Y-101600000D03*
X95250000Y-101600000D03*
%TD*%
D15*
%TO.C,U7*%
X96520000Y-59690000D03*
D22*
X96520000Y-62230000D03*
X104140000Y-62230000D03*
X104140000Y-59690000D03*
%TD*%
D14*
%TO.C,H2*%
X134620000Y-132080000D03*
%TD*%
D23*
%TO.C,Q1*%
X90170000Y-121920000D03*
D24*
X92710000Y-121920000D03*
X95250000Y-121920000D03*
%TD*%
D21*
%TO.C,K3*%
X96520000Y-104140000D03*
X96520000Y-93980000D03*
X96520000Y-91440000D03*
X88900000Y-91440000D03*
X88900000Y-93980000D03*
X88900000Y-104140000D03*
%TD*%
%TO.C,K4*%
X101600000Y-88900000D03*
X101600000Y-99060000D03*
X101600000Y-101600000D03*
X109220000Y-101600000D03*
X109220000Y-99060000D03*
X109220000Y-88900000D03*
%TD*%
D25*
%TO.C,J2*%
X96520000Y-130810000D03*
D26*
X98520000Y-130810000D03*
X100520000Y-130810000D03*
X102520000Y-130810000D03*
%TD*%
D17*
%TO.C,J10*%
X88900000Y-68580000D03*
D18*
X86360000Y-68580000D03*
X88900000Y-66040000D03*
X86360000Y-66040000D03*
%TD*%
D17*
%TO.C,J8*%
X88900000Y-78740000D03*
D18*
X86360000Y-78740000D03*
X88900000Y-76200000D03*
X86360000Y-76200000D03*
%TD*%
D23*
%TO.C,Q3*%
X107950000Y-111760000D03*
D24*
X105410000Y-111760000D03*
X102870000Y-111760000D03*
%TD*%
D15*
%TO.C,U6*%
X96520000Y-66040000D03*
D22*
X96520000Y-68580000D03*
X104140000Y-68580000D03*
X104140000Y-66040000D03*
%TD*%
D21*
%TO.C,K1*%
X96520000Y-124460000D03*
X96520000Y-114300000D03*
X96520000Y-111760000D03*
X88900000Y-111760000D03*
X88900000Y-114300000D03*
X88900000Y-124460000D03*
%TD*%
D19*
%TO.C,J6*%
X81280000Y-99060000D03*
D20*
X81280000Y-104140000D03*
%TD*%
D15*
%TO.C,U4*%
X96520000Y-78740000D03*
D22*
X96520000Y-81280000D03*
X104140000Y-81280000D03*
X104140000Y-78740000D03*
%TD*%
D19*
%TO.C,J4*%
X81280000Y-119380000D03*
D20*
X81280000Y-124460000D03*
%TD*%
D19*
%TO.C,J7*%
X81280000Y-88900000D03*
D20*
X81280000Y-93980000D03*
%TD*%
D19*
%TO.C,J1*%
X109220000Y-132080000D03*
D20*
X114300000Y-132080000D03*
%TD*%
D23*
%TO.C,Q7*%
X107950000Y-91765000D03*
D24*
X105410000Y-91765000D03*
X102870000Y-91765000D03*
%TD*%
M02*
