M48
; DRILL file {KiCad 6.0.6} date Mon Sep  5 11:33:13 2022
; FORMAT={-:-/ absolute / inch / decimal}
; #@! TF.CreationDate,2022-09-05T11:33:13-04:00
; #@! TF.GenerationSoftware,Kicad,Pcbnew,6.0.6
; #@! TF.FileFunction,Plated,1,2,PTH
FMAT,2
INCH
; #@! TA.AperFunction,Plated,PTH,ViaDrill
T1C0.0157
; #@! TA.AperFunction,Plated,PTH,ComponentDrill
T2C0.0295
; #@! TA.AperFunction,Plated,PTH,ComponentDrill
T3C0.0315
; #@! TA.AperFunction,Plated,PTH,ComponentDrill
T4C0.0354
; #@! TA.AperFunction,Plated,PTH,ComponentDrill
T5C0.0394
; #@! TA.AperFunction,Plated,PTH,ComponentDrill
T6C0.0433
; #@! TA.AperFunction,Plated,PTH,ComponentDrill
T7C0.0598
; #@! TA.AperFunction,Plated,PTH,ComponentDrill
T8C0.1260
%
G90
G05
T1
X3.325Y-3.825
X3.4Y-4.625
X3.65Y-5.05
X3.8Y-3.325
X3.825Y-3.925
X4.0Y-4.2
X4.1244Y-3.8756
X4.2Y-2.575
X4.3Y-5.0
X4.325Y-3.825
X4.35Y-3.65
X4.375Y-4.475
X4.4Y-2.575
X4.4Y-2.775
X4.4Y-3.025
X4.4Y-3.5
X4.425Y-2.525
X4.425Y-4.3
X4.45Y-4.75
X4.475Y-3.8
X4.475Y-4.575
X4.5Y-4.45
X4.525Y-2.8536
X4.525Y-3.1036
X4.525Y-3.75
X4.575Y-4.5
X4.575Y-4.9
X4.675Y-3.9
X4.75Y-4.5
X4.8Y-3.375
X4.825Y-3.0714
X4.875Y-2.8
X4.875Y-3.5
X4.875Y-3.55
X4.9Y-3.75
X4.9Y-3.85
X4.9Y-4.225
X4.925Y-4.525
X4.95Y-3.15
X5.025Y-4.025
X5.05Y-3.05
X5.05Y-3.55
X5.05Y-3.975
X5.075Y-2.85
X5.1Y-3.025
X5.1Y-3.275
X5.1Y-3.5
X5.125Y-4.525
X5.175Y-2.9
X5.175Y-4.225
X5.25Y-3.725
X5.3Y-3.7
X5.325Y-3.45
T2
X3.8Y-5.15
X3.8787Y-5.15
X3.9575Y-5.15
X4.0362Y-5.15
T3
X3.8Y-2.35
X3.8Y-2.45
X3.8Y-2.6
X3.8Y-2.7
X3.8Y-2.85
X3.8Y-2.95
X3.8Y-3.1
X3.8Y-3.2
X4.1Y-2.35
X4.1Y-2.45
X4.1Y-2.6
X4.1Y-2.7
X4.1Y-2.85
X4.1Y-2.95
X4.1Y-3.1
X4.1Y-3.2
X4.625Y-3.3
X4.625Y-3.45
X4.6296Y-4.125
X4.7037Y-3.3
X4.7037Y-3.45
X4.728Y-4.125
T4
X3.375Y-3.225
X3.375Y-3.325
T5
X3.4Y-2.4
X3.4Y-2.5
X3.4Y-2.6
X3.4Y-2.7
X3.4Y-2.8
X3.4Y-2.9
X3.4Y-3.0
X3.4Y-3.1
X3.5Y-2.4
X3.5Y-2.5
X3.5Y-2.6
X3.5Y-2.7
X3.5Y-2.8
X3.5Y-2.9
X3.5Y-3.0
X3.5Y-3.1
X3.5Y-3.6
X3.5Y-3.7
X3.5Y-4.1
X3.5Y-4.4
X3.5Y-4.5
X3.5Y-4.9
X3.8Y-3.6
X3.8Y-3.7
X3.8Y-4.1
X3.8Y-4.4
X3.8Y-4.5
X3.8Y-4.9
X4.0Y-3.5
X4.0Y-3.9
X4.0Y-4.0
X4.0Y-4.3
X4.0Y-4.7
X4.0Y-4.8
X4.3Y-3.5
X4.3Y-3.9
X4.3Y-4.0
X4.3Y-4.3
X4.3Y-4.7
X4.3Y-4.8
X4.7Y-4.9
X4.7Y-5.0
X4.8Y-4.9
X4.8Y-5.0
X4.9Y-4.9
X4.9Y-5.0
X5.0Y-4.9
X5.0Y-5.0
X5.1Y-4.9
X5.1Y-5.0
T6
X3.55Y-4.0
X3.55Y-4.8
X3.65Y-4.0
X3.65Y-4.8
X3.75Y-4.0
X3.75Y-4.8
X4.05Y-3.6128
X4.05Y-4.4
X4.15Y-3.6128
X4.15Y-4.4
X4.25Y-3.6128
X4.25Y-4.4
T7
X3.2Y-3.5
X3.2Y-3.7
X3.2Y-3.9
X3.2Y-4.1
X3.2Y-4.3
X3.2Y-4.5
X3.2Y-4.7
X3.2Y-4.9
X4.3Y-5.2
X4.5Y-5.2
T8
X3.3Y-5.2
X5.3Y-2.4
X5.3Y-5.2
T0
M30
