%TF.GenerationSoftware,KiCad,Pcbnew,6.0.6*%
%TF.CreationDate,2022-09-05T11:32:39-04:00*%
%TF.ProjectId,mpio8,6d70696f-382e-46b6-9963-61645f706362,rev?*%
%TF.SameCoordinates,Original*%
%TF.FileFunction,Legend,Top*%
%TF.FilePolarity,Positive*%
%FSLAX46Y46*%
G04 Gerber Fmt 4.6, Leading zero omitted, Abs format (unit mm)*
G04 Created by KiCad (PCBNEW 6.0.6) date 2022-09-05 11:32:39*
%MOMM*%
%LPD*%
G01*
G04 APERTURE LIST*
%ADD10C,0.150000*%
%ADD11C,0.304800*%
%ADD12C,0.120000*%
G04 APERTURE END LIST*
D10*
X138247380Y-81835238D02*
X137247380Y-81835238D01*
X137247380Y-81454285D01*
X137295000Y-81359047D01*
X137342619Y-81311428D01*
X137437857Y-81263809D01*
X137580714Y-81263809D01*
X137675952Y-81311428D01*
X137723571Y-81359047D01*
X137771190Y-81454285D01*
X137771190Y-81835238D01*
X138152142Y-80263809D02*
X138199761Y-80311428D01*
X138247380Y-80454285D01*
X138247380Y-80549523D01*
X138199761Y-80692380D01*
X138104523Y-80787619D01*
X138009285Y-80835238D01*
X137818809Y-80882857D01*
X137675952Y-80882857D01*
X137485476Y-80835238D01*
X137390238Y-80787619D01*
X137295000Y-80692380D01*
X137247380Y-80549523D01*
X137247380Y-80454285D01*
X137295000Y-80311428D01*
X137342619Y-80263809D01*
X137961666Y-79882857D02*
X137961666Y-79406666D01*
X138247380Y-79978095D02*
X137247380Y-79644761D01*
X138247380Y-79311428D01*
X138247380Y-78930476D02*
X138247380Y-78740000D01*
X138199761Y-78644761D01*
X138152142Y-78597142D01*
X138009285Y-78501904D01*
X137818809Y-78454285D01*
X137437857Y-78454285D01*
X137342619Y-78501904D01*
X137295000Y-78549523D01*
X137247380Y-78644761D01*
X137247380Y-78835238D01*
X137295000Y-78930476D01*
X137342619Y-78978095D01*
X137437857Y-79025714D01*
X137675952Y-79025714D01*
X137771190Y-78978095D01*
X137818809Y-78930476D01*
X137866428Y-78835238D01*
X137866428Y-78644761D01*
X137818809Y-78549523D01*
X137771190Y-78501904D01*
X137675952Y-78454285D01*
X137247380Y-77549523D02*
X137247380Y-78025714D01*
X137723571Y-78073333D01*
X137675952Y-78025714D01*
X137628333Y-77930476D01*
X137628333Y-77692380D01*
X137675952Y-77597142D01*
X137723571Y-77549523D01*
X137818809Y-77501904D01*
X138056904Y-77501904D01*
X138152142Y-77549523D01*
X138199761Y-77597142D01*
X138247380Y-77692380D01*
X138247380Y-77930476D01*
X138199761Y-78025714D01*
X138152142Y-78073333D01*
X137247380Y-76597142D02*
X137247380Y-77073333D01*
X137723571Y-77120952D01*
X137675952Y-77073333D01*
X137628333Y-76978095D01*
X137628333Y-76740000D01*
X137675952Y-76644761D01*
X137723571Y-76597142D01*
X137818809Y-76549523D01*
X138056904Y-76549523D01*
X138152142Y-76597142D01*
X138199761Y-76644761D01*
X138247380Y-76740000D01*
X138247380Y-76978095D01*
X138199761Y-77073333D01*
X138152142Y-77120952D01*
X137580714Y-75692380D02*
X138247380Y-75692380D01*
X137199761Y-75930476D02*
X137914047Y-76168571D01*
X137914047Y-75549523D01*
D11*
X136174238Y-110338809D02*
X134142238Y-110338809D01*
X136174238Y-109177666D02*
X135013095Y-110048523D01*
X134142238Y-109177666D02*
X135303380Y-110338809D01*
X135980714Y-107145666D02*
X136077476Y-107242428D01*
X136174238Y-107532714D01*
X136174238Y-107726238D01*
X136077476Y-108016523D01*
X135883952Y-108210047D01*
X135690428Y-108306809D01*
X135303380Y-108403571D01*
X135013095Y-108403571D01*
X134626047Y-108306809D01*
X134432523Y-108210047D01*
X134239000Y-108016523D01*
X134142238Y-107726238D01*
X134142238Y-107532714D01*
X134239000Y-107242428D01*
X134335761Y-107145666D01*
X134335761Y-106371571D02*
X134239000Y-106274809D01*
X134142238Y-106081285D01*
X134142238Y-105597476D01*
X134239000Y-105403952D01*
X134335761Y-105307190D01*
X134529285Y-105210428D01*
X134722809Y-105210428D01*
X135013095Y-105307190D01*
X136174238Y-106468333D01*
X136174238Y-105210428D01*
X134142238Y-104533095D02*
X134142238Y-103178428D01*
X136174238Y-104533095D01*
X136174238Y-103178428D01*
X134239000Y-101339952D02*
X134142238Y-101533476D01*
X134142238Y-101823761D01*
X134239000Y-102114047D01*
X134432523Y-102307571D01*
X134626047Y-102404333D01*
X135013095Y-102501095D01*
X135303380Y-102501095D01*
X135690428Y-102404333D01*
X135883952Y-102307571D01*
X136077476Y-102114047D01*
X136174238Y-101823761D01*
X136174238Y-101630238D01*
X136077476Y-101339952D01*
X135980714Y-101243190D01*
X135303380Y-101243190D01*
X135303380Y-101630238D01*
X134142238Y-100372333D02*
X135787190Y-100372333D01*
X135980714Y-100275571D01*
X136077476Y-100178809D01*
X136174238Y-99985285D01*
X136174238Y-99598238D01*
X136077476Y-99404714D01*
X135980714Y-99307952D01*
X135787190Y-99211190D01*
X134142238Y-99211190D01*
D10*
X129802380Y-69667380D02*
X129802380Y-69000714D01*
X129802380Y-69191190D02*
X129850000Y-69095952D01*
X129897619Y-69048333D01*
X129992857Y-69000714D01*
X130088095Y-69000714D01*
X130945238Y-69667380D02*
X130373809Y-69667380D01*
X130659523Y-69667380D02*
X130659523Y-68667380D01*
X130564285Y-68810238D01*
X130469047Y-68905476D01*
X130373809Y-68953095D01*
X131373809Y-69572142D02*
X131421428Y-69619761D01*
X131373809Y-69667380D01*
X131326190Y-69619761D01*
X131373809Y-69572142D01*
X131373809Y-69667380D01*
X132040476Y-68667380D02*
X132135714Y-68667380D01*
X132230952Y-68715000D01*
X132278571Y-68762619D01*
X132326190Y-68857857D01*
X132373809Y-69048333D01*
X132373809Y-69286428D01*
X132326190Y-69476904D01*
X132278571Y-69572142D01*
X132230952Y-69619761D01*
X132135714Y-69667380D01*
X132040476Y-69667380D01*
X131945238Y-69619761D01*
X131897619Y-69572142D01*
X131850000Y-69476904D01*
X131802380Y-69286428D01*
X131802380Y-69048333D01*
X131850000Y-68857857D01*
X131897619Y-68762619D01*
X131945238Y-68715000D01*
X132040476Y-68667380D01*
X133516666Y-68762619D02*
X133564285Y-68715000D01*
X133659523Y-68667380D01*
X133897619Y-68667380D01*
X133992857Y-68715000D01*
X134040476Y-68762619D01*
X134088095Y-68857857D01*
X134088095Y-68953095D01*
X134040476Y-69095952D01*
X133469047Y-69667380D01*
X134088095Y-69667380D01*
X134707142Y-68667380D02*
X134802380Y-68667380D01*
X134897619Y-68715000D01*
X134945238Y-68762619D01*
X134992857Y-68857857D01*
X135040476Y-69048333D01*
X135040476Y-69286428D01*
X134992857Y-69476904D01*
X134945238Y-69572142D01*
X134897619Y-69619761D01*
X134802380Y-69667380D01*
X134707142Y-69667380D01*
X134611904Y-69619761D01*
X134564285Y-69572142D01*
X134516666Y-69476904D01*
X134469047Y-69286428D01*
X134469047Y-69048333D01*
X134516666Y-68857857D01*
X134564285Y-68762619D01*
X134611904Y-68715000D01*
X134707142Y-68667380D01*
X135421428Y-68762619D02*
X135469047Y-68715000D01*
X135564285Y-68667380D01*
X135802380Y-68667380D01*
X135897619Y-68715000D01*
X135945238Y-68762619D01*
X135992857Y-68857857D01*
X135992857Y-68953095D01*
X135945238Y-69095952D01*
X135373809Y-69667380D01*
X135992857Y-69667380D01*
X136373809Y-68762619D02*
X136421428Y-68715000D01*
X136516666Y-68667380D01*
X136754761Y-68667380D01*
X136850000Y-68715000D01*
X136897619Y-68762619D01*
X136945238Y-68857857D01*
X136945238Y-68953095D01*
X136897619Y-69095952D01*
X136326190Y-69667380D01*
X136945238Y-69667380D01*
X118509880Y-60465788D02*
X118509880Y-58941788D01*
X118933214Y-60030360D01*
X119356547Y-58941788D01*
X119356547Y-60465788D01*
X120505595Y-59449788D02*
X120505595Y-60465788D01*
X119961309Y-59449788D02*
X119961309Y-60248074D01*
X120021785Y-60393217D01*
X120142738Y-60465788D01*
X120324166Y-60465788D01*
X120445119Y-60393217D01*
X120505595Y-60320645D01*
X121291785Y-60465788D02*
X121170833Y-60393217D01*
X121110357Y-60248074D01*
X121110357Y-58941788D01*
X121594166Y-59449788D02*
X122077976Y-59449788D01*
X121775595Y-58941788D02*
X121775595Y-60248074D01*
X121836071Y-60393217D01*
X121957023Y-60465788D01*
X122077976Y-60465788D01*
X122501309Y-60465788D02*
X122501309Y-59449788D01*
X122501309Y-58941788D02*
X122440833Y-59014360D01*
X122501309Y-59086931D01*
X122561785Y-59014360D01*
X122501309Y-58941788D01*
X122501309Y-59086931D01*
X118509880Y-62919428D02*
X118509880Y-61395428D01*
X118993690Y-61395428D01*
X119114642Y-61468000D01*
X119175119Y-61540571D01*
X119235595Y-61685714D01*
X119235595Y-61903428D01*
X119175119Y-62048571D01*
X119114642Y-62121142D01*
X118993690Y-62193714D01*
X118509880Y-62193714D01*
X120263690Y-62846857D02*
X120142738Y-62919428D01*
X119900833Y-62919428D01*
X119779880Y-62846857D01*
X119719404Y-62701714D01*
X119719404Y-62121142D01*
X119779880Y-61976000D01*
X119900833Y-61903428D01*
X120142738Y-61903428D01*
X120263690Y-61976000D01*
X120324166Y-62121142D01*
X120324166Y-62266285D01*
X119719404Y-62411428D01*
X120868452Y-62919428D02*
X120868452Y-61903428D01*
X120868452Y-62193714D02*
X120928928Y-62048571D01*
X120989404Y-61976000D01*
X121110357Y-61903428D01*
X121231309Y-61903428D01*
X121594166Y-62846857D02*
X121715119Y-62919428D01*
X121957023Y-62919428D01*
X122077976Y-62846857D01*
X122138452Y-62701714D01*
X122138452Y-62629142D01*
X122077976Y-62484000D01*
X121957023Y-62411428D01*
X121775595Y-62411428D01*
X121654642Y-62338857D01*
X121594166Y-62193714D01*
X121594166Y-62121142D01*
X121654642Y-61976000D01*
X121775595Y-61903428D01*
X121957023Y-61903428D01*
X122077976Y-61976000D01*
X122864166Y-62919428D02*
X122743214Y-62846857D01*
X122682738Y-62774285D01*
X122622261Y-62629142D01*
X122622261Y-62193714D01*
X122682738Y-62048571D01*
X122743214Y-61976000D01*
X122864166Y-61903428D01*
X123045595Y-61903428D01*
X123166547Y-61976000D01*
X123227023Y-62048571D01*
X123287500Y-62193714D01*
X123287500Y-62629142D01*
X123227023Y-62774285D01*
X123166547Y-62846857D01*
X123045595Y-62919428D01*
X122864166Y-62919428D01*
X123831785Y-61903428D02*
X123831785Y-62919428D01*
X123831785Y-62048571D02*
X123892261Y-61976000D01*
X124013214Y-61903428D01*
X124194642Y-61903428D01*
X124315595Y-61976000D01*
X124376071Y-62121142D01*
X124376071Y-62919428D01*
X125525119Y-62919428D02*
X125525119Y-62121142D01*
X125464642Y-61976000D01*
X125343690Y-61903428D01*
X125101785Y-61903428D01*
X124980833Y-61976000D01*
X125525119Y-62846857D02*
X125404166Y-62919428D01*
X125101785Y-62919428D01*
X124980833Y-62846857D01*
X124920357Y-62701714D01*
X124920357Y-62556571D01*
X124980833Y-62411428D01*
X125101785Y-62338857D01*
X125404166Y-62338857D01*
X125525119Y-62266285D01*
X126311309Y-62919428D02*
X126190357Y-62846857D01*
X126129880Y-62701714D01*
X126129880Y-61395428D01*
X126795119Y-62919428D02*
X126795119Y-61903428D01*
X126795119Y-61395428D02*
X126734642Y-61468000D01*
X126795119Y-61540571D01*
X126855595Y-61468000D01*
X126795119Y-61395428D01*
X126795119Y-61540571D01*
X127218452Y-61903428D02*
X127702261Y-61903428D01*
X127399880Y-61395428D02*
X127399880Y-62701714D01*
X127460357Y-62846857D01*
X127581309Y-62919428D01*
X127702261Y-62919428D01*
X128004642Y-61903428D02*
X128307023Y-62919428D01*
X128609404Y-61903428D02*
X128307023Y-62919428D01*
X128186071Y-63282285D01*
X128125595Y-63354857D01*
X128004642Y-63427428D01*
X118509880Y-65373068D02*
X118509880Y-63849068D01*
X120021785Y-63776497D02*
X118933214Y-65735925D01*
X120687023Y-63849068D02*
X120928928Y-63849068D01*
X121049880Y-63921640D01*
X121170833Y-64066782D01*
X121231309Y-64357068D01*
X121231309Y-64865068D01*
X121170833Y-65155354D01*
X121049880Y-65300497D01*
X120928928Y-65373068D01*
X120687023Y-65373068D01*
X120566071Y-65300497D01*
X120445119Y-65155354D01*
X120384642Y-64865068D01*
X120384642Y-64357068D01*
X120445119Y-64066782D01*
X120566071Y-63921640D01*
X120687023Y-63849068D01*
%TO.C,D4*%
X104671904Y-106342380D02*
X104671904Y-105342380D01*
X104910000Y-105342380D01*
X105052857Y-105390000D01*
X105148095Y-105485238D01*
X105195714Y-105580476D01*
X105243333Y-105770952D01*
X105243333Y-105913809D01*
X105195714Y-106104285D01*
X105148095Y-106199523D01*
X105052857Y-106294761D01*
X104910000Y-106342380D01*
X104671904Y-106342380D01*
X106100476Y-105675714D02*
X106100476Y-106342380D01*
X105862380Y-105294761D02*
X105624285Y-106009047D01*
X106243333Y-106009047D01*
%TO.C,D3*%
X91971904Y-87602380D02*
X91971904Y-86602380D01*
X92210000Y-86602380D01*
X92352857Y-86650000D01*
X92448095Y-86745238D01*
X92495714Y-86840476D01*
X92543333Y-87030952D01*
X92543333Y-87173809D01*
X92495714Y-87364285D01*
X92448095Y-87459523D01*
X92352857Y-87554761D01*
X92210000Y-87602380D01*
X91971904Y-87602380D01*
X92876666Y-86602380D02*
X93495714Y-86602380D01*
X93162380Y-86983333D01*
X93305238Y-86983333D01*
X93400476Y-87030952D01*
X93448095Y-87078571D01*
X93495714Y-87173809D01*
X93495714Y-87411904D01*
X93448095Y-87507142D01*
X93400476Y-87554761D01*
X93305238Y-87602380D01*
X93019523Y-87602380D01*
X92924285Y-87554761D01*
X92876666Y-87507142D01*
%TO.C,D2*%
X104671904Y-126662380D02*
X104671904Y-125662380D01*
X104910000Y-125662380D01*
X105052857Y-125710000D01*
X105148095Y-125805238D01*
X105195714Y-125900476D01*
X105243333Y-126090952D01*
X105243333Y-126233809D01*
X105195714Y-126424285D01*
X105148095Y-126519523D01*
X105052857Y-126614761D01*
X104910000Y-126662380D01*
X104671904Y-126662380D01*
X105624285Y-125757619D02*
X105671904Y-125710000D01*
X105767142Y-125662380D01*
X106005238Y-125662380D01*
X106100476Y-125710000D01*
X106148095Y-125757619D01*
X106195714Y-125852857D01*
X106195714Y-125948095D01*
X106148095Y-126090952D01*
X105576666Y-126662380D01*
X106195714Y-126662380D01*
%TO.C,D1*%
X91971904Y-107922380D02*
X91971904Y-106922380D01*
X92210000Y-106922380D01*
X92352857Y-106970000D01*
X92448095Y-107065238D01*
X92495714Y-107160476D01*
X92543333Y-107350952D01*
X92543333Y-107493809D01*
X92495714Y-107684285D01*
X92448095Y-107779523D01*
X92352857Y-107874761D01*
X92210000Y-107922380D01*
X91971904Y-107922380D01*
X93495714Y-107922380D02*
X92924285Y-107922380D01*
X93210000Y-107922380D02*
X93210000Y-106922380D01*
X93114761Y-107065238D01*
X93019523Y-107160476D01*
X92924285Y-107208095D01*
%TO.C,C3*%
X122388333Y-108997142D02*
X122340714Y-109044761D01*
X122197857Y-109092380D01*
X122102619Y-109092380D01*
X121959761Y-109044761D01*
X121864523Y-108949523D01*
X121816904Y-108854285D01*
X121769285Y-108663809D01*
X121769285Y-108520952D01*
X121816904Y-108330476D01*
X121864523Y-108235238D01*
X121959761Y-108140000D01*
X122102619Y-108092380D01*
X122197857Y-108092380D01*
X122340714Y-108140000D01*
X122388333Y-108187619D01*
X122721666Y-108092380D02*
X123340714Y-108092380D01*
X123007380Y-108473333D01*
X123150238Y-108473333D01*
X123245476Y-108520952D01*
X123293095Y-108568571D01*
X123340714Y-108663809D01*
X123340714Y-108901904D01*
X123293095Y-108997142D01*
X123245476Y-109044761D01*
X123150238Y-109092380D01*
X122864523Y-109092380D01*
X122769285Y-109044761D01*
X122721666Y-108997142D01*
%TO.C,C6*%
X103338333Y-85547142D02*
X103290714Y-85594761D01*
X103147857Y-85642380D01*
X103052619Y-85642380D01*
X102909761Y-85594761D01*
X102814523Y-85499523D01*
X102766904Y-85404285D01*
X102719285Y-85213809D01*
X102719285Y-85070952D01*
X102766904Y-84880476D01*
X102814523Y-84785238D01*
X102909761Y-84690000D01*
X103052619Y-84642380D01*
X103147857Y-84642380D01*
X103290714Y-84690000D01*
X103338333Y-84737619D01*
X104195476Y-84642380D02*
X104005000Y-84642380D01*
X103909761Y-84690000D01*
X103862142Y-84737619D01*
X103766904Y-84880476D01*
X103719285Y-85070952D01*
X103719285Y-85451904D01*
X103766904Y-85547142D01*
X103814523Y-85594761D01*
X103909761Y-85642380D01*
X104100238Y-85642380D01*
X104195476Y-85594761D01*
X104243095Y-85547142D01*
X104290714Y-85451904D01*
X104290714Y-85213809D01*
X104243095Y-85118571D01*
X104195476Y-85070952D01*
X104100238Y-85023333D01*
X103909761Y-85023333D01*
X103814523Y-85070952D01*
X103766904Y-85118571D01*
X103719285Y-85213809D01*
%TO.C,C5*%
X109314585Y-63857142D02*
X109266966Y-63904761D01*
X109124109Y-63952380D01*
X109028871Y-63952380D01*
X108886013Y-63904761D01*
X108790775Y-63809523D01*
X108743156Y-63714285D01*
X108695537Y-63523809D01*
X108695537Y-63380952D01*
X108743156Y-63190476D01*
X108790775Y-63095238D01*
X108886013Y-63000000D01*
X109028871Y-62952380D01*
X109124109Y-62952380D01*
X109266966Y-63000000D01*
X109314585Y-63047619D01*
X110219347Y-62952380D02*
X109743156Y-62952380D01*
X109695537Y-63428571D01*
X109743156Y-63380952D01*
X109838394Y-63333333D01*
X110076490Y-63333333D01*
X110171728Y-63380952D01*
X110219347Y-63428571D01*
X110266966Y-63523809D01*
X110266966Y-63761904D01*
X110219347Y-63857142D01*
X110171728Y-63904761D01*
X110076490Y-63952380D01*
X109838394Y-63952380D01*
X109743156Y-63904761D01*
X109695537Y-63857142D01*
%TO.C,C4*%
X121753333Y-91797142D02*
X121705714Y-91844761D01*
X121562857Y-91892380D01*
X121467619Y-91892380D01*
X121324761Y-91844761D01*
X121229523Y-91749523D01*
X121181904Y-91654285D01*
X121134285Y-91463809D01*
X121134285Y-91320952D01*
X121181904Y-91130476D01*
X121229523Y-91035238D01*
X121324761Y-90940000D01*
X121467619Y-90892380D01*
X121562857Y-90892380D01*
X121705714Y-90940000D01*
X121753333Y-90987619D01*
X122610476Y-91225714D02*
X122610476Y-91892380D01*
X122372380Y-90844761D02*
X122134285Y-91559047D01*
X122753333Y-91559047D01*
%TO.C,R21*%
X89527142Y-84272380D02*
X89193809Y-83796190D01*
X88955714Y-84272380D02*
X88955714Y-83272380D01*
X89336666Y-83272380D01*
X89431904Y-83320000D01*
X89479523Y-83367619D01*
X89527142Y-83462857D01*
X89527142Y-83605714D01*
X89479523Y-83700952D01*
X89431904Y-83748571D01*
X89336666Y-83796190D01*
X88955714Y-83796190D01*
X89908095Y-83367619D02*
X89955714Y-83320000D01*
X90050952Y-83272380D01*
X90289047Y-83272380D01*
X90384285Y-83320000D01*
X90431904Y-83367619D01*
X90479523Y-83462857D01*
X90479523Y-83558095D01*
X90431904Y-83700952D01*
X89860476Y-84272380D01*
X90479523Y-84272380D01*
X91431904Y-84272380D02*
X90860476Y-84272380D01*
X91146190Y-84272380D02*
X91146190Y-83272380D01*
X91050952Y-83415238D01*
X90955714Y-83510476D01*
X90860476Y-83558095D01*
%TO.C,D5*%
X82446904Y-85542380D02*
X82446904Y-84542380D01*
X82685000Y-84542380D01*
X82827857Y-84590000D01*
X82923095Y-84685238D01*
X82970714Y-84780476D01*
X83018333Y-84970952D01*
X83018333Y-85113809D01*
X82970714Y-85304285D01*
X82923095Y-85399523D01*
X82827857Y-85494761D01*
X82685000Y-85542380D01*
X82446904Y-85542380D01*
X83923095Y-84542380D02*
X83446904Y-84542380D01*
X83399285Y-85018571D01*
X83446904Y-84970952D01*
X83542142Y-84923333D01*
X83780238Y-84923333D01*
X83875476Y-84970952D01*
X83923095Y-85018571D01*
X83970714Y-85113809D01*
X83970714Y-85351904D01*
X83923095Y-85447142D01*
X83875476Y-85494761D01*
X83780238Y-85542380D01*
X83542142Y-85542380D01*
X83446904Y-85494761D01*
X83399285Y-85447142D01*
%TO.C,JP13*%
X100925476Y-134072380D02*
X100925476Y-134786666D01*
X100877857Y-134929523D01*
X100782619Y-135024761D01*
X100639761Y-135072380D01*
X100544523Y-135072380D01*
X101401666Y-135072380D02*
X101401666Y-134072380D01*
X101782619Y-134072380D01*
X101877857Y-134120000D01*
X101925476Y-134167619D01*
X101973095Y-134262857D01*
X101973095Y-134405714D01*
X101925476Y-134500952D01*
X101877857Y-134548571D01*
X101782619Y-134596190D01*
X101401666Y-134596190D01*
X102925476Y-135072380D02*
X102354047Y-135072380D01*
X102639761Y-135072380D02*
X102639761Y-134072380D01*
X102544523Y-134215238D01*
X102449285Y-134310476D01*
X102354047Y-134358095D01*
X103258809Y-134072380D02*
X103877857Y-134072380D01*
X103544523Y-134453333D01*
X103687380Y-134453333D01*
X103782619Y-134500952D01*
X103830238Y-134548571D01*
X103877857Y-134643809D01*
X103877857Y-134881904D01*
X103830238Y-134977142D01*
X103782619Y-135024761D01*
X103687380Y-135072380D01*
X103401666Y-135072380D01*
X103306428Y-135024761D01*
X103258809Y-134977142D01*
%TO.C,R20*%
X123817142Y-88717380D02*
X123483809Y-88241190D01*
X123245714Y-88717380D02*
X123245714Y-87717380D01*
X123626666Y-87717380D01*
X123721904Y-87765000D01*
X123769523Y-87812619D01*
X123817142Y-87907857D01*
X123817142Y-88050714D01*
X123769523Y-88145952D01*
X123721904Y-88193571D01*
X123626666Y-88241190D01*
X123245714Y-88241190D01*
X124198095Y-87812619D02*
X124245714Y-87765000D01*
X124340952Y-87717380D01*
X124579047Y-87717380D01*
X124674285Y-87765000D01*
X124721904Y-87812619D01*
X124769523Y-87907857D01*
X124769523Y-88003095D01*
X124721904Y-88145952D01*
X124150476Y-88717380D01*
X124769523Y-88717380D01*
X125388571Y-87717380D02*
X125483809Y-87717380D01*
X125579047Y-87765000D01*
X125626666Y-87812619D01*
X125674285Y-87907857D01*
X125721904Y-88098333D01*
X125721904Y-88336428D01*
X125674285Y-88526904D01*
X125626666Y-88622142D01*
X125579047Y-88669761D01*
X125483809Y-88717380D01*
X125388571Y-88717380D01*
X125293333Y-88669761D01*
X125245714Y-88622142D01*
X125198095Y-88526904D01*
X125150476Y-88336428D01*
X125150476Y-88098333D01*
X125198095Y-87907857D01*
X125245714Y-87812619D01*
X125293333Y-87765000D01*
X125388571Y-87717380D01*
%TO.C,R19*%
X123817142Y-85542380D02*
X123483809Y-85066190D01*
X123245714Y-85542380D02*
X123245714Y-84542380D01*
X123626666Y-84542380D01*
X123721904Y-84590000D01*
X123769523Y-84637619D01*
X123817142Y-84732857D01*
X123817142Y-84875714D01*
X123769523Y-84970952D01*
X123721904Y-85018571D01*
X123626666Y-85066190D01*
X123245714Y-85066190D01*
X124769523Y-85542380D02*
X124198095Y-85542380D01*
X124483809Y-85542380D02*
X124483809Y-84542380D01*
X124388571Y-84685238D01*
X124293333Y-84780476D01*
X124198095Y-84828095D01*
X125245714Y-85542380D02*
X125436190Y-85542380D01*
X125531428Y-85494761D01*
X125579047Y-85447142D01*
X125674285Y-85304285D01*
X125721904Y-85113809D01*
X125721904Y-84732857D01*
X125674285Y-84637619D01*
X125626666Y-84590000D01*
X125531428Y-84542380D01*
X125340952Y-84542380D01*
X125245714Y-84590000D01*
X125198095Y-84637619D01*
X125150476Y-84732857D01*
X125150476Y-84970952D01*
X125198095Y-85066190D01*
X125245714Y-85113809D01*
X125340952Y-85161428D01*
X125531428Y-85161428D01*
X125626666Y-85113809D01*
X125674285Y-85066190D01*
X125721904Y-84970952D01*
%TO.C,JP12*%
X116165476Y-88987380D02*
X116165476Y-89701666D01*
X116117857Y-89844523D01*
X116022619Y-89939761D01*
X115879761Y-89987380D01*
X115784523Y-89987380D01*
X116641666Y-89987380D02*
X116641666Y-88987380D01*
X117022619Y-88987380D01*
X117117857Y-89035000D01*
X117165476Y-89082619D01*
X117213095Y-89177857D01*
X117213095Y-89320714D01*
X117165476Y-89415952D01*
X117117857Y-89463571D01*
X117022619Y-89511190D01*
X116641666Y-89511190D01*
X118165476Y-89987380D02*
X117594047Y-89987380D01*
X117879761Y-89987380D02*
X117879761Y-88987380D01*
X117784523Y-89130238D01*
X117689285Y-89225476D01*
X117594047Y-89273095D01*
X118546428Y-89082619D02*
X118594047Y-89035000D01*
X118689285Y-88987380D01*
X118927380Y-88987380D01*
X119022619Y-89035000D01*
X119070238Y-89082619D01*
X119117857Y-89177857D01*
X119117857Y-89273095D01*
X119070238Y-89415952D01*
X118498809Y-89987380D01*
X119117857Y-89987380D01*
%TO.C,JP11*%
X112990476Y-82637380D02*
X112990476Y-83351666D01*
X112942857Y-83494523D01*
X112847619Y-83589761D01*
X112704761Y-83637380D01*
X112609523Y-83637380D01*
X113466666Y-83637380D02*
X113466666Y-82637380D01*
X113847619Y-82637380D01*
X113942857Y-82685000D01*
X113990476Y-82732619D01*
X114038095Y-82827857D01*
X114038095Y-82970714D01*
X113990476Y-83065952D01*
X113942857Y-83113571D01*
X113847619Y-83161190D01*
X113466666Y-83161190D01*
X114990476Y-83637380D02*
X114419047Y-83637380D01*
X114704761Y-83637380D02*
X114704761Y-82637380D01*
X114609523Y-82780238D01*
X114514285Y-82875476D01*
X114419047Y-82923095D01*
X115942857Y-83637380D02*
X115371428Y-83637380D01*
X115657142Y-83637380D02*
X115657142Y-82637380D01*
X115561904Y-82780238D01*
X115466666Y-82875476D01*
X115371428Y-82923095D01*
%TO.C,C1*%
X125005682Y-105132142D02*
X124958063Y-105179761D01*
X124815206Y-105227380D01*
X124719968Y-105227380D01*
X124577110Y-105179761D01*
X124481872Y-105084523D01*
X124434253Y-104989285D01*
X124386634Y-104798809D01*
X124386634Y-104655952D01*
X124434253Y-104465476D01*
X124481872Y-104370238D01*
X124577110Y-104275000D01*
X124719968Y-104227380D01*
X124815206Y-104227380D01*
X124958063Y-104275000D01*
X125005682Y-104322619D01*
X125958063Y-105227380D02*
X125386634Y-105227380D01*
X125672349Y-105227380D02*
X125672349Y-104227380D01*
X125577110Y-104370238D01*
X125481872Y-104465476D01*
X125386634Y-104513095D01*
%TO.C,J3*%
X131476666Y-127087380D02*
X131476666Y-127801666D01*
X131429047Y-127944523D01*
X131333809Y-128039761D01*
X131190952Y-128087380D01*
X131095714Y-128087380D01*
X131857619Y-127087380D02*
X132476666Y-127087380D01*
X132143333Y-127468333D01*
X132286190Y-127468333D01*
X132381428Y-127515952D01*
X132429047Y-127563571D01*
X132476666Y-127658809D01*
X132476666Y-127896904D01*
X132429047Y-127992142D01*
X132381428Y-128039761D01*
X132286190Y-128087380D01*
X132000476Y-128087380D01*
X131905238Y-128039761D01*
X131857619Y-127992142D01*
%TO.C,C2*%
X123658333Y-76242142D02*
X123610714Y-76289761D01*
X123467857Y-76337380D01*
X123372619Y-76337380D01*
X123229761Y-76289761D01*
X123134523Y-76194523D01*
X123086904Y-76099285D01*
X123039285Y-75908809D01*
X123039285Y-75765952D01*
X123086904Y-75575476D01*
X123134523Y-75480238D01*
X123229761Y-75385000D01*
X123372619Y-75337380D01*
X123467857Y-75337380D01*
X123610714Y-75385000D01*
X123658333Y-75432619D01*
X124039285Y-75432619D02*
X124086904Y-75385000D01*
X124182142Y-75337380D01*
X124420238Y-75337380D01*
X124515476Y-75385000D01*
X124563095Y-75432619D01*
X124610714Y-75527857D01*
X124610714Y-75623095D01*
X124563095Y-75765952D01*
X123991666Y-76337380D01*
X124610714Y-76337380D01*
%TO.C,U1*%
X124333095Y-80937380D02*
X124333095Y-81746904D01*
X124380714Y-81842142D01*
X124428333Y-81889761D01*
X124523571Y-81937380D01*
X124714047Y-81937380D01*
X124809285Y-81889761D01*
X124856904Y-81842142D01*
X124904523Y-81746904D01*
X124904523Y-80937380D01*
X125904523Y-81937380D02*
X125333095Y-81937380D01*
X125618809Y-81937380D02*
X125618809Y-80937380D01*
X125523571Y-81080238D01*
X125428333Y-81175476D01*
X125333095Y-81223095D01*
%TO.C,R12*%
X92067142Y-69922380D02*
X91733809Y-69446190D01*
X91495714Y-69922380D02*
X91495714Y-68922380D01*
X91876666Y-68922380D01*
X91971904Y-68970000D01*
X92019523Y-69017619D01*
X92067142Y-69112857D01*
X92067142Y-69255714D01*
X92019523Y-69350952D01*
X91971904Y-69398571D01*
X91876666Y-69446190D01*
X91495714Y-69446190D01*
X93019523Y-69922380D02*
X92448095Y-69922380D01*
X92733809Y-69922380D02*
X92733809Y-68922380D01*
X92638571Y-69065238D01*
X92543333Y-69160476D01*
X92448095Y-69208095D01*
X93400476Y-69017619D02*
X93448095Y-68970000D01*
X93543333Y-68922380D01*
X93781428Y-68922380D01*
X93876666Y-68970000D01*
X93924285Y-69017619D01*
X93971904Y-69112857D01*
X93971904Y-69208095D01*
X93924285Y-69350952D01*
X93352857Y-69922380D01*
X93971904Y-69922380D01*
%TO.C,J11*%
X79835476Y-61682380D02*
X79835476Y-62396666D01*
X79787857Y-62539523D01*
X79692619Y-62634761D01*
X79549761Y-62682380D01*
X79454523Y-62682380D01*
X80835476Y-62682380D02*
X80264047Y-62682380D01*
X80549761Y-62682380D02*
X80549761Y-61682380D01*
X80454523Y-61825238D01*
X80359285Y-61920476D01*
X80264047Y-61968095D01*
X81787857Y-62682380D02*
X81216428Y-62682380D01*
X81502142Y-62682380D02*
X81502142Y-61682380D01*
X81406904Y-61825238D01*
X81311666Y-61920476D01*
X81216428Y-61968095D01*
%TO.C,R18*%
X92067142Y-63062380D02*
X91733809Y-62586190D01*
X91495714Y-63062380D02*
X91495714Y-62062380D01*
X91876666Y-62062380D01*
X91971904Y-62110000D01*
X92019523Y-62157619D01*
X92067142Y-62252857D01*
X92067142Y-62395714D01*
X92019523Y-62490952D01*
X91971904Y-62538571D01*
X91876666Y-62586190D01*
X91495714Y-62586190D01*
X93019523Y-63062380D02*
X92448095Y-63062380D01*
X92733809Y-63062380D02*
X92733809Y-62062380D01*
X92638571Y-62205238D01*
X92543333Y-62300476D01*
X92448095Y-62348095D01*
X93590952Y-62490952D02*
X93495714Y-62443333D01*
X93448095Y-62395714D01*
X93400476Y-62300476D01*
X93400476Y-62252857D01*
X93448095Y-62157619D01*
X93495714Y-62110000D01*
X93590952Y-62062380D01*
X93781428Y-62062380D01*
X93876666Y-62110000D01*
X93924285Y-62157619D01*
X93971904Y-62252857D01*
X93971904Y-62300476D01*
X93924285Y-62395714D01*
X93876666Y-62443333D01*
X93781428Y-62490952D01*
X93590952Y-62490952D01*
X93495714Y-62538571D01*
X93448095Y-62586190D01*
X93400476Y-62681428D01*
X93400476Y-62871904D01*
X93448095Y-62967142D01*
X93495714Y-63014761D01*
X93590952Y-63062380D01*
X93781428Y-63062380D01*
X93876666Y-63014761D01*
X93924285Y-62967142D01*
X93971904Y-62871904D01*
X93971904Y-62681428D01*
X93924285Y-62586190D01*
X93876666Y-62538571D01*
X93781428Y-62490952D01*
%TO.C,J9*%
X80311666Y-71842380D02*
X80311666Y-72556666D01*
X80264047Y-72699523D01*
X80168809Y-72794761D01*
X80025952Y-72842380D01*
X79930714Y-72842380D01*
X80835476Y-72842380D02*
X81025952Y-72842380D01*
X81121190Y-72794761D01*
X81168809Y-72747142D01*
X81264047Y-72604285D01*
X81311666Y-72413809D01*
X81311666Y-72032857D01*
X81264047Y-71937619D01*
X81216428Y-71890000D01*
X81121190Y-71842380D01*
X80930714Y-71842380D01*
X80835476Y-71890000D01*
X80787857Y-71937619D01*
X80740238Y-72032857D01*
X80740238Y-72270952D01*
X80787857Y-72366190D01*
X80835476Y-72413809D01*
X80930714Y-72461428D01*
X81121190Y-72461428D01*
X81216428Y-72413809D01*
X81264047Y-72366190D01*
X81311666Y-72270952D01*
%TO.C,J5*%
X86907619Y-111426666D02*
X86193333Y-111426666D01*
X86050476Y-111379047D01*
X85955238Y-111283809D01*
X85907619Y-111140952D01*
X85907619Y-111045714D01*
X86907619Y-112379047D02*
X86907619Y-111902857D01*
X86431428Y-111855238D01*
X86479047Y-111902857D01*
X86526666Y-111998095D01*
X86526666Y-112236190D01*
X86479047Y-112331428D01*
X86431428Y-112379047D01*
X86336190Y-112426666D01*
X86098095Y-112426666D01*
X86002857Y-112379047D01*
X85955238Y-112331428D01*
X85907619Y-112236190D01*
X85907619Y-111998095D01*
X85955238Y-111902857D01*
X86002857Y-111855238D01*
%TO.C,K2*%
X102131904Y-107894380D02*
X102131904Y-106894380D01*
X102703333Y-107894380D02*
X102274761Y-107322952D01*
X102703333Y-106894380D02*
X102131904Y-107465809D01*
X103084285Y-106989619D02*
X103131904Y-106942000D01*
X103227142Y-106894380D01*
X103465238Y-106894380D01*
X103560476Y-106942000D01*
X103608095Y-106989619D01*
X103655714Y-107084857D01*
X103655714Y-107180095D01*
X103608095Y-107322952D01*
X103036666Y-107894380D01*
X103655714Y-107894380D01*
%TO.C,R15*%
X92067142Y-68142380D02*
X91733809Y-67666190D01*
X91495714Y-68142380D02*
X91495714Y-67142380D01*
X91876666Y-67142380D01*
X91971904Y-67190000D01*
X92019523Y-67237619D01*
X92067142Y-67332857D01*
X92067142Y-67475714D01*
X92019523Y-67570952D01*
X91971904Y-67618571D01*
X91876666Y-67666190D01*
X91495714Y-67666190D01*
X93019523Y-68142380D02*
X92448095Y-68142380D01*
X92733809Y-68142380D02*
X92733809Y-67142380D01*
X92638571Y-67285238D01*
X92543333Y-67380476D01*
X92448095Y-67428095D01*
X93924285Y-67142380D02*
X93448095Y-67142380D01*
X93400476Y-67618571D01*
X93448095Y-67570952D01*
X93543333Y-67523333D01*
X93781428Y-67523333D01*
X93876666Y-67570952D01*
X93924285Y-67618571D01*
X93971904Y-67713809D01*
X93971904Y-67951904D01*
X93924285Y-68047142D01*
X93876666Y-68094761D01*
X93781428Y-68142380D01*
X93543333Y-68142380D01*
X93448095Y-68094761D01*
X93400476Y-68047142D01*
%TO.C,JP6*%
X96712380Y-105608333D02*
X97426666Y-105608333D01*
X97569523Y-105655952D01*
X97664761Y-105751190D01*
X97712380Y-105894047D01*
X97712380Y-105989285D01*
X97712380Y-105132142D02*
X96712380Y-105132142D01*
X96712380Y-104751190D01*
X96760000Y-104655952D01*
X96807619Y-104608333D01*
X96902857Y-104560714D01*
X97045714Y-104560714D01*
X97140952Y-104608333D01*
X97188571Y-104655952D01*
X97236190Y-104751190D01*
X97236190Y-105132142D01*
X96712380Y-103703571D02*
X96712380Y-103894047D01*
X96760000Y-103989285D01*
X96807619Y-104036904D01*
X96950476Y-104132142D01*
X97140952Y-104179761D01*
X97521904Y-104179761D01*
X97617142Y-104132142D01*
X97664761Y-104084523D01*
X97712380Y-103989285D01*
X97712380Y-103798809D01*
X97664761Y-103703571D01*
X97617142Y-103655952D01*
X97521904Y-103608333D01*
X97283809Y-103608333D01*
X97188571Y-103655952D01*
X97140952Y-103703571D01*
X97093333Y-103798809D01*
X97093333Y-103989285D01*
X97140952Y-104084523D01*
X97188571Y-104132142D01*
X97283809Y-104179761D01*
%TO.C,U5*%
X93218095Y-72477380D02*
X93218095Y-73286904D01*
X93265714Y-73382142D01*
X93313333Y-73429761D01*
X93408571Y-73477380D01*
X93599047Y-73477380D01*
X93694285Y-73429761D01*
X93741904Y-73382142D01*
X93789523Y-73286904D01*
X93789523Y-72477380D01*
X94741904Y-72477380D02*
X94265714Y-72477380D01*
X94218095Y-72953571D01*
X94265714Y-72905952D01*
X94360952Y-72858333D01*
X94599047Y-72858333D01*
X94694285Y-72905952D01*
X94741904Y-72953571D01*
X94789523Y-73048809D01*
X94789523Y-73286904D01*
X94741904Y-73382142D01*
X94694285Y-73429761D01*
X94599047Y-73477380D01*
X94360952Y-73477380D01*
X94265714Y-73429761D01*
X94218095Y-73382142D01*
%TO.C,Q8*%
X112299761Y-94527619D02*
X112204523Y-94480000D01*
X112109285Y-94384761D01*
X111966428Y-94241904D01*
X111871190Y-94194285D01*
X111775952Y-94194285D01*
X111823571Y-94432380D02*
X111728333Y-94384761D01*
X111633095Y-94289523D01*
X111585476Y-94099047D01*
X111585476Y-93765714D01*
X111633095Y-93575238D01*
X111728333Y-93480000D01*
X111823571Y-93432380D01*
X112014047Y-93432380D01*
X112109285Y-93480000D01*
X112204523Y-93575238D01*
X112252142Y-93765714D01*
X112252142Y-94099047D01*
X112204523Y-94289523D01*
X112109285Y-94384761D01*
X112014047Y-94432380D01*
X111823571Y-94432380D01*
X112823571Y-93860952D02*
X112728333Y-93813333D01*
X112680714Y-93765714D01*
X112633095Y-93670476D01*
X112633095Y-93622857D01*
X112680714Y-93527619D01*
X112728333Y-93480000D01*
X112823571Y-93432380D01*
X113014047Y-93432380D01*
X113109285Y-93480000D01*
X113156904Y-93527619D01*
X113204523Y-93622857D01*
X113204523Y-93670476D01*
X113156904Y-93765714D01*
X113109285Y-93813333D01*
X113014047Y-93860952D01*
X112823571Y-93860952D01*
X112728333Y-93908571D01*
X112680714Y-93956190D01*
X112633095Y-94051428D01*
X112633095Y-94241904D01*
X112680714Y-94337142D01*
X112728333Y-94384761D01*
X112823571Y-94432380D01*
X113014047Y-94432380D01*
X113109285Y-94384761D01*
X113156904Y-94337142D01*
X113204523Y-94241904D01*
X113204523Y-94051428D01*
X113156904Y-93956190D01*
X113109285Y-93908571D01*
X113014047Y-93860952D01*
%TO.C,U3*%
X118618095Y-98737380D02*
X118618095Y-99546904D01*
X118665714Y-99642142D01*
X118713333Y-99689761D01*
X118808571Y-99737380D01*
X118999047Y-99737380D01*
X119094285Y-99689761D01*
X119141904Y-99642142D01*
X119189523Y-99546904D01*
X119189523Y-98737380D01*
X119570476Y-98737380D02*
X120189523Y-98737380D01*
X119856190Y-99118333D01*
X119999047Y-99118333D01*
X120094285Y-99165952D01*
X120141904Y-99213571D01*
X120189523Y-99308809D01*
X120189523Y-99546904D01*
X120141904Y-99642142D01*
X120094285Y-99689761D01*
X119999047Y-99737380D01*
X119713333Y-99737380D01*
X119618095Y-99689761D01*
X119570476Y-99642142D01*
%TO.C,Q5*%
X89439761Y-97877619D02*
X89344523Y-97830000D01*
X89249285Y-97734761D01*
X89106428Y-97591904D01*
X89011190Y-97544285D01*
X88915952Y-97544285D01*
X88963571Y-97782380D02*
X88868333Y-97734761D01*
X88773095Y-97639523D01*
X88725476Y-97449047D01*
X88725476Y-97115714D01*
X88773095Y-96925238D01*
X88868333Y-96830000D01*
X88963571Y-96782380D01*
X89154047Y-96782380D01*
X89249285Y-96830000D01*
X89344523Y-96925238D01*
X89392142Y-97115714D01*
X89392142Y-97449047D01*
X89344523Y-97639523D01*
X89249285Y-97734761D01*
X89154047Y-97782380D01*
X88963571Y-97782380D01*
X90296904Y-96782380D02*
X89820714Y-96782380D01*
X89773095Y-97258571D01*
X89820714Y-97210952D01*
X89915952Y-97163333D01*
X90154047Y-97163333D01*
X90249285Y-97210952D01*
X90296904Y-97258571D01*
X90344523Y-97353809D01*
X90344523Y-97591904D01*
X90296904Y-97687142D01*
X90249285Y-97734761D01*
X90154047Y-97782380D01*
X89915952Y-97782380D01*
X89820714Y-97734761D01*
X89773095Y-97687142D01*
%TO.C,R5*%
X107783333Y-78557380D02*
X107450000Y-78081190D01*
X107211904Y-78557380D02*
X107211904Y-77557380D01*
X107592857Y-77557380D01*
X107688095Y-77605000D01*
X107735714Y-77652619D01*
X107783333Y-77747857D01*
X107783333Y-77890714D01*
X107735714Y-77985952D01*
X107688095Y-78033571D01*
X107592857Y-78081190D01*
X107211904Y-78081190D01*
X108688095Y-77557380D02*
X108211904Y-77557380D01*
X108164285Y-78033571D01*
X108211904Y-77985952D01*
X108307142Y-77938333D01*
X108545238Y-77938333D01*
X108640476Y-77985952D01*
X108688095Y-78033571D01*
X108735714Y-78128809D01*
X108735714Y-78366904D01*
X108688095Y-78462142D01*
X108640476Y-78509761D01*
X108545238Y-78557380D01*
X108307142Y-78557380D01*
X108211904Y-78509761D01*
X108164285Y-78462142D01*
%TO.C,Q9*%
X116744761Y-78017619D02*
X116649523Y-77970000D01*
X116554285Y-77874761D01*
X116411428Y-77731904D01*
X116316190Y-77684285D01*
X116220952Y-77684285D01*
X116268571Y-77922380D02*
X116173333Y-77874761D01*
X116078095Y-77779523D01*
X116030476Y-77589047D01*
X116030476Y-77255714D01*
X116078095Y-77065238D01*
X116173333Y-76970000D01*
X116268571Y-76922380D01*
X116459047Y-76922380D01*
X116554285Y-76970000D01*
X116649523Y-77065238D01*
X116697142Y-77255714D01*
X116697142Y-77589047D01*
X116649523Y-77779523D01*
X116554285Y-77874761D01*
X116459047Y-77922380D01*
X116268571Y-77922380D01*
X117173333Y-77922380D02*
X117363809Y-77922380D01*
X117459047Y-77874761D01*
X117506666Y-77827142D01*
X117601904Y-77684285D01*
X117649523Y-77493809D01*
X117649523Y-77112857D01*
X117601904Y-77017619D01*
X117554285Y-76970000D01*
X117459047Y-76922380D01*
X117268571Y-76922380D01*
X117173333Y-76970000D01*
X117125714Y-77017619D01*
X117078095Y-77112857D01*
X117078095Y-77350952D01*
X117125714Y-77446190D01*
X117173333Y-77493809D01*
X117268571Y-77541428D01*
X117459047Y-77541428D01*
X117554285Y-77493809D01*
X117601904Y-77446190D01*
X117649523Y-77350952D01*
%TO.C,R1*%
X114133333Y-126182380D02*
X113800000Y-125706190D01*
X113561904Y-126182380D02*
X113561904Y-125182380D01*
X113942857Y-125182380D01*
X114038095Y-125230000D01*
X114085714Y-125277619D01*
X114133333Y-125372857D01*
X114133333Y-125515714D01*
X114085714Y-125610952D01*
X114038095Y-125658571D01*
X113942857Y-125706190D01*
X113561904Y-125706190D01*
X115085714Y-126182380D02*
X114514285Y-126182380D01*
X114800000Y-126182380D02*
X114800000Y-125182380D01*
X114704761Y-125325238D01*
X114609523Y-125420476D01*
X114514285Y-125468095D01*
%TO.C,U7*%
X105918095Y-58507380D02*
X105918095Y-59316904D01*
X105965714Y-59412142D01*
X106013333Y-59459761D01*
X106108571Y-59507380D01*
X106299047Y-59507380D01*
X106394285Y-59459761D01*
X106441904Y-59412142D01*
X106489523Y-59316904D01*
X106489523Y-58507380D01*
X106870476Y-58507380D02*
X107537142Y-58507380D01*
X107108571Y-59507380D01*
%TO.C,Q4*%
X112934761Y-109132619D02*
X112839523Y-109085000D01*
X112744285Y-108989761D01*
X112601428Y-108846904D01*
X112506190Y-108799285D01*
X112410952Y-108799285D01*
X112458571Y-109037380D02*
X112363333Y-108989761D01*
X112268095Y-108894523D01*
X112220476Y-108704047D01*
X112220476Y-108370714D01*
X112268095Y-108180238D01*
X112363333Y-108085000D01*
X112458571Y-108037380D01*
X112649047Y-108037380D01*
X112744285Y-108085000D01*
X112839523Y-108180238D01*
X112887142Y-108370714D01*
X112887142Y-108704047D01*
X112839523Y-108894523D01*
X112744285Y-108989761D01*
X112649047Y-109037380D01*
X112458571Y-109037380D01*
X113744285Y-108370714D02*
X113744285Y-109037380D01*
X113506190Y-107989761D02*
X113268095Y-108704047D01*
X113887142Y-108704047D01*
%TO.C,R11*%
X119372142Y-71572380D02*
X119038809Y-71096190D01*
X118800714Y-71572380D02*
X118800714Y-70572380D01*
X119181666Y-70572380D01*
X119276904Y-70620000D01*
X119324523Y-70667619D01*
X119372142Y-70762857D01*
X119372142Y-70905714D01*
X119324523Y-71000952D01*
X119276904Y-71048571D01*
X119181666Y-71096190D01*
X118800714Y-71096190D01*
X120324523Y-71572380D02*
X119753095Y-71572380D01*
X120038809Y-71572380D02*
X120038809Y-70572380D01*
X119943571Y-70715238D01*
X119848333Y-70810476D01*
X119753095Y-70858095D01*
X121276904Y-71572380D02*
X120705476Y-71572380D01*
X120991190Y-71572380D02*
X120991190Y-70572380D01*
X120895952Y-70715238D01*
X120800714Y-70810476D01*
X120705476Y-70858095D01*
%TO.C,Q1*%
X88804761Y-118197619D02*
X88709523Y-118150000D01*
X88614285Y-118054761D01*
X88471428Y-117911904D01*
X88376190Y-117864285D01*
X88280952Y-117864285D01*
X88328571Y-118102380D02*
X88233333Y-118054761D01*
X88138095Y-117959523D01*
X88090476Y-117769047D01*
X88090476Y-117435714D01*
X88138095Y-117245238D01*
X88233333Y-117150000D01*
X88328571Y-117102380D01*
X88519047Y-117102380D01*
X88614285Y-117150000D01*
X88709523Y-117245238D01*
X88757142Y-117435714D01*
X88757142Y-117769047D01*
X88709523Y-117959523D01*
X88614285Y-118054761D01*
X88519047Y-118102380D01*
X88328571Y-118102380D01*
X89709523Y-118102380D02*
X89138095Y-118102380D01*
X89423809Y-118102380D02*
X89423809Y-117102380D01*
X89328571Y-117245238D01*
X89233333Y-117340476D01*
X89138095Y-117388095D01*
%TO.C,JP9*%
X110306666Y-83167380D02*
X110306666Y-83881666D01*
X110259047Y-84024523D01*
X110163809Y-84119761D01*
X110020952Y-84167380D01*
X109925714Y-84167380D01*
X110782857Y-84167380D02*
X110782857Y-83167380D01*
X111163809Y-83167380D01*
X111259047Y-83215000D01*
X111306666Y-83262619D01*
X111354285Y-83357857D01*
X111354285Y-83500714D01*
X111306666Y-83595952D01*
X111259047Y-83643571D01*
X111163809Y-83691190D01*
X110782857Y-83691190D01*
X111830476Y-84167380D02*
X112020952Y-84167380D01*
X112116190Y-84119761D01*
X112163809Y-84072142D01*
X112259047Y-83929285D01*
X112306666Y-83738809D01*
X112306666Y-83357857D01*
X112259047Y-83262619D01*
X112211428Y-83215000D01*
X112116190Y-83167380D01*
X111925714Y-83167380D01*
X111830476Y-83215000D01*
X111782857Y-83262619D01*
X111735238Y-83357857D01*
X111735238Y-83595952D01*
X111782857Y-83691190D01*
X111830476Y-83738809D01*
X111925714Y-83786428D01*
X112116190Y-83786428D01*
X112211428Y-83738809D01*
X112259047Y-83691190D01*
X112306666Y-83595952D01*
%TO.C,R16*%
X113022142Y-60142380D02*
X112688809Y-59666190D01*
X112450714Y-60142380D02*
X112450714Y-59142380D01*
X112831666Y-59142380D01*
X112926904Y-59190000D01*
X112974523Y-59237619D01*
X113022142Y-59332857D01*
X113022142Y-59475714D01*
X112974523Y-59570952D01*
X112926904Y-59618571D01*
X112831666Y-59666190D01*
X112450714Y-59666190D01*
X113974523Y-60142380D02*
X113403095Y-60142380D01*
X113688809Y-60142380D02*
X113688809Y-59142380D01*
X113593571Y-59285238D01*
X113498333Y-59380476D01*
X113403095Y-59428095D01*
X114831666Y-59142380D02*
X114641190Y-59142380D01*
X114545952Y-59190000D01*
X114498333Y-59237619D01*
X114403095Y-59380476D01*
X114355476Y-59570952D01*
X114355476Y-59951904D01*
X114403095Y-60047142D01*
X114450714Y-60094761D01*
X114545952Y-60142380D01*
X114736428Y-60142380D01*
X114831666Y-60094761D01*
X114879285Y-60047142D01*
X114926904Y-59951904D01*
X114926904Y-59713809D01*
X114879285Y-59618571D01*
X114831666Y-59570952D01*
X114736428Y-59523333D01*
X114545952Y-59523333D01*
X114450714Y-59570952D01*
X114403095Y-59618571D01*
X114355476Y-59713809D01*
%TO.C,K3*%
X94511904Y-106370380D02*
X94511904Y-105370380D01*
X95083333Y-106370380D02*
X94654761Y-105798952D01*
X95083333Y-105370380D02*
X94511904Y-105941809D01*
X95416666Y-105370380D02*
X96035714Y-105370380D01*
X95702380Y-105751333D01*
X95845238Y-105751333D01*
X95940476Y-105798952D01*
X95988095Y-105846571D01*
X96035714Y-105941809D01*
X96035714Y-106179904D01*
X95988095Y-106275142D01*
X95940476Y-106322761D01*
X95845238Y-106370380D01*
X95559523Y-106370380D01*
X95464285Y-106322761D01*
X95416666Y-106275142D01*
%TO.C,K4*%
X102131904Y-87574380D02*
X102131904Y-86574380D01*
X102703333Y-87574380D02*
X102274761Y-87002952D01*
X102703333Y-86574380D02*
X102131904Y-87145809D01*
X103560476Y-86907714D02*
X103560476Y-87574380D01*
X103322380Y-86526761D02*
X103084285Y-87241047D01*
X103703333Y-87241047D01*
%TO.C,J2*%
X92376666Y-131532380D02*
X92376666Y-132246666D01*
X92329047Y-132389523D01*
X92233809Y-132484761D01*
X92090952Y-132532380D01*
X91995714Y-132532380D01*
X92805238Y-131627619D02*
X92852857Y-131580000D01*
X92948095Y-131532380D01*
X93186190Y-131532380D01*
X93281428Y-131580000D01*
X93329047Y-131627619D01*
X93376666Y-131722857D01*
X93376666Y-131818095D01*
X93329047Y-131960952D01*
X92757619Y-132532380D01*
X93376666Y-132532380D01*
%TO.C,R9*%
X111957380Y-71644166D02*
X111481190Y-71977500D01*
X111957380Y-72215595D02*
X110957380Y-72215595D01*
X110957380Y-71834642D01*
X111005000Y-71739404D01*
X111052619Y-71691785D01*
X111147857Y-71644166D01*
X111290714Y-71644166D01*
X111385952Y-71691785D01*
X111433571Y-71739404D01*
X111481190Y-71834642D01*
X111481190Y-72215595D01*
X111957380Y-71167976D02*
X111957380Y-70977500D01*
X111909761Y-70882261D01*
X111862142Y-70834642D01*
X111719285Y-70739404D01*
X111528809Y-70691785D01*
X111147857Y-70691785D01*
X111052619Y-70739404D01*
X111005000Y-70787023D01*
X110957380Y-70882261D01*
X110957380Y-71072738D01*
X111005000Y-71167976D01*
X111052619Y-71215595D01*
X111147857Y-71263214D01*
X111385952Y-71263214D01*
X111481190Y-71215595D01*
X111528809Y-71167976D01*
X111576428Y-71072738D01*
X111576428Y-70882261D01*
X111528809Y-70787023D01*
X111481190Y-70739404D01*
X111385952Y-70691785D01*
%TO.C,J10*%
X79835476Y-66762380D02*
X79835476Y-67476666D01*
X79787857Y-67619523D01*
X79692619Y-67714761D01*
X79549761Y-67762380D01*
X79454523Y-67762380D01*
X80835476Y-67762380D02*
X80264047Y-67762380D01*
X80549761Y-67762380D02*
X80549761Y-66762380D01*
X80454523Y-66905238D01*
X80359285Y-67000476D01*
X80264047Y-67048095D01*
X81454523Y-66762380D02*
X81549761Y-66762380D01*
X81645000Y-66810000D01*
X81692619Y-66857619D01*
X81740238Y-66952857D01*
X81787857Y-67143333D01*
X81787857Y-67381428D01*
X81740238Y-67571904D01*
X81692619Y-67667142D01*
X81645000Y-67714761D01*
X81549761Y-67762380D01*
X81454523Y-67762380D01*
X81359285Y-67714761D01*
X81311666Y-67667142D01*
X81264047Y-67571904D01*
X81216428Y-67381428D01*
X81216428Y-67143333D01*
X81264047Y-66952857D01*
X81311666Y-66857619D01*
X81359285Y-66810000D01*
X81454523Y-66762380D01*
%TO.C,R7*%
X121118333Y-81097380D02*
X120785000Y-80621190D01*
X120546904Y-81097380D02*
X120546904Y-80097380D01*
X120927857Y-80097380D01*
X121023095Y-80145000D01*
X121070714Y-80192619D01*
X121118333Y-80287857D01*
X121118333Y-80430714D01*
X121070714Y-80525952D01*
X121023095Y-80573571D01*
X120927857Y-80621190D01*
X120546904Y-80621190D01*
X121451666Y-80097380D02*
X122118333Y-80097380D01*
X121689761Y-81097380D01*
%TO.C,J8*%
X80311666Y-76922380D02*
X80311666Y-77636666D01*
X80264047Y-77779523D01*
X80168809Y-77874761D01*
X80025952Y-77922380D01*
X79930714Y-77922380D01*
X80930714Y-77350952D02*
X80835476Y-77303333D01*
X80787857Y-77255714D01*
X80740238Y-77160476D01*
X80740238Y-77112857D01*
X80787857Y-77017619D01*
X80835476Y-76970000D01*
X80930714Y-76922380D01*
X81121190Y-76922380D01*
X81216428Y-76970000D01*
X81264047Y-77017619D01*
X81311666Y-77112857D01*
X81311666Y-77160476D01*
X81264047Y-77255714D01*
X81216428Y-77303333D01*
X81121190Y-77350952D01*
X80930714Y-77350952D01*
X80835476Y-77398571D01*
X80787857Y-77446190D01*
X80740238Y-77541428D01*
X80740238Y-77731904D01*
X80787857Y-77827142D01*
X80835476Y-77874761D01*
X80930714Y-77922380D01*
X81121190Y-77922380D01*
X81216428Y-77874761D01*
X81264047Y-77827142D01*
X81311666Y-77731904D01*
X81311666Y-77541428D01*
X81264047Y-77446190D01*
X81216428Y-77398571D01*
X81121190Y-77350952D01*
%TO.C,Q3*%
X101504761Y-116577619D02*
X101409523Y-116530000D01*
X101314285Y-116434761D01*
X101171428Y-116291904D01*
X101076190Y-116244285D01*
X100980952Y-116244285D01*
X101028571Y-116482380D02*
X100933333Y-116434761D01*
X100838095Y-116339523D01*
X100790476Y-116149047D01*
X100790476Y-115815714D01*
X100838095Y-115625238D01*
X100933333Y-115530000D01*
X101028571Y-115482380D01*
X101219047Y-115482380D01*
X101314285Y-115530000D01*
X101409523Y-115625238D01*
X101457142Y-115815714D01*
X101457142Y-116149047D01*
X101409523Y-116339523D01*
X101314285Y-116434761D01*
X101219047Y-116482380D01*
X101028571Y-116482380D01*
X101790476Y-115482380D02*
X102409523Y-115482380D01*
X102076190Y-115863333D01*
X102219047Y-115863333D01*
X102314285Y-115910952D01*
X102361904Y-115958571D01*
X102409523Y-116053809D01*
X102409523Y-116291904D01*
X102361904Y-116387142D01*
X102314285Y-116434761D01*
X102219047Y-116482380D01*
X101933333Y-116482380D01*
X101838095Y-116434761D01*
X101790476Y-116387142D01*
%TO.C,R3*%
X112228333Y-107132380D02*
X111895000Y-106656190D01*
X111656904Y-107132380D02*
X111656904Y-106132380D01*
X112037857Y-106132380D01*
X112133095Y-106180000D01*
X112180714Y-106227619D01*
X112228333Y-106322857D01*
X112228333Y-106465714D01*
X112180714Y-106560952D01*
X112133095Y-106608571D01*
X112037857Y-106656190D01*
X111656904Y-106656190D01*
X112561666Y-106132380D02*
X113180714Y-106132380D01*
X112847380Y-106513333D01*
X112990238Y-106513333D01*
X113085476Y-106560952D01*
X113133095Y-106608571D01*
X113180714Y-106703809D01*
X113180714Y-106941904D01*
X113133095Y-107037142D01*
X113085476Y-107084761D01*
X112990238Y-107132380D01*
X112704523Y-107132380D01*
X112609285Y-107084761D01*
X112561666Y-107037142D01*
%TO.C,U6*%
X105918095Y-64857380D02*
X105918095Y-65666904D01*
X105965714Y-65762142D01*
X106013333Y-65809761D01*
X106108571Y-65857380D01*
X106299047Y-65857380D01*
X106394285Y-65809761D01*
X106441904Y-65762142D01*
X106489523Y-65666904D01*
X106489523Y-64857380D01*
X107394285Y-64857380D02*
X107203809Y-64857380D01*
X107108571Y-64905000D01*
X107060952Y-64952619D01*
X106965714Y-65095476D01*
X106918095Y-65285952D01*
X106918095Y-65666904D01*
X106965714Y-65762142D01*
X107013333Y-65809761D01*
X107108571Y-65857380D01*
X107299047Y-65857380D01*
X107394285Y-65809761D01*
X107441904Y-65762142D01*
X107489523Y-65666904D01*
X107489523Y-65428809D01*
X107441904Y-65333571D01*
X107394285Y-65285952D01*
X107299047Y-65238333D01*
X107108571Y-65238333D01*
X107013333Y-65285952D01*
X106965714Y-65333571D01*
X106918095Y-65428809D01*
%TO.C,R4*%
X114133333Y-85542380D02*
X113800000Y-85066190D01*
X113561904Y-85542380D02*
X113561904Y-84542380D01*
X113942857Y-84542380D01*
X114038095Y-84590000D01*
X114085714Y-84637619D01*
X114133333Y-84732857D01*
X114133333Y-84875714D01*
X114085714Y-84970952D01*
X114038095Y-85018571D01*
X113942857Y-85066190D01*
X113561904Y-85066190D01*
X114990476Y-84875714D02*
X114990476Y-85542380D01*
X114752380Y-84494761D02*
X114514285Y-85209047D01*
X115133333Y-85209047D01*
%TO.C,R14*%
X109212142Y-67762380D02*
X108878809Y-67286190D01*
X108640714Y-67762380D02*
X108640714Y-66762380D01*
X109021666Y-66762380D01*
X109116904Y-66810000D01*
X109164523Y-66857619D01*
X109212142Y-66952857D01*
X109212142Y-67095714D01*
X109164523Y-67190952D01*
X109116904Y-67238571D01*
X109021666Y-67286190D01*
X108640714Y-67286190D01*
X110164523Y-67762380D02*
X109593095Y-67762380D01*
X109878809Y-67762380D02*
X109878809Y-66762380D01*
X109783571Y-66905238D01*
X109688333Y-67000476D01*
X109593095Y-67048095D01*
X111021666Y-67095714D02*
X111021666Y-67762380D01*
X110783571Y-66714761D02*
X110545476Y-67429047D01*
X111164523Y-67429047D01*
%TO.C,R2*%
X119848333Y-110942380D02*
X119515000Y-110466190D01*
X119276904Y-110942380D02*
X119276904Y-109942380D01*
X119657857Y-109942380D01*
X119753095Y-109990000D01*
X119800714Y-110037619D01*
X119848333Y-110132857D01*
X119848333Y-110275714D01*
X119800714Y-110370952D01*
X119753095Y-110418571D01*
X119657857Y-110466190D01*
X119276904Y-110466190D01*
X120229285Y-110037619D02*
X120276904Y-109990000D01*
X120372142Y-109942380D01*
X120610238Y-109942380D01*
X120705476Y-109990000D01*
X120753095Y-110037619D01*
X120800714Y-110132857D01*
X120800714Y-110228095D01*
X120753095Y-110370952D01*
X120181666Y-110942380D01*
X120800714Y-110942380D01*
%TO.C,K1*%
X94511904Y-126690380D02*
X94511904Y-125690380D01*
X95083333Y-126690380D02*
X94654761Y-126118952D01*
X95083333Y-125690380D02*
X94511904Y-126261809D01*
X96035714Y-126690380D02*
X95464285Y-126690380D01*
X95750000Y-126690380D02*
X95750000Y-125690380D01*
X95654761Y-125833238D01*
X95559523Y-125928476D01*
X95464285Y-125976095D01*
%TO.C,J6*%
X86907619Y-101266666D02*
X86193333Y-101266666D01*
X86050476Y-101219047D01*
X85955238Y-101123809D01*
X85907619Y-100980952D01*
X85907619Y-100885714D01*
X86907619Y-102171428D02*
X86907619Y-101980952D01*
X86860000Y-101885714D01*
X86812380Y-101838095D01*
X86669523Y-101742857D01*
X86479047Y-101695238D01*
X86098095Y-101695238D01*
X86002857Y-101742857D01*
X85955238Y-101790476D01*
X85907619Y-101885714D01*
X85907619Y-102076190D01*
X85955238Y-102171428D01*
X86002857Y-102219047D01*
X86098095Y-102266666D01*
X86336190Y-102266666D01*
X86431428Y-102219047D01*
X86479047Y-102171428D01*
X86526666Y-102076190D01*
X86526666Y-101885714D01*
X86479047Y-101790476D01*
X86431428Y-101742857D01*
X86336190Y-101695238D01*
%TO.C,R17*%
X108577142Y-60142380D02*
X108243809Y-59666190D01*
X108005714Y-60142380D02*
X108005714Y-59142380D01*
X108386666Y-59142380D01*
X108481904Y-59190000D01*
X108529523Y-59237619D01*
X108577142Y-59332857D01*
X108577142Y-59475714D01*
X108529523Y-59570952D01*
X108481904Y-59618571D01*
X108386666Y-59666190D01*
X108005714Y-59666190D01*
X109529523Y-60142380D02*
X108958095Y-60142380D01*
X109243809Y-60142380D02*
X109243809Y-59142380D01*
X109148571Y-59285238D01*
X109053333Y-59380476D01*
X108958095Y-59428095D01*
X109862857Y-59142380D02*
X110529523Y-59142380D01*
X110100952Y-60142380D01*
%TO.C,R10*%
X106037142Y-72842380D02*
X105703809Y-72366190D01*
X105465714Y-72842380D02*
X105465714Y-71842380D01*
X105846666Y-71842380D01*
X105941904Y-71890000D01*
X105989523Y-71937619D01*
X106037142Y-72032857D01*
X106037142Y-72175714D01*
X105989523Y-72270952D01*
X105941904Y-72318571D01*
X105846666Y-72366190D01*
X105465714Y-72366190D01*
X106989523Y-72842380D02*
X106418095Y-72842380D01*
X106703809Y-72842380D02*
X106703809Y-71842380D01*
X106608571Y-71985238D01*
X106513333Y-72080476D01*
X106418095Y-72128095D01*
X107608571Y-71842380D02*
X107703809Y-71842380D01*
X107799047Y-71890000D01*
X107846666Y-71937619D01*
X107894285Y-72032857D01*
X107941904Y-72223333D01*
X107941904Y-72461428D01*
X107894285Y-72651904D01*
X107846666Y-72747142D01*
X107799047Y-72794761D01*
X107703809Y-72842380D01*
X107608571Y-72842380D01*
X107513333Y-72794761D01*
X107465714Y-72747142D01*
X107418095Y-72651904D01*
X107370476Y-72461428D01*
X107370476Y-72223333D01*
X107418095Y-72032857D01*
X107465714Y-71937619D01*
X107513333Y-71890000D01*
X107608571Y-71842380D01*
%TO.C,JP3*%
X103941666Y-117562380D02*
X103941666Y-118276666D01*
X103894047Y-118419523D01*
X103798809Y-118514761D01*
X103655952Y-118562380D01*
X103560714Y-118562380D01*
X104417857Y-118562380D02*
X104417857Y-117562380D01*
X104798809Y-117562380D01*
X104894047Y-117610000D01*
X104941666Y-117657619D01*
X104989285Y-117752857D01*
X104989285Y-117895714D01*
X104941666Y-117990952D01*
X104894047Y-118038571D01*
X104798809Y-118086190D01*
X104417857Y-118086190D01*
X105322619Y-117562380D02*
X105941666Y-117562380D01*
X105608333Y-117943333D01*
X105751190Y-117943333D01*
X105846428Y-117990952D01*
X105894047Y-118038571D01*
X105941666Y-118133809D01*
X105941666Y-118371904D01*
X105894047Y-118467142D01*
X105846428Y-118514761D01*
X105751190Y-118562380D01*
X105465476Y-118562380D01*
X105370238Y-118514761D01*
X105322619Y-118467142D01*
%TO.C,U2*%
X123063095Y-118197380D02*
X123063095Y-119006904D01*
X123110714Y-119102142D01*
X123158333Y-119149761D01*
X123253571Y-119197380D01*
X123444047Y-119197380D01*
X123539285Y-119149761D01*
X123586904Y-119102142D01*
X123634523Y-119006904D01*
X123634523Y-118197380D01*
X124063095Y-118292619D02*
X124110714Y-118245000D01*
X124205952Y-118197380D01*
X124444047Y-118197380D01*
X124539285Y-118245000D01*
X124586904Y-118292619D01*
X124634523Y-118387857D01*
X124634523Y-118483095D01*
X124586904Y-118625952D01*
X124015476Y-119197380D01*
X124634523Y-119197380D01*
%TO.C,JP10*%
X112355476Y-76287380D02*
X112355476Y-77001666D01*
X112307857Y-77144523D01*
X112212619Y-77239761D01*
X112069761Y-77287380D01*
X111974523Y-77287380D01*
X112831666Y-77287380D02*
X112831666Y-76287380D01*
X113212619Y-76287380D01*
X113307857Y-76335000D01*
X113355476Y-76382619D01*
X113403095Y-76477857D01*
X113403095Y-76620714D01*
X113355476Y-76715952D01*
X113307857Y-76763571D01*
X113212619Y-76811190D01*
X112831666Y-76811190D01*
X114355476Y-77287380D02*
X113784047Y-77287380D01*
X114069761Y-77287380D02*
X114069761Y-76287380D01*
X113974523Y-76430238D01*
X113879285Y-76525476D01*
X113784047Y-76573095D01*
X114974523Y-76287380D02*
X115069761Y-76287380D01*
X115165000Y-76335000D01*
X115212619Y-76382619D01*
X115260238Y-76477857D01*
X115307857Y-76668333D01*
X115307857Y-76906428D01*
X115260238Y-77096904D01*
X115212619Y-77192142D01*
X115165000Y-77239761D01*
X115069761Y-77287380D01*
X114974523Y-77287380D01*
X114879285Y-77239761D01*
X114831666Y-77192142D01*
X114784047Y-77096904D01*
X114736428Y-76906428D01*
X114736428Y-76668333D01*
X114784047Y-76477857D01*
X114831666Y-76382619D01*
X114879285Y-76335000D01*
X114974523Y-76287380D01*
%TO.C,R8*%
X92543333Y-78557380D02*
X92210000Y-78081190D01*
X91971904Y-78557380D02*
X91971904Y-77557380D01*
X92352857Y-77557380D01*
X92448095Y-77605000D01*
X92495714Y-77652619D01*
X92543333Y-77747857D01*
X92543333Y-77890714D01*
X92495714Y-77985952D01*
X92448095Y-78033571D01*
X92352857Y-78081190D01*
X91971904Y-78081190D01*
X93114761Y-77985952D02*
X93019523Y-77938333D01*
X92971904Y-77890714D01*
X92924285Y-77795476D01*
X92924285Y-77747857D01*
X92971904Y-77652619D01*
X93019523Y-77605000D01*
X93114761Y-77557380D01*
X93305238Y-77557380D01*
X93400476Y-77605000D01*
X93448095Y-77652619D01*
X93495714Y-77747857D01*
X93495714Y-77795476D01*
X93448095Y-77890714D01*
X93400476Y-77938333D01*
X93305238Y-77985952D01*
X93114761Y-77985952D01*
X93019523Y-78033571D01*
X92971904Y-78081190D01*
X92924285Y-78176428D01*
X92924285Y-78366904D01*
X92971904Y-78462142D01*
X93019523Y-78509761D01*
X93114761Y-78557380D01*
X93305238Y-78557380D01*
X93400476Y-78509761D01*
X93448095Y-78462142D01*
X93495714Y-78366904D01*
X93495714Y-78176428D01*
X93448095Y-78081190D01*
X93400476Y-78033571D01*
X93305238Y-77985952D01*
%TO.C,U4*%
X100203095Y-83272380D02*
X100203095Y-84081904D01*
X100250714Y-84177142D01*
X100298333Y-84224761D01*
X100393571Y-84272380D01*
X100584047Y-84272380D01*
X100679285Y-84224761D01*
X100726904Y-84177142D01*
X100774523Y-84081904D01*
X100774523Y-83272380D01*
X101679285Y-83605714D02*
X101679285Y-84272380D01*
X101441190Y-83224761D02*
X101203095Y-83939047D01*
X101822142Y-83939047D01*
%TO.C,Q10*%
X115648571Y-71667619D02*
X115553333Y-71620000D01*
X115458095Y-71524761D01*
X115315238Y-71381904D01*
X115220000Y-71334285D01*
X115124761Y-71334285D01*
X115172380Y-71572380D02*
X115077142Y-71524761D01*
X114981904Y-71429523D01*
X114934285Y-71239047D01*
X114934285Y-70905714D01*
X114981904Y-70715238D01*
X115077142Y-70620000D01*
X115172380Y-70572380D01*
X115362857Y-70572380D01*
X115458095Y-70620000D01*
X115553333Y-70715238D01*
X115600952Y-70905714D01*
X115600952Y-71239047D01*
X115553333Y-71429523D01*
X115458095Y-71524761D01*
X115362857Y-71572380D01*
X115172380Y-71572380D01*
X116553333Y-71572380D02*
X115981904Y-71572380D01*
X116267619Y-71572380D02*
X116267619Y-70572380D01*
X116172380Y-70715238D01*
X116077142Y-70810476D01*
X115981904Y-70858095D01*
X117172380Y-70572380D02*
X117267619Y-70572380D01*
X117362857Y-70620000D01*
X117410476Y-70667619D01*
X117458095Y-70762857D01*
X117505714Y-70953333D01*
X117505714Y-71191428D01*
X117458095Y-71381904D01*
X117410476Y-71477142D01*
X117362857Y-71524761D01*
X117267619Y-71572380D01*
X117172380Y-71572380D01*
X117077142Y-71524761D01*
X117029523Y-71477142D01*
X116981904Y-71381904D01*
X116934285Y-71191428D01*
X116934285Y-70953333D01*
X116981904Y-70762857D01*
X117029523Y-70667619D01*
X117077142Y-70620000D01*
X117172380Y-70572380D01*
%TO.C,J4*%
X86907619Y-121586666D02*
X86193333Y-121586666D01*
X86050476Y-121539047D01*
X85955238Y-121443809D01*
X85907619Y-121300952D01*
X85907619Y-121205714D01*
X86574285Y-122491428D02*
X85907619Y-122491428D01*
X86955238Y-122253333D02*
X86240952Y-122015238D01*
X86240952Y-122634285D01*
%TO.C,R6*%
X108163333Y-81732380D02*
X107830000Y-81256190D01*
X107591904Y-81732380D02*
X107591904Y-80732380D01*
X107972857Y-80732380D01*
X108068095Y-80780000D01*
X108115714Y-80827619D01*
X108163333Y-80922857D01*
X108163333Y-81065714D01*
X108115714Y-81160952D01*
X108068095Y-81208571D01*
X107972857Y-81256190D01*
X107591904Y-81256190D01*
X109020476Y-80732380D02*
X108830000Y-80732380D01*
X108734761Y-80780000D01*
X108687142Y-80827619D01*
X108591904Y-80970476D01*
X108544285Y-81160952D01*
X108544285Y-81541904D01*
X108591904Y-81637142D01*
X108639523Y-81684761D01*
X108734761Y-81732380D01*
X108925238Y-81732380D01*
X109020476Y-81684761D01*
X109068095Y-81637142D01*
X109115714Y-81541904D01*
X109115714Y-81303809D01*
X109068095Y-81208571D01*
X109020476Y-81160952D01*
X108925238Y-81113333D01*
X108734761Y-81113333D01*
X108639523Y-81160952D01*
X108591904Y-81208571D01*
X108544285Y-81303809D01*
%TO.C,Q2*%
X115474761Y-120252619D02*
X115379523Y-120205000D01*
X115284285Y-120109761D01*
X115141428Y-119966904D01*
X115046190Y-119919285D01*
X114950952Y-119919285D01*
X114998571Y-120157380D02*
X114903333Y-120109761D01*
X114808095Y-120014523D01*
X114760476Y-119824047D01*
X114760476Y-119490714D01*
X114808095Y-119300238D01*
X114903333Y-119205000D01*
X114998571Y-119157380D01*
X115189047Y-119157380D01*
X115284285Y-119205000D01*
X115379523Y-119300238D01*
X115427142Y-119490714D01*
X115427142Y-119824047D01*
X115379523Y-120014523D01*
X115284285Y-120109761D01*
X115189047Y-120157380D01*
X114998571Y-120157380D01*
X115808095Y-119252619D02*
X115855714Y-119205000D01*
X115950952Y-119157380D01*
X116189047Y-119157380D01*
X116284285Y-119205000D01*
X116331904Y-119252619D01*
X116379523Y-119347857D01*
X116379523Y-119443095D01*
X116331904Y-119585952D01*
X115760476Y-120157380D01*
X116379523Y-120157380D01*
%TO.C,J7*%
X86907619Y-91106666D02*
X86193333Y-91106666D01*
X86050476Y-91059047D01*
X85955238Y-90963809D01*
X85907619Y-90820952D01*
X85907619Y-90725714D01*
X86907619Y-91487619D02*
X86907619Y-92154285D01*
X85907619Y-91725714D01*
%TO.C,JP1*%
X91876666Y-116822380D02*
X91876666Y-117536666D01*
X91829047Y-117679523D01*
X91733809Y-117774761D01*
X91590952Y-117822380D01*
X91495714Y-117822380D01*
X92352857Y-117822380D02*
X92352857Y-116822380D01*
X92733809Y-116822380D01*
X92829047Y-116870000D01*
X92876666Y-116917619D01*
X92924285Y-117012857D01*
X92924285Y-117155714D01*
X92876666Y-117250952D01*
X92829047Y-117298571D01*
X92733809Y-117346190D01*
X92352857Y-117346190D01*
X93876666Y-117822380D02*
X93305238Y-117822380D01*
X93590952Y-117822380D02*
X93590952Y-116822380D01*
X93495714Y-116965238D01*
X93400476Y-117060476D01*
X93305238Y-117108095D01*
%TO.C,JP4*%
X107116666Y-106767380D02*
X107116666Y-107481666D01*
X107069047Y-107624523D01*
X106973809Y-107719761D01*
X106830952Y-107767380D01*
X106735714Y-107767380D01*
X107592857Y-107767380D02*
X107592857Y-106767380D01*
X107973809Y-106767380D01*
X108069047Y-106815000D01*
X108116666Y-106862619D01*
X108164285Y-106957857D01*
X108164285Y-107100714D01*
X108116666Y-107195952D01*
X108069047Y-107243571D01*
X107973809Y-107291190D01*
X107592857Y-107291190D01*
X109021428Y-107100714D02*
X109021428Y-107767380D01*
X108783333Y-106719761D02*
X108545238Y-107434047D01*
X109164285Y-107434047D01*
%TO.C,JP2*%
X89336666Y-125817380D02*
X89336666Y-126531666D01*
X89289047Y-126674523D01*
X89193809Y-126769761D01*
X89050952Y-126817380D01*
X88955714Y-126817380D01*
X89812857Y-126817380D02*
X89812857Y-125817380D01*
X90193809Y-125817380D01*
X90289047Y-125865000D01*
X90336666Y-125912619D01*
X90384285Y-126007857D01*
X90384285Y-126150714D01*
X90336666Y-126245952D01*
X90289047Y-126293571D01*
X90193809Y-126341190D01*
X89812857Y-126341190D01*
X90765238Y-125912619D02*
X90812857Y-125865000D01*
X90908095Y-125817380D01*
X91146190Y-125817380D01*
X91241428Y-125865000D01*
X91289047Y-125912619D01*
X91336666Y-126007857D01*
X91336666Y-126103095D01*
X91289047Y-126245952D01*
X90717619Y-126817380D01*
X91336666Y-126817380D01*
%TO.C,J1*%
X111426666Y-126452380D02*
X111426666Y-127166666D01*
X111379047Y-127309523D01*
X111283809Y-127404761D01*
X111140952Y-127452380D01*
X111045714Y-127452380D01*
X112426666Y-127452380D02*
X111855238Y-127452380D01*
X112140952Y-127452380D02*
X112140952Y-126452380D01*
X112045714Y-126595238D01*
X111950476Y-126690476D01*
X111855238Y-126738095D01*
%TO.C,Q6*%
X113569761Y-102147619D02*
X113474523Y-102100000D01*
X113379285Y-102004761D01*
X113236428Y-101861904D01*
X113141190Y-101814285D01*
X113045952Y-101814285D01*
X113093571Y-102052380D02*
X112998333Y-102004761D01*
X112903095Y-101909523D01*
X112855476Y-101719047D01*
X112855476Y-101385714D01*
X112903095Y-101195238D01*
X112998333Y-101100000D01*
X113093571Y-101052380D01*
X113284047Y-101052380D01*
X113379285Y-101100000D01*
X113474523Y-101195238D01*
X113522142Y-101385714D01*
X113522142Y-101719047D01*
X113474523Y-101909523D01*
X113379285Y-102004761D01*
X113284047Y-102052380D01*
X113093571Y-102052380D01*
X114379285Y-101052380D02*
X114188809Y-101052380D01*
X114093571Y-101100000D01*
X114045952Y-101147619D01*
X113950714Y-101290476D01*
X113903095Y-101480952D01*
X113903095Y-101861904D01*
X113950714Y-101957142D01*
X113998333Y-102004761D01*
X114093571Y-102052380D01*
X114284047Y-102052380D01*
X114379285Y-102004761D01*
X114426904Y-101957142D01*
X114474523Y-101861904D01*
X114474523Y-101623809D01*
X114426904Y-101528571D01*
X114379285Y-101480952D01*
X114284047Y-101433333D01*
X114093571Y-101433333D01*
X113998333Y-101480952D01*
X113950714Y-101528571D01*
X113903095Y-101623809D01*
%TO.C,JP7*%
X105998666Y-97242380D02*
X105998666Y-97956666D01*
X105951047Y-98099523D01*
X105855809Y-98194761D01*
X105712952Y-98242380D01*
X105617714Y-98242380D01*
X106474857Y-98242380D02*
X106474857Y-97242380D01*
X106855809Y-97242380D01*
X106951047Y-97290000D01*
X106998666Y-97337619D01*
X107046285Y-97432857D01*
X107046285Y-97575714D01*
X106998666Y-97670952D01*
X106951047Y-97718571D01*
X106855809Y-97766190D01*
X106474857Y-97766190D01*
X107379619Y-97242380D02*
X108046285Y-97242380D01*
X107617714Y-98242380D01*
%TO.C,R13*%
X113022142Y-66492380D02*
X112688809Y-66016190D01*
X112450714Y-66492380D02*
X112450714Y-65492380D01*
X112831666Y-65492380D01*
X112926904Y-65540000D01*
X112974523Y-65587619D01*
X113022142Y-65682857D01*
X113022142Y-65825714D01*
X112974523Y-65920952D01*
X112926904Y-65968571D01*
X112831666Y-66016190D01*
X112450714Y-66016190D01*
X113974523Y-66492380D02*
X113403095Y-66492380D01*
X113688809Y-66492380D02*
X113688809Y-65492380D01*
X113593571Y-65635238D01*
X113498333Y-65730476D01*
X113403095Y-65778095D01*
X114307857Y-65492380D02*
X114926904Y-65492380D01*
X114593571Y-65873333D01*
X114736428Y-65873333D01*
X114831666Y-65920952D01*
X114879285Y-65968571D01*
X114926904Y-66063809D01*
X114926904Y-66301904D01*
X114879285Y-66397142D01*
X114831666Y-66444761D01*
X114736428Y-66492380D01*
X114450714Y-66492380D01*
X114355476Y-66444761D01*
X114307857Y-66397142D01*
%TO.C,JP5*%
X91876666Y-96502380D02*
X91876666Y-97216666D01*
X91829047Y-97359523D01*
X91733809Y-97454761D01*
X91590952Y-97502380D01*
X91495714Y-97502380D01*
X92352857Y-97502380D02*
X92352857Y-96502380D01*
X92733809Y-96502380D01*
X92829047Y-96550000D01*
X92876666Y-96597619D01*
X92924285Y-96692857D01*
X92924285Y-96835714D01*
X92876666Y-96930952D01*
X92829047Y-96978571D01*
X92733809Y-97026190D01*
X92352857Y-97026190D01*
X93829047Y-96502380D02*
X93352857Y-96502380D01*
X93305238Y-96978571D01*
X93352857Y-96930952D01*
X93448095Y-96883333D01*
X93686190Y-96883333D01*
X93781428Y-96930952D01*
X93829047Y-96978571D01*
X93876666Y-97073809D01*
X93876666Y-97311904D01*
X93829047Y-97407142D01*
X93781428Y-97454761D01*
X93686190Y-97502380D01*
X93448095Y-97502380D01*
X93352857Y-97454761D01*
X93305238Y-97407142D01*
%TO.C,Q7*%
X102774761Y-96432619D02*
X102679523Y-96385000D01*
X102584285Y-96289761D01*
X102441428Y-96146904D01*
X102346190Y-96099285D01*
X102250952Y-96099285D01*
X102298571Y-96337380D02*
X102203333Y-96289761D01*
X102108095Y-96194523D01*
X102060476Y-96004047D01*
X102060476Y-95670714D01*
X102108095Y-95480238D01*
X102203333Y-95385000D01*
X102298571Y-95337380D01*
X102489047Y-95337380D01*
X102584285Y-95385000D01*
X102679523Y-95480238D01*
X102727142Y-95670714D01*
X102727142Y-96004047D01*
X102679523Y-96194523D01*
X102584285Y-96289761D01*
X102489047Y-96337380D01*
X102298571Y-96337380D01*
X103060476Y-95337380D02*
X103727142Y-95337380D01*
X103298571Y-96337380D01*
%TO.C,JP8*%
X107116666Y-86447380D02*
X107116666Y-87161666D01*
X107069047Y-87304523D01*
X106973809Y-87399761D01*
X106830952Y-87447380D01*
X106735714Y-87447380D01*
X107592857Y-87447380D02*
X107592857Y-86447380D01*
X107973809Y-86447380D01*
X108069047Y-86495000D01*
X108116666Y-86542619D01*
X108164285Y-86637857D01*
X108164285Y-86780714D01*
X108116666Y-86875952D01*
X108069047Y-86923571D01*
X107973809Y-86971190D01*
X107592857Y-86971190D01*
X108735714Y-86875952D02*
X108640476Y-86828333D01*
X108592857Y-86780714D01*
X108545238Y-86685476D01*
X108545238Y-86637857D01*
X108592857Y-86542619D01*
X108640476Y-86495000D01*
X108735714Y-86447380D01*
X108926190Y-86447380D01*
X109021428Y-86495000D01*
X109069047Y-86542619D01*
X109116666Y-86637857D01*
X109116666Y-86685476D01*
X109069047Y-86780714D01*
X109021428Y-86828333D01*
X108926190Y-86875952D01*
X108735714Y-86875952D01*
X108640476Y-86923571D01*
X108592857Y-86971190D01*
X108545238Y-87066428D01*
X108545238Y-87256904D01*
X108592857Y-87352142D01*
X108640476Y-87399761D01*
X108735714Y-87447380D01*
X108926190Y-87447380D01*
X109021428Y-87399761D01*
X109069047Y-87352142D01*
X109116666Y-87256904D01*
X109116666Y-87066428D01*
X109069047Y-86971190D01*
X109021428Y-86923571D01*
X108926190Y-86875952D01*
D12*
%TO.C,D4*%
X109960000Y-105140000D02*
X109960000Y-103140000D01*
X102660000Y-105140000D02*
X109960000Y-105140000D01*
X109960000Y-103140000D02*
X102660000Y-103140000D01*
%TO.C,D3*%
X88160000Y-87900000D02*
X88160000Y-89900000D01*
X95460000Y-87900000D02*
X88160000Y-87900000D01*
X88160000Y-89900000D02*
X95460000Y-89900000D01*
%TO.C,D2*%
X109960000Y-125460000D02*
X109960000Y-123460000D01*
X102660000Y-125460000D02*
X109960000Y-125460000D01*
X109960000Y-123460000D02*
X102660000Y-123460000D01*
%TO.C,D1*%
X88160000Y-108220000D02*
X88160000Y-110220000D01*
X95460000Y-108220000D02*
X88160000Y-108220000D01*
X88160000Y-110220000D02*
X95460000Y-110220000D01*
%TO.C,C3*%
X121843748Y-109580000D02*
X123266252Y-109580000D01*
X121843748Y-111400000D02*
X123266252Y-111400000D01*
%TO.C,C6*%
X105783748Y-85190000D02*
X106306252Y-85190000D01*
X105783748Y-83720000D02*
X106306252Y-83720000D01*
%TO.C,C5*%
X109481252Y-66140000D02*
X108958748Y-66140000D01*
X109481252Y-64670000D02*
X108958748Y-64670000D01*
%TO.C,C4*%
X118033748Y-90530000D02*
X119456252Y-90530000D01*
X118033748Y-92350000D02*
X119456252Y-92350000D01*
%TO.C,R21*%
X89942936Y-81180000D02*
X90397064Y-81180000D01*
X89942936Y-82650000D02*
X90397064Y-82650000D01*
%TO.C,D5*%
X84489000Y-84745000D02*
X84645000Y-84745000D01*
X86805000Y-84745000D02*
X86961000Y-84745000D01*
X84645163Y-82143870D02*
G75*
G03*
X84645000Y-84225961I1079837J-1041130D01*
G01*
X86960516Y-84745000D02*
G75*
G03*
X86803608Y-81512665I-1235516J1560000D01*
G01*
X86805000Y-84225961D02*
G75*
G03*
X86804837Y-82143870I-1080000J1040961D01*
G01*
X84646392Y-81512665D02*
G75*
G03*
X84489484Y-84745000I1078608J-1672335D01*
G01*
%TO.C,JP13*%
X104410000Y-135385000D02*
X104410000Y-132585000D01*
X104410000Y-132585000D02*
X106410000Y-132585000D01*
X106410000Y-132585000D02*
X106410000Y-135385000D01*
X106410000Y-135385000D02*
X104410000Y-135385000D01*
%TO.C,R20*%
X122655000Y-87402936D02*
X122655000Y-87857064D01*
X121185000Y-87402936D02*
X121185000Y-87857064D01*
%TO.C,R19*%
X121185000Y-84047064D02*
X121185000Y-83592936D01*
X122655000Y-84047064D02*
X122655000Y-83592936D01*
%TO.C,JP12*%
X118475000Y-86570000D02*
X120535000Y-86570000D01*
X117475000Y-88690000D02*
X116415000Y-88690000D01*
X116415000Y-88690000D02*
X116415000Y-87630000D01*
X118475000Y-88690000D02*
X118475000Y-86570000D01*
X120535000Y-88690000D02*
X120535000Y-86570000D01*
X118475000Y-88690000D02*
X120535000Y-88690000D01*
%TO.C,JP11*%
X118475000Y-82760000D02*
X120535000Y-82760000D01*
X117475000Y-84880000D02*
X116415000Y-84880000D01*
X116415000Y-84880000D02*
X116415000Y-83820000D01*
X118475000Y-84880000D02*
X118475000Y-82760000D01*
X120535000Y-84880000D02*
X120535000Y-82760000D01*
X118475000Y-84880000D02*
X120535000Y-84880000D01*
%TO.C,C1*%
X122843349Y-103827000D02*
X122843349Y-105723000D01*
X120403349Y-105815000D02*
X120403349Y-108549000D01*
X119442349Y-105815000D02*
X119442349Y-108812000D01*
X119923349Y-105815000D02*
X119923349Y-108711000D01*
X121323349Y-101525000D02*
X121323349Y-108025000D01*
X119442349Y-100738000D02*
X119442349Y-103735000D01*
X120523349Y-101053000D02*
X120523349Y-103735000D01*
X119362349Y-100727000D02*
X119362349Y-103735000D01*
X121843349Y-101991000D02*
X121843349Y-107559000D01*
X120083349Y-100886000D02*
X120083349Y-103735000D01*
X120283349Y-105815000D02*
X120283349Y-108596000D01*
X119843349Y-100818000D02*
X119843349Y-103735000D01*
X121683349Y-101830000D02*
X121683349Y-107720000D01*
X120683349Y-105815000D02*
X120683349Y-108422000D01*
X120203349Y-105815000D02*
X120203349Y-108625000D01*
X114432651Y-102460000D02*
X115232651Y-102460000D01*
X120643349Y-105815000D02*
X120643349Y-108441000D01*
X122083349Y-102270000D02*
X122083349Y-107280000D01*
X119723349Y-100790000D02*
X119723349Y-103735000D01*
X120843349Y-105815000D02*
X120843349Y-108337000D01*
X119843349Y-105815000D02*
X119843349Y-108732000D01*
X119522349Y-105815000D02*
X119522349Y-108799000D01*
X122203349Y-102430000D02*
X122203349Y-107120000D01*
X121403349Y-101586000D02*
X121403349Y-107964000D01*
X122763349Y-103546000D02*
X122763349Y-106004000D01*
X121443349Y-101619000D02*
X121443349Y-107931000D01*
X120603349Y-101089000D02*
X120603349Y-103735000D01*
X122883349Y-104007000D02*
X122883349Y-105543000D01*
X120563349Y-101071000D02*
X120563349Y-103735000D01*
X119202349Y-100710000D02*
X119202349Y-103735000D01*
X122283349Y-102547000D02*
X122283349Y-107003000D01*
X119402349Y-100733000D02*
X119402349Y-103735000D01*
X119162349Y-105815000D02*
X119162349Y-108843000D01*
X122323349Y-102609000D02*
X122323349Y-106941000D01*
X120083349Y-105815000D02*
X120083349Y-108664000D01*
X119482349Y-105815000D02*
X119482349Y-108805000D01*
X120603349Y-105815000D02*
X120603349Y-108461000D01*
X119482349Y-100745000D02*
X119482349Y-103735000D01*
X120563349Y-105815000D02*
X120563349Y-108479000D01*
X120283349Y-100954000D02*
X120283349Y-103735000D01*
X119362349Y-105815000D02*
X119362349Y-108823000D01*
X119402349Y-105815000D02*
X119402349Y-108817000D01*
X120763349Y-101169000D02*
X120763349Y-103735000D01*
X114832651Y-102060000D02*
X114832651Y-102860000D01*
X120763349Y-105815000D02*
X120763349Y-108381000D01*
X121563349Y-101720000D02*
X121563349Y-107830000D01*
X121243349Y-101466000D02*
X121243349Y-108084000D01*
X120163349Y-100912000D02*
X120163349Y-103735000D01*
X122523349Y-102962000D02*
X122523349Y-106588000D01*
X119883349Y-105815000D02*
X119883349Y-108722000D01*
X119202349Y-105815000D02*
X119202349Y-108840000D01*
X119763349Y-105815000D02*
X119763349Y-108751000D01*
X122723349Y-103429000D02*
X122723349Y-106121000D01*
X121483349Y-101651000D02*
X121483349Y-107899000D01*
X121163349Y-101410000D02*
X121163349Y-108140000D01*
X121123349Y-105815000D02*
X121123349Y-108167000D01*
X121003349Y-101306000D02*
X121003349Y-103735000D01*
X120403349Y-101001000D02*
X120403349Y-103735000D01*
X119082349Y-100701000D02*
X119082349Y-103735000D01*
X119322349Y-105815000D02*
X119322349Y-108827000D01*
X119042349Y-100699000D02*
X119042349Y-108851000D01*
X122363349Y-102673000D02*
X122363349Y-106877000D01*
X120923349Y-101258000D02*
X120923349Y-103735000D01*
X120483349Y-101035000D02*
X120483349Y-103735000D01*
X121123349Y-101383000D02*
X121123349Y-103735000D01*
X121283349Y-101495000D02*
X121283349Y-108055000D01*
X120243349Y-105815000D02*
X120243349Y-108610000D01*
X120643349Y-101109000D02*
X120643349Y-103735000D01*
X119162349Y-100707000D02*
X119162349Y-103735000D01*
X121523349Y-101685000D02*
X121523349Y-107865000D01*
X121963349Y-102124000D02*
X121963349Y-107426000D01*
X119242349Y-105815000D02*
X119242349Y-108836000D01*
X120243349Y-100940000D02*
X120243349Y-103735000D01*
X122243349Y-102488000D02*
X122243349Y-107062000D01*
X122683349Y-103322000D02*
X122683349Y-106228000D01*
X119122349Y-105815000D02*
X119122349Y-108846000D01*
X118882349Y-100695000D02*
X118882349Y-108855000D01*
X119883349Y-100828000D02*
X119883349Y-103735000D01*
X120163349Y-105815000D02*
X120163349Y-108638000D01*
X120803349Y-105815000D02*
X120803349Y-108359000D01*
X120523349Y-105815000D02*
X120523349Y-108497000D01*
X121003349Y-105815000D02*
X121003349Y-108244000D01*
X120963349Y-101282000D02*
X120963349Y-103735000D01*
X119522349Y-100751000D02*
X119522349Y-103735000D01*
X120803349Y-101191000D02*
X120803349Y-103735000D01*
X120123349Y-100898000D02*
X120123349Y-103735000D01*
X119683349Y-105815000D02*
X119683349Y-108769000D01*
X120723349Y-105815000D02*
X120723349Y-108402000D01*
X118842349Y-100695000D02*
X118842349Y-108855000D01*
X122923349Y-104242000D02*
X122923349Y-105308000D01*
X119963349Y-105815000D02*
X119963349Y-108700000D01*
X121643349Y-101792000D02*
X121643349Y-107758000D01*
X121803349Y-101949000D02*
X121803349Y-107601000D01*
X120883349Y-105815000D02*
X120883349Y-108315000D01*
X120963349Y-105815000D02*
X120963349Y-108268000D01*
X122603349Y-103130000D02*
X122603349Y-106420000D01*
X120123349Y-105815000D02*
X120123349Y-108652000D01*
X119002349Y-100698000D02*
X119002349Y-108852000D01*
X119322349Y-100723000D02*
X119322349Y-103735000D01*
X119803349Y-105815000D02*
X119803349Y-108742000D01*
X119082349Y-105815000D02*
X119082349Y-108849000D01*
X119643349Y-100773000D02*
X119643349Y-103735000D01*
X120443349Y-101018000D02*
X120443349Y-103735000D01*
X122043349Y-102219000D02*
X122043349Y-107331000D01*
X121203349Y-101437000D02*
X121203349Y-108113000D01*
X119723349Y-105815000D02*
X119723349Y-108760000D01*
X120323349Y-105815000D02*
X120323349Y-108580000D01*
X122163349Y-102375000D02*
X122163349Y-107175000D01*
X120443349Y-105815000D02*
X120443349Y-108532000D01*
X121363349Y-101555000D02*
X121363349Y-107995000D01*
X122443349Y-102811000D02*
X122443349Y-106739000D01*
X121883349Y-102034000D02*
X121883349Y-107516000D01*
X120683349Y-101128000D02*
X120683349Y-103735000D01*
X119282349Y-105815000D02*
X119282349Y-108832000D01*
X122563349Y-103044000D02*
X122563349Y-106506000D01*
X120483349Y-105815000D02*
X120483349Y-108515000D01*
X119643349Y-105815000D02*
X119643349Y-108777000D01*
X121723349Y-101868000D02*
X121723349Y-107682000D01*
X119603349Y-100765000D02*
X119603349Y-103735000D01*
X119122349Y-100704000D02*
X119122349Y-103735000D01*
X121923349Y-102078000D02*
X121923349Y-107472000D01*
X120043349Y-105815000D02*
X120043349Y-108677000D01*
X120923349Y-105815000D02*
X120923349Y-108292000D01*
X120843349Y-101213000D02*
X120843349Y-103735000D01*
X121083349Y-105815000D02*
X121083349Y-108193000D01*
X120003349Y-105815000D02*
X120003349Y-108689000D01*
X121043349Y-105815000D02*
X121043349Y-108219000D01*
X121083349Y-101357000D02*
X121083349Y-103735000D01*
X121043349Y-101331000D02*
X121043349Y-103735000D01*
X120003349Y-100861000D02*
X120003349Y-103735000D01*
X118962349Y-100696000D02*
X118962349Y-108854000D01*
X122803349Y-103677000D02*
X122803349Y-105873000D01*
X119683349Y-100781000D02*
X119683349Y-103735000D01*
X119803349Y-100808000D02*
X119803349Y-103735000D01*
X120203349Y-100925000D02*
X120203349Y-103735000D01*
X120043349Y-100873000D02*
X120043349Y-103735000D01*
X122003349Y-102171000D02*
X122003349Y-107379000D01*
X119923349Y-100839000D02*
X119923349Y-103735000D01*
X118922349Y-100695000D02*
X118922349Y-108855000D01*
X122483349Y-102885000D02*
X122483349Y-106665000D01*
X122123349Y-102321000D02*
X122123349Y-107229000D01*
X122643349Y-103223000D02*
X122643349Y-106327000D01*
X121763349Y-101908000D02*
X121763349Y-107642000D01*
X121603349Y-101756000D02*
X121603349Y-107794000D01*
X119963349Y-100850000D02*
X119963349Y-103735000D01*
X119282349Y-100718000D02*
X119282349Y-103735000D01*
X119242349Y-100714000D02*
X119242349Y-103735000D01*
X120723349Y-101148000D02*
X120723349Y-103735000D01*
X120323349Y-100970000D02*
X120323349Y-103735000D01*
X120363349Y-100985000D02*
X120363349Y-103735000D01*
X120363349Y-105815000D02*
X120363349Y-108565000D01*
X122403349Y-102741000D02*
X122403349Y-106809000D01*
X119603349Y-105815000D02*
X119603349Y-108785000D01*
X120883349Y-101235000D02*
X120883349Y-103735000D01*
X119563349Y-105815000D02*
X119563349Y-108792000D01*
X119763349Y-100799000D02*
X119763349Y-103735000D01*
X119563349Y-100758000D02*
X119563349Y-103735000D01*
X122962349Y-104775000D02*
G75*
G03*
X122962349Y-104775000I-4120000J0D01*
G01*
%TO.C,J3*%
X119760000Y-131100000D02*
X119760000Y-137100000D01*
X126620000Y-125502929D02*
X126620000Y-125957071D01*
X129160000Y-137100000D02*
X129160000Y-131100000D01*
X124080000Y-128042929D02*
X124080000Y-128440000D01*
X124080000Y-137100000D02*
X124080000Y-131100000D01*
X129740000Y-131100000D02*
X129740000Y-137100000D01*
X129500000Y-131100000D02*
X129500000Y-137100000D01*
X124840000Y-125502929D02*
X124840000Y-125957071D01*
X129160000Y-128042929D02*
X129160000Y-128440000D01*
X122300000Y-131100000D02*
X122300000Y-137100000D01*
X129860000Y-131100000D02*
X129860000Y-137100000D01*
X119760000Y-128042929D02*
X119760000Y-128440000D01*
X129920000Y-128042929D02*
X129920000Y-128440000D01*
X118050000Y-131100000D02*
X130870000Y-131100000D01*
X119760000Y-125502929D02*
X119760000Y-125957071D01*
X130810000Y-123190000D02*
X130810000Y-124460000D01*
X129920000Y-131100000D02*
X129920000Y-137100000D01*
X130870000Y-131100000D02*
X130870000Y-128440000D01*
X127380000Y-125502929D02*
X127380000Y-125957071D01*
X124840000Y-131100000D02*
X124840000Y-137100000D01*
X129380000Y-131100000D02*
X129380000Y-137100000D01*
X124840000Y-128042929D02*
X124840000Y-128440000D01*
X122300000Y-128042929D02*
X122300000Y-128440000D01*
X122300000Y-125502929D02*
X122300000Y-125957071D01*
X122300000Y-137100000D02*
X121540000Y-137100000D01*
X124840000Y-137100000D02*
X124080000Y-137100000D01*
X119000000Y-128042929D02*
X119000000Y-128440000D01*
X128270000Y-128440000D02*
X128270000Y-131100000D01*
X129160000Y-125570000D02*
X129160000Y-125957071D01*
X121540000Y-137100000D02*
X121540000Y-131100000D01*
X124080000Y-125502929D02*
X124080000Y-125957071D01*
X121540000Y-128042929D02*
X121540000Y-128440000D01*
X127380000Y-137100000D02*
X126620000Y-137100000D01*
X126620000Y-128042929D02*
X126620000Y-128440000D01*
X127380000Y-128042929D02*
X127380000Y-128440000D01*
X120650000Y-128440000D02*
X120650000Y-131100000D01*
X129260000Y-131100000D02*
X129260000Y-137100000D01*
X129920000Y-137100000D02*
X129160000Y-137100000D01*
X130870000Y-128440000D02*
X118050000Y-128440000D01*
X118050000Y-128440000D02*
X118050000Y-131100000D01*
X127380000Y-131100000D02*
X127380000Y-137100000D01*
X129540000Y-123190000D02*
X130810000Y-123190000D01*
X126620000Y-137100000D02*
X126620000Y-131100000D01*
X129920000Y-125570000D02*
X129920000Y-125957071D01*
X125730000Y-128440000D02*
X125730000Y-131100000D01*
X119000000Y-137100000D02*
X119000000Y-131100000D01*
X119760000Y-137100000D02*
X119000000Y-137100000D01*
X123190000Y-128440000D02*
X123190000Y-131100000D01*
X129620000Y-131100000D02*
X129620000Y-137100000D01*
X119000000Y-125502929D02*
X119000000Y-125957071D01*
X121540000Y-125502929D02*
X121540000Y-125957071D01*
%TO.C,C2*%
X123725000Y-78478748D02*
X123725000Y-79001252D01*
X125195000Y-78478748D02*
X125195000Y-79001252D01*
%TO.C,U1*%
X126185000Y-80010000D02*
X126185000Y-76150000D01*
X126440000Y-83870000D02*
X126440000Y-85685000D01*
X136705000Y-83870000D02*
X136450000Y-83870000D01*
X136705000Y-80010000D02*
X136705000Y-83870000D01*
X136705000Y-76150000D02*
X136450000Y-76150000D01*
X126185000Y-76150000D02*
X126440000Y-76150000D01*
X126185000Y-83870000D02*
X126440000Y-83870000D01*
X136705000Y-80010000D02*
X136705000Y-76150000D01*
X126185000Y-80010000D02*
X126185000Y-83870000D01*
%TO.C,R12*%
X92482936Y-71855000D02*
X92937064Y-71855000D01*
X92482936Y-70385000D02*
X92937064Y-70385000D01*
%TO.C,J11*%
X82260000Y-63340000D02*
X76260000Y-63340000D01*
X76260000Y-60580000D02*
X82260000Y-60580000D01*
X82260000Y-64830000D02*
X84920000Y-64830000D01*
X87857071Y-60580000D02*
X87402929Y-60580000D01*
X76260000Y-63120000D02*
X82260000Y-63120000D01*
X85317071Y-63880000D02*
X84920000Y-63880000D01*
X82260000Y-63460000D02*
X76260000Y-63460000D01*
X87790000Y-63120000D02*
X87402929Y-63120000D01*
X87790000Y-63880000D02*
X87402929Y-63880000D01*
X84920000Y-64830000D02*
X84920000Y-59630000D01*
X84920000Y-59630000D02*
X82260000Y-59630000D01*
X82260000Y-63820000D02*
X76260000Y-63820000D01*
X82260000Y-63880000D02*
X76260000Y-63880000D01*
X76260000Y-61340000D02*
X76260000Y-60580000D01*
X82260000Y-63580000D02*
X76260000Y-63580000D01*
X90170000Y-64770000D02*
X88900000Y-64770000D01*
X76260000Y-63880000D02*
X76260000Y-63120000D01*
X85317071Y-63120000D02*
X84920000Y-63120000D01*
X85317071Y-61340000D02*
X84920000Y-61340000D01*
X87857071Y-61340000D02*
X87402929Y-61340000D01*
X82260000Y-63700000D02*
X76260000Y-63700000D01*
X82260000Y-63220000D02*
X76260000Y-63220000D01*
X82260000Y-59630000D02*
X82260000Y-64830000D01*
X90170000Y-63500000D02*
X90170000Y-64770000D01*
X85317071Y-60580000D02*
X84920000Y-60580000D01*
X82260000Y-61340000D02*
X76260000Y-61340000D01*
X84920000Y-62230000D02*
X82260000Y-62230000D01*
%TO.C,R18*%
X92937064Y-61695000D02*
X92482936Y-61695000D01*
X92937064Y-60225000D02*
X92482936Y-60225000D01*
%TO.C,J9*%
X87790000Y-73280000D02*
X87402929Y-73280000D01*
X85317071Y-70740000D02*
X84920000Y-70740000D01*
X82260000Y-71500000D02*
X76260000Y-71500000D01*
X87857071Y-71500000D02*
X87402929Y-71500000D01*
X87790000Y-74040000D02*
X87402929Y-74040000D01*
X82260000Y-73500000D02*
X76260000Y-73500000D01*
X84920000Y-74990000D02*
X84920000Y-69790000D01*
X87857071Y-70740000D02*
X87402929Y-70740000D01*
X85317071Y-73280000D02*
X84920000Y-73280000D01*
X76260000Y-74040000D02*
X76260000Y-73280000D01*
X76260000Y-71500000D02*
X76260000Y-70740000D01*
X76260000Y-73280000D02*
X82260000Y-73280000D01*
X84920000Y-69790000D02*
X82260000Y-69790000D01*
X82260000Y-73380000D02*
X76260000Y-73380000D01*
X84920000Y-72390000D02*
X82260000Y-72390000D01*
X90170000Y-73660000D02*
X90170000Y-74930000D01*
X76260000Y-70740000D02*
X82260000Y-70740000D01*
X85317071Y-71500000D02*
X84920000Y-71500000D01*
X82260000Y-74040000D02*
X76260000Y-74040000D01*
X90170000Y-74930000D02*
X88900000Y-74930000D01*
X82260000Y-73980000D02*
X76260000Y-73980000D01*
X82260000Y-69790000D02*
X82260000Y-74990000D01*
X85317071Y-74040000D02*
X84920000Y-74040000D01*
X82260000Y-73740000D02*
X76260000Y-73740000D01*
X82260000Y-73620000D02*
X76260000Y-73620000D01*
X82260000Y-73860000D02*
X76260000Y-73860000D01*
X82260000Y-74990000D02*
X84920000Y-74990000D01*
%TO.C,J5*%
X85090000Y-116840000D02*
X85090000Y-106680000D01*
X85090000Y-106680000D02*
X77470000Y-106680000D01*
X77470000Y-116840000D02*
X85090000Y-116840000D01*
X77470000Y-106680000D02*
X77470000Y-116840000D01*
X78740000Y-116840000D02*
X78740000Y-106680000D01*
%TO.C,K2*%
X110490000Y-122936000D02*
X100330000Y-122936000D01*
X106197000Y-119380000D02*
X106197000Y-120396000D01*
X103632000Y-119888000D02*
X104292000Y-119888000D01*
X100330000Y-122936000D02*
X100330000Y-108204000D01*
X103632000Y-119253000D02*
X103632000Y-119888000D01*
X106197000Y-119380000D02*
X104292000Y-119380000D01*
X100330000Y-108204000D02*
X110490000Y-108204000D01*
X106832000Y-119888000D02*
X106197000Y-119888000D01*
X104292000Y-120396000D02*
X106197000Y-120396000D01*
X106832000Y-119253000D02*
X106832000Y-119888000D01*
X105816000Y-119380000D02*
X105181000Y-120396000D01*
X104292000Y-119380000D02*
X104292000Y-120396000D01*
X110490000Y-108204000D02*
X110490000Y-122936000D01*
%TO.C,R15*%
X92937064Y-65305000D02*
X92482936Y-65305000D01*
X92937064Y-66775000D02*
X92482936Y-66775000D01*
%TO.C,JP6*%
X98060000Y-103375000D02*
X100060000Y-103375000D01*
X100060000Y-103375000D02*
X100060000Y-106175000D01*
X98060000Y-106175000D02*
X98060000Y-103375000D01*
X100060000Y-106175000D02*
X98060000Y-106175000D01*
%TO.C,U5*%
X97680000Y-76260000D02*
X102980000Y-76260000D01*
X102980000Y-76260000D02*
X102980000Y-71060000D01*
X99330000Y-71060000D02*
X97680000Y-71060000D01*
X102980000Y-71060000D02*
X101330000Y-71060000D01*
X97680000Y-71060000D02*
X97680000Y-76260000D01*
X99330000Y-71060000D02*
G75*
G03*
X101330000Y-71060000I1000000J0D01*
G01*
%TO.C,Q8*%
X111470000Y-91440000D02*
X111470000Y-92090000D01*
X114590000Y-91440000D02*
X114590000Y-92090000D01*
X114590000Y-91440000D02*
X114590000Y-89765000D01*
X111470000Y-91440000D02*
X111470000Y-90790000D01*
%TO.C,U3*%
X119380000Y-93325000D02*
X121330000Y-93325000D01*
X119380000Y-98445000D02*
X122830000Y-98445000D01*
X119380000Y-98445000D02*
X117430000Y-98445000D01*
X119380000Y-93325000D02*
X117430000Y-93325000D01*
%TO.C,Q5*%
X87590000Y-98330000D02*
X97830000Y-98330000D01*
X94561000Y-98330000D02*
X94561000Y-99840000D01*
X87590000Y-102971000D02*
X97830000Y-102971000D01*
X87590000Y-98330000D02*
X87590000Y-102971000D01*
X87590000Y-99840000D02*
X97830000Y-99840000D01*
X90860000Y-98330000D02*
X90860000Y-99840000D01*
X97830000Y-98330000D02*
X97830000Y-102971000D01*
%TO.C,R5*%
X109120000Y-77600436D02*
X109120000Y-78054564D01*
X110590000Y-77600436D02*
X110590000Y-78054564D01*
%TO.C,Q9*%
X115570000Y-78450000D02*
X114920000Y-78450000D01*
X115570000Y-81570000D02*
X117245000Y-81570000D01*
X115570000Y-81570000D02*
X114920000Y-81570000D01*
X115570000Y-78450000D02*
X116220000Y-78450000D01*
%TO.C,R1*%
X112295000Y-123417064D02*
X112295000Y-122962936D01*
X113765000Y-123417064D02*
X113765000Y-122962936D01*
%TO.C,U7*%
X97680000Y-58360000D02*
X97680000Y-63560000D01*
X97680000Y-63560000D02*
X102980000Y-63560000D01*
X102980000Y-63560000D02*
X102980000Y-58360000D01*
X102980000Y-58360000D02*
X101330000Y-58360000D01*
X99330000Y-58360000D02*
X97680000Y-58360000D01*
X99330000Y-58360000D02*
G75*
G03*
X101330000Y-58360000I1000000J0D01*
G01*
%TO.C,Q4*%
X111470000Y-111760000D02*
X111470000Y-111110000D01*
X111470000Y-111760000D02*
X111470000Y-112410000D01*
X114590000Y-111760000D02*
X114590000Y-110085000D01*
X114590000Y-111760000D02*
X114590000Y-112410000D01*
%TO.C,R11*%
X118645000Y-73432936D02*
X118645000Y-73887064D01*
X120115000Y-73432936D02*
X120115000Y-73887064D01*
%TO.C,Q1*%
X87590000Y-120160000D02*
X97830000Y-120160000D01*
X90860000Y-118650000D02*
X90860000Y-120160000D01*
X94561000Y-118650000D02*
X94561000Y-120160000D01*
X87590000Y-118650000D02*
X97830000Y-118650000D01*
X97830000Y-118650000D02*
X97830000Y-123291000D01*
X87590000Y-118650000D02*
X87590000Y-123291000D01*
X87590000Y-123291000D02*
X97830000Y-123291000D01*
%TO.C,JP9*%
X112540000Y-80915000D02*
X112540000Y-82915000D01*
X109740000Y-82915000D02*
X109740000Y-80915000D01*
X112540000Y-82915000D02*
X109740000Y-82915000D01*
X109740000Y-80915000D02*
X112540000Y-80915000D01*
%TO.C,R16*%
X113257064Y-62330000D02*
X112802936Y-62330000D01*
X113257064Y-60860000D02*
X112802936Y-60860000D01*
%TO.C,K3*%
X87630000Y-90424000D02*
X97790000Y-90424000D01*
X87630000Y-105156000D02*
X87630000Y-90424000D01*
X94488000Y-94107000D02*
X94488000Y-93472000D01*
X92304000Y-93980000D02*
X92939000Y-92964000D01*
X93828000Y-92964000D02*
X91923000Y-92964000D01*
X91288000Y-93472000D02*
X91923000Y-93472000D01*
X97790000Y-105156000D02*
X87630000Y-105156000D01*
X91923000Y-93980000D02*
X93828000Y-93980000D01*
X94488000Y-93472000D02*
X93828000Y-93472000D01*
X97790000Y-90424000D02*
X97790000Y-105156000D01*
X91923000Y-93980000D02*
X91923000Y-92964000D01*
X93828000Y-93980000D02*
X93828000Y-92964000D01*
X91288000Y-94107000D02*
X91288000Y-93472000D01*
%TO.C,K4*%
X100330000Y-87884000D02*
X110490000Y-87884000D01*
X105816000Y-99060000D02*
X105181000Y-100076000D01*
X103632000Y-99568000D02*
X104292000Y-99568000D01*
X110490000Y-87884000D02*
X110490000Y-102616000D01*
X103632000Y-98933000D02*
X103632000Y-99568000D01*
X104292000Y-99060000D02*
X104292000Y-100076000D01*
X106197000Y-99060000D02*
X106197000Y-100076000D01*
X106832000Y-99568000D02*
X106197000Y-99568000D01*
X100330000Y-102616000D02*
X100330000Y-87884000D01*
X110490000Y-102616000D02*
X100330000Y-102616000D01*
X104292000Y-100076000D02*
X106197000Y-100076000D01*
X106197000Y-99060000D02*
X104292000Y-99060000D01*
X106832000Y-98933000D02*
X106832000Y-99568000D01*
%TO.C,J2*%
X96220000Y-129000000D02*
X96220000Y-128800000D01*
X99420000Y-132610000D02*
X99620000Y-132610000D01*
X94460000Y-131610000D02*
X95070000Y-131610000D01*
X94460000Y-133720000D02*
X104580000Y-133720000D01*
X94160000Y-128700000D02*
X94160000Y-129950000D01*
X97420000Y-133110000D02*
X97420000Y-132610000D01*
X99620000Y-132610000D02*
X99620000Y-133110000D01*
X94460000Y-129000000D02*
X94460000Y-133720000D01*
X103970000Y-133110000D02*
X103970000Y-129610000D01*
X95920000Y-128800000D02*
X95920000Y-129000000D01*
X97420000Y-132610000D02*
X97620000Y-132610000D01*
X101420000Y-132610000D02*
X101620000Y-132610000D01*
X95070000Y-129610000D02*
X95070000Y-133110000D01*
X94460000Y-130310000D02*
X95070000Y-130310000D01*
X101420000Y-133110000D02*
X101420000Y-132610000D01*
X103970000Y-129610000D02*
X102020000Y-129610000D01*
X97620000Y-132610000D02*
X97620000Y-133110000D01*
X95070000Y-133110000D02*
X103970000Y-133110000D01*
X97020000Y-129000000D02*
X97020000Y-129610000D01*
X101620000Y-132610000D02*
X101620000Y-133110000D01*
X101520000Y-133110000D02*
X101520000Y-132610000D01*
X102020000Y-129610000D02*
X102020000Y-129000000D01*
X96220000Y-128800000D02*
X95920000Y-128800000D01*
X99420000Y-133110000D02*
X99420000Y-132610000D01*
X104580000Y-133720000D02*
X104580000Y-129000000D01*
X95410000Y-128700000D02*
X94160000Y-128700000D01*
X96220000Y-128900000D02*
X95920000Y-128900000D01*
X104580000Y-129000000D02*
X94460000Y-129000000D01*
X99520000Y-133110000D02*
X99520000Y-132610000D01*
X104580000Y-130310000D02*
X103970000Y-130310000D01*
X104580000Y-131610000D02*
X103970000Y-131610000D01*
X97020000Y-129610000D02*
X95070000Y-129610000D01*
X97520000Y-133110000D02*
X97520000Y-132610000D01*
%TO.C,R9*%
X110590000Y-71250436D02*
X110590000Y-71704564D01*
X109120000Y-71250436D02*
X109120000Y-71704564D01*
%TO.C,J10*%
X76260000Y-65660000D02*
X82260000Y-65660000D01*
X82260000Y-68660000D02*
X76260000Y-68660000D01*
X84920000Y-64710000D02*
X82260000Y-64710000D01*
X82260000Y-68540000D02*
X76260000Y-68540000D01*
X82260000Y-68420000D02*
X76260000Y-68420000D01*
X87857071Y-66420000D02*
X87402929Y-66420000D01*
X90170000Y-69850000D02*
X88900000Y-69850000D01*
X84920000Y-67310000D02*
X82260000Y-67310000D01*
X76260000Y-68200000D02*
X82260000Y-68200000D01*
X82260000Y-68780000D02*
X76260000Y-68780000D01*
X87857071Y-65660000D02*
X87402929Y-65660000D01*
X84920000Y-69910000D02*
X84920000Y-64710000D01*
X85317071Y-68200000D02*
X84920000Y-68200000D01*
X90170000Y-68580000D02*
X90170000Y-69850000D01*
X76260000Y-68960000D02*
X76260000Y-68200000D01*
X82260000Y-66420000D02*
X76260000Y-66420000D01*
X85317071Y-65660000D02*
X84920000Y-65660000D01*
X82260000Y-68300000D02*
X76260000Y-68300000D01*
X82260000Y-68960000D02*
X76260000Y-68960000D01*
X82260000Y-64710000D02*
X82260000Y-69910000D01*
X82260000Y-68900000D02*
X76260000Y-68900000D01*
X76260000Y-66420000D02*
X76260000Y-65660000D01*
X85317071Y-66420000D02*
X84920000Y-66420000D01*
X82260000Y-69910000D02*
X84920000Y-69910000D01*
X87790000Y-68960000D02*
X87402929Y-68960000D01*
X85317071Y-68960000D02*
X84920000Y-68960000D01*
X87790000Y-68200000D02*
X87402929Y-68200000D01*
%TO.C,R7*%
X118645000Y-79782936D02*
X118645000Y-80237064D01*
X120115000Y-79782936D02*
X120115000Y-80237064D01*
%TO.C,J8*%
X76260000Y-75820000D02*
X82260000Y-75820000D01*
X82260000Y-78940000D02*
X76260000Y-78940000D01*
X85317071Y-75820000D02*
X84920000Y-75820000D01*
X82260000Y-78460000D02*
X76260000Y-78460000D01*
X85317071Y-78360000D02*
X84920000Y-78360000D01*
X82260000Y-78580000D02*
X76260000Y-78580000D01*
X76260000Y-76580000D02*
X76260000Y-75820000D01*
X90170000Y-78740000D02*
X90170000Y-80010000D01*
X82260000Y-78700000D02*
X76260000Y-78700000D01*
X87857071Y-76580000D02*
X87402929Y-76580000D01*
X90170000Y-80010000D02*
X88900000Y-80010000D01*
X87790000Y-78360000D02*
X87402929Y-78360000D01*
X82260000Y-76580000D02*
X76260000Y-76580000D01*
X76260000Y-78360000D02*
X82260000Y-78360000D01*
X82260000Y-78820000D02*
X76260000Y-78820000D01*
X84920000Y-74870000D02*
X82260000Y-74870000D01*
X85317071Y-76580000D02*
X84920000Y-76580000D01*
X82260000Y-74870000D02*
X82260000Y-80070000D01*
X82260000Y-80070000D02*
X84920000Y-80070000D01*
X82260000Y-79120000D02*
X76260000Y-79120000D01*
X82260000Y-79060000D02*
X76260000Y-79060000D01*
X76260000Y-79120000D02*
X76260000Y-78360000D01*
X84920000Y-77470000D02*
X82260000Y-77470000D01*
X87857071Y-75820000D02*
X87402929Y-75820000D01*
X84920000Y-80070000D02*
X84920000Y-74870000D01*
X85317071Y-79120000D02*
X84920000Y-79120000D01*
X87790000Y-79120000D02*
X87402929Y-79120000D01*
%TO.C,Q3*%
X100290000Y-115030000D02*
X100290000Y-110389000D01*
X110530000Y-113520000D02*
X100290000Y-113520000D01*
X110530000Y-110389000D02*
X100290000Y-110389000D01*
X103559000Y-115030000D02*
X103559000Y-113520000D01*
X107260000Y-115030000D02*
X107260000Y-113520000D01*
X110530000Y-115030000D02*
X110530000Y-110389000D01*
X110530000Y-115030000D02*
X100290000Y-115030000D01*
%TO.C,R3*%
X111025000Y-104367064D02*
X111025000Y-103912936D01*
X112495000Y-104367064D02*
X112495000Y-103912936D01*
%TO.C,U6*%
X99330000Y-64710000D02*
X97680000Y-64710000D01*
X102980000Y-64710000D02*
X101330000Y-64710000D01*
X97680000Y-64710000D02*
X97680000Y-69910000D01*
X102980000Y-69910000D02*
X102980000Y-64710000D01*
X97680000Y-69910000D02*
X102980000Y-69910000D01*
X99330000Y-64710000D02*
G75*
G03*
X101330000Y-64710000I1000000J0D01*
G01*
%TO.C,R4*%
X113565000Y-87402936D02*
X113565000Y-87857064D01*
X115035000Y-87402936D02*
X115035000Y-87857064D01*
%TO.C,R14*%
X106580000Y-68075436D02*
X106580000Y-68529564D01*
X108050000Y-68075436D02*
X108050000Y-68529564D01*
%TO.C,R2*%
X117067064Y-109755000D02*
X116612936Y-109755000D01*
X117067064Y-111225000D02*
X116612936Y-111225000D01*
%TO.C,K1*%
X91923000Y-114300000D02*
X91923000Y-113284000D01*
X91923000Y-114300000D02*
X93828000Y-114300000D01*
X91288000Y-114427000D02*
X91288000Y-113792000D01*
X92304000Y-114300000D02*
X92939000Y-113284000D01*
X93828000Y-113284000D02*
X91923000Y-113284000D01*
X91288000Y-113792000D02*
X91923000Y-113792000D01*
X93828000Y-114300000D02*
X93828000Y-113284000D01*
X87630000Y-110744000D02*
X97790000Y-110744000D01*
X97790000Y-125476000D02*
X87630000Y-125476000D01*
X97790000Y-110744000D02*
X97790000Y-125476000D01*
X94488000Y-114427000D02*
X94488000Y-113792000D01*
X94488000Y-113792000D02*
X93828000Y-113792000D01*
X87630000Y-125476000D02*
X87630000Y-110744000D01*
%TO.C,J6*%
X78740000Y-106680000D02*
X78740000Y-96520000D01*
X77470000Y-106680000D02*
X85090000Y-106680000D01*
X85090000Y-106680000D02*
X85090000Y-96520000D01*
X85090000Y-96520000D02*
X77470000Y-96520000D01*
X77470000Y-96520000D02*
X77470000Y-106680000D01*
%TO.C,R17*%
X106580000Y-61725436D02*
X106580000Y-62179564D01*
X108050000Y-61725436D02*
X108050000Y-62179564D01*
%TO.C,R10*%
X105945000Y-74702936D02*
X105945000Y-75157064D01*
X107415000Y-74702936D02*
X107415000Y-75157064D01*
%TO.C,JP3*%
X105775000Y-119250000D02*
X105775000Y-122050000D01*
X103775000Y-122050000D02*
X103775000Y-119250000D01*
X103775000Y-119250000D02*
X105775000Y-119250000D01*
X105775000Y-122050000D02*
X103775000Y-122050000D01*
%TO.C,U2*%
X120650000Y-117495000D02*
X118700000Y-117495000D01*
X120650000Y-112375000D02*
X122600000Y-112375000D01*
X120650000Y-112375000D02*
X118700000Y-112375000D01*
X120650000Y-117495000D02*
X124100000Y-117495000D01*
%TO.C,JP10*%
X109725000Y-73930000D02*
X112525000Y-73930000D01*
X112525000Y-73930000D02*
X112525000Y-75930000D01*
X109725000Y-75930000D02*
X109725000Y-73930000D01*
X112525000Y-75930000D02*
X109725000Y-75930000D01*
%TO.C,R8*%
X92482936Y-76935000D02*
X92937064Y-76935000D01*
X92482936Y-75465000D02*
X92937064Y-75465000D01*
%TO.C,U4*%
X99330000Y-77410000D02*
X97680000Y-77410000D01*
X97680000Y-77410000D02*
X97680000Y-82610000D01*
X102980000Y-77410000D02*
X101330000Y-77410000D01*
X102980000Y-82610000D02*
X102980000Y-77410000D01*
X97680000Y-82610000D02*
X102980000Y-82610000D01*
X99330000Y-77410000D02*
G75*
G03*
X101330000Y-77410000I1000000J0D01*
G01*
%TO.C,Q10*%
X115570000Y-75220000D02*
X117245000Y-75220000D01*
X115570000Y-72100000D02*
X116220000Y-72100000D01*
X115570000Y-72100000D02*
X114920000Y-72100000D01*
X115570000Y-75220000D02*
X114920000Y-75220000D01*
%TO.C,J4*%
X77470000Y-116840000D02*
X77470000Y-127000000D01*
X77470000Y-127000000D02*
X85090000Y-127000000D01*
X85090000Y-127000000D02*
X85090000Y-116840000D01*
X85090000Y-116840000D02*
X77470000Y-116840000D01*
X78740000Y-127000000D02*
X78740000Y-116840000D01*
%TO.C,R6*%
X105945000Y-81052936D02*
X105945000Y-81507064D01*
X107415000Y-81052936D02*
X107415000Y-81507064D01*
%TO.C,Q2*%
X111470000Y-119380000D02*
X111470000Y-118730000D01*
X111470000Y-119380000D02*
X111470000Y-121055000D01*
X114590000Y-119380000D02*
X114590000Y-118730000D01*
X114590000Y-119380000D02*
X114590000Y-120030000D01*
%TO.C,J7*%
X85090000Y-86360000D02*
X77470000Y-86360000D01*
X77470000Y-86360000D02*
X77470000Y-96520000D01*
X77470000Y-96520000D02*
X85090000Y-96520000D01*
X85090000Y-96520000D02*
X85090000Y-86360000D01*
X78740000Y-96520000D02*
X78740000Y-86360000D01*
%TO.C,JP1*%
X94110000Y-114570000D02*
X94110000Y-116570000D01*
X94110000Y-116570000D02*
X91310000Y-116570000D01*
X91310000Y-114570000D02*
X94110000Y-114570000D01*
X91310000Y-116570000D02*
X91310000Y-114570000D01*
%TO.C,JP4*%
X106410000Y-109350000D02*
X104410000Y-109350000D01*
X106410000Y-106550000D02*
X106410000Y-109350000D01*
X104410000Y-106550000D02*
X106410000Y-106550000D01*
X104410000Y-109350000D02*
X104410000Y-106550000D01*
%TO.C,JP2*%
X93710000Y-127130000D02*
X91710000Y-127130000D01*
X93710000Y-124330000D02*
X93710000Y-127130000D01*
X91710000Y-124330000D02*
X93710000Y-124330000D01*
X91710000Y-127130000D02*
X91710000Y-124330000D01*
%TO.C,J1*%
X116840000Y-135890000D02*
X116840000Y-128270000D01*
X116840000Y-134620000D02*
X106680000Y-134620000D01*
X116840000Y-128270000D02*
X106680000Y-128270000D01*
X106680000Y-135890000D02*
X116840000Y-135890000D01*
X106680000Y-128270000D02*
X106680000Y-135890000D01*
%TO.C,Q6*%
X114590000Y-99060000D02*
X114590000Y-99710000D01*
X111470000Y-99060000D02*
X111470000Y-98410000D01*
X111470000Y-99060000D02*
X111470000Y-100735000D01*
X114590000Y-99060000D02*
X114590000Y-98410000D01*
%TO.C,JP7*%
X103760000Y-101730000D02*
X103760000Y-98930000D01*
X105760000Y-101730000D02*
X103760000Y-101730000D01*
X105760000Y-98930000D02*
X105760000Y-101730000D01*
X103760000Y-98930000D02*
X105760000Y-98930000D01*
%TO.C,R13*%
X113257064Y-67210000D02*
X112802936Y-67210000D01*
X113257064Y-68680000D02*
X112802936Y-68680000D01*
%TO.C,JP5*%
X94110000Y-94250000D02*
X94110000Y-96250000D01*
X91310000Y-96250000D02*
X91310000Y-94250000D01*
X91310000Y-94250000D02*
X94110000Y-94250000D01*
X94110000Y-96250000D02*
X91310000Y-96250000D01*
%TO.C,Q7*%
X110530000Y-95035000D02*
X110530000Y-90394000D01*
X110530000Y-90394000D02*
X100290000Y-90394000D01*
X110530000Y-93525000D02*
X100290000Y-93525000D01*
X103559000Y-95035000D02*
X103559000Y-93525000D01*
X100290000Y-95035000D02*
X100290000Y-90394000D01*
X110530000Y-95035000D02*
X100290000Y-95035000D01*
X107260000Y-95035000D02*
X107260000Y-93525000D01*
%TO.C,JP8*%
X112525000Y-85995000D02*
X112525000Y-87995000D01*
X109725000Y-85995000D02*
X112525000Y-85995000D01*
X112525000Y-87995000D02*
X109725000Y-87995000D01*
X109725000Y-87995000D02*
X109725000Y-85995000D01*
%TD*%
M02*
