%TF.GenerationSoftware,KiCad,Pcbnew,6.0.6*%
%TF.CreationDate,2022-09-05T11:32:39-04:00*%
%TF.ProjectId,mpio8,6d70696f-382e-46b6-9963-61645f706362,rev?*%
%TF.SameCoordinates,Original*%
%TF.FileFunction,Copper,L1,Top*%
%TF.FilePolarity,Positive*%
%FSLAX46Y46*%
G04 Gerber Fmt 4.6, Leading zero omitted, Abs format (unit mm)*
G04 Created by KiCad (PCBNEW 6.0.6) date 2022-09-05 11:32:39*
%MOMM*%
%LPD*%
G01*
G04 APERTURE LIST*
G04 Aperture macros list*
%AMRoundRect*
0 Rectangle with rounded corners*
0 $1 Rounding radius*
0 $2 $3 $4 $5 $6 $7 $8 $9 X,Y pos of 4 corners*
0 Add a 4 corners polygon primitive as box body*
4,1,4,$2,$3,$4,$5,$6,$7,$8,$9,$2,$3,0*
0 Add four circle primitives for the rounded corners*
1,1,$1+$1,$2,$3*
1,1,$1+$1,$4,$5*
1,1,$1+$1,$6,$7*
1,1,$1+$1,$8,$9*
0 Add four rect primitives between the rounded corners*
20,1,$1+$1,$2,$3,$4,$5,0*
20,1,$1+$1,$4,$5,$6,$7,0*
20,1,$1+$1,$6,$7,$8,$9,0*
20,1,$1+$1,$8,$9,$2,$3,0*%
G04 Aperture macros list end*
%TA.AperFunction,SMDPad,CuDef*%
%ADD10R,3.300000X1.700000*%
%TD*%
%TA.AperFunction,SMDPad,CuDef*%
%ADD11RoundRect,0.250000X-0.325000X-0.650000X0.325000X-0.650000X0.325000X0.650000X-0.325000X0.650000X0*%
%TD*%
%TA.AperFunction,SMDPad,CuDef*%
%ADD12RoundRect,0.250000X-0.250000X-0.475000X0.250000X-0.475000X0.250000X0.475000X-0.250000X0.475000X0*%
%TD*%
%TA.AperFunction,SMDPad,CuDef*%
%ADD13RoundRect,0.250000X0.250000X0.475000X-0.250000X0.475000X-0.250000X-0.475000X0.250000X-0.475000X0*%
%TD*%
%TA.AperFunction,SMDPad,CuDef*%
%ADD14RoundRect,0.250000X-0.262500X-0.450000X0.262500X-0.450000X0.262500X0.450000X-0.262500X0.450000X0*%
%TD*%
%TA.AperFunction,ComponentPad*%
%ADD15R,1.800000X1.800000*%
%TD*%
%TA.AperFunction,ComponentPad*%
%ADD16C,1.800000*%
%TD*%
%TA.AperFunction,SMDPad,CuDef*%
%ADD17R,1.500000X1.000000*%
%TD*%
%TA.AperFunction,SMDPad,CuDef*%
%ADD18RoundRect,0.250000X-0.450000X0.262500X-0.450000X-0.262500X0.450000X-0.262500X0.450000X0.262500X0*%
%TD*%
%TA.AperFunction,SMDPad,CuDef*%
%ADD19RoundRect,0.250000X0.450000X-0.262500X0.450000X0.262500X-0.450000X0.262500X-0.450000X-0.262500X0*%
%TD*%
%TA.AperFunction,ComponentPad*%
%ADD20R,1.350000X1.350000*%
%TD*%
%TA.AperFunction,ComponentPad*%
%ADD21O,1.350000X1.350000*%
%TD*%
%TA.AperFunction,ComponentPad*%
%ADD22C,5.600000*%
%TD*%
%TA.AperFunction,ComponentPad*%
%ADD23R,1.600000X1.600000*%
%TD*%
%TA.AperFunction,ComponentPad*%
%ADD24C,1.600000*%
%TD*%
%TA.AperFunction,ComponentPad*%
%ADD25R,1.700000X1.700000*%
%TD*%
%TA.AperFunction,ComponentPad*%
%ADD26O,1.700000X1.700000*%
%TD*%
%TA.AperFunction,SMDPad,CuDef*%
%ADD27RoundRect,0.250000X-0.475000X0.250000X-0.475000X-0.250000X0.475000X-0.250000X0.475000X0.250000X0*%
%TD*%
%TA.AperFunction,SMDPad,CuDef*%
%ADD28RoundRect,0.150000X0.150000X-0.875000X0.150000X0.875000X-0.150000X0.875000X-0.150000X-0.875000X0*%
%TD*%
%TA.AperFunction,SMDPad,CuDef*%
%ADD29RoundRect,0.250000X0.262500X0.450000X-0.262500X0.450000X-0.262500X-0.450000X0.262500X-0.450000X0*%
%TD*%
%TA.AperFunction,ComponentPad*%
%ADD30R,3.000000X3.000000*%
%TD*%
%TA.AperFunction,ComponentPad*%
%ADD31C,3.000000*%
%TD*%
%TA.AperFunction,ComponentPad*%
%ADD32O,2.300000X1.600000*%
%TD*%
%TA.AperFunction,ComponentPad*%
%ADD33O,1.600000X1.600000*%
%TD*%
%TA.AperFunction,SMDPad,CuDef*%
%ADD34RoundRect,0.150000X-0.150000X0.587500X-0.150000X-0.587500X0.150000X-0.587500X0.150000X0.587500X0*%
%TD*%
%TA.AperFunction,SMDPad,CuDef*%
%ADD35RoundRect,0.150000X0.825000X0.150000X-0.825000X0.150000X-0.825000X-0.150000X0.825000X-0.150000X0*%
%TD*%
%TA.AperFunction,ComponentPad*%
%ADD36R,1.905000X2.000000*%
%TD*%
%TA.AperFunction,ComponentPad*%
%ADD37O,1.905000X2.000000*%
%TD*%
%TA.AperFunction,SMDPad,CuDef*%
%ADD38RoundRect,0.150000X0.587500X0.150000X-0.587500X0.150000X-0.587500X-0.150000X0.587500X-0.150000X0*%
%TD*%
%TA.AperFunction,SMDPad,CuDef*%
%ADD39R,1.000000X1.500000*%
%TD*%
%TA.AperFunction,ComponentPad*%
%ADD40RoundRect,0.250000X-0.350000X-0.625000X0.350000X-0.625000X0.350000X0.625000X-0.350000X0.625000X0*%
%TD*%
%TA.AperFunction,ComponentPad*%
%ADD41O,1.200000X1.750000*%
%TD*%
%TA.AperFunction,SMDPad,CuDef*%
%ADD42RoundRect,0.150000X0.150000X-0.587500X0.150000X0.587500X-0.150000X0.587500X-0.150000X-0.587500X0*%
%TD*%
%TA.AperFunction,ViaPad*%
%ADD43C,0.800000*%
%TD*%
%TA.AperFunction,Conductor*%
%ADD44C,0.635000*%
%TD*%
%TA.AperFunction,Conductor*%
%ADD45C,0.508000*%
%TD*%
%TA.AperFunction,Conductor*%
%ADD46C,0.254000*%
%TD*%
%TA.AperFunction,Conductor*%
%ADD47C,0.889000*%
%TD*%
G04 APERTURE END LIST*
D10*
%TO.P,D4,1,K*%
%TO.N,+5V*%
X108160000Y-104140000D03*
%TO.P,D4,2,A*%
%TO.N,Net-(D4-Pad2)*%
X102660000Y-104140000D03*
%TD*%
%TO.P,D3,1,K*%
%TO.N,+5V*%
X89960000Y-88900000D03*
%TO.P,D3,2,A*%
%TO.N,Net-(D3-Pad2)*%
X95460000Y-88900000D03*
%TD*%
%TO.P,D2,1,K*%
%TO.N,+5V*%
X108160000Y-124460000D03*
%TO.P,D2,2,A*%
%TO.N,Net-(D2-Pad2)*%
X102660000Y-124460000D03*
%TD*%
%TO.P,D1,1,K*%
%TO.N,+5V*%
X89960000Y-109220000D03*
%TO.P,D1,2,A*%
%TO.N,Net-(D1-Pad2)*%
X95460000Y-109220000D03*
%TD*%
D11*
%TO.P,C3,1*%
%TO.N,+5V*%
X121080000Y-110490000D03*
%TO.P,C3,2*%
%TO.N,GND*%
X124030000Y-110490000D03*
%TD*%
D12*
%TO.P,C6,1*%
%TO.N,VCC*%
X105095000Y-84455000D03*
%TO.P,C6,2*%
%TO.N,GND*%
X106995000Y-84455000D03*
%TD*%
D13*
%TO.P,C5,2*%
%TO.N,GND*%
X108270000Y-65405000D03*
%TO.P,C5,1*%
%TO.N,VCC*%
X110170000Y-65405000D03*
%TD*%
D11*
%TO.P,C4,1*%
%TO.N,+5V*%
X117270000Y-91440000D03*
%TO.P,C4,2*%
%TO.N,GND*%
X120220000Y-91440000D03*
%TD*%
D14*
%TO.P,R21,1*%
%TO.N,Net-(R21-Pad1)*%
X89257500Y-81915000D03*
%TO.P,R21,2*%
%TO.N,VCC*%
X91082500Y-81915000D03*
%TD*%
D15*
%TO.P,D5,1,K*%
%TO.N,GND*%
X85725000Y-84455000D03*
D16*
%TO.P,D5,2,A*%
%TO.N,Net-(R21-Pad1)*%
X85725000Y-81915000D03*
%TD*%
D17*
%TO.P,JP13,1,A*%
%TO.N,+5V*%
X105410000Y-133335000D03*
%TO.P,JP13,2,B*%
%TO.N,VCC*%
X105410000Y-134635000D03*
%TD*%
D18*
%TO.P,R20,1*%
%TO.N,GND*%
X121920000Y-86717500D03*
%TO.P,R20,2*%
%TO.N,Net-(U1-Pad2)*%
X121920000Y-88542500D03*
%TD*%
D19*
%TO.P,R19,1*%
%TO.N,GND*%
X121920000Y-84732500D03*
%TO.P,R19,2*%
%TO.N,Net-(U1-Pad1)*%
X121920000Y-82907500D03*
%TD*%
D20*
%TO.P,JP12,1,A*%
%TO.N,VCC*%
X117475000Y-87630000D03*
D21*
%TO.P,JP12,2,B*%
%TO.N,Net-(U1-Pad2)*%
X119475000Y-87630000D03*
%TD*%
D20*
%TO.P,JP11,1,A*%
%TO.N,VCC*%
X117475000Y-83820000D03*
D21*
%TO.P,JP11,2,B*%
%TO.N,Net-(U1-Pad1)*%
X119475000Y-83820000D03*
%TD*%
D22*
%TO.P,H3,1,1*%
%TO.N,GND*%
X83820000Y-132080000D03*
%TD*%
D23*
%TO.P,C1,1*%
%TO.N,+5V*%
X117592349Y-104775000D03*
D24*
%TO.P,C1,2*%
%TO.N,GND*%
X120092349Y-104775000D03*
%TD*%
D25*
%TO.P,J3,1,Pin_1*%
%TO.N,GND*%
X129540000Y-124460000D03*
D26*
%TO.P,J3,2,Pin_2*%
%TO.N,VCC*%
X129540000Y-127000000D03*
%TO.P,J3,3,Pin_3*%
%TO.N,IO0*%
X127000000Y-124460000D03*
%TO.P,J3,4,Pin_4*%
%TO.N,IO1*%
X127000000Y-127000000D03*
%TO.P,J3,5,Pin_5*%
%TO.N,IO2*%
X124460000Y-124460000D03*
%TO.P,J3,6,Pin_6*%
%TO.N,IO3*%
X124460000Y-127000000D03*
%TO.P,J3,7,Pin_7*%
%TO.N,IO4*%
X121920000Y-124460000D03*
%TO.P,J3,8,Pin_8*%
%TO.N,IO5*%
X121920000Y-127000000D03*
%TO.P,J3,9,Pin_9*%
%TO.N,IO6*%
X119380000Y-124460000D03*
%TO.P,J3,10,Pin_10*%
%TO.N,IO7*%
X119380000Y-127000000D03*
%TD*%
D27*
%TO.P,C2,1*%
%TO.N,VCC*%
X124460000Y-77790000D03*
%TO.P,C2,2*%
%TO.N,GND*%
X124460000Y-79690000D03*
%TD*%
D28*
%TO.P,U1,1,A0*%
%TO.N,Net-(U1-Pad1)*%
X127000000Y-84660000D03*
%TO.P,U1,2,A1*%
%TO.N,Net-(U1-Pad2)*%
X128270000Y-84660000D03*
%TO.P,U1,3,A2*%
%TO.N,GND*%
X129540000Y-84660000D03*
%TO.P,U1,4,P0*%
%TO.N,IO0*%
X130810000Y-84660000D03*
%TO.P,U1,5,P1*%
%TO.N,IO1*%
X132080000Y-84660000D03*
%TO.P,U1,6,P2*%
%TO.N,IO2*%
X133350000Y-84660000D03*
%TO.P,U1,7,P3*%
%TO.N,IO3*%
X134620000Y-84660000D03*
%TO.P,U1,8,GND*%
%TO.N,GND*%
X135890000Y-84660000D03*
%TO.P,U1,9,P4*%
%TO.N,IO4*%
X135890000Y-75360000D03*
%TO.P,U1,10,P5*%
%TO.N,IO5*%
X134620000Y-75360000D03*
%TO.P,U1,11,P6*%
%TO.N,IO6*%
X133350000Y-75360000D03*
%TO.P,U1,12,P7*%
%TO.N,IO7*%
X132080000Y-75360000D03*
%TO.P,U1,13,~{INT}*%
%TO.N,unconnected-(U1-Pad13)*%
X130810000Y-75360000D03*
%TO.P,U1,14,SCL*%
%TO.N,/SCL*%
X129540000Y-75360000D03*
%TO.P,U1,15,SDA*%
%TO.N,/SDA*%
X128270000Y-75360000D03*
%TO.P,U1,16,VDD*%
%TO.N,VCC*%
X127000000Y-75360000D03*
%TD*%
D14*
%TO.P,R12,1*%
%TO.N,Net-(R12-Pad1)*%
X91797500Y-71120000D03*
%TO.P,R12,2*%
%TO.N,Net-(R12-Pad2)*%
X93622500Y-71120000D03*
%TD*%
D22*
%TO.P,H1,1,1*%
%TO.N,GND*%
X134620000Y-60960000D03*
%TD*%
D25*
%TO.P,J11,1,Pin_1*%
%TO.N,Net-(R17-Pad2)*%
X88900000Y-63500000D03*
D26*
%TO.P,J11,2,Pin_2*%
%TO.N,GND*%
X86360000Y-63500000D03*
%TO.P,J11,3,Pin_3*%
%TO.N,Net-(R18-Pad2)*%
X88900000Y-60960000D03*
%TO.P,J11,4,Pin_4*%
%TO.N,Net-(U7-Pad2)*%
X86360000Y-60960000D03*
%TD*%
D29*
%TO.P,R18,1*%
%TO.N,Net-(R18-Pad1)*%
X93622500Y-60960000D03*
%TO.P,R18,2*%
%TO.N,Net-(R18-Pad2)*%
X91797500Y-60960000D03*
%TD*%
D25*
%TO.P,J9,1,Pin_1*%
%TO.N,Net-(JP10-Pad2)*%
X88900000Y-73660000D03*
D26*
%TO.P,J9,2,Pin_2*%
%TO.N,GND*%
X86360000Y-73660000D03*
%TO.P,J9,3,Pin_3*%
%TO.N,Net-(R12-Pad1)*%
X88900000Y-71120000D03*
%TO.P,J9,4,Pin_4*%
%TO.N,Net-(U5-Pad2)*%
X86360000Y-71120000D03*
%TD*%
D30*
%TO.P,J5,1,Pin_1*%
%TO.N,/OUT1NO*%
X81280000Y-109220000D03*
D31*
%TO.P,J5,2,Pin_2*%
%TO.N,/OUT1COM*%
X81280000Y-114300000D03*
%TD*%
D32*
%TO.P,K2,1*%
%TO.N,/OUT1COM*%
X101600000Y-109220000D03*
%TO.P,K2,5*%
%TO.N,Net-(D2-Pad2)*%
X101600000Y-119380000D03*
%TO.P,K2,6*%
%TO.N,/OUT1NO*%
X101600000Y-121920000D03*
%TO.P,K2,7*%
%TO.N,unconnected-(K2-Pad7)*%
X109220000Y-121920000D03*
%TO.P,K2,8*%
%TO.N,+5V*%
X109220000Y-119380000D03*
%TO.P,K2,12*%
%TO.N,/OUT1COM*%
X109220000Y-109220000D03*
%TD*%
D29*
%TO.P,R15,1*%
%TO.N,Net-(R15-Pad1)*%
X93622500Y-66040000D03*
%TO.P,R15,2*%
%TO.N,Net-(R15-Pad2)*%
X91797500Y-66040000D03*
%TD*%
D17*
%TO.P,JP6,1,A*%
%TO.N,GND*%
X99060000Y-105425000D03*
%TO.P,JP6,2,B*%
%TO.N,/OUT2COM*%
X99060000Y-104125000D03*
%TD*%
D23*
%TO.P,U5,1*%
%TO.N,Net-(R12-Pad2)*%
X96520000Y-72390000D03*
D33*
%TO.P,U5,2*%
%TO.N,Net-(U5-Pad2)*%
X96520000Y-74930000D03*
%TO.P,U5,3*%
%TO.N,GND*%
X104140000Y-74930000D03*
%TO.P,U5,4*%
%TO.N,IO5*%
X104140000Y-72390000D03*
%TD*%
D34*
%TO.P,Q8,1,B*%
%TO.N,Net-(Q8-Pad1)*%
X113980000Y-90502500D03*
%TO.P,Q8,2,E*%
%TO.N,GND*%
X112080000Y-90502500D03*
%TO.P,Q8,3,C*%
%TO.N,Net-(D4-Pad2)*%
X113030000Y-92377500D03*
%TD*%
D35*
%TO.P,U3,1,NC*%
%TO.N,unconnected-(U3-Pad1)*%
X121855000Y-97790000D03*
%TO.P,U3,2,IN_A*%
%TO.N,IO2*%
X121855000Y-96520000D03*
%TO.P,U3,3,GND*%
%TO.N,GND*%
X121855000Y-95250000D03*
%TO.P,U3,4,IN_B*%
%TO.N,IO3*%
X121855000Y-93980000D03*
%TO.P,U3,5,OUT_B*%
%TO.N,Net-(U3-Pad5)*%
X116905000Y-93980000D03*
%TO.P,U3,6,V+*%
%TO.N,+5V*%
X116905000Y-95250000D03*
%TO.P,U3,7,OUT_A*%
%TO.N,Net-(U3-Pad7)*%
X116905000Y-96520000D03*
%TO.P,U3,8,NC*%
%TO.N,unconnected-(U3-Pad8)*%
X116905000Y-97790000D03*
%TD*%
D36*
%TO.P,Q5,1,G*%
%TO.N,Net-(U3-Pad7)*%
X90170000Y-101600000D03*
D37*
%TO.P,Q5,2,D*%
%TO.N,/OUT2NO*%
X92710000Y-101600000D03*
%TO.P,Q5,3,S*%
%TO.N,/OUT2COM*%
X95250000Y-101600000D03*
%TD*%
D18*
%TO.P,R5,1*%
%TO.N,VCC*%
X109855000Y-76915000D03*
%TO.P,R5,2*%
%TO.N,IO4*%
X109855000Y-78740000D03*
%TD*%
D38*
%TO.P,Q9,1,B*%
%TO.N,Net-(R7-Pad2)*%
X116507500Y-80960000D03*
%TO.P,Q9,2,E*%
%TO.N,GND*%
X116507500Y-79060000D03*
%TO.P,Q9,3,C*%
%TO.N,Net-(JP9-Pad1)*%
X114632500Y-80010000D03*
%TD*%
D19*
%TO.P,R1,1*%
%TO.N,IO0*%
X113030000Y-124102500D03*
%TO.P,R1,2*%
%TO.N,Net-(Q2-Pad1)*%
X113030000Y-122277500D03*
%TD*%
D23*
%TO.P,U7,1*%
%TO.N,Net-(R18-Pad1)*%
X96520000Y-59690000D03*
D33*
%TO.P,U7,2*%
%TO.N,Net-(U7-Pad2)*%
X96520000Y-62230000D03*
%TO.P,U7,3*%
%TO.N,GND*%
X104140000Y-62230000D03*
%TO.P,U7,4*%
%TO.N,IO7*%
X104140000Y-59690000D03*
%TD*%
D22*
%TO.P,H2,1,1*%
%TO.N,GND*%
X134620000Y-132080000D03*
%TD*%
D34*
%TO.P,Q4,1,B*%
%TO.N,Net-(Q4-Pad1)*%
X113980000Y-110822500D03*
%TO.P,Q4,2,E*%
%TO.N,GND*%
X112080000Y-110822500D03*
%TO.P,Q4,3,C*%
%TO.N,Net-(D2-Pad2)*%
X113030000Y-112697500D03*
%TD*%
D18*
%TO.P,R11,1*%
%TO.N,IO5*%
X119380000Y-72747500D03*
%TO.P,R11,2*%
%TO.N,Net-(R11-Pad2)*%
X119380000Y-74572500D03*
%TD*%
D36*
%TO.P,Q1,1,G*%
%TO.N,Net-(U2-Pad7)*%
X90170000Y-121920000D03*
D37*
%TO.P,Q1,2,D*%
%TO.N,/OUT0NO*%
X92710000Y-121920000D03*
%TO.P,Q1,3,S*%
%TO.N,/OUT0COM*%
X95250000Y-121920000D03*
%TD*%
D39*
%TO.P,JP9,1,A*%
%TO.N,Net-(JP9-Pad1)*%
X111790000Y-81915000D03*
%TO.P,JP9,2,B*%
%TO.N,Net-(JP9-Pad2)*%
X110490000Y-81915000D03*
%TD*%
D29*
%TO.P,R16,1*%
%TO.N,VCC*%
X113942500Y-61595000D03*
%TO.P,R16,2*%
%TO.N,IO7*%
X112117500Y-61595000D03*
%TD*%
D32*
%TO.P,K3,1*%
%TO.N,/OUT2COM*%
X96520000Y-104140000D03*
%TO.P,K3,5*%
%TO.N,Net-(D3-Pad2)*%
X96520000Y-93980000D03*
%TO.P,K3,6*%
%TO.N,/OUT2NO*%
X96520000Y-91440000D03*
%TO.P,K3,7*%
%TO.N,unconnected-(K3-Pad7)*%
X88900000Y-91440000D03*
%TO.P,K3,8*%
%TO.N,+5V*%
X88900000Y-93980000D03*
%TO.P,K3,12*%
%TO.N,/OUT2COM*%
X88900000Y-104140000D03*
%TD*%
%TO.P,K4,1*%
%TO.N,/OUT3COM*%
X101600000Y-88900000D03*
%TO.P,K4,5*%
%TO.N,Net-(D4-Pad2)*%
X101600000Y-99060000D03*
%TO.P,K4,6*%
%TO.N,/OUT3NO*%
X101600000Y-101600000D03*
%TO.P,K4,7*%
%TO.N,unconnected-(K4-Pad7)*%
X109220000Y-101600000D03*
%TO.P,K4,8*%
%TO.N,+5V*%
X109220000Y-99060000D03*
%TO.P,K4,12*%
%TO.N,/OUT3COM*%
X109220000Y-88900000D03*
%TD*%
D40*
%TO.P,J2,1,Pin_1*%
%TO.N,GND*%
X96520000Y-130810000D03*
D41*
%TO.P,J2,2,Pin_2*%
%TO.N,VCC*%
X98520000Y-130810000D03*
%TO.P,J2,3,Pin_3*%
%TO.N,/SDA*%
X100520000Y-130810000D03*
%TO.P,J2,4,Pin_4*%
%TO.N,/SCL*%
X102520000Y-130810000D03*
%TD*%
D18*
%TO.P,R9,1*%
%TO.N,VCC*%
X109855000Y-70565000D03*
%TO.P,R9,2*%
%TO.N,IO5*%
X109855000Y-72390000D03*
%TD*%
D25*
%TO.P,J10,1,Pin_1*%
%TO.N,Net-(R14-Pad2)*%
X88900000Y-68580000D03*
D26*
%TO.P,J10,2,Pin_2*%
%TO.N,GND*%
X86360000Y-68580000D03*
%TO.P,J10,3,Pin_3*%
%TO.N,Net-(R15-Pad2)*%
X88900000Y-66040000D03*
%TO.P,J10,4,Pin_4*%
%TO.N,Net-(U6-Pad2)*%
X86360000Y-66040000D03*
%TD*%
D18*
%TO.P,R7,1*%
%TO.N,IO4*%
X119380000Y-79097500D03*
%TO.P,R7,2*%
%TO.N,Net-(R7-Pad2)*%
X119380000Y-80922500D03*
%TD*%
D25*
%TO.P,J8,1,Pin_1*%
%TO.N,Net-(JP9-Pad2)*%
X88900000Y-78740000D03*
D26*
%TO.P,J8,2,Pin_2*%
%TO.N,GND*%
X86360000Y-78740000D03*
%TO.P,J8,3,Pin_3*%
%TO.N,Net-(R8-Pad1)*%
X88900000Y-76200000D03*
%TO.P,J8,4,Pin_4*%
%TO.N,Net-(U4-Pad2)*%
X86360000Y-76200000D03*
%TD*%
D36*
%TO.P,Q3,1,G*%
%TO.N,Net-(U2-Pad5)*%
X107950000Y-111760000D03*
D37*
%TO.P,Q3,2,D*%
%TO.N,/OUT1NO*%
X105410000Y-111760000D03*
%TO.P,Q3,3,S*%
%TO.N,/OUT1COM*%
X102870000Y-111760000D03*
%TD*%
D19*
%TO.P,R3,1*%
%TO.N,IO2*%
X111760000Y-105052500D03*
%TO.P,R3,2*%
%TO.N,Net-(Q6-Pad1)*%
X111760000Y-103227500D03*
%TD*%
D23*
%TO.P,U6,1*%
%TO.N,Net-(R15-Pad1)*%
X96520000Y-66040000D03*
D33*
%TO.P,U6,2*%
%TO.N,Net-(U6-Pad2)*%
X96520000Y-68580000D03*
%TO.P,U6,3*%
%TO.N,GND*%
X104140000Y-68580000D03*
%TO.P,U6,4*%
%TO.N,IO6*%
X104140000Y-66040000D03*
%TD*%
D18*
%TO.P,R4,1*%
%TO.N,IO3*%
X114300000Y-86717500D03*
%TO.P,R4,2*%
%TO.N,Net-(Q8-Pad1)*%
X114300000Y-88542500D03*
%TD*%
%TO.P,R14,1*%
%TO.N,IO6*%
X107315000Y-67390000D03*
%TO.P,R14,2*%
%TO.N,Net-(R14-Pad2)*%
X107315000Y-69215000D03*
%TD*%
D29*
%TO.P,R2,1*%
%TO.N,IO1*%
X117752500Y-110490000D03*
%TO.P,R2,2*%
%TO.N,Net-(Q4-Pad1)*%
X115927500Y-110490000D03*
%TD*%
D32*
%TO.P,K1,1*%
%TO.N,/OUT0COM*%
X96520000Y-124460000D03*
%TO.P,K1,5*%
%TO.N,Net-(D1-Pad2)*%
X96520000Y-114300000D03*
%TO.P,K1,6*%
%TO.N,/OUT0NO*%
X96520000Y-111760000D03*
%TO.P,K1,7*%
%TO.N,unconnected-(K1-Pad7)*%
X88900000Y-111760000D03*
%TO.P,K1,8*%
%TO.N,+5V*%
X88900000Y-114300000D03*
%TO.P,K1,12*%
%TO.N,/OUT0COM*%
X88900000Y-124460000D03*
%TD*%
D30*
%TO.P,J6,1,Pin_1*%
%TO.N,/OUT2NO*%
X81280000Y-99060000D03*
D31*
%TO.P,J6,2,Pin_2*%
%TO.N,/OUT2COM*%
X81280000Y-104140000D03*
%TD*%
D18*
%TO.P,R17,1*%
%TO.N,IO7*%
X107315000Y-61040000D03*
%TO.P,R17,2*%
%TO.N,Net-(R17-Pad2)*%
X107315000Y-62865000D03*
%TD*%
%TO.P,R10,1*%
%TO.N,IO5*%
X106680000Y-74017500D03*
%TO.P,R10,2*%
%TO.N,Net-(JP10-Pad2)*%
X106680000Y-75842500D03*
%TD*%
D17*
%TO.P,JP3,1,A*%
%TO.N,Net-(D2-Pad2)*%
X104775000Y-120000000D03*
%TO.P,JP3,2,B*%
%TO.N,/OUT1NO*%
X104775000Y-121300000D03*
%TD*%
D35*
%TO.P,U2,1,NC*%
%TO.N,unconnected-(U2-Pad1)*%
X123125000Y-116840000D03*
%TO.P,U2,2,IN_A*%
%TO.N,IO0*%
X123125000Y-115570000D03*
%TO.P,U2,3,GND*%
%TO.N,GND*%
X123125000Y-114300000D03*
%TO.P,U2,4,IN_B*%
%TO.N,IO1*%
X123125000Y-113030000D03*
%TO.P,U2,5,OUT_B*%
%TO.N,Net-(U2-Pad5)*%
X118175000Y-113030000D03*
%TO.P,U2,6,V+*%
%TO.N,+5V*%
X118175000Y-114300000D03*
%TO.P,U2,7,OUT_A*%
%TO.N,Net-(U2-Pad7)*%
X118175000Y-115570000D03*
%TO.P,U2,8,NC*%
%TO.N,unconnected-(U2-Pad8)*%
X118175000Y-116840000D03*
%TD*%
D39*
%TO.P,JP10,1,A*%
%TO.N,Net-(JP10-Pad1)*%
X111775000Y-74930000D03*
%TO.P,JP10,2,B*%
%TO.N,Net-(JP10-Pad2)*%
X110475000Y-74930000D03*
%TD*%
D14*
%TO.P,R8,1*%
%TO.N,Net-(R8-Pad1)*%
X91797500Y-76200000D03*
%TO.P,R8,2*%
%TO.N,Net-(R8-Pad2)*%
X93622500Y-76200000D03*
%TD*%
D23*
%TO.P,U4,1*%
%TO.N,Net-(R8-Pad2)*%
X96520000Y-78740000D03*
D33*
%TO.P,U4,2*%
%TO.N,Net-(U4-Pad2)*%
X96520000Y-81280000D03*
%TO.P,U4,3*%
%TO.N,GND*%
X104140000Y-81280000D03*
%TO.P,U4,4*%
%TO.N,IO4*%
X104140000Y-78740000D03*
%TD*%
D38*
%TO.P,Q10,1,B*%
%TO.N,Net-(R11-Pad2)*%
X116507500Y-74610000D03*
%TO.P,Q10,2,E*%
%TO.N,GND*%
X116507500Y-72710000D03*
%TO.P,Q10,3,C*%
%TO.N,Net-(JP10-Pad1)*%
X114632500Y-73660000D03*
%TD*%
D30*
%TO.P,J4,1,Pin_1*%
%TO.N,/OUT0NO*%
X81280000Y-119380000D03*
D31*
%TO.P,J4,2,Pin_2*%
%TO.N,/OUT0COM*%
X81280000Y-124460000D03*
%TD*%
D18*
%TO.P,R6,1*%
%TO.N,IO4*%
X106680000Y-80367500D03*
%TO.P,R6,2*%
%TO.N,Net-(JP9-Pad2)*%
X106680000Y-82192500D03*
%TD*%
D42*
%TO.P,Q2,1,B*%
%TO.N,Net-(Q2-Pad1)*%
X112080000Y-120317500D03*
%TO.P,Q2,2,E*%
%TO.N,GND*%
X113980000Y-120317500D03*
%TO.P,Q2,3,C*%
%TO.N,Net-(D1-Pad2)*%
X113030000Y-118442500D03*
%TD*%
D30*
%TO.P,J7,1,Pin_1*%
%TO.N,/OUT3NO*%
X81280000Y-88900000D03*
D31*
%TO.P,J7,2,Pin_2*%
%TO.N,/OUT3COM*%
X81280000Y-93980000D03*
%TD*%
D39*
%TO.P,JP1,1,A*%
%TO.N,Net-(D1-Pad2)*%
X93360000Y-115570000D03*
%TO.P,JP1,2,B*%
%TO.N,/OUT0NO*%
X92060000Y-115570000D03*
%TD*%
D17*
%TO.P,JP4,1,A*%
%TO.N,GND*%
X105410000Y-107300000D03*
%TO.P,JP4,2,B*%
%TO.N,/OUT1COM*%
X105410000Y-108600000D03*
%TD*%
%TO.P,JP2,1,A*%
%TO.N,GND*%
X92710000Y-126380000D03*
%TO.P,JP2,2,B*%
%TO.N,/OUT0COM*%
X92710000Y-125080000D03*
%TD*%
D30*
%TO.P,J1,1,Pin_1*%
%TO.N,+5V*%
X109220000Y-132080000D03*
D31*
%TO.P,J1,2,Pin_2*%
%TO.N,GND*%
X114300000Y-132080000D03*
%TD*%
D42*
%TO.P,Q6,1,B*%
%TO.N,Net-(Q6-Pad1)*%
X112080000Y-99997500D03*
%TO.P,Q6,2,E*%
%TO.N,GND*%
X113980000Y-99997500D03*
%TO.P,Q6,3,C*%
%TO.N,Net-(D3-Pad2)*%
X113030000Y-98122500D03*
%TD*%
D17*
%TO.P,JP7,1,A*%
%TO.N,Net-(D4-Pad2)*%
X104760000Y-99680000D03*
%TO.P,JP7,2,B*%
%TO.N,/OUT3NO*%
X104760000Y-100980000D03*
%TD*%
D29*
%TO.P,R13,1*%
%TO.N,VCC*%
X113942500Y-67945000D03*
%TO.P,R13,2*%
%TO.N,IO6*%
X112117500Y-67945000D03*
%TD*%
D39*
%TO.P,JP5,1,A*%
%TO.N,Net-(D3-Pad2)*%
X93360000Y-95250000D03*
%TO.P,JP5,2,B*%
%TO.N,/OUT2NO*%
X92060000Y-95250000D03*
%TD*%
D36*
%TO.P,Q7,1,G*%
%TO.N,Net-(U3-Pad5)*%
X107950000Y-91765000D03*
D37*
%TO.P,Q7,2,D*%
%TO.N,/OUT3NO*%
X105410000Y-91765000D03*
%TO.P,Q7,3,S*%
%TO.N,/OUT3COM*%
X102870000Y-91765000D03*
%TD*%
D39*
%TO.P,JP8,1,A*%
%TO.N,GND*%
X111775000Y-86995000D03*
%TO.P,JP8,2,B*%
%TO.N,/OUT3COM*%
X110475000Y-86995000D03*
%TD*%
D43*
%TO.N,+5V*%
X109220000Y-127000000D03*
%TO.N,GND*%
X106680000Y-65405000D03*
%TO.N,VCC*%
X96520000Y-84455000D03*
%TO.N,IO3*%
X124460000Y-95250000D03*
%TO.N,Net-(U1-Pad1)*%
X128270000Y-90170000D03*
%TO.N,Net-(U1-Pad2)*%
X129540000Y-88900000D03*
%TO.N,GND*%
X129540000Y-83185000D03*
X121920000Y-85725000D03*
%TO.N,Net-(U2-Pad5)*%
X114300000Y-113030000D03*
%TO.N,IO6*%
X123825000Y-71120000D03*
%TO.N,IO7*%
X131445000Y-73660000D03*
%TO.N,IO6*%
X128905000Y-72390000D03*
%TO.N,GND*%
X125730000Y-80010000D03*
%TO.N,IO7*%
X123825000Y-90170000D03*
%TO.N,IO6*%
X123825000Y-88900000D03*
%TO.N,GND*%
X135255000Y-87630000D03*
%TO.N,/SDA*%
X128270000Y-77470000D03*
%TO.N,/SCL*%
X129540000Y-76835000D03*
%TO.N,IO4*%
X127635000Y-102235000D03*
%TO.N,IO5*%
X128270000Y-100965000D03*
%TO.N,IO2*%
X133350000Y-94615000D03*
%TO.N,IO3*%
X134620000Y-93980000D03*
%TO.N,IO1*%
X131445000Y-107315000D03*
%TO.N,+5V*%
X116205000Y-124460000D03*
%TO.N,VCC*%
X122555000Y-78013500D03*
%TO.N,IO0*%
X130175000Y-114935000D03*
%TO.N,+5V*%
X116205000Y-114300000D03*
X86360000Y-117475000D03*
X84455000Y-97155000D03*
X114935000Y-95250000D03*
%TO.N,GND*%
X113030000Y-120650000D03*
X111760000Y-88900000D03*
X114935000Y-72481500D03*
X114935000Y-78831500D03*
X120650000Y-114300000D03*
X112395000Y-109220000D03*
X101600000Y-106680000D03*
X92710000Y-128270000D03*
X118745000Y-99060000D03*
%TO.N,VCC*%
X111760000Y-65405000D03*
X111760000Y-70485000D03*
X111760000Y-76835000D03*
%TO.N,Net-(D2-Pad2)*%
X111125000Y-113665000D03*
%TO.N,IO0*%
X125095000Y-114935000D03*
%TO.N,IO1*%
X124460000Y-107315000D03*
%TO.N,IO2*%
X124460000Y-97790000D03*
%TO.N,Net-(D4-Pad2)*%
X110490000Y-92710000D03*
X104760000Y-98440000D03*
%TO.N,IO7*%
X112395000Y-64135000D03*
%TO.N,Net-(U2-Pad7)*%
X113665000Y-116205000D03*
%TO.N,Net-(U3-Pad7)*%
X113665000Y-96520000D03*
X109855000Y-97155000D03*
X97155000Y-99695000D03*
%TD*%
D44*
%TO.N,+5V*%
X110700000Y-106680000D02*
X108160000Y-104140000D01*
D45*
X107315000Y-102870000D02*
X108160000Y-103715000D01*
X108160000Y-103715000D02*
X108160000Y-104140000D01*
D44*
X117592349Y-104775000D02*
X115687349Y-106680000D01*
X115687349Y-106680000D02*
X110700000Y-106680000D01*
X116905000Y-95250000D02*
X118110000Y-95250000D01*
X118397500Y-92567500D02*
X117270000Y-91440000D01*
X118110000Y-95250000D02*
X118397500Y-94962500D01*
X118397500Y-94962500D02*
X118397500Y-92567500D01*
%TO.N,GND*%
X120015000Y-95250000D02*
X121855000Y-95250000D01*
X120015000Y-95250000D02*
X120015000Y-91645000D01*
X119380000Y-95250000D02*
X120015000Y-95250000D01*
X120015000Y-91645000D02*
X120220000Y-91440000D01*
D46*
%TO.N,IO3*%
X116205000Y-88900000D02*
X116840000Y-89535000D01*
X121285000Y-89535000D02*
X121920000Y-90170000D01*
X115292500Y-86717500D02*
X116205000Y-87630000D01*
X114300000Y-86717500D02*
X115292500Y-86717500D01*
X116205000Y-87630000D02*
X116205000Y-88900000D01*
X116840000Y-89535000D02*
X121285000Y-89535000D01*
X121920000Y-90170000D02*
X121920000Y-93915000D01*
X121920000Y-93915000D02*
X121855000Y-93980000D01*
%TO.N,Net-(Q8-Pad1)*%
X113980000Y-90502500D02*
X113980000Y-88862500D01*
X113980000Y-88862500D02*
X114300000Y-88542500D01*
%TO.N,IO1*%
X122555000Y-107950000D02*
X120292500Y-107950000D01*
X120292500Y-107950000D02*
X117752500Y-110490000D01*
X122555000Y-111760000D02*
X122555000Y-107950000D01*
X123125000Y-113030000D02*
X123125000Y-112330000D01*
X122555000Y-107950000D02*
X123190000Y-107315000D01*
X123125000Y-112330000D02*
X122555000Y-111760000D01*
X123190000Y-107315000D02*
X124460000Y-107315000D01*
D44*
%TO.N,GND*%
X123125000Y-114300000D02*
X123773988Y-114300000D01*
X123773988Y-114300000D02*
X125095000Y-112978988D01*
X125095000Y-112978988D02*
X125095000Y-111555000D01*
X125095000Y-111555000D02*
X124030000Y-110490000D01*
%TO.N,+5V*%
X118175000Y-114300000D02*
X118823988Y-114300000D01*
X118823988Y-114300000D02*
X121080000Y-112043988D01*
X121080000Y-112043988D02*
X121080000Y-110490000D01*
D46*
%TO.N,GND*%
X106995000Y-84455000D02*
X110490000Y-84455000D01*
X110490000Y-84455000D02*
X111775000Y-85740000D01*
X111775000Y-85740000D02*
X111775000Y-86995000D01*
%TO.N,VCC*%
X96520000Y-84455000D02*
X105095000Y-84455000D01*
%TO.N,GND*%
X108270000Y-65405000D02*
X106680000Y-65405000D01*
%TO.N,VCC*%
X110170000Y-65405000D02*
X111760000Y-65405000D01*
%TO.N,IO2*%
X121855000Y-96520000D02*
X120650000Y-96520000D01*
X120650000Y-96520000D02*
X120015000Y-97155000D01*
X120015000Y-99695000D02*
X118110000Y-101600000D01*
X120015000Y-97155000D02*
X120015000Y-99695000D01*
X118110000Y-101600000D02*
X117475000Y-101600000D01*
X117475000Y-101600000D02*
X114022500Y-105052500D01*
X114022500Y-105052500D02*
X111760000Y-105052500D01*
%TO.N,VCC*%
X93622500Y-84455000D02*
X96520000Y-84455000D01*
X91082500Y-81915000D02*
X93622500Y-84455000D01*
%TO.N,Net-(R21-Pad1)*%
X85725000Y-81915000D02*
X89257500Y-81915000D01*
%TO.N,+5V*%
X105410000Y-133335000D02*
X105410000Y-132715000D01*
X105410000Y-132715000D02*
X106045000Y-132080000D01*
X106045000Y-132080000D02*
X109220000Y-132080000D01*
%TO.N,IO3*%
X123190000Y-93980000D02*
X124460000Y-95250000D01*
X121855000Y-93980000D02*
X123190000Y-93980000D01*
%TO.N,Net-(U1-Pad1)*%
X127000000Y-84660000D02*
X127000000Y-88900000D01*
X127000000Y-88900000D02*
X128270000Y-90170000D01*
%TO.N,Net-(U1-Pad2)*%
X128270000Y-84660000D02*
X128270000Y-87630000D01*
X128270000Y-87630000D02*
X129540000Y-88900000D01*
%TO.N,GND*%
X129540000Y-84660000D02*
X129540000Y-83185000D01*
%TO.N,Net-(U1-Pad2)*%
X119475000Y-87630000D02*
X121007500Y-87630000D01*
X121007500Y-87630000D02*
X121920000Y-88542500D01*
%TO.N,Net-(U1-Pad1)*%
X119475000Y-83820000D02*
X121007500Y-83820000D01*
X121007500Y-83820000D02*
X121920000Y-82907500D01*
%TO.N,GND*%
X121920000Y-86717500D02*
X121920000Y-84732500D01*
%TO.N,IO0*%
X130810000Y-84660000D02*
X130810000Y-90487500D01*
X130810000Y-90487500D02*
X130175000Y-91122500D01*
X130175000Y-91122500D02*
X130175000Y-114935000D01*
D45*
%TO.N,Net-(U2-Pad5)*%
X114300000Y-113030000D02*
X118175000Y-113030000D01*
D46*
%TO.N,VCC*%
X111760000Y-76835000D02*
X121376500Y-76835000D01*
X121376500Y-76835000D02*
X122555000Y-78013500D01*
%TO.N,IO6*%
X123190000Y-70485000D02*
X123825000Y-71120000D01*
X114657500Y-70485000D02*
X123190000Y-70485000D01*
%TO.N,IO7*%
X132080000Y-75360000D02*
X132080000Y-74295000D01*
X132080000Y-74295000D02*
X131445000Y-73660000D01*
%TO.N,IO5*%
X134620000Y-72390000D02*
X133350000Y-71120000D01*
X134620000Y-73025000D02*
X134620000Y-72390000D01*
X119380000Y-72747500D02*
X123467500Y-72747500D01*
X133350000Y-71120000D02*
X125095000Y-71120000D01*
X125095000Y-71120000D02*
X123467500Y-72747500D01*
%TO.N,IO6*%
X132715000Y-72390000D02*
X128905000Y-72390000D01*
%TO.N,GND*%
X125410000Y-79690000D02*
X125730000Y-80010000D01*
X124460000Y-79690000D02*
X125410000Y-79690000D01*
%TO.N,IO6*%
X133350000Y-75360000D02*
X133350000Y-73025000D01*
X133350000Y-73025000D02*
X132715000Y-72390000D01*
X124460000Y-89535000D02*
X123825000Y-88900000D01*
%TO.N,IO7*%
X119380000Y-127000000D02*
X118110000Y-125730000D01*
X126365000Y-121285000D02*
X128270000Y-119380000D01*
X118110000Y-125730000D02*
X118110000Y-123825000D01*
X118110000Y-123825000D02*
X120650000Y-121285000D01*
X120650000Y-121285000D02*
X126365000Y-121285000D01*
X128270000Y-119380000D02*
X128270000Y-106045000D01*
X128270000Y-106045000D02*
X125730000Y-103505000D01*
X125730000Y-103505000D02*
X125730000Y-92075000D01*
X125730000Y-92075000D02*
X123825000Y-90170000D01*
%TO.N,IO6*%
X119380000Y-124460000D02*
X121920000Y-121920000D01*
X126365000Y-102870000D02*
X126365000Y-91440000D01*
X121920000Y-121920000D02*
X127000000Y-121920000D01*
X128905000Y-105410000D02*
X126365000Y-102870000D01*
X127000000Y-121920000D02*
X128905000Y-120015000D01*
X128905000Y-120015000D02*
X128905000Y-105410000D01*
X126365000Y-91440000D02*
X124460000Y-89535000D01*
%TO.N,IO5*%
X128270000Y-91440000D02*
X128270000Y-100965000D01*
%TO.N,IO4*%
X127000000Y-91122500D02*
X127000000Y-101600000D01*
X125095000Y-82550000D02*
X125095000Y-89217500D01*
%TO.N,IO5*%
X125730000Y-83185000D02*
X125730000Y-88900000D01*
%TO.N,GND*%
X135890000Y-86995000D02*
X135255000Y-87630000D01*
X135890000Y-84660000D02*
X135890000Y-86995000D01*
%TO.N,IO3*%
X133985000Y-86995000D02*
X134620000Y-86360000D01*
X134620000Y-91440000D02*
X133985000Y-90805000D01*
X134620000Y-93980000D02*
X134620000Y-91440000D01*
X133985000Y-90805000D02*
X133985000Y-86995000D01*
X134620000Y-86360000D02*
X134620000Y-84660000D01*
%TO.N,/SDA*%
X128270000Y-75360000D02*
X128270000Y-77470000D01*
%TO.N,/SCL*%
X129540000Y-75360000D02*
X129540000Y-76835000D01*
%TO.N,IO4*%
X121285000Y-78740000D02*
X127000000Y-78740000D01*
X125095000Y-82550000D02*
X127000000Y-80645000D01*
X127000000Y-78740000D02*
X134620000Y-78740000D01*
X127635000Y-102235000D02*
X127000000Y-101600000D01*
X127000000Y-80645000D02*
X127000000Y-78740000D01*
X127000000Y-91122500D02*
X125095000Y-89217500D01*
%TO.N,IO5*%
X137795000Y-79375000D02*
X137795000Y-73025000D01*
X127635000Y-81280000D02*
X135890000Y-81280000D01*
X135255000Y-72390000D02*
X134620000Y-73025000D01*
X137795000Y-73025000D02*
X137160000Y-72390000D01*
X134620000Y-73025000D02*
X134620000Y-75360000D01*
X137160000Y-72390000D02*
X135255000Y-72390000D01*
X128270000Y-91440000D02*
X125730000Y-88900000D01*
X135890000Y-81280000D02*
X137795000Y-79375000D01*
X125730000Y-83185000D02*
X127635000Y-81280000D01*
%TO.N,IO1*%
X132080000Y-84660000D02*
X132080000Y-90170000D01*
X132080000Y-90170000D02*
X130810000Y-91440000D01*
X130810000Y-91440000D02*
X130810000Y-106680000D01*
X130810000Y-106680000D02*
X131445000Y-107315000D01*
%TO.N,IO2*%
X133350000Y-94615000D02*
X133350000Y-84660000D01*
%TO.N,IO1*%
X131445000Y-113030000D02*
X131445000Y-107315000D01*
D44*
%TO.N,+5V*%
X114935000Y-125730000D02*
X116205000Y-124460000D01*
X110490000Y-125730000D02*
X114935000Y-125730000D01*
D46*
%TO.N,VCC*%
X124460000Y-77790000D02*
X122778500Y-77790000D01*
X122778500Y-77790000D02*
X122555000Y-78013500D01*
X127000000Y-75360000D02*
X125300000Y-75360000D01*
X125300000Y-75360000D02*
X124460000Y-76200000D01*
X124460000Y-76200000D02*
X124460000Y-77790000D01*
%TO.N,IO4*%
X134620000Y-78740000D02*
X135890000Y-77470000D01*
X135890000Y-77470000D02*
X135890000Y-75360000D01*
X120927500Y-79097500D02*
X121285000Y-78740000D01*
X119380000Y-79097500D02*
X120927500Y-79097500D01*
%TO.N,IO1*%
X128270000Y-125730000D02*
X128270000Y-123190000D01*
X131445000Y-120015000D02*
X131445000Y-113030000D01*
X127000000Y-127000000D02*
X128270000Y-125730000D01*
X128270000Y-123190000D02*
X131445000Y-120015000D01*
%TO.N,IO0*%
X127000000Y-123190000D02*
X130175000Y-120015000D01*
X127000000Y-124460000D02*
X127000000Y-123190000D01*
X130175000Y-120015000D02*
X130175000Y-114935000D01*
%TO.N,VCC*%
X98520000Y-130810000D02*
X98520000Y-133445000D01*
X129540000Y-128270000D02*
X129540000Y-127000000D01*
X98520000Y-133445000D02*
X99695000Y-134620000D01*
X128905000Y-128905000D02*
X129540000Y-128270000D01*
X99695000Y-134620000D02*
X110490000Y-134620000D01*
X110490000Y-134620000D02*
X111760000Y-133350000D01*
X111760000Y-133350000D02*
X111760000Y-130175000D01*
X111760000Y-130175000D02*
X113030000Y-128905000D01*
X113030000Y-128905000D02*
X128905000Y-128905000D01*
D44*
%TO.N,+5V*%
X109220000Y-132080000D02*
X109220000Y-127000000D01*
X109220000Y-127000000D02*
X110490000Y-125730000D01*
X84455000Y-97155000D02*
X87630000Y-97155000D01*
D45*
X86995000Y-109855000D02*
X86995000Y-113665000D01*
X86995000Y-113665000D02*
X87630000Y-114300000D01*
X86995000Y-93345000D02*
X86995000Y-90170000D01*
X107315000Y-99695000D02*
X107950000Y-99060000D01*
X109220000Y-119380000D02*
X107950000Y-119380000D01*
X109220000Y-124460000D02*
X110490000Y-125730000D01*
D44*
X88900000Y-88900000D02*
X88265000Y-88900000D01*
X118175000Y-114300000D02*
X116205000Y-114300000D01*
D45*
X86360000Y-115570000D02*
X87630000Y-114300000D01*
X107315000Y-123825000D02*
X107950000Y-124460000D01*
X88900000Y-109220000D02*
X87630000Y-109220000D01*
X86360000Y-117475000D02*
X86360000Y-115570000D01*
X87630000Y-109220000D02*
X86995000Y-109855000D01*
D44*
X87630000Y-97155000D02*
X88900000Y-95885000D01*
D45*
X107315000Y-120015000D02*
X107315000Y-123825000D01*
D44*
X88900000Y-95885000D02*
X88900000Y-93980000D01*
D45*
X107950000Y-119380000D02*
X107315000Y-120015000D01*
X107950000Y-124460000D02*
X109220000Y-124460000D01*
X87630000Y-114300000D02*
X88900000Y-114300000D01*
X107950000Y-99060000D02*
X109220000Y-99060000D01*
X86995000Y-90170000D02*
X88265000Y-88900000D01*
X87630000Y-93980000D02*
X86995000Y-93345000D01*
D44*
X116905000Y-95250000D02*
X114935000Y-95250000D01*
D45*
X88900000Y-93980000D02*
X87630000Y-93980000D01*
X107315000Y-102870000D02*
X107315000Y-99695000D01*
%TO.N,GND*%
X113362500Y-120317500D02*
X113030000Y-120650000D01*
D46*
X115163500Y-79060000D02*
X114935000Y-78831500D01*
D44*
X117807500Y-99997500D02*
X118745000Y-99060000D01*
X113980000Y-99997500D02*
X117807500Y-99997500D01*
X123125000Y-114300000D02*
X120650000Y-114300000D01*
X118745000Y-99060000D02*
X118745000Y-95885000D01*
D45*
X112080000Y-90502500D02*
X112080000Y-89220000D01*
X111775000Y-86995000D02*
X111775000Y-88250000D01*
X111775000Y-88885000D02*
X111760000Y-88900000D01*
X103490000Y-107300000D02*
X105410000Y-107300000D01*
D46*
X115163500Y-72710000D02*
X114935000Y-72481500D01*
D45*
X112080000Y-89220000D02*
X111760000Y-88900000D01*
X99060000Y-105425000D02*
X100345000Y-105425000D01*
X111775000Y-88250000D02*
X111775000Y-88885000D01*
X102870000Y-106680000D02*
X103490000Y-107300000D01*
X112080000Y-109535000D02*
X112395000Y-109220000D01*
X92710000Y-126380000D02*
X92710000Y-128270000D01*
D46*
X116507500Y-72710000D02*
X115163500Y-72710000D01*
D45*
X112080000Y-110822500D02*
X112080000Y-109535000D01*
D44*
X118745000Y-95885000D02*
X119380000Y-95250000D01*
D45*
X113980000Y-120317500D02*
X113362500Y-120317500D01*
X100345000Y-105425000D02*
X101600000Y-106680000D01*
D46*
X116507500Y-79060000D02*
X115163500Y-79060000D01*
D45*
X101600000Y-106680000D02*
X102870000Y-106680000D01*
D46*
%TO.N,VCC*%
X111680000Y-70565000D02*
X111760000Y-70485000D01*
X111760000Y-65405000D02*
X113030000Y-65405000D01*
X109855000Y-76915000D02*
X111680000Y-76915000D01*
X113942500Y-66317500D02*
X113942500Y-67945000D01*
X113942500Y-64492500D02*
X113030000Y-65405000D01*
X113942500Y-61595000D02*
X113942500Y-64492500D01*
X113030000Y-65405000D02*
X113942500Y-66317500D01*
X111680000Y-76915000D02*
X111760000Y-76835000D01*
X109855000Y-70565000D02*
X111680000Y-70565000D01*
D45*
%TO.N,Net-(D1-Pad2)*%
X95250000Y-115570000D02*
X96520000Y-114300000D01*
X96520000Y-114300000D02*
X98425000Y-114300000D01*
D46*
X97790000Y-109220000D02*
X98425000Y-109855000D01*
D45*
X98425000Y-114300000D02*
X108887500Y-114300000D01*
X108887500Y-114300000D02*
X113030000Y-118442500D01*
D46*
X98425000Y-109855000D02*
X98425000Y-114300000D01*
X96520000Y-109220000D02*
X97790000Y-109220000D01*
D45*
X93360000Y-115570000D02*
X95250000Y-115570000D01*
D46*
%TO.N,Net-(D2-Pad2)*%
X100330000Y-119380000D02*
X101600000Y-119380000D01*
D45*
X112062500Y-113665000D02*
X113030000Y-112697500D01*
D46*
X99695000Y-123825000D02*
X99695000Y-120015000D01*
X101600000Y-124460000D02*
X100330000Y-124460000D01*
X99695000Y-120015000D02*
X100330000Y-119380000D01*
D45*
X111125000Y-113665000D02*
X112062500Y-113665000D01*
X101600000Y-119380000D02*
X104155000Y-119380000D01*
X104155000Y-119380000D02*
X104775000Y-120000000D01*
D46*
X100330000Y-124460000D02*
X99695000Y-123825000D01*
%TO.N,IO0*%
X113030000Y-124102500D02*
X114657500Y-124102500D01*
X120650000Y-118110000D02*
X120650000Y-116205000D01*
X114657500Y-124102500D02*
X120650000Y-118110000D01*
X124460000Y-115570000D02*
X125095000Y-114935000D01*
X121285000Y-115570000D02*
X123125000Y-115570000D01*
X120650000Y-116205000D02*
X121285000Y-115570000D01*
X123125000Y-115570000D02*
X124460000Y-115570000D01*
D47*
%TO.N,/OUT0NO*%
X92710000Y-120650000D02*
X91130500Y-119070500D01*
X88281000Y-119380000D02*
X88590500Y-119070500D01*
X88590500Y-119070500D02*
X91440000Y-116221000D01*
X92710000Y-121920000D02*
X92710000Y-120650000D01*
X81280000Y-119380000D02*
X88281000Y-119380000D01*
X91440000Y-116221000D02*
X91440000Y-113030000D01*
X92710000Y-111760000D02*
X96520000Y-111760000D01*
X91440000Y-113030000D02*
X92710000Y-111760000D01*
X91130500Y-119070500D02*
X88590500Y-119070500D01*
%TO.N,/OUT0COM*%
X95250000Y-123190000D02*
X96520000Y-124460000D01*
X95250000Y-121920000D02*
X95250000Y-123190000D01*
X81280000Y-124460000D02*
X96520000Y-124460000D01*
D45*
%TO.N,/OUT1NO*%
X104140000Y-121920000D02*
X101600000Y-121920000D01*
X104760000Y-121300000D02*
X104140000Y-121920000D01*
X104775000Y-121300000D02*
X104760000Y-121300000D01*
D47*
%TO.N,/OUT1COM*%
X102870000Y-110490000D02*
X101600000Y-109220000D01*
X109220000Y-109220000D02*
X101600000Y-109220000D01*
X101600000Y-109220000D02*
X99060000Y-106680000D01*
X83820000Y-114300000D02*
X81280000Y-114300000D01*
X87630000Y-106680000D02*
X85090000Y-109220000D01*
X85090000Y-113030000D02*
X83820000Y-114300000D01*
X102870000Y-111760000D02*
X102870000Y-110490000D01*
X85090000Y-109220000D02*
X85090000Y-113030000D01*
X99060000Y-106680000D02*
X87630000Y-106680000D01*
D46*
%TO.N,IO2*%
X124460000Y-97790000D02*
X124460000Y-97155000D01*
X123825000Y-96520000D02*
X121855000Y-96520000D01*
X124460000Y-97155000D02*
X123825000Y-96520000D01*
D44*
%TO.N,Net-(D3-Pad2)*%
X98425000Y-93980000D02*
X108887500Y-93980000D01*
X94630000Y-93980000D02*
X93360000Y-95250000D01*
X108887500Y-93980000D02*
X113030000Y-98122500D01*
D46*
X96520000Y-88900000D02*
X98425000Y-90805000D01*
D44*
X96520000Y-93980000D02*
X98425000Y-93980000D01*
X96520000Y-93980000D02*
X94630000Y-93980000D01*
D46*
X98425000Y-90805000D02*
X98425000Y-93980000D01*
%TO.N,Net-(D4-Pad2)*%
X103504000Y-104140000D02*
X105837000Y-101807000D01*
X105395000Y-99680000D02*
X104760000Y-99680000D01*
D44*
X101600000Y-99060000D02*
X104140000Y-99060000D01*
X104760000Y-99680000D02*
X104760000Y-98440000D01*
X104140000Y-99060000D02*
X104760000Y-99680000D01*
D46*
X105837000Y-100122000D02*
X105395000Y-99680000D01*
D44*
X110822500Y-92377500D02*
X113030000Y-92377500D01*
D46*
X105837000Y-101807000D02*
X105837000Y-100122000D01*
D44*
X110822500Y-92377500D02*
X110490000Y-92710000D01*
D46*
%TO.N,IO4*%
X113665000Y-78105000D02*
X118387500Y-78105000D01*
X109855000Y-78740000D02*
X113030000Y-78740000D01*
X106680000Y-78740000D02*
X109577500Y-78740000D01*
X104140000Y-78740000D02*
X106680000Y-78740000D01*
X118387500Y-78105000D02*
X119380000Y-79097500D01*
X106680000Y-80367500D02*
X106680000Y-78740000D01*
X113030000Y-78740000D02*
X113665000Y-78105000D01*
%TO.N,IO5*%
X113030000Y-71755000D02*
X118387500Y-71755000D01*
X118387500Y-71755000D02*
X119380000Y-72747500D01*
X109855000Y-72390000D02*
X112395000Y-72390000D01*
X112395000Y-72390000D02*
X113030000Y-71755000D01*
X104140000Y-72390000D02*
X106680000Y-72390000D01*
X106680000Y-72390000D02*
X109577500Y-72390000D01*
X106680000Y-74017500D02*
X106680000Y-72390000D01*
%TO.N,IO6*%
X105965000Y-66040000D02*
X107315000Y-67390000D01*
X109300000Y-67390000D02*
X109855000Y-67945000D01*
X109855000Y-67945000D02*
X112117500Y-67945000D01*
X112117500Y-67945000D02*
X114657500Y-70485000D01*
X107315000Y-67390000D02*
X109300000Y-67390000D01*
X104140000Y-66040000D02*
X105965000Y-66040000D01*
%TO.N,IO7*%
X109300000Y-61040000D02*
X109855000Y-61595000D01*
X105965000Y-59690000D02*
X107315000Y-61040000D01*
X107315000Y-61040000D02*
X109300000Y-61040000D01*
X104140000Y-59690000D02*
X105965000Y-59690000D01*
X112395000Y-64135000D02*
X112117500Y-63857500D01*
X112117500Y-63857500D02*
X112117500Y-61595000D01*
X109855000Y-61595000D02*
X112117500Y-61595000D01*
%TO.N,Net-(JP9-Pad1)*%
X114632500Y-80010000D02*
X112727500Y-81915000D01*
X112727500Y-81915000D02*
X111790000Y-81915000D01*
%TO.N,Net-(JP10-Pad1)*%
X111775000Y-74930000D02*
X113362500Y-74930000D01*
X113362500Y-74930000D02*
X114632500Y-73660000D01*
D45*
%TO.N,Net-(U2-Pad7)*%
X113665000Y-116205000D02*
X114300000Y-115570000D01*
X114300000Y-115570000D02*
X118175000Y-115570000D01*
D46*
%TO.N,Net-(Q2-Pad1)*%
X112080000Y-121327500D02*
X113030000Y-122277500D01*
X112080000Y-120317500D02*
X112080000Y-121327500D01*
%TO.N,Net-(Q4-Pad1)*%
X114602500Y-110822500D02*
X114935000Y-110490000D01*
X114935000Y-110490000D02*
X115927500Y-110490000D01*
X113980000Y-110822500D02*
X114602500Y-110822500D01*
D45*
%TO.N,Net-(U3-Pad7)*%
X109855000Y-97155000D02*
X99695000Y-97155000D01*
X116905000Y-96520000D02*
X113665000Y-96520000D01*
X99695000Y-97155000D02*
X97155000Y-99695000D01*
%TO.N,Net-(U3-Pad5)*%
X116905000Y-93980000D02*
X110165000Y-93980000D01*
X110165000Y-93980000D02*
X107950000Y-91765000D01*
D46*
%TO.N,Net-(R8-Pad2)*%
X95250000Y-78740000D02*
X93622500Y-77112500D01*
X93622500Y-77112500D02*
X93622500Y-76200000D01*
X96520000Y-78740000D02*
X95250000Y-78740000D01*
%TO.N,Net-(R12-Pad2)*%
X94892500Y-72390000D02*
X96520000Y-72390000D01*
X93622500Y-71120000D02*
X94892500Y-72390000D01*
%TO.N,Net-(R15-Pad1)*%
X93622500Y-66040000D02*
X96520000Y-66040000D01*
%TO.N,Net-(R18-Pad1)*%
X93622500Y-60960000D02*
X94892500Y-59690000D01*
X94892500Y-59690000D02*
X96520000Y-59690000D01*
D47*
%TO.N,/OUT2NO*%
X81280000Y-99060000D02*
X92059000Y-99060000D01*
X96520000Y-91440000D02*
X94631000Y-91440000D01*
X92710000Y-99711000D02*
X92710000Y-101600000D01*
X92060000Y-95250000D02*
X92060000Y-99059000D01*
X92059000Y-99060000D02*
X92710000Y-99711000D01*
X92060000Y-94011000D02*
X92060000Y-95250000D01*
X92060000Y-99059000D02*
X92059000Y-99060000D01*
X94631000Y-91440000D02*
X92060000Y-94011000D01*
%TO.N,/OUT2COM*%
X81280000Y-104140000D02*
X96520000Y-104140000D01*
D45*
X96535000Y-104125000D02*
X96520000Y-104140000D01*
D47*
X95250000Y-102870000D02*
X96520000Y-104140000D01*
D45*
X99060000Y-104125000D02*
X96535000Y-104125000D01*
D47*
X95250000Y-101600000D02*
X95250000Y-102870000D01*
D44*
%TO.N,/OUT3NO*%
X104140000Y-101600000D02*
X101600000Y-101600000D01*
X104760000Y-100980000D02*
X104140000Y-101600000D01*
D47*
%TO.N,/OUT3COM*%
X109220000Y-88900000D02*
X109220000Y-88250000D01*
X85090000Y-92710000D02*
X85090000Y-88265000D01*
X85090000Y-88265000D02*
X86995000Y-86360000D01*
X109220000Y-88900000D02*
X101600000Y-88900000D01*
X83820000Y-93980000D02*
X85090000Y-92710000D01*
X81280000Y-93980000D02*
X83820000Y-93980000D01*
X101600000Y-88900000D02*
X101600000Y-90495000D01*
X109220000Y-88250000D02*
X110475000Y-86995000D01*
X99060000Y-86360000D02*
X101600000Y-88900000D01*
X101600000Y-90495000D02*
X102870000Y-91765000D01*
X86995000Y-86360000D02*
X99060000Y-86360000D01*
D46*
%TO.N,Net-(Q6-Pad1)*%
X112080000Y-99997500D02*
X112080000Y-102832500D01*
X112080000Y-102832500D02*
X112117500Y-102870000D01*
%TO.N,Net-(R7-Pad2)*%
X119380000Y-80922500D02*
X116545000Y-80922500D01*
X116545000Y-80922500D02*
X116507500Y-80960000D01*
%TO.N,Net-(R11-Pad2)*%
X116545000Y-74572500D02*
X116507500Y-74610000D01*
X119380000Y-74572500D02*
X116545000Y-74572500D01*
%TO.N,Net-(JP9-Pad2)*%
X95250000Y-82550000D02*
X106322500Y-82550000D01*
X106322500Y-82550000D02*
X106680000Y-82192500D01*
X106680000Y-82192500D02*
X106957500Y-81915000D01*
X91440000Y-78740000D02*
X95250000Y-82550000D01*
X88900000Y-78740000D02*
X91440000Y-78740000D01*
X106957500Y-81915000D02*
X110490000Y-81915000D01*
%TO.N,Net-(R8-Pad1)*%
X88900000Y-76200000D02*
X91797500Y-76200000D01*
%TO.N,Net-(U4-Pad2)*%
X87630000Y-77470000D02*
X92710000Y-77470000D01*
X92710000Y-77470000D02*
X96520000Y-81280000D01*
X86360000Y-76200000D02*
X87630000Y-77470000D01*
%TO.N,Net-(JP10-Pad2)*%
X88900000Y-73660000D02*
X93345000Y-73660000D01*
X105687500Y-76835000D02*
X106680000Y-75842500D01*
X93345000Y-73660000D02*
X96520000Y-76835000D01*
X96520000Y-76835000D02*
X105687500Y-76835000D01*
X106680000Y-75842500D02*
X107592500Y-74930000D01*
X107592500Y-74930000D02*
X110475000Y-74930000D01*
%TO.N,Net-(R12-Pad1)*%
X88900000Y-71120000D02*
X91797500Y-71120000D01*
%TO.N,Net-(U5-Pad2)*%
X87630000Y-72390000D02*
X93980000Y-72390000D01*
X86360000Y-71120000D02*
X87630000Y-72390000D01*
X93980000Y-72390000D02*
X96520000Y-74930000D01*
%TO.N,Net-(R14-Pad2)*%
X96520000Y-70485000D02*
X106045000Y-70485000D01*
X88900000Y-68580000D02*
X94615000Y-68580000D01*
X94615000Y-68580000D02*
X96520000Y-70485000D01*
X106045000Y-70485000D02*
X107315000Y-69215000D01*
%TO.N,Net-(R15-Pad2)*%
X88900000Y-66040000D02*
X91797500Y-66040000D01*
%TO.N,Net-(U6-Pad2)*%
X87631450Y-67311450D02*
X95251450Y-67311450D01*
X86360000Y-66040000D02*
X87631450Y-67311450D01*
X95251450Y-67311450D02*
X96520000Y-68580000D01*
%TO.N,Net-(R17-Pad2)*%
X93980000Y-63500000D02*
X94615000Y-64135000D01*
X94615000Y-64135000D02*
X106045000Y-64135000D01*
X106045000Y-64135000D02*
X107315000Y-62865000D01*
X88900000Y-63500000D02*
X93980000Y-63500000D01*
%TO.N,Net-(R18-Pad2)*%
X88900000Y-60960000D02*
X91797500Y-60960000D01*
%TO.N,Net-(U7-Pad2)*%
X86360000Y-60960000D02*
X87630000Y-62230000D01*
X87630000Y-62230000D02*
X96520000Y-62230000D01*
%TD*%
%TA.AperFunction,Conductor*%
%TO.N,GND*%
G36*
X138372121Y-122575002D02*
G01*
X138418614Y-122628658D01*
X138430000Y-122681000D01*
X138430000Y-135764000D01*
X138409998Y-135832121D01*
X138356342Y-135878614D01*
X138304000Y-135890000D01*
X106806000Y-135890000D01*
X106737879Y-135869998D01*
X106691386Y-135816342D01*
X106680000Y-135764000D01*
X106680000Y-135381500D01*
X106700002Y-135313379D01*
X106753658Y-135266886D01*
X106806000Y-135255500D01*
X110410980Y-135255500D01*
X110422214Y-135256030D01*
X110429719Y-135257708D01*
X110498012Y-135255562D01*
X110501969Y-135255500D01*
X110529983Y-135255500D01*
X110533908Y-135255004D01*
X110533909Y-135255004D01*
X110534004Y-135254992D01*
X110545849Y-135254059D01*
X110575670Y-135253122D01*
X110582282Y-135252914D01*
X110582283Y-135252914D01*
X110590205Y-135252665D01*
X110609749Y-135246987D01*
X110629112Y-135242977D01*
X110641440Y-135241420D01*
X110641442Y-135241420D01*
X110649299Y-135240427D01*
X110656663Y-135237511D01*
X110656668Y-135237510D01*
X110690556Y-135224093D01*
X110701785Y-135220248D01*
X110718465Y-135215402D01*
X110744393Y-135207869D01*
X110751220Y-135203831D01*
X110751223Y-135203830D01*
X110761906Y-135197512D01*
X110779664Y-135188812D01*
X110791215Y-135184239D01*
X110791221Y-135184235D01*
X110798588Y-135181319D01*
X110834491Y-135155234D01*
X110844410Y-135148719D01*
X110875768Y-135130174D01*
X110875772Y-135130171D01*
X110882598Y-135126134D01*
X110896982Y-135111750D01*
X110912016Y-135098909D01*
X110922073Y-135091602D01*
X110928487Y-135086942D01*
X110956778Y-135052744D01*
X110964767Y-135043965D01*
X111412351Y-134596381D01*
X132469160Y-134596381D01*
X132469237Y-134597470D01*
X132471698Y-134601206D01*
X132745632Y-134811404D01*
X132751262Y-134815259D01*
X133051591Y-134997862D01*
X133057593Y-135001080D01*
X133375897Y-135150184D01*
X133382202Y-135152732D01*
X133714743Y-135266587D01*
X133721313Y-135268446D01*
X134064183Y-135345714D01*
X134070912Y-135346853D01*
X134420143Y-135386643D01*
X134426933Y-135387046D01*
X134778419Y-135388886D01*
X134785220Y-135388554D01*
X135134853Y-135352423D01*
X135141581Y-135351357D01*
X135485274Y-135277676D01*
X135491822Y-135275897D01*
X135825549Y-135165527D01*
X135831891Y-135163041D01*
X136151718Y-135017288D01*
X136157777Y-135014121D01*
X136459995Y-134834676D01*
X136465659Y-134830884D01*
X136746732Y-134619849D01*
X136751958Y-134615464D01*
X136761613Y-134606428D01*
X136769682Y-134592750D01*
X136769654Y-134592024D01*
X136764512Y-134583723D01*
X134632810Y-132452020D01*
X134618869Y-132444408D01*
X134617034Y-132444539D01*
X134610420Y-132448790D01*
X132476774Y-134582437D01*
X132469160Y-134596381D01*
X111412351Y-134596381D01*
X112153477Y-133855255D01*
X112161803Y-133847678D01*
X112168303Y-133843553D01*
X112215101Y-133793718D01*
X112217855Y-133790877D01*
X112237638Y-133771094D01*
X112240129Y-133767883D01*
X112247838Y-133758856D01*
X112259139Y-133746822D01*
X112278217Y-133726506D01*
X112288022Y-133708671D01*
X112298876Y-133692147D01*
X112306491Y-133682330D01*
X112306492Y-133682329D01*
X112311349Y-133676067D01*
X112314124Y-133669654D01*
X113075618Y-133669654D01*
X113082673Y-133679627D01*
X113113679Y-133705551D01*
X113120598Y-133710579D01*
X113345272Y-133851515D01*
X113352807Y-133855556D01*
X113594520Y-133964694D01*
X113602551Y-133967680D01*
X113856832Y-134043002D01*
X113865184Y-134044869D01*
X114127340Y-134084984D01*
X114135874Y-134085700D01*
X114401045Y-134089867D01*
X114409596Y-134089418D01*
X114672883Y-134057557D01*
X114681284Y-134055955D01*
X114937824Y-133988653D01*
X114945926Y-133985926D01*
X115190949Y-133884434D01*
X115198617Y-133880628D01*
X115427598Y-133746822D01*
X115434679Y-133742009D01*
X115514655Y-133679301D01*
X115523125Y-133667442D01*
X115516608Y-133655818D01*
X114312812Y-132452022D01*
X114298868Y-132444408D01*
X114297035Y-132444539D01*
X114290420Y-132448790D01*
X113082910Y-133656300D01*
X113075618Y-133669654D01*
X112314124Y-133669654D01*
X112328969Y-133635350D01*
X112334192Y-133624689D01*
X112351749Y-133592753D01*
X112351751Y-133592748D01*
X112355569Y-133585803D01*
X112357539Y-133578129D01*
X112357542Y-133578122D01*
X112360632Y-133566087D01*
X112367036Y-133547382D01*
X112371967Y-133535987D01*
X112375117Y-133528708D01*
X112382060Y-133484873D01*
X112384467Y-133473251D01*
X112395500Y-133430282D01*
X112395500Y-133409935D01*
X112397051Y-133390224D01*
X112398995Y-133377950D01*
X112400235Y-133370121D01*
X112396059Y-133325944D01*
X112395500Y-133314086D01*
X112395500Y-133259936D01*
X112415502Y-133191815D01*
X112469158Y-133145322D01*
X112539432Y-133135218D01*
X112604012Y-133164712D01*
X112625340Y-133188569D01*
X112699348Y-133296250D01*
X112709601Y-133304594D01*
X112723342Y-133297448D01*
X113927978Y-132092812D01*
X113934356Y-132081132D01*
X114664408Y-132081132D01*
X114664539Y-132082965D01*
X114668790Y-132089580D01*
X115875730Y-133296520D01*
X115887939Y-133303187D01*
X115899439Y-133294497D01*
X115996831Y-133161913D01*
X116001418Y-133154685D01*
X116127962Y-132921621D01*
X116131530Y-132913827D01*
X116225271Y-132665750D01*
X116227748Y-132657544D01*
X116286954Y-132399038D01*
X116288294Y-132390577D01*
X116312031Y-132124616D01*
X116312277Y-132119677D01*
X116312666Y-132082485D01*
X116312523Y-132077519D01*
X116312135Y-132071832D01*
X131307333Y-132071832D01*
X131325117Y-132422893D01*
X131325827Y-132429649D01*
X131381420Y-132776723D01*
X131382859Y-132783378D01*
X131475608Y-133122410D01*
X131477757Y-133128871D01*
X131606581Y-133455912D01*
X131609412Y-133462095D01*
X131772803Y-133773310D01*
X131776286Y-133779152D01*
X131972330Y-134070896D01*
X131976433Y-134076340D01*
X132096425Y-134218836D01*
X132109164Y-134227279D01*
X132119608Y-134221181D01*
X134247980Y-132092810D01*
X134254357Y-132081131D01*
X134984408Y-132081131D01*
X134984539Y-132082966D01*
X134988790Y-132089580D01*
X137119009Y-134219798D01*
X137132605Y-134227223D01*
X137142218Y-134220522D01*
X137242518Y-134103912D01*
X137246676Y-134098514D01*
X137445762Y-133808840D01*
X137449310Y-133803029D01*
X137615942Y-133493559D01*
X137618849Y-133487381D01*
X137751090Y-133161713D01*
X137753304Y-133155283D01*
X137849598Y-132817237D01*
X137851105Y-132810607D01*
X137910332Y-132464118D01*
X137911112Y-132457378D01*
X137932668Y-132104925D01*
X137932784Y-132101323D01*
X137932853Y-132081819D01*
X137932761Y-132078194D01*
X137913666Y-131725615D01*
X137912931Y-131718849D01*
X137856130Y-131371985D01*
X137854663Y-131365313D01*
X137760736Y-131026627D01*
X137758562Y-131020163D01*
X137628598Y-130693578D01*
X137625742Y-130687398D01*
X137461269Y-130376763D01*
X137457769Y-130370937D01*
X137260697Y-130079862D01*
X137256590Y-130074453D01*
X137143565Y-129941179D01*
X137130740Y-129932743D01*
X137120416Y-129938795D01*
X134992020Y-132067190D01*
X134984408Y-132081131D01*
X134254357Y-132081131D01*
X134255592Y-132078869D01*
X134255461Y-132077034D01*
X134251210Y-132070420D01*
X132120992Y-129940203D01*
X132107455Y-129932811D01*
X132097753Y-129939599D01*
X131990430Y-130065257D01*
X131986296Y-130070664D01*
X131788215Y-130361041D01*
X131784697Y-130366851D01*
X131619134Y-130676922D01*
X131616259Y-130683087D01*
X131485155Y-131009218D01*
X131482962Y-131015658D01*
X131387846Y-131354044D01*
X131386363Y-131360679D01*
X131328350Y-131707354D01*
X131327591Y-131714126D01*
X131307357Y-132065037D01*
X131307333Y-132071832D01*
X116312135Y-132071832D01*
X116294362Y-131811123D01*
X116293201Y-131802649D01*
X116239419Y-131542944D01*
X116237120Y-131534709D01*
X116148588Y-131284705D01*
X116145191Y-131276854D01*
X116023550Y-131041178D01*
X116019122Y-131033866D01*
X115900031Y-130864417D01*
X115889509Y-130856037D01*
X115876121Y-130863089D01*
X114672022Y-132067188D01*
X114664408Y-132081132D01*
X113934356Y-132081132D01*
X113935592Y-132078868D01*
X113935461Y-132077035D01*
X113931210Y-132070420D01*
X112723814Y-130863024D01*
X112711804Y-130856466D01*
X112700066Y-130865432D01*
X112623823Y-130971536D01*
X112567828Y-131015184D01*
X112497125Y-131021630D01*
X112434160Y-130988827D01*
X112398926Y-130927191D01*
X112395500Y-130898010D01*
X112395500Y-130492500D01*
X113076584Y-130492500D01*
X113082980Y-130503770D01*
X114287188Y-131707978D01*
X114301132Y-131715592D01*
X114302965Y-131715461D01*
X114309580Y-131711210D01*
X115516604Y-130504186D01*
X115523795Y-130491017D01*
X115516473Y-130480780D01*
X115469233Y-130442115D01*
X115462261Y-130437160D01*
X115236122Y-130298582D01*
X115228552Y-130294624D01*
X114985704Y-130188022D01*
X114977644Y-130185120D01*
X114722592Y-130112467D01*
X114714214Y-130110685D01*
X114451656Y-130073318D01*
X114443111Y-130072691D01*
X114177908Y-130071302D01*
X114169374Y-130071839D01*
X113906433Y-130106456D01*
X113898035Y-130108149D01*
X113642238Y-130178127D01*
X113634143Y-130180946D01*
X113390199Y-130284997D01*
X113382577Y-130288881D01*
X113155013Y-130425075D01*
X113147981Y-130429962D01*
X113085053Y-130480377D01*
X113076584Y-130492500D01*
X112395500Y-130492500D01*
X112395500Y-130490422D01*
X112415502Y-130422301D01*
X112432405Y-130401327D01*
X113256327Y-129577405D01*
X113275634Y-129566862D01*
X132469950Y-129566862D01*
X132469986Y-129567704D01*
X132475037Y-129575826D01*
X134607190Y-131707980D01*
X134621131Y-131715592D01*
X134622966Y-131715461D01*
X134629580Y-131711210D01*
X136762798Y-129577991D01*
X136770412Y-129564047D01*
X136770344Y-129563089D01*
X136765836Y-129556272D01*
X136764418Y-129555065D01*
X136484813Y-129342064D01*
X136479187Y-129338240D01*
X136178214Y-129156681D01*
X136172202Y-129153484D01*
X135853370Y-129005487D01*
X135847070Y-129002967D01*
X135514129Y-128890273D01*
X135507551Y-128888437D01*
X135164417Y-128812367D01*
X135157678Y-128811251D01*
X134808310Y-128772680D01*
X134801529Y-128772301D01*
X134450015Y-128771687D01*
X134443242Y-128772042D01*
X134093720Y-128809395D01*
X134087010Y-128810482D01*
X133743586Y-128885361D01*
X133737011Y-128887172D01*
X133403683Y-128998702D01*
X133397361Y-129001205D01*
X133078034Y-129148079D01*
X133071991Y-129151265D01*
X132770401Y-129331763D01*
X132764755Y-129335571D01*
X132484408Y-129547596D01*
X132479211Y-129551987D01*
X132477972Y-129553155D01*
X132469950Y-129566862D01*
X113275634Y-129566862D01*
X113318639Y-129543379D01*
X113345422Y-129540500D01*
X128825980Y-129540500D01*
X128837214Y-129541030D01*
X128844719Y-129542708D01*
X128913012Y-129540562D01*
X128916969Y-129540500D01*
X128944983Y-129540500D01*
X128948908Y-129540004D01*
X128948909Y-129540004D01*
X128949004Y-129539992D01*
X128960849Y-129539059D01*
X128990670Y-129538122D01*
X128997282Y-129537914D01*
X128997283Y-129537914D01*
X129005205Y-129537665D01*
X129024749Y-129531987D01*
X129044112Y-129527977D01*
X129056440Y-129526420D01*
X129056442Y-129526420D01*
X129064299Y-129525427D01*
X129071663Y-129522511D01*
X129071668Y-129522510D01*
X129105556Y-129509093D01*
X129116785Y-129505248D01*
X129133465Y-129500402D01*
X129159393Y-129492869D01*
X129166220Y-129488831D01*
X129166223Y-129488830D01*
X129176906Y-129482512D01*
X129194664Y-129473812D01*
X129206215Y-129469239D01*
X129206221Y-129469235D01*
X129213588Y-129466319D01*
X129249491Y-129440234D01*
X129259410Y-129433719D01*
X129290768Y-129415174D01*
X129290772Y-129415171D01*
X129297598Y-129411134D01*
X129311982Y-129396750D01*
X129327016Y-129383909D01*
X129337073Y-129376602D01*
X129343487Y-129371942D01*
X129371773Y-129337750D01*
X129379763Y-129328969D01*
X129933488Y-128775245D01*
X129941807Y-128767675D01*
X129948303Y-128763553D01*
X129995086Y-128713734D01*
X129997840Y-128710893D01*
X130017639Y-128691094D01*
X130020068Y-128687963D01*
X130020072Y-128687958D01*
X130020139Y-128687872D01*
X130027847Y-128678847D01*
X130052792Y-128652283D01*
X130058217Y-128646506D01*
X130062035Y-128639561D01*
X130062038Y-128639557D01*
X130068026Y-128628666D01*
X130078878Y-128612145D01*
X130080847Y-128609606D01*
X130091350Y-128596066D01*
X130108971Y-128555345D01*
X130114192Y-128544689D01*
X130131748Y-128512755D01*
X130131750Y-128512749D01*
X130135569Y-128505803D01*
X130137540Y-128498128D01*
X130137542Y-128498122D01*
X130140631Y-128486089D01*
X130147034Y-128467387D01*
X130155117Y-128448708D01*
X130156357Y-128440882D01*
X130156358Y-128440877D01*
X130162060Y-128404880D01*
X130164466Y-128393260D01*
X130173528Y-128357963D01*
X130173528Y-128357962D01*
X130175500Y-128350282D01*
X130175500Y-128329934D01*
X130177051Y-128310223D01*
X130178995Y-128297949D01*
X130180235Y-128290120D01*
X130179489Y-128282229D01*
X130179738Y-128274305D01*
X130182869Y-128274403D01*
X130193591Y-128219003D01*
X130238368Y-128171421D01*
X130237994Y-128170896D01*
X130419860Y-128041173D01*
X130578096Y-127883489D01*
X130637594Y-127800689D01*
X130705435Y-127706277D01*
X130708453Y-127702077D01*
X130729320Y-127659857D01*
X130805136Y-127506453D01*
X130805137Y-127506451D01*
X130807430Y-127501811D01*
X130847005Y-127371556D01*
X130870865Y-127293023D01*
X130870865Y-127293021D01*
X130872370Y-127288069D01*
X130901529Y-127066590D01*
X130903156Y-127000000D01*
X130884852Y-126777361D01*
X130830431Y-126560702D01*
X130741354Y-126355840D01*
X130678070Y-126258018D01*
X130622822Y-126172617D01*
X130622820Y-126172614D01*
X130620014Y-126168277D01*
X130616538Y-126164457D01*
X130616533Y-126164450D01*
X130472435Y-126006088D01*
X130441383Y-125942242D01*
X130449779Y-125871744D01*
X130494956Y-125816976D01*
X130521400Y-125803307D01*
X130628052Y-125763325D01*
X130643649Y-125754786D01*
X130745724Y-125678285D01*
X130758285Y-125665724D01*
X130834786Y-125563649D01*
X130843324Y-125548054D01*
X130888478Y-125427606D01*
X130892105Y-125412351D01*
X130897631Y-125361486D01*
X130898000Y-125354672D01*
X130898000Y-124732115D01*
X130893525Y-124716876D01*
X130892135Y-124715671D01*
X130884452Y-124714000D01*
X129412000Y-124714000D01*
X129343879Y-124693998D01*
X129297386Y-124640342D01*
X129286000Y-124588000D01*
X129286000Y-124187885D01*
X129794000Y-124187885D01*
X129798475Y-124203124D01*
X129799865Y-124204329D01*
X129807548Y-124206000D01*
X130879884Y-124206000D01*
X130895123Y-124201525D01*
X130896328Y-124200135D01*
X130897999Y-124192452D01*
X130897999Y-123565331D01*
X130897629Y-123558510D01*
X130892105Y-123507648D01*
X130888479Y-123492396D01*
X130843324Y-123371946D01*
X130834786Y-123356351D01*
X130758285Y-123254276D01*
X130745724Y-123241715D01*
X130643649Y-123165214D01*
X130628054Y-123156676D01*
X130507606Y-123111522D01*
X130492351Y-123107895D01*
X130441486Y-123102369D01*
X130434672Y-123102000D01*
X129812115Y-123102000D01*
X129796876Y-123106475D01*
X129795671Y-123107865D01*
X129794000Y-123115548D01*
X129794000Y-124187885D01*
X129286000Y-124187885D01*
X129286000Y-123124922D01*
X129306002Y-123056801D01*
X129322905Y-123035827D01*
X129766827Y-122591905D01*
X129829139Y-122557879D01*
X129855922Y-122555000D01*
X138304000Y-122555000D01*
X138372121Y-122575002D01*
G37*
%TD.AperFunction*%
%TD*%
M02*
