%TF.GenerationSoftware,KiCad,Pcbnew,7.0.6*%
%TF.CreationDate,2023-08-24T15:38:01-04:00*%
%TF.ProjectId,t04mini,7430346d-696e-4692-9e6b-696361645f70,rev?*%
%TF.SameCoordinates,Original*%
%TF.FileFunction,Legend,Top*%
%TF.FilePolarity,Positive*%
%FSLAX46Y46*%
G04 Gerber Fmt 4.6, Leading zero omitted, Abs format (unit mm)*
G04 Created by KiCad (PCBNEW 7.0.6) date 2023-08-24 15:38:01*
%MOMM*%
%LPD*%
G01*
G04 APERTURE LIST*
%ADD10C,0.150000*%
%ADD11C,0.120000*%
G04 APERTURE END LIST*
D10*
X129781541Y-102374819D02*
X130400588Y-102374819D01*
X130400588Y-102374819D02*
X130067255Y-102755771D01*
X130067255Y-102755771D02*
X130210112Y-102755771D01*
X130210112Y-102755771D02*
X130305350Y-102803390D01*
X130305350Y-102803390D02*
X130352969Y-102851009D01*
X130352969Y-102851009D02*
X130400588Y-102946247D01*
X130400588Y-102946247D02*
X130400588Y-103184342D01*
X130400588Y-103184342D02*
X130352969Y-103279580D01*
X130352969Y-103279580D02*
X130305350Y-103327200D01*
X130305350Y-103327200D02*
X130210112Y-103374819D01*
X130210112Y-103374819D02*
X129924398Y-103374819D01*
X129924398Y-103374819D02*
X129829160Y-103327200D01*
X129829160Y-103327200D02*
X129781541Y-103279580D01*
X130829160Y-103279580D02*
X130876779Y-103327200D01*
X130876779Y-103327200D02*
X130829160Y-103374819D01*
X130829160Y-103374819D02*
X130781541Y-103327200D01*
X130781541Y-103327200D02*
X130829160Y-103279580D01*
X130829160Y-103279580D02*
X130829160Y-103374819D01*
X131210112Y-102374819D02*
X131829159Y-102374819D01*
X131829159Y-102374819D02*
X131495826Y-102755771D01*
X131495826Y-102755771D02*
X131638683Y-102755771D01*
X131638683Y-102755771D02*
X131733921Y-102803390D01*
X131733921Y-102803390D02*
X131781540Y-102851009D01*
X131781540Y-102851009D02*
X131829159Y-102946247D01*
X131829159Y-102946247D02*
X131829159Y-103184342D01*
X131829159Y-103184342D02*
X131781540Y-103279580D01*
X131781540Y-103279580D02*
X131733921Y-103327200D01*
X131733921Y-103327200D02*
X131638683Y-103374819D01*
X131638683Y-103374819D02*
X131352969Y-103374819D01*
X131352969Y-103374819D02*
X131257731Y-103327200D01*
X131257731Y-103327200D02*
X131210112Y-103279580D01*
X132114874Y-102374819D02*
X132448207Y-103374819D01*
X132448207Y-103374819D02*
X132781540Y-102374819D01*
X129733922Y-120154819D02*
X130067255Y-121154819D01*
X130067255Y-121154819D02*
X130400588Y-120154819D01*
X130733922Y-121154819D02*
X130733922Y-120154819D01*
X131210112Y-121154819D02*
X131210112Y-120154819D01*
X131210112Y-120154819D02*
X131781540Y-121154819D01*
X131781540Y-121154819D02*
X131781540Y-120154819D01*
X140465180Y-112096779D02*
X141465180Y-112096779D01*
X140465180Y-112668207D02*
X141036609Y-112239636D01*
X141465180Y-112668207D02*
X140893752Y-112096779D01*
X140560419Y-113668207D02*
X140512800Y-113620588D01*
X140512800Y-113620588D02*
X140465180Y-113477731D01*
X140465180Y-113477731D02*
X140465180Y-113382493D01*
X140465180Y-113382493D02*
X140512800Y-113239636D01*
X140512800Y-113239636D02*
X140608038Y-113144398D01*
X140608038Y-113144398D02*
X140703276Y-113096779D01*
X140703276Y-113096779D02*
X140893752Y-113049160D01*
X140893752Y-113049160D02*
X141036609Y-113049160D01*
X141036609Y-113049160D02*
X141227085Y-113096779D01*
X141227085Y-113096779D02*
X141322323Y-113144398D01*
X141322323Y-113144398D02*
X141417561Y-113239636D01*
X141417561Y-113239636D02*
X141465180Y-113382493D01*
X141465180Y-113382493D02*
X141465180Y-113477731D01*
X141465180Y-113477731D02*
X141417561Y-113620588D01*
X141417561Y-113620588D02*
X141369942Y-113668207D01*
X141369942Y-114049160D02*
X141417561Y-114096779D01*
X141417561Y-114096779D02*
X141465180Y-114192017D01*
X141465180Y-114192017D02*
X141465180Y-114430112D01*
X141465180Y-114430112D02*
X141417561Y-114525350D01*
X141417561Y-114525350D02*
X141369942Y-114572969D01*
X141369942Y-114572969D02*
X141274704Y-114620588D01*
X141274704Y-114620588D02*
X141179466Y-114620588D01*
X141179466Y-114620588D02*
X141036609Y-114572969D01*
X141036609Y-114572969D02*
X140465180Y-114001541D01*
X140465180Y-114001541D02*
X140465180Y-114620588D01*
X141465180Y-114953922D02*
X141465180Y-115620588D01*
X141465180Y-115620588D02*
X140465180Y-114953922D01*
X140465180Y-114953922D02*
X140465180Y-115620588D01*
X141417561Y-116525350D02*
X141465180Y-116430112D01*
X141465180Y-116430112D02*
X141465180Y-116287255D01*
X141465180Y-116287255D02*
X141417561Y-116144398D01*
X141417561Y-116144398D02*
X141322323Y-116049160D01*
X141322323Y-116049160D02*
X141227085Y-116001541D01*
X141227085Y-116001541D02*
X141036609Y-115953922D01*
X141036609Y-115953922D02*
X140893752Y-115953922D01*
X140893752Y-115953922D02*
X140703276Y-116001541D01*
X140703276Y-116001541D02*
X140608038Y-116049160D01*
X140608038Y-116049160D02*
X140512800Y-116144398D01*
X140512800Y-116144398D02*
X140465180Y-116287255D01*
X140465180Y-116287255D02*
X140465180Y-116382493D01*
X140465180Y-116382493D02*
X140512800Y-116525350D01*
X140512800Y-116525350D02*
X140560419Y-116572969D01*
X140560419Y-116572969D02*
X140893752Y-116572969D01*
X140893752Y-116572969D02*
X140893752Y-116382493D01*
X141465180Y-117001541D02*
X140655657Y-117001541D01*
X140655657Y-117001541D02*
X140560419Y-117049160D01*
X140560419Y-117049160D02*
X140512800Y-117096779D01*
X140512800Y-117096779D02*
X140465180Y-117192017D01*
X140465180Y-117192017D02*
X140465180Y-117382493D01*
X140465180Y-117382493D02*
X140512800Y-117477731D01*
X140512800Y-117477731D02*
X140560419Y-117525350D01*
X140560419Y-117525350D02*
X140655657Y-117572969D01*
X140655657Y-117572969D02*
X141465180Y-117572969D01*
X131029104Y-113375839D02*
X131029104Y-112899649D01*
X131314819Y-113471077D02*
X130314819Y-113137744D01*
X130314819Y-113137744D02*
X131314819Y-112804411D01*
X130314819Y-112613934D02*
X131314819Y-112280601D01*
X131314819Y-112280601D02*
X130314819Y-111947268D01*
X131314819Y-111042506D02*
X130838628Y-111375839D01*
X131314819Y-111613934D02*
X130314819Y-111613934D01*
X130314819Y-111613934D02*
X130314819Y-111232982D01*
X130314819Y-111232982D02*
X130362438Y-111137744D01*
X130362438Y-111137744D02*
X130410057Y-111090125D01*
X130410057Y-111090125D02*
X130505295Y-111042506D01*
X130505295Y-111042506D02*
X130648152Y-111042506D01*
X130648152Y-111042506D02*
X130743390Y-111090125D01*
X130743390Y-111090125D02*
X130791009Y-111137744D01*
X130791009Y-111137744D02*
X130838628Y-111232982D01*
X130838628Y-111232982D02*
X130838628Y-111613934D01*
X130648152Y-109994886D02*
X130648152Y-109613934D01*
X130314819Y-109852029D02*
X131171961Y-109852029D01*
X131171961Y-109852029D02*
X131267200Y-109804410D01*
X131267200Y-109804410D02*
X131314819Y-109709172D01*
X131314819Y-109709172D02*
X131314819Y-109613934D01*
X131314819Y-109280600D02*
X130648152Y-109280600D01*
X130314819Y-109280600D02*
X130362438Y-109328219D01*
X130362438Y-109328219D02*
X130410057Y-109280600D01*
X130410057Y-109280600D02*
X130362438Y-109232981D01*
X130362438Y-109232981D02*
X130314819Y-109280600D01*
X130314819Y-109280600D02*
X130410057Y-109280600D01*
X130648152Y-108804410D02*
X131314819Y-108804410D01*
X130743390Y-108804410D02*
X130695771Y-108756791D01*
X130695771Y-108756791D02*
X130648152Y-108661553D01*
X130648152Y-108661553D02*
X130648152Y-108518696D01*
X130648152Y-108518696D02*
X130695771Y-108423458D01*
X130695771Y-108423458D02*
X130791009Y-108375839D01*
X130791009Y-108375839D02*
X131314819Y-108375839D01*
X130648152Y-107994886D02*
X131314819Y-107756791D01*
X130648152Y-107518696D02*
X131314819Y-107756791D01*
X131314819Y-107756791D02*
X131552914Y-107852029D01*
X131552914Y-107852029D02*
X131600533Y-107899648D01*
X131600533Y-107899648D02*
X131648152Y-107994886D01*
X130314819Y-106947267D02*
X130314819Y-106852029D01*
X130314819Y-106852029D02*
X130362438Y-106756791D01*
X130362438Y-106756791D02*
X130410057Y-106709172D01*
X130410057Y-106709172D02*
X130505295Y-106661553D01*
X130505295Y-106661553D02*
X130695771Y-106613934D01*
X130695771Y-106613934D02*
X130933866Y-106613934D01*
X130933866Y-106613934D02*
X131124342Y-106661553D01*
X131124342Y-106661553D02*
X131219580Y-106709172D01*
X131219580Y-106709172D02*
X131267200Y-106756791D01*
X131267200Y-106756791D02*
X131314819Y-106852029D01*
X131314819Y-106852029D02*
X131314819Y-106947267D01*
X131314819Y-106947267D02*
X131267200Y-107042505D01*
X131267200Y-107042505D02*
X131219580Y-107090124D01*
X131219580Y-107090124D02*
X131124342Y-107137743D01*
X131124342Y-107137743D02*
X130933866Y-107185362D01*
X130933866Y-107185362D02*
X130695771Y-107185362D01*
X130695771Y-107185362D02*
X130505295Y-107137743D01*
X130505295Y-107137743D02*
X130410057Y-107090124D01*
X130410057Y-107090124D02*
X130362438Y-107042505D01*
X130362438Y-107042505D02*
X130314819Y-106947267D01*
X130648152Y-105756791D02*
X131314819Y-105756791D01*
X130267200Y-105994886D02*
X130981485Y-106232981D01*
X130981485Y-106232981D02*
X130981485Y-105613934D01*
X140208095Y-104864819D02*
X140208095Y-105674342D01*
X140208095Y-105674342D02*
X140255714Y-105769580D01*
X140255714Y-105769580D02*
X140303333Y-105817200D01*
X140303333Y-105817200D02*
X140398571Y-105864819D01*
X140398571Y-105864819D02*
X140589047Y-105864819D01*
X140589047Y-105864819D02*
X140684285Y-105817200D01*
X140684285Y-105817200D02*
X140731904Y-105769580D01*
X140731904Y-105769580D02*
X140779523Y-105674342D01*
X140779523Y-105674342D02*
X140779523Y-104864819D01*
X141779523Y-105864819D02*
X141208095Y-105864819D01*
X141493809Y-105864819D02*
X141493809Y-104864819D01*
X141493809Y-104864819D02*
X141398571Y-105007676D01*
X141398571Y-105007676D02*
X141303333Y-105102914D01*
X141303333Y-105102914D02*
X141208095Y-105150533D01*
X140001666Y-118199819D02*
X140001666Y-118914104D01*
X140001666Y-118914104D02*
X139954047Y-119056961D01*
X139954047Y-119056961D02*
X139858809Y-119152200D01*
X139858809Y-119152200D02*
X139715952Y-119199819D01*
X139715952Y-119199819D02*
X139620714Y-119199819D01*
X140382619Y-118199819D02*
X141001666Y-118199819D01*
X141001666Y-118199819D02*
X140668333Y-118580771D01*
X140668333Y-118580771D02*
X140811190Y-118580771D01*
X140811190Y-118580771D02*
X140906428Y-118628390D01*
X140906428Y-118628390D02*
X140954047Y-118676009D01*
X140954047Y-118676009D02*
X141001666Y-118771247D01*
X141001666Y-118771247D02*
X141001666Y-119009342D01*
X141001666Y-119009342D02*
X140954047Y-119104580D01*
X140954047Y-119104580D02*
X140906428Y-119152200D01*
X140906428Y-119152200D02*
X140811190Y-119199819D01*
X140811190Y-119199819D02*
X140525476Y-119199819D01*
X140525476Y-119199819D02*
X140430238Y-119152200D01*
X140430238Y-119152200D02*
X140382619Y-119104580D01*
X138898333Y-103229580D02*
X138850714Y-103277200D01*
X138850714Y-103277200D02*
X138707857Y-103324819D01*
X138707857Y-103324819D02*
X138612619Y-103324819D01*
X138612619Y-103324819D02*
X138469762Y-103277200D01*
X138469762Y-103277200D02*
X138374524Y-103181961D01*
X138374524Y-103181961D02*
X138326905Y-103086723D01*
X138326905Y-103086723D02*
X138279286Y-102896247D01*
X138279286Y-102896247D02*
X138279286Y-102753390D01*
X138279286Y-102753390D02*
X138326905Y-102562914D01*
X138326905Y-102562914D02*
X138374524Y-102467676D01*
X138374524Y-102467676D02*
X138469762Y-102372438D01*
X138469762Y-102372438D02*
X138612619Y-102324819D01*
X138612619Y-102324819D02*
X138707857Y-102324819D01*
X138707857Y-102324819D02*
X138850714Y-102372438D01*
X138850714Y-102372438D02*
X138898333Y-102420057D01*
X139231667Y-102324819D02*
X139850714Y-102324819D01*
X139850714Y-102324819D02*
X139517381Y-102705771D01*
X139517381Y-102705771D02*
X139660238Y-102705771D01*
X139660238Y-102705771D02*
X139755476Y-102753390D01*
X139755476Y-102753390D02*
X139803095Y-102801009D01*
X139803095Y-102801009D02*
X139850714Y-102896247D01*
X139850714Y-102896247D02*
X139850714Y-103134342D01*
X139850714Y-103134342D02*
X139803095Y-103229580D01*
X139803095Y-103229580D02*
X139755476Y-103277200D01*
X139755476Y-103277200D02*
X139660238Y-103324819D01*
X139660238Y-103324819D02*
X139374524Y-103324819D01*
X139374524Y-103324819D02*
X139279286Y-103277200D01*
X139279286Y-103277200D02*
X139231667Y-103229580D01*
D11*
%TO.C,U1*%
X135890000Y-104785000D02*
X137840000Y-104785000D01*
X135890000Y-113655000D02*
X137840000Y-113655000D01*
X135890000Y-104785000D02*
X132440000Y-104785000D01*
X135890000Y-113655000D02*
X133940000Y-113655000D01*
%TO.C,J3*%
X132780000Y-117970000D02*
X132780000Y-121690000D01*
X132780000Y-121690000D02*
X139000000Y-121690000D01*
X139000000Y-121690000D02*
X139000000Y-117970000D01*
X139000000Y-117970000D02*
X132780000Y-117970000D01*
X134090000Y-117970000D02*
X134090000Y-117770000D01*
X134090000Y-117770000D02*
X133790000Y-117770000D01*
X133790000Y-117770000D02*
X133790000Y-117970000D01*
X134090000Y-117870000D02*
X133790000Y-117870000D01*
X133180000Y-118370000D02*
X133180000Y-121290000D01*
X133180000Y-121290000D02*
X138600000Y-121290000D01*
X138600000Y-121290000D02*
X138600000Y-118370000D01*
X138600000Y-118370000D02*
X133180000Y-118370000D01*
X132780000Y-118880000D02*
X133180000Y-118880000D01*
X132780000Y-119880000D02*
X133180000Y-119880000D01*
X139000000Y-118880000D02*
X138600000Y-118880000D01*
X139000000Y-119880000D02*
X138600000Y-119880000D01*
X135040000Y-121290000D02*
X135040000Y-120890000D01*
X135040000Y-120890000D02*
X135240000Y-120890000D01*
X135240000Y-120890000D02*
X135240000Y-121290000D01*
X135140000Y-121290000D02*
X135140000Y-120890000D01*
X136540000Y-121290000D02*
X136540000Y-120890000D01*
X136540000Y-120890000D02*
X136740000Y-120890000D01*
X136740000Y-120890000D02*
X136740000Y-121290000D01*
X136640000Y-121290000D02*
X136640000Y-120890000D01*
X133380000Y-117770000D02*
X132580000Y-117770000D01*
X132580000Y-117770000D02*
X132580000Y-118570000D01*
%TO.C,J2*%
X144840000Y-119380000D02*
X142180000Y-119380000D01*
X144840000Y-101540000D02*
X142180000Y-101540000D01*
X144840000Y-119380000D02*
X144840000Y-101540000D01*
X144840000Y-120650000D02*
X144840000Y-121980000D01*
X142180000Y-119380000D02*
X142180000Y-101540000D01*
X144840000Y-121980000D02*
X143510000Y-121980000D01*
%TO.C,J1*%
X126940000Y-104140000D02*
X129600000Y-104140000D01*
X126940000Y-121980000D02*
X129600000Y-121980000D01*
X126940000Y-104140000D02*
X126940000Y-121980000D01*
X126940000Y-102870000D02*
X126940000Y-101540000D01*
X129600000Y-104140000D02*
X129600000Y-121980000D01*
X126940000Y-101540000D02*
X128270000Y-101540000D01*
%TO.C,C3*%
X135628748Y-102135000D02*
X136151252Y-102135000D01*
X135628748Y-103605000D02*
X136151252Y-103605000D01*
%TD*%
M02*
