%TF.GenerationSoftware,KiCad,Pcbnew,7.0.6*%
%TF.CreationDate,2023-08-24T15:38:00-04:00*%
%TF.ProjectId,t04mini,7430346d-696e-4692-9e6b-696361645f70,rev?*%
%TF.SameCoordinates,Original*%
%TF.FileFunction,Copper,L2,Bot*%
%TF.FilePolarity,Positive*%
%FSLAX46Y46*%
G04 Gerber Fmt 4.6, Leading zero omitted, Abs format (unit mm)*
G04 Created by KiCad (PCBNEW 7.0.6) date 2023-08-24 15:38:00*
%MOMM*%
%LPD*%
G01*
G04 APERTURE LIST*
G04 Aperture macros list*
%AMRoundRect*
0 Rectangle with rounded corners*
0 $1 Rounding radius*
0 $2 $3 $4 $5 $6 $7 $8 $9 X,Y pos of 4 corners*
0 Add a 4 corners polygon primitive as box body*
4,1,4,$2,$3,$4,$5,$6,$7,$8,$9,$2,$3,0*
0 Add four circle primitives for the rounded corners*
1,1,$1+$1,$2,$3*
1,1,$1+$1,$4,$5*
1,1,$1+$1,$6,$7*
1,1,$1+$1,$8,$9*
0 Add four rect primitives between the rounded corners*
20,1,$1+$1,$2,$3,$4,$5,0*
20,1,$1+$1,$4,$5,$6,$7,0*
20,1,$1+$1,$6,$7,$8,$9,0*
20,1,$1+$1,$8,$9,$2,$3,0*%
%AMFreePoly0*
4,1,9,5.362500,-0.866500,1.237500,-0.866500,1.237500,-0.450000,-1.237500,-0.450000,-1.237500,0.450000,1.237500,0.450000,1.237500,0.866500,5.362500,0.866500,5.362500,-0.866500,5.362500,-0.866500,$1*%
G04 Aperture macros list end*
%TA.AperFunction,SMDPad,CuDef*%
%ADD10R,2.300000X0.900000*%
%TD*%
%TA.AperFunction,SMDPad,CuDef*%
%ADD11FreePoly0,0.000000*%
%TD*%
%TA.AperFunction,ComponentPad*%
%ADD12RoundRect,0.250000X-0.265000X-0.615000X0.265000X-0.615000X0.265000X0.615000X-0.265000X0.615000X0*%
%TD*%
%TA.AperFunction,ComponentPad*%
%ADD13O,1.030000X1.730000*%
%TD*%
%TA.AperFunction,ComponentPad*%
%ADD14R,1.700000X1.700000*%
%TD*%
%TA.AperFunction,ComponentPad*%
%ADD15O,1.700000X1.700000*%
%TD*%
%TA.AperFunction,SMDPad,CuDef*%
%ADD16RoundRect,0.250000X-0.325000X-0.650000X0.325000X-0.650000X0.325000X0.650000X-0.325000X0.650000X0*%
%TD*%
%TA.AperFunction,ViaPad*%
%ADD17C,0.800000*%
%TD*%
%TA.AperFunction,Conductor*%
%ADD18C,0.250000*%
%TD*%
G04 APERTURE END LIST*
D10*
%TO.P,U2,1,GND*%
%TO.N,GND*%
X133440000Y-113260000D03*
D11*
%TO.P,U2,2,VO*%
%TO.N,+3.3V*%
X133527500Y-111760000D03*
D10*
%TO.P,U2,3,VI*%
%TO.N,+5V*%
X133440000Y-110260000D03*
%TD*%
D12*
%TO.P,J3,1,Pin_1*%
%TO.N,+3.3V*%
X134390000Y-119380000D03*
D13*
%TO.P,J3,2,Pin_2*%
%TO.N,UPDI*%
X135890000Y-119380000D03*
%TO.P,J3,3,Pin_3*%
%TO.N,GND*%
X137390000Y-119380000D03*
%TD*%
D14*
%TO.P,J2,1,Pin_1*%
%TO.N,GND*%
X143510000Y-120650000D03*
D15*
%TO.P,J2,2,Pin_2*%
%TO.N,PB1*%
X143510000Y-118110000D03*
%TO.P,J2,3,Pin_3*%
%TO.N,PB0*%
X143510000Y-115570000D03*
%TO.P,J2,4,Pin_4*%
%TO.N,UPDI*%
X143510000Y-113030000D03*
%TO.P,J2,5,Pin_5*%
%TO.N,PA1*%
X143510000Y-110490000D03*
%TO.P,J2,6,Pin_6*%
%TO.N,PA2*%
X143510000Y-107950000D03*
%TO.P,J2,7,Pin_7*%
%TO.N,PA3*%
X143510000Y-105410000D03*
%TO.P,J2,8,Pin_8*%
%TO.N,GND*%
X143510000Y-102870000D03*
%TD*%
D14*
%TO.P,J1,1,Pin_1*%
%TO.N,+3.3V*%
X128270000Y-102870000D03*
D15*
%TO.P,J1,2,Pin_2*%
%TO.N,PA4*%
X128270000Y-105410000D03*
%TO.P,J1,3,Pin_3*%
%TO.N,PA5*%
X128270000Y-107950000D03*
%TO.P,J1,4,Pin_4*%
%TO.N,PA6*%
X128270000Y-110490000D03*
%TO.P,J1,5,Pin_5*%
%TO.N,PA7*%
X128270000Y-113030000D03*
%TO.P,J1,6,Pin_6*%
%TO.N,PB3*%
X128270000Y-115570000D03*
%TO.P,J1,7,Pin_7*%
%TO.N,PB2*%
X128270000Y-118110000D03*
%TO.P,J1,8,Pin_8*%
%TO.N,+5V*%
X128270000Y-120650000D03*
%TD*%
D16*
%TO.P,C2,1*%
%TO.N,+3.3V*%
X135685000Y-106680000D03*
%TO.P,C2,2*%
%TO.N,GND*%
X138635000Y-106680000D03*
%TD*%
%TO.P,C1,1*%
%TO.N,+5V*%
X133145000Y-115570000D03*
%TO.P,C1,2*%
%TO.N,GND*%
X136095000Y-115570000D03*
%TD*%
D17*
%TO.N,+3.3V*%
X135890000Y-113030000D03*
X134620000Y-105410000D03*
%TO.N,GND*%
X137160000Y-105410000D03*
X137160000Y-115570000D03*
%TD*%
D18*
%TO.N,+3.3V*%
X135890000Y-113030000D02*
X134620000Y-111760000D01*
X134620000Y-111760000D02*
X133527500Y-111760000D01*
X135685000Y-106475000D02*
X134620000Y-105410000D01*
X135685000Y-106680000D02*
X135685000Y-106475000D01*
%TO.N,GND*%
X138430000Y-106680000D02*
X137160000Y-105410000D01*
X138635000Y-106680000D02*
X138430000Y-106680000D01*
X139700000Y-107745000D02*
X139700000Y-114300000D01*
X138635000Y-106680000D02*
X139700000Y-107745000D01*
X139700000Y-114300000D02*
X138430000Y-115570000D01*
X138430000Y-115570000D02*
X137160000Y-115570000D01*
X137160000Y-115570000D02*
X136095000Y-115570000D01*
%TO.N,UPDI*%
X135890000Y-118110000D02*
X137160000Y-116840000D01*
X135890000Y-119380000D02*
X135890000Y-118110000D01*
X137160000Y-116840000D02*
X139700000Y-116840000D01*
X139700000Y-116840000D02*
X143510000Y-113030000D01*
%TO.N,+5V*%
X128270000Y-120650000D02*
X132080000Y-116840000D01*
X132080000Y-116840000D02*
X132080000Y-115570000D01*
%TO.N,GND*%
X136095000Y-115570000D02*
X135750000Y-115570000D01*
X135750000Y-115570000D02*
X133440000Y-113260000D01*
%TO.N,+5V*%
X132080000Y-115570000D02*
X130810000Y-114300000D01*
X133145000Y-115570000D02*
X132080000Y-115570000D01*
X130810000Y-114300000D02*
X130810000Y-112190000D01*
X130810000Y-112190000D02*
X132740000Y-110260000D01*
X132740000Y-110260000D02*
X133440000Y-110260000D01*
%TO.N,+3.3V*%
X135685000Y-106680000D02*
X135685000Y-111555000D01*
X135685000Y-111555000D02*
X135890000Y-111760000D01*
X135890000Y-111760000D02*
X133527500Y-111760000D01*
%TD*%
M02*
