%TF.GenerationSoftware,KiCad,Pcbnew,7.0.6*%
%TF.CreationDate,2023-08-24T15:38:00-04:00*%
%TF.ProjectId,t04mini,7430346d-696e-4692-9e6b-696361645f70,rev?*%
%TF.SameCoordinates,Original*%
%TF.FileFunction,Copper,L1,Top*%
%TF.FilePolarity,Positive*%
%FSLAX46Y46*%
G04 Gerber Fmt 4.6, Leading zero omitted, Abs format (unit mm)*
G04 Created by KiCad (PCBNEW 7.0.6) date 2023-08-24 15:38:00*
%MOMM*%
%LPD*%
G01*
G04 APERTURE LIST*
G04 Aperture macros list*
%AMRoundRect*
0 Rectangle with rounded corners*
0 $1 Rounding radius*
0 $2 $3 $4 $5 $6 $7 $8 $9 X,Y pos of 4 corners*
0 Add a 4 corners polygon primitive as box body*
4,1,4,$2,$3,$4,$5,$6,$7,$8,$9,$2,$3,0*
0 Add four circle primitives for the rounded corners*
1,1,$1+$1,$2,$3*
1,1,$1+$1,$4,$5*
1,1,$1+$1,$6,$7*
1,1,$1+$1,$8,$9*
0 Add four rect primitives between the rounded corners*
20,1,$1+$1,$2,$3,$4,$5,0*
20,1,$1+$1,$4,$5,$6,$7,0*
20,1,$1+$1,$6,$7,$8,$9,0*
20,1,$1+$1,$8,$9,$2,$3,0*%
G04 Aperture macros list end*
%TA.AperFunction,SMDPad,CuDef*%
%ADD10RoundRect,0.150000X-0.825000X-0.150000X0.825000X-0.150000X0.825000X0.150000X-0.825000X0.150000X0*%
%TD*%
%TA.AperFunction,ComponentPad*%
%ADD11RoundRect,0.250000X-0.265000X-0.615000X0.265000X-0.615000X0.265000X0.615000X-0.265000X0.615000X0*%
%TD*%
%TA.AperFunction,ComponentPad*%
%ADD12O,1.030000X1.730000*%
%TD*%
%TA.AperFunction,ComponentPad*%
%ADD13R,1.700000X1.700000*%
%TD*%
%TA.AperFunction,ComponentPad*%
%ADD14O,1.700000X1.700000*%
%TD*%
%TA.AperFunction,SMDPad,CuDef*%
%ADD15RoundRect,0.250000X-0.337500X-0.475000X0.337500X-0.475000X0.337500X0.475000X-0.337500X0.475000X0*%
%TD*%
%TA.AperFunction,ViaPad*%
%ADD16C,0.800000*%
%TD*%
%TA.AperFunction,Conductor*%
%ADD17C,0.250000*%
%TD*%
G04 APERTURE END LIST*
D10*
%TO.P,U1,1,VCC*%
%TO.N,+3.3V*%
X133415000Y-105410000D03*
%TO.P,U1,2,PA4*%
%TO.N,PA4*%
X133415000Y-106680000D03*
%TO.P,U1,3,PA5*%
%TO.N,PA5*%
X133415000Y-107950000D03*
%TO.P,U1,4,PA6*%
%TO.N,PA6*%
X133415000Y-109220000D03*
%TO.P,U1,5,PA7*%
%TO.N,PA7*%
X133415000Y-110490000D03*
%TO.P,U1,6,PB3*%
%TO.N,PB3*%
X133415000Y-111760000D03*
%TO.P,U1,7,PB2*%
%TO.N,PB2*%
X133415000Y-113030000D03*
%TO.P,U1,8,PB1*%
%TO.N,PB1*%
X138365000Y-113030000D03*
%TO.P,U1,9,PB0*%
%TO.N,PB0*%
X138365000Y-111760000D03*
%TO.P,U1,10,~{RESET}/PA0*%
%TO.N,UPDI*%
X138365000Y-110490000D03*
%TO.P,U1,11,PA1*%
%TO.N,PA1*%
X138365000Y-109220000D03*
%TO.P,U1,12,PA2*%
%TO.N,PA2*%
X138365000Y-107950000D03*
%TO.P,U1,13,PA3*%
%TO.N,PA3*%
X138365000Y-106680000D03*
%TO.P,U1,14,GND*%
%TO.N,GND*%
X138365000Y-105410000D03*
%TD*%
D11*
%TO.P,J3,1,Pin_1*%
%TO.N,+3.3V*%
X134390000Y-119380000D03*
D12*
%TO.P,J3,2,Pin_2*%
%TO.N,UPDI*%
X135890000Y-119380000D03*
%TO.P,J3,3,Pin_3*%
%TO.N,GND*%
X137390000Y-119380000D03*
%TD*%
D13*
%TO.P,J2,1,Pin_1*%
%TO.N,GND*%
X143510000Y-120650000D03*
D14*
%TO.P,J2,2,Pin_2*%
%TO.N,PB1*%
X143510000Y-118110000D03*
%TO.P,J2,3,Pin_3*%
%TO.N,PB0*%
X143510000Y-115570000D03*
%TO.P,J2,4,Pin_4*%
%TO.N,UPDI*%
X143510000Y-113030000D03*
%TO.P,J2,5,Pin_5*%
%TO.N,PA1*%
X143510000Y-110490000D03*
%TO.P,J2,6,Pin_6*%
%TO.N,PA2*%
X143510000Y-107950000D03*
%TO.P,J2,7,Pin_7*%
%TO.N,PA3*%
X143510000Y-105410000D03*
%TO.P,J2,8,Pin_8*%
%TO.N,GND*%
X143510000Y-102870000D03*
%TD*%
D13*
%TO.P,J1,1,Pin_1*%
%TO.N,+3.3V*%
X128270000Y-102870000D03*
D14*
%TO.P,J1,2,Pin_2*%
%TO.N,PA4*%
X128270000Y-105410000D03*
%TO.P,J1,3,Pin_3*%
%TO.N,PA5*%
X128270000Y-107950000D03*
%TO.P,J1,4,Pin_4*%
%TO.N,PA6*%
X128270000Y-110490000D03*
%TO.P,J1,5,Pin_5*%
%TO.N,PA7*%
X128270000Y-113030000D03*
%TO.P,J1,6,Pin_6*%
%TO.N,PB3*%
X128270000Y-115570000D03*
%TO.P,J1,7,Pin_7*%
%TO.N,PB2*%
X128270000Y-118110000D03*
%TO.P,J1,8,Pin_8*%
%TO.N,+5V*%
X128270000Y-120650000D03*
%TD*%
D15*
%TO.P,C3,1*%
%TO.N,+3.3V*%
X134852500Y-102870000D03*
%TO.P,C3,2*%
%TO.N,GND*%
X136927500Y-102870000D03*
%TD*%
D16*
%TO.N,+3.3V*%
X135890000Y-113030000D03*
X134620000Y-105410000D03*
%TO.N,GND*%
X137160000Y-105410000D03*
X137160000Y-115570000D03*
%TD*%
D17*
%TO.N,+3.3V*%
X135890000Y-114300000D02*
X135890000Y-113030000D01*
X134390000Y-115800000D02*
X135890000Y-114300000D01*
X134390000Y-119380000D02*
X134390000Y-115800000D01*
X134620000Y-105410000D02*
X133415000Y-105410000D01*
%TO.N,GND*%
X137160000Y-105410000D02*
X138365000Y-105410000D01*
X137390000Y-115800000D02*
X137160000Y-115570000D01*
X137390000Y-119380000D02*
X137390000Y-115800000D01*
X136927500Y-102870000D02*
X136927500Y-103972500D01*
X136927500Y-103972500D02*
X138365000Y-105410000D01*
%TO.N,+3.3V*%
X134852500Y-102870000D02*
X134852500Y-103972500D01*
X134852500Y-103972500D02*
X133415000Y-105410000D01*
%TO.N,GND*%
X138365000Y-105410000D02*
X140905000Y-102870000D01*
X140905000Y-102870000D02*
X143510000Y-102870000D01*
%TO.N,PA3*%
X138365000Y-106680000D02*
X142240000Y-106680000D01*
X142240000Y-106680000D02*
X143510000Y-105410000D01*
%TO.N,PA2*%
X138365000Y-107950000D02*
X143510000Y-107950000D01*
%TO.N,PA1*%
X138365000Y-109220000D02*
X142240000Y-109220000D01*
X142240000Y-109220000D02*
X143510000Y-110490000D01*
%TO.N,UPDI*%
X138365000Y-110490000D02*
X140970000Y-110490000D01*
X140970000Y-110490000D02*
X143510000Y-113030000D01*
%TO.N,PB0*%
X138365000Y-111760000D02*
X139700000Y-111760000D01*
X139700000Y-111760000D02*
X143510000Y-115570000D01*
%TO.N,PB1*%
X138365000Y-113030000D02*
X138430000Y-113030000D01*
X138430000Y-113030000D02*
X143510000Y-118110000D01*
%TO.N,PB2*%
X133415000Y-113030000D02*
X133350000Y-113030000D01*
X133350000Y-113030000D02*
X128270000Y-118110000D01*
%TO.N,PB3*%
X133415000Y-111760000D02*
X132080000Y-111760000D01*
X132080000Y-111760000D02*
X128270000Y-115570000D01*
%TO.N,PA7*%
X133415000Y-110490000D02*
X130810000Y-110490000D01*
X130810000Y-110490000D02*
X128270000Y-113030000D01*
%TO.N,PA6*%
X133415000Y-109220000D02*
X129540000Y-109220000D01*
X129540000Y-109220000D02*
X128270000Y-110490000D01*
%TO.N,PA5*%
X133415000Y-107950000D02*
X128270000Y-107950000D01*
%TO.N,PA4*%
X133415000Y-106680000D02*
X129540000Y-106680000D01*
X129540000Y-106680000D02*
X128270000Y-105410000D01*
%TO.N,+3.3V*%
X133415000Y-105410000D02*
X130875000Y-102870000D01*
X130875000Y-102870000D02*
X128270000Y-102870000D01*
%TO.N,GND*%
X137390000Y-119380000D02*
X138430000Y-119380000D01*
X139700000Y-120650000D02*
X143510000Y-120650000D01*
X138430000Y-119380000D02*
X139700000Y-120650000D01*
%TD*%
M02*
