M48
; DRILL file {KiCad 7.0.6} date Thu Aug 24 17:38:14 2023
; FORMAT={-:-/ absolute / inch / decimal}
; #@! TF.CreationDate,2023-08-24T17:38:14-04:00
; #@! TF.GenerationSoftware,Kicad,Pcbnew,7.0.6
; #@! TF.FileFunction,Plated,1,2,PTH
FMAT,2
INCH
; #@! TA.AperFunction,Plated,PTH,ViaDrill
T1C0.0157
; #@! TA.AperFunction,Plated,PTH,ComponentDrill
T2C0.0295
; #@! TA.AperFunction,Plated,PTH,ComponentDrill
T3C0.0315
; #@! TA.AperFunction,Plated,PTH,ComponentDrill
T4C0.0362
; #@! TA.AperFunction,Plated,PTH,ComponentDrill
T5C0.0394
; #@! TA.AperFunction,Plated,PTH,ComponentDrill
T6C0.0917
; #@! TA.AperFunction,Plated,PTH,ComponentDrill
T7C0.1260
%
G90
G05
T1
X3.575Y-2.2
X3.875Y-2.7
X3.875Y-3.1
X3.9301Y-2.8051
X3.95Y-2.725
X3.975Y-2.4
X4.025Y-2.5
X4.125Y-2.825
X4.525Y-2.6
X4.525Y-2.8535
X4.575Y-2.3
X4.575Y-2.825
X4.6Y-2.65
X4.65Y-2.475
X4.675Y-2.275
X4.7535Y-3.025
X4.775Y-2.8
X4.825Y-2.625
X4.825Y-2.975
X4.825Y-3.15
X4.875Y-2.5
X4.925Y-3.275
X5.0Y-3.225
X5.25Y-3.125
X5.475Y-2.65
X5.575Y-2.925
X5.65Y-2.825
T2
X4.15Y-2.2
X4.15Y-2.2787
X4.15Y-2.3575
X4.15Y-2.4362
X4.425Y-2.2
X4.425Y-2.2787
X4.425Y-2.3575
X4.425Y-2.4362
T3
X3.5856Y-3.1106
X3.5856Y-3.1894
X3.6644Y-3.1106
X3.6644Y-3.1894
X4.6606Y-3.225
X4.7394Y-3.225
T4
X3.5802Y-2.6508
X3.5802Y-2.7492
X3.659Y-2.6508
X3.659Y-2.7492
T5
X4.2Y-2.7
X4.2Y-2.8
X4.2Y-2.9
X4.2Y-3.0
X4.2Y-3.1
X4.2Y-3.2
X4.3Y-2.7
X4.3Y-2.8
X4.3Y-2.9
X4.3Y-3.0
X4.3Y-3.1
X4.3Y-3.2
X5.0Y-2.3
X5.0Y-2.4
X5.0Y-2.7
X5.0Y-2.8
X5.0Y-2.9
X5.0Y-3.0
X5.1Y-2.3
X5.1Y-2.4
X5.2Y-2.3
X5.2Y-2.4
X5.3Y-2.3
X5.3Y-2.4
X5.4Y-2.3
X5.4Y-2.4
X5.5Y-2.3
X5.5Y-2.4
X5.7882Y-2.5364
X5.7882Y-2.6455
X5.7882Y-2.7545
X5.7882Y-2.8636
X5.9Y-2.4819
X5.9Y-2.5909
X5.9Y-2.7
X5.9Y-2.8091
X5.9Y-2.9181
T6
X3.4735Y-2.463
X3.4735Y-2.937
T7
X3.25Y-2.2
X5.45Y-3.2
X5.8441Y-2.2079
X5.8441Y-3.1921
T0
M30
