%TF.GenerationSoftware,KiCad,Pcbnew,7.0.6*%
%TF.CreationDate,2023-08-24T17:38:11-04:00*%
%TF.ProjectId,usbio,75736269-6f2e-46b6-9963-61645f706362,rev?*%
%TF.SameCoordinates,Original*%
%TF.FileFunction,Copper,L1,Top*%
%TF.FilePolarity,Positive*%
%FSLAX46Y46*%
G04 Gerber Fmt 4.6, Leading zero omitted, Abs format (unit mm)*
G04 Created by KiCad (PCBNEW 7.0.6) date 2023-08-24 17:38:11*
%MOMM*%
%LPD*%
G01*
G04 APERTURE LIST*
G04 Aperture macros list*
%AMRoundRect*
0 Rectangle with rounded corners*
0 $1 Rounding radius*
0 $2 $3 $4 $5 $6 $7 $8 $9 X,Y pos of 4 corners*
0 Add a 4 corners polygon primitive as box body*
4,1,4,$2,$3,$4,$5,$6,$7,$8,$9,$2,$3,0*
0 Add four circle primitives for the rounded corners*
1,1,$1+$1,$2,$3*
1,1,$1+$1,$4,$5*
1,1,$1+$1,$6,$7*
1,1,$1+$1,$8,$9*
0 Add four rect primitives between the rounded corners*
20,1,$1+$1,$2,$3,$4,$5,0*
20,1,$1+$1,$4,$5,$6,$7,0*
20,1,$1+$1,$6,$7,$8,$9,0*
20,1,$1+$1,$8,$9,$2,$3,0*%
%AMFreePoly0*
4,1,9,5.362500,-0.866500,1.237500,-0.866500,1.237500,-0.450000,-1.237500,-0.450000,-1.237500,0.450000,1.237500,0.450000,1.237500,0.866500,5.362500,0.866500,5.362500,-0.866500,5.362500,-0.866500,$1*%
G04 Aperture macros list end*
%TA.AperFunction,ComponentPad*%
%ADD10R,1.700000X1.700000*%
%TD*%
%TA.AperFunction,ComponentPad*%
%ADD11O,1.700000X1.700000*%
%TD*%
%TA.AperFunction,SMDPad,CuDef*%
%ADD12RoundRect,0.150000X0.825000X0.150000X-0.825000X0.150000X-0.825000X-0.150000X0.825000X-0.150000X0*%
%TD*%
%TA.AperFunction,ComponentPad*%
%ADD13C,5.600000*%
%TD*%
%TA.AperFunction,ComponentPad*%
%ADD14C,4.000000*%
%TD*%
%TA.AperFunction,ComponentPad*%
%ADD15R,1.600000X1.600000*%
%TD*%
%TA.AperFunction,ComponentPad*%
%ADD16C,1.600000*%
%TD*%
%TA.AperFunction,SMDPad,CuDef*%
%ADD17RoundRect,0.150000X-0.150000X0.875000X-0.150000X-0.875000X0.150000X-0.875000X0.150000X0.875000X0*%
%TD*%
%TA.AperFunction,SMDPad,CuDef*%
%ADD18RoundRect,0.250000X-0.475000X0.250000X-0.475000X-0.250000X0.475000X-0.250000X0.475000X0.250000X0*%
%TD*%
%TA.AperFunction,ComponentPad*%
%ADD19RoundRect,0.250000X-0.625000X0.350000X-0.625000X-0.350000X0.625000X-0.350000X0.625000X0.350000X0*%
%TD*%
%TA.AperFunction,ComponentPad*%
%ADD20O,1.750000X1.200000*%
%TD*%
%TA.AperFunction,SMDPad,CuDef*%
%ADD21R,0.900000X2.300000*%
%TD*%
%TA.AperFunction,SMDPad,CuDef*%
%ADD22FreePoly0,90.000000*%
%TD*%
%TA.AperFunction,ComponentPad*%
%ADD23C,1.700000*%
%TD*%
%TA.AperFunction,ComponentPad*%
%ADD24C,3.500000*%
%TD*%
%TA.AperFunction,SMDPad,CuDef*%
%ADD25RoundRect,0.250000X-0.250000X-0.475000X0.250000X-0.475000X0.250000X0.475000X-0.250000X0.475000X0*%
%TD*%
%TA.AperFunction,SMDPad,CuDef*%
%ADD26RoundRect,0.250000X-0.262500X-0.450000X0.262500X-0.450000X0.262500X0.450000X-0.262500X0.450000X0*%
%TD*%
%TA.AperFunction,SMDPad,CuDef*%
%ADD27R,1.560000X0.650000*%
%TD*%
%TA.AperFunction,ComponentPad*%
%ADD28R,1.350000X1.350000*%
%TD*%
%TA.AperFunction,ComponentPad*%
%ADD29O,1.350000X1.350000*%
%TD*%
%TA.AperFunction,SMDPad,CuDef*%
%ADD30RoundRect,0.250000X0.250000X0.475000X-0.250000X0.475000X-0.250000X-0.475000X0.250000X-0.475000X0*%
%TD*%
%TA.AperFunction,SMDPad,CuDef*%
%ADD31RoundRect,0.150000X-0.825000X-0.150000X0.825000X-0.150000X0.825000X0.150000X-0.825000X0.150000X0*%
%TD*%
%TA.AperFunction,SMDPad,CuDef*%
%ADD32RoundRect,0.150000X-0.150000X0.825000X-0.150000X-0.825000X0.150000X-0.825000X0.150000X0.825000X0*%
%TD*%
%TA.AperFunction,SMDPad,CuDef*%
%ADD33RoundRect,0.250000X0.325000X1.100000X-0.325000X1.100000X-0.325000X-1.100000X0.325000X-1.100000X0*%
%TD*%
%TA.AperFunction,SMDPad,CuDef*%
%ADD34RoundRect,0.250000X0.325000X0.650000X-0.325000X0.650000X-0.325000X-0.650000X0.325000X-0.650000X0*%
%TD*%
%TA.AperFunction,SMDPad,CuDef*%
%ADD35RoundRect,0.250000X1.100000X-0.325000X1.100000X0.325000X-1.100000X0.325000X-1.100000X-0.325000X0*%
%TD*%
%TA.AperFunction,SMDPad,CuDef*%
%ADD36RoundRect,0.250000X0.262500X0.450000X-0.262500X0.450000X-0.262500X-0.450000X0.262500X-0.450000X0*%
%TD*%
%TA.AperFunction,ViaPad*%
%ADD37C,0.800000*%
%TD*%
%TA.AperFunction,Conductor*%
%ADD38C,0.250000*%
%TD*%
G04 APERTURE END LIST*
D10*
%TO.P,J10,1,Pin_1*%
%TO.N,+3.3V*%
X127000000Y-60960000D03*
D11*
%TO.P,J10,2,Pin_2*%
%TO.N,/AN3*%
X129540000Y-60960000D03*
%TO.P,J10,3,Pin_3*%
%TO.N,GND*%
X132080000Y-60960000D03*
%TO.P,J10,4,Pin_4*%
%TO.N,+3.3V*%
X134620000Y-60960000D03*
%TO.P,J10,5,Pin_5*%
%TO.N,/AN4*%
X137160000Y-60960000D03*
%TO.P,J10,6,Pin_6*%
%TO.N,GND*%
X139700000Y-60960000D03*
%TD*%
D12*
%TO.P,U1,1,VDD*%
%TO.N,+3.3V*%
X102870000Y-77470000D03*
%TO.P,U1,2,GP0*%
%TO.N,unconnected-(U1-GP0-Pad2)*%
X102870000Y-76200000D03*
%TO.P,U1,3,GP1*%
%TO.N,unconnected-(U1-GP1-Pad3)*%
X102870000Y-74930000D03*
%TO.P,U1,4,~{RST}*%
%TO.N,unconnected-(U1-~{RST}-Pad4)*%
X102870000Y-73660000D03*
%TO.P,U1,5,URx*%
%TO.N,Net-(U1-URx)*%
X102870000Y-72390000D03*
%TO.P,U1,6,UTx*%
%TO.N,Net-(J7-Pin_3)*%
X102870000Y-71120000D03*
%TO.P,U1,7,GP2*%
%TO.N,unconnected-(U1-GP2-Pad7)*%
X102870000Y-69850000D03*
%TO.P,U1,8,GP3*%
%TO.N,unconnected-(U1-GP3-Pad8)*%
X97920000Y-69850000D03*
%TO.P,U1,9,SDA*%
%TO.N,/SDA*%
X97920000Y-71120000D03*
%TO.P,U1,10,SCL*%
%TO.N,/SCL*%
X97920000Y-72390000D03*
%TO.P,U1,11,VUSB*%
%TO.N,+3.3V*%
X97920000Y-73660000D03*
%TO.P,U1,12,D-*%
%TO.N,Net-(J1-D-)*%
X97920000Y-74930000D03*
%TO.P,U1,13,D+*%
%TO.N,Net-(J1-D+)*%
X97920000Y-76200000D03*
%TO.P,U1,14,VSS*%
%TO.N,GND*%
X97920000Y-77470000D03*
%TD*%
D13*
%TO.P,H2,1,1*%
%TO.N,GND*%
X138430000Y-81280000D03*
%TD*%
D14*
%TO.P,J2,0,PAD*%
%TO.N,GND*%
X148440000Y-56080000D03*
X148440000Y-81080000D03*
D15*
%TO.P,J2,1,1*%
%TO.N,unconnected-(J2-Pad1)*%
X149860000Y-63040000D03*
D16*
%TO.P,J2,2,2*%
%TO.N,Net-(U2-R1IN)*%
X149860000Y-65810000D03*
%TO.P,J2,3,3*%
%TO.N,Net-(U2-T1OUT)*%
X149860000Y-68580000D03*
%TO.P,J2,4,4*%
%TO.N,unconnected-(J2-Pad4)*%
X149860000Y-71350000D03*
%TO.P,J2,5,5*%
%TO.N,GND*%
X149860000Y-74120000D03*
%TO.P,J2,6,6*%
%TO.N,unconnected-(J2-Pad6)*%
X147020000Y-64425000D03*
%TO.P,J2,7,7*%
%TO.N,unconnected-(J2-Pad7)*%
X147020000Y-67195000D03*
%TO.P,J2,8,8*%
%TO.N,unconnected-(J2-Pad8)*%
X147020000Y-69965000D03*
%TO.P,J2,9,9*%
%TO.N,unconnected-(J2-Pad9)*%
X147020000Y-72735000D03*
%TD*%
D17*
%TO.P,U3,1,A0*%
%TO.N,/ADDR0*%
X122555000Y-69010000D03*
%TO.P,U3,2,A1*%
%TO.N,+3.3V*%
X121285000Y-69010000D03*
%TO.P,U3,3,A2*%
%TO.N,GND*%
X120015000Y-69010000D03*
%TO.P,U3,4,P0*%
%TO.N,Net-(J5-Pin_2)*%
X118745000Y-69010000D03*
%TO.P,U3,5,P1*%
%TO.N,Net-(J5-Pin_3)*%
X117475000Y-69010000D03*
%TO.P,U3,6,P2*%
%TO.N,Net-(J5-Pin_4)*%
X116205000Y-69010000D03*
%TO.P,U3,7,P3*%
%TO.N,Net-(J5-Pin_5)*%
X114935000Y-69010000D03*
%TO.P,U3,8,GND*%
%TO.N,GND*%
X113665000Y-69010000D03*
%TO.P,U3,9,P4*%
%TO.N,Net-(J6-Pin_2)*%
X113665000Y-78310000D03*
%TO.P,U3,10,P5*%
%TO.N,Net-(J6-Pin_3)*%
X114935000Y-78310000D03*
%TO.P,U3,11,P6*%
%TO.N,Net-(J6-Pin_4)*%
X116205000Y-78310000D03*
%TO.P,U3,12,P7*%
%TO.N,Net-(J6-Pin_5)*%
X117475000Y-78310000D03*
%TO.P,U3,13,~{INT}*%
%TO.N,unconnected-(U3-~{INT}-Pad13)*%
X118745000Y-78310000D03*
%TO.P,U3,14,SCL*%
%TO.N,/SCL*%
X120015000Y-78310000D03*
%TO.P,U3,15,SDA*%
%TO.N,/SDA*%
X121285000Y-78310000D03*
%TO.P,U3,16,VDD*%
%TO.N,+3.3V*%
X122555000Y-78310000D03*
%TD*%
D10*
%TO.P,J6,1,Pin_1*%
%TO.N,+3.3V*%
X106680000Y-68580000D03*
D11*
%TO.P,J6,2,Pin_2*%
%TO.N,Net-(J6-Pin_2)*%
X106680000Y-71120000D03*
%TO.P,J6,3,Pin_3*%
%TO.N,Net-(J6-Pin_3)*%
X106680000Y-73660000D03*
%TO.P,J6,4,Pin_4*%
%TO.N,Net-(J6-Pin_4)*%
X106680000Y-76200000D03*
%TO.P,J6,5,Pin_5*%
%TO.N,Net-(J6-Pin_5)*%
X106680000Y-78740000D03*
%TO.P,J6,6,Pin_6*%
%TO.N,GND*%
X106680000Y-81280000D03*
%TD*%
D18*
%TO.P,C9,1*%
%TO.N,Net-(U2-VS-)*%
X131445000Y-76520000D03*
%TO.P,C9,2*%
%TO.N,GND*%
X131445000Y-78420000D03*
%TD*%
D19*
%TO.P,J3,1,Pin_1*%
%TO.N,/SCL*%
X105410000Y-55880000D03*
D20*
%TO.P,J3,2,Pin_2*%
%TO.N,/SDA*%
X105410000Y-57880000D03*
%TO.P,J3,3,Pin_3*%
%TO.N,+3.3V*%
X105410000Y-59880000D03*
%TO.P,J3,4,Pin_4*%
%TO.N,GND*%
X105410000Y-61880000D03*
%TD*%
D10*
%TO.P,J5,1,Pin_1*%
%TO.N,+3.3V*%
X109220000Y-68580000D03*
D11*
%TO.P,J5,2,Pin_2*%
%TO.N,Net-(J5-Pin_2)*%
X109220000Y-71120000D03*
%TO.P,J5,3,Pin_3*%
%TO.N,Net-(J5-Pin_3)*%
X109220000Y-73660000D03*
%TO.P,J5,4,Pin_4*%
%TO.N,Net-(J5-Pin_4)*%
X109220000Y-76200000D03*
%TO.P,J5,5,Pin_5*%
%TO.N,Net-(J5-Pin_5)*%
X109220000Y-78740000D03*
%TO.P,J5,6,Pin_6*%
%TO.N,GND*%
X109220000Y-81280000D03*
%TD*%
D21*
%TO.P,U5,1,GND*%
%TO.N,GND*%
X87400000Y-58330000D03*
D22*
%TO.P,U5,2,VO*%
%TO.N,+3.3V*%
X88900000Y-58242500D03*
D21*
%TO.P,U5,3,VI*%
%TO.N,+5V*%
X90400000Y-58330000D03*
%TD*%
D10*
%TO.P,J1,1,VBUS*%
%TO.N,+5V*%
X92937500Y-69830000D03*
D23*
%TO.P,J1,2,D-*%
%TO.N,Net-(J1-D-)*%
X92937500Y-67330000D03*
%TO.P,J1,3,D+*%
%TO.N,Net-(J1-D+)*%
X90937500Y-67330000D03*
%TO.P,J1,4,GND*%
%TO.N,GND*%
X90937500Y-69830000D03*
D24*
%TO.P,J1,5,Shield*%
X88227500Y-74600000D03*
X88227500Y-62560000D03*
%TD*%
D25*
%TO.P,C8,1*%
%TO.N,Net-(U2-VS+)*%
X136210000Y-66040000D03*
%TO.P,C8,2*%
%TO.N,GND*%
X138110000Y-66040000D03*
%TD*%
D26*
%TO.P,R2,1*%
%TO.N,+3.3V*%
X86082500Y-78740000D03*
%TO.P,R2,2*%
%TO.N,Net-(J8-Pin_2)*%
X87907500Y-78740000D03*
%TD*%
D27*
%TO.P,U6,1*%
%TO.N,Net-(U2-R1OUT)*%
X132795000Y-82865000D03*
%TO.P,U6,2*%
%TO.N,Net-(J7-Pin_2)*%
X132795000Y-81915000D03*
%TO.P,U6,3,GND*%
%TO.N,GND*%
X132795000Y-80965000D03*
%TO.P,U6,4*%
%TO.N,Net-(U1-URx)*%
X130095000Y-80965000D03*
%TO.P,U6,5,VCC*%
%TO.N,+3.3V*%
X130095000Y-82865000D03*
%TD*%
D28*
%TO.P,JP1,1,A*%
%TO.N,+3.3V*%
X118380000Y-81915000D03*
D29*
%TO.P,JP1,2,B*%
%TO.N,/ADDR0*%
X120380000Y-81915000D03*
%TD*%
D13*
%TO.P,H1,1,1*%
%TO.N,GND*%
X82550000Y-55880000D03*
%TD*%
D30*
%TO.P,C5,1*%
%TO.N,+3.3V*%
X120330000Y-66040000D03*
%TO.P,C5,2*%
%TO.N,GND*%
X118430000Y-66040000D03*
%TD*%
D10*
%TO.P,J7,1,Pin_1*%
%TO.N,GND*%
X127000000Y-68580000D03*
D11*
%TO.P,J7,2,Pin_2*%
%TO.N,Net-(J7-Pin_2)*%
X127000000Y-71120000D03*
%TO.P,J7,3,Pin_3*%
%TO.N,Net-(J7-Pin_3)*%
X127000000Y-73660000D03*
%TO.P,J7,4,Pin_4*%
%TO.N,+3.3V*%
X127000000Y-76200000D03*
%TD*%
D31*
%TO.P,U2,1,C1+*%
%TO.N,Net-(U2-C1+)*%
X134685000Y-68580000D03*
%TO.P,U2,2,VS+*%
%TO.N,Net-(U2-VS+)*%
X134685000Y-69850000D03*
%TO.P,U2,3,C1-*%
%TO.N,Net-(U2-C1-)*%
X134685000Y-71120000D03*
%TO.P,U2,4,C2+*%
%TO.N,Net-(U2-C2+)*%
X134685000Y-72390000D03*
%TO.P,U2,5,C2-*%
%TO.N,Net-(U2-C2-)*%
X134685000Y-73660000D03*
%TO.P,U2,6,VS-*%
%TO.N,Net-(U2-VS-)*%
X134685000Y-74930000D03*
%TO.P,U2,7,T2OUT*%
%TO.N,unconnected-(U2-T2OUT-Pad7)*%
X134685000Y-76200000D03*
%TO.P,U2,8,R2IN*%
%TO.N,unconnected-(U2-R2IN-Pad8)*%
X134685000Y-77470000D03*
%TO.P,U2,9,R2OUT*%
%TO.N,unconnected-(U2-R2OUT-Pad9)*%
X139635000Y-77470000D03*
%TO.P,U2,10,T2IN*%
%TO.N,unconnected-(U2-T2IN-Pad10)*%
X139635000Y-76200000D03*
%TO.P,U2,11,T1IN*%
%TO.N,Net-(J7-Pin_3)*%
X139635000Y-74930000D03*
%TO.P,U2,12,R1OUT*%
%TO.N,Net-(U2-R1OUT)*%
X139635000Y-73660000D03*
%TO.P,U2,13,R1IN*%
%TO.N,Net-(U2-R1IN)*%
X139635000Y-72390000D03*
%TO.P,U2,14,T1OUT*%
%TO.N,Net-(U2-T1OUT)*%
X139635000Y-71120000D03*
%TO.P,U2,15,GND*%
%TO.N,GND*%
X139635000Y-69850000D03*
%TO.P,U2,16,VCC*%
%TO.N,+3.3V*%
X139635000Y-68580000D03*
%TD*%
D10*
%TO.P,J9,1,Pin_1*%
%TO.N,GND*%
X127000000Y-58420000D03*
D11*
%TO.P,J9,2,Pin_2*%
%TO.N,/AN1p*%
X129540000Y-58420000D03*
%TO.P,J9,3,Pin_3*%
%TO.N,/AN1n*%
X132080000Y-58420000D03*
%TO.P,J9,4,Pin_4*%
%TO.N,GND*%
X134620000Y-58420000D03*
%TO.P,J9,5,Pin_5*%
%TO.N,/AN2p*%
X137160000Y-58420000D03*
%TO.P,J9,6,Pin_6*%
%TO.N,/AN2n*%
X139700000Y-58420000D03*
%TD*%
D18*
%TO.P,C7,1*%
%TO.N,Net-(U2-C2+)*%
X131445000Y-72710000D03*
%TO.P,C7,2*%
%TO.N,Net-(U2-C2-)*%
X131445000Y-74610000D03*
%TD*%
D25*
%TO.P,C10,1*%
%TO.N,+3.3V*%
X115890000Y-53340000D03*
%TO.P,C10,2*%
%TO.N,GND*%
X117790000Y-53340000D03*
%TD*%
D28*
%TO.P,J8,1,Pin_1*%
%TO.N,Net-(J8-Pin_1)*%
X91075000Y-81010000D03*
D29*
%TO.P,J8,2,Pin_2*%
%TO.N,Net-(J8-Pin_2)*%
X91075000Y-79010000D03*
%TO.P,J8,3,Pin_3*%
%TO.N,/SCL*%
X93075000Y-81010000D03*
%TO.P,J8,4,Pin_4*%
%TO.N,/SDA*%
X93075000Y-79010000D03*
%TD*%
D32*
%TO.P,U4,1,CH1+*%
%TO.N,/AN1p*%
X123825000Y-55945000D03*
%TO.P,U4,2,CH1-*%
%TO.N,/AN1n*%
X122555000Y-55945000D03*
%TO.P,U4,3,CH2+*%
%TO.N,/AN2p*%
X121285000Y-55945000D03*
%TO.P,U4,4,CH2-*%
%TO.N,/AN2n*%
X120015000Y-55945000D03*
%TO.P,U4,5,VSS*%
%TO.N,GND*%
X118745000Y-55945000D03*
%TO.P,U4,6,VDD*%
%TO.N,+3.3V*%
X117475000Y-55945000D03*
%TO.P,U4,7,SDA*%
%TO.N,/SDA*%
X116205000Y-55945000D03*
%TO.P,U4,8,SCL*%
%TO.N,/SCL*%
X116205000Y-60895000D03*
%TO.P,U4,9,Adr0*%
%TO.N,/ADDR0*%
X117475000Y-60895000D03*
%TO.P,U4,10,Adr1*%
%TO.N,+3.3V*%
X118745000Y-60895000D03*
%TO.P,U4,11,CH3+*%
%TO.N,/AN3*%
X120015000Y-60895000D03*
%TO.P,U4,12,CH3-*%
%TO.N,GND*%
X121285000Y-60895000D03*
%TO.P,U4,13,CH4+*%
%TO.N,/AN4*%
X122555000Y-60895000D03*
%TO.P,U4,14,CH4-*%
%TO.N,GND*%
X123825000Y-60895000D03*
%TD*%
D19*
%TO.P,J4,1,Pin_1*%
%TO.N,/SCL*%
X112395000Y-55880000D03*
D20*
%TO.P,J4,2,Pin_2*%
%TO.N,/SDA*%
X112395000Y-57880000D03*
%TO.P,J4,3,Pin_3*%
%TO.N,+3.3V*%
X112395000Y-59880000D03*
%TO.P,J4,4,Pin_4*%
%TO.N,GND*%
X112395000Y-61880000D03*
%TD*%
D26*
%TO.P,R1,1*%
%TO.N,+3.3V*%
X86082500Y-81280000D03*
%TO.P,R1,2*%
%TO.N,Net-(J8-Pin_1)*%
X87907500Y-81280000D03*
%TD*%
D25*
%TO.P,C4,1*%
%TO.N,+3.3V*%
X96840000Y-67310000D03*
%TO.P,C4,2*%
%TO.N,GND*%
X98740000Y-67310000D03*
%TD*%
D18*
%TO.P,C6,1*%
%TO.N,Net-(U2-C1+)*%
X131445000Y-68900000D03*
%TO.P,C6,2*%
%TO.N,Net-(U2-C1-)*%
X131445000Y-70800000D03*
%TD*%
D33*
%TO.P,C2,1*%
%TO.N,+3.3V*%
X99265000Y-54610000D03*
%TO.P,C2,2*%
%TO.N,GND*%
X96315000Y-54610000D03*
%TD*%
D34*
%TO.P,C3,1*%
%TO.N,+3.3V*%
X99265000Y-58420000D03*
%TO.P,C3,2*%
%TO.N,GND*%
X96315000Y-58420000D03*
%TD*%
D35*
%TO.P,C1,1*%
%TO.N,+5V*%
X93345000Y-57990000D03*
%TO.P,C1,2*%
%TO.N,GND*%
X93345000Y-55040000D03*
%TD*%
D36*
%TO.P,R3,1*%
%TO.N,GND*%
X125095000Y-81915000D03*
%TO.P,R3,2*%
%TO.N,/ADDR0*%
X123270000Y-81915000D03*
%TD*%
D37*
%TO.N,GND*%
X90805000Y-55880000D03*
X133350000Y-79375000D03*
X114935000Y-66040000D03*
X98425000Y-78740000D03*
X118745000Y-57785000D03*
X125095000Y-83185000D03*
X98425000Y-68580000D03*
%TO.N,+3.3V*%
X127000000Y-81915000D03*
X122555000Y-75565000D03*
X122555000Y-66675000D03*
X139065000Y-67310000D03*
%TO.N,Net-(U2-R1IN)*%
X143510000Y-71755000D03*
%TO.N,/SCL*%
X99824125Y-71249125D03*
X102235000Y-63500000D03*
X116205000Y-58420000D03*
%TO.N,Net-(J5-Pin_2)*%
X116840000Y-67310000D03*
%TO.N,Net-(J5-Pin_4)*%
X116205000Y-71755000D03*
%TO.N,Net-(J5-Pin_5)*%
X114935000Y-72479500D03*
%TO.N,/SDA*%
X100330000Y-69215000D03*
X100965000Y-60960000D03*
X120739500Y-76835000D03*
%TO.N,Net-(J7-Pin_3)*%
X141605000Y-74295000D03*
X104775000Y-71755000D03*
%TO.N,/ADDR0*%
X118110000Y-62865000D03*
X121285000Y-71120000D03*
X122555000Y-80010000D03*
%TO.N,/AN3*%
X123825000Y-63500000D03*
%TD*%
D38*
%TO.N,+5V*%
X92937500Y-70892500D02*
X92075000Y-71755000D01*
X93005000Y-58330000D02*
X90400000Y-58330000D01*
X89535000Y-71755000D02*
X88900000Y-71120000D01*
X88900000Y-66040000D02*
X90400000Y-64540000D01*
X90400000Y-64540000D02*
X90400000Y-58330000D01*
X88900000Y-71120000D02*
X88900000Y-66040000D01*
X93345000Y-57990000D02*
X93005000Y-58330000D01*
X92937500Y-69830000D02*
X92937500Y-70892500D01*
X92075000Y-71755000D02*
X89535000Y-71755000D01*
%TO.N,GND*%
X97920000Y-78235000D02*
X98425000Y-78740000D01*
X135890000Y-78105000D02*
X136525000Y-77470000D01*
X118430000Y-66040000D02*
X114935000Y-66040000D01*
X118745000Y-56270305D02*
X118745000Y-55945000D01*
X123825000Y-59690000D02*
X123190000Y-59055000D01*
X118745000Y-57785000D02*
X118745000Y-54295000D01*
X120015000Y-59055000D02*
X118745000Y-57785000D01*
X133350000Y-80410000D02*
X132795000Y-80965000D01*
X98740000Y-68265000D02*
X98425000Y-68580000D01*
X138430000Y-69850000D02*
X137795000Y-69215000D01*
X120015000Y-69010000D02*
X120015000Y-67625000D01*
X131445000Y-78420000D02*
X132395000Y-78420000D01*
X137795000Y-69215000D02*
X137795000Y-66355000D01*
X121285000Y-60325000D02*
X120015000Y-59055000D01*
X91645000Y-55040000D02*
X90805000Y-55880000D01*
X113665000Y-67310000D02*
X113665000Y-69010000D01*
X123190000Y-59055000D02*
X120015000Y-59055000D01*
X120015000Y-67625000D02*
X118430000Y-66040000D01*
X96315000Y-58420000D02*
X96315000Y-54610000D01*
X117790000Y-53340000D02*
X118745000Y-54295000D01*
X134620000Y-78105000D02*
X135890000Y-78105000D01*
X114935000Y-66040000D02*
X113665000Y-67310000D01*
X97920000Y-77470000D02*
X97920000Y-78235000D01*
X87400000Y-58330000D02*
X87400000Y-61732500D01*
X139635000Y-69850000D02*
X138430000Y-69850000D01*
X137795000Y-66355000D02*
X138110000Y-66040000D01*
X136525000Y-70485000D02*
X137795000Y-69215000D01*
X123825000Y-60895000D02*
X123825000Y-59690000D01*
X136525000Y-77470000D02*
X136525000Y-70485000D01*
X87400000Y-61732500D02*
X88227500Y-62560000D01*
X98740000Y-67310000D02*
X98740000Y-68265000D01*
X125095000Y-81915000D02*
X125095000Y-83185000D01*
X93345000Y-55040000D02*
X95885000Y-55040000D01*
X95885000Y-55040000D02*
X96315000Y-54610000D01*
X133350000Y-79375000D02*
X134620000Y-78105000D01*
X133350000Y-79375000D02*
X133350000Y-80410000D01*
X132395000Y-78420000D02*
X133350000Y-79375000D01*
X93345000Y-55040000D02*
X91645000Y-55040000D01*
%TO.N,+3.3V*%
X139635000Y-67880000D02*
X139065000Y-67310000D01*
X99265000Y-54610000D02*
X99265000Y-58420000D01*
X114935000Y-61785000D02*
X113030000Y-59880000D01*
X99265000Y-60755000D02*
X96840000Y-63180000D01*
X99265000Y-58420000D02*
X99265000Y-60755000D01*
X139635000Y-68580000D02*
X139635000Y-67880000D01*
X116201751Y-54295000D02*
X116201751Y-53651751D01*
X116205000Y-64770000D02*
X114935000Y-63500000D01*
X122555000Y-75565000D02*
X122555000Y-78310000D01*
X99695000Y-73660000D02*
X100330000Y-74295000D01*
X100330000Y-76835000D02*
X100965000Y-77470000D01*
X122555000Y-78736751D02*
X122555000Y-78310000D01*
X97920000Y-73660000D02*
X99695000Y-73660000D01*
X86082500Y-77192500D02*
X85090000Y-76200000D01*
X114620000Y-54610000D02*
X99265000Y-54610000D01*
X116201751Y-53651751D02*
X115890000Y-53340000D01*
X123825000Y-76200000D02*
X127000000Y-76200000D01*
X118380000Y-81010000D02*
X119730000Y-79660000D01*
X88900000Y-57580000D02*
X88900000Y-58242500D01*
X95885000Y-73025000D02*
X96520000Y-73660000D01*
X116201751Y-54295000D02*
X117475000Y-55568249D01*
X121631751Y-79660000D02*
X122555000Y-78736751D01*
X121285000Y-67945000D02*
X122555000Y-66675000D01*
X101600000Y-58420000D02*
X103060000Y-59880000D01*
X96520000Y-73660000D02*
X97920000Y-73660000D01*
X118380000Y-81915000D02*
X118380000Y-81010000D01*
X88175000Y-56855000D02*
X88900000Y-57580000D01*
X88900000Y-56130000D02*
X88900000Y-58242500D01*
X86082500Y-81280000D02*
X86082500Y-78740000D01*
X120015000Y-64770000D02*
X116205000Y-64770000D01*
X119730000Y-79660000D02*
X121631751Y-79660000D01*
X120330000Y-66040000D02*
X120330000Y-65085000D01*
X99265000Y-58420000D02*
X101600000Y-58420000D01*
X92325000Y-52705000D02*
X88900000Y-56130000D01*
X123190000Y-75565000D02*
X123825000Y-76200000D01*
X96840000Y-67625000D02*
X95885000Y-68580000D01*
X120330000Y-65085000D02*
X120015000Y-64770000D01*
X109220000Y-65405000D02*
X109220000Y-60515000D01*
X86082500Y-78740000D02*
X86082500Y-77192500D01*
X98425000Y-52705000D02*
X92325000Y-52705000D01*
X109220000Y-68580000D02*
X109220000Y-65405000D01*
X99580000Y-54295000D02*
X99265000Y-54610000D01*
X117475000Y-57785000D02*
X118745000Y-59055000D01*
X118745000Y-59055000D02*
X118745000Y-60895000D01*
X120330000Y-66040000D02*
X121920000Y-66040000D01*
X86625000Y-56855000D02*
X88175000Y-56855000D01*
X121285000Y-69010000D02*
X121285000Y-67945000D01*
X113030000Y-59880000D02*
X108585000Y-59880000D01*
X121920000Y-66040000D02*
X122555000Y-66675000D01*
X100330000Y-74295000D02*
X100330000Y-76835000D01*
X117475000Y-55945000D02*
X117475000Y-57785000D01*
X127000000Y-81915000D02*
X127950000Y-82865000D01*
X103060000Y-59880000D02*
X105410000Y-59880000D01*
X85090000Y-58390000D02*
X86625000Y-56855000D01*
X108585000Y-59880000D02*
X105410000Y-59880000D01*
X106680000Y-68580000D02*
X109220000Y-68580000D01*
X99265000Y-53545000D02*
X98425000Y-52705000D01*
X114935000Y-63500000D02*
X114935000Y-61785000D01*
X96840000Y-67310000D02*
X96840000Y-67625000D01*
X127950000Y-82865000D02*
X130095000Y-82865000D01*
X109220000Y-60515000D02*
X108585000Y-59880000D01*
X96840000Y-63180000D02*
X96840000Y-67310000D01*
X85090000Y-76200000D02*
X85090000Y-58390000D01*
X122555000Y-75565000D02*
X123190000Y-75565000D01*
X100965000Y-77470000D02*
X102870000Y-77470000D01*
X115890000Y-53340000D02*
X114620000Y-54610000D01*
X95885000Y-68580000D02*
X95885000Y-73025000D01*
%TO.N,Net-(J1-D-)*%
X97153604Y-74930000D02*
X95250000Y-73026396D01*
X95250000Y-67945000D02*
X94615000Y-67310000D01*
X97920000Y-74930000D02*
X97153604Y-74930000D01*
X94595000Y-67330000D02*
X92937500Y-67330000D01*
X94615000Y-67310000D02*
X94595000Y-67330000D01*
X95250000Y-73026396D02*
X95250000Y-67945000D01*
%TO.N,Net-(J1-D+)*%
X97920000Y-76200000D02*
X97155000Y-76200000D01*
X93905000Y-68505000D02*
X92112500Y-68505000D01*
X94112500Y-73157500D02*
X94112500Y-68712500D01*
X92112500Y-68505000D02*
X90937500Y-67330000D01*
X97155000Y-76200000D02*
X94112500Y-73157500D01*
X94112500Y-68712500D02*
X93905000Y-68505000D01*
%TO.N,Net-(U2-R1IN)*%
X139635000Y-72390000D02*
X142875000Y-72390000D01*
X142875000Y-72390000D02*
X143510000Y-71755000D01*
%TO.N,Net-(U2-T1OUT)*%
X139635000Y-71120000D02*
X141605000Y-71120000D01*
X141605000Y-71120000D02*
X144145000Y-68580000D01*
X144145000Y-68580000D02*
X149860000Y-68580000D01*
%TO.N,/SCL*%
X102235000Y-64770000D02*
X102235000Y-63500000D01*
X101600000Y-69473249D02*
X101600000Y-65405000D01*
X122555000Y-64135000D02*
X117475000Y-64135000D01*
X120015000Y-78310000D02*
X120015000Y-74930000D01*
X101600000Y-65405000D02*
X102235000Y-64770000D01*
X124460000Y-70485000D02*
X124460000Y-66040000D01*
X117475000Y-64135000D02*
X116205000Y-62865000D01*
X98683249Y-72390000D02*
X101600000Y-69473249D01*
X124460000Y-66040000D02*
X122555000Y-64135000D01*
X97920000Y-72390000D02*
X98683249Y-72390000D01*
X116205000Y-58420000D02*
X116205000Y-60895000D01*
X120015000Y-74930000D02*
X124460000Y-70485000D01*
X116205000Y-62865000D02*
X116205000Y-60895000D01*
%TO.N,Net-(J5-Pin_2)*%
X118745000Y-68580000D02*
X117825000Y-67660000D01*
X117825000Y-67660000D02*
X117475000Y-67310000D01*
X118745000Y-69010000D02*
X118745000Y-68580000D01*
X117475000Y-67310000D02*
X116840000Y-67310000D01*
%TO.N,Net-(J5-Pin_3)*%
X117475000Y-72390000D02*
X116205000Y-73660000D01*
X116205000Y-73660000D02*
X109220000Y-73660000D01*
X117475000Y-69010000D02*
X117475000Y-72390000D01*
%TO.N,Net-(J5-Pin_4)*%
X116205000Y-69010000D02*
X116205000Y-71755000D01*
%TO.N,Net-(J5-Pin_5)*%
X114935000Y-69010000D02*
X114935000Y-72479500D01*
%TO.N,Net-(J6-Pin_2)*%
X107855000Y-74200000D02*
X107855000Y-72295000D01*
X111760000Y-76405000D02*
X111760000Y-75565000D01*
X111030000Y-74835000D02*
X108490000Y-74835000D01*
X107855000Y-72295000D02*
X106680000Y-71120000D01*
X111760000Y-75565000D02*
X111030000Y-74835000D01*
X108490000Y-74835000D02*
X107855000Y-74200000D01*
X113665000Y-78310000D02*
X111760000Y-76405000D01*
%TO.N,Net-(J6-Pin_3)*%
X107950000Y-76835000D02*
X107950000Y-74931396D01*
X106680000Y-73661396D02*
X106680000Y-73660000D01*
X113030000Y-80010000D02*
X110395000Y-77375000D01*
X108490000Y-77375000D02*
X107950000Y-76835000D01*
X110395000Y-77375000D02*
X108490000Y-77375000D01*
X114300000Y-80010000D02*
X113030000Y-80010000D01*
X114935000Y-78310000D02*
X114935000Y-79375000D01*
X107950000Y-74931396D02*
X106680000Y-73661396D01*
X114935000Y-79375000D02*
X114300000Y-80010000D01*
%TO.N,Net-(J6-Pin_4)*%
X111855000Y-80105000D02*
X112395000Y-80645000D01*
X112395000Y-80645000D02*
X115570000Y-80645000D01*
X108045000Y-79470000D02*
X108680000Y-80105000D01*
X108680000Y-80105000D02*
X111855000Y-80105000D01*
X115570000Y-80645000D02*
X116205000Y-80010000D01*
X106680000Y-76200000D02*
X106680000Y-76835000D01*
X106680000Y-76835000D02*
X108045000Y-78200000D01*
X116205000Y-80010000D02*
X116205000Y-78310000D01*
X108045000Y-78200000D02*
X108045000Y-79470000D01*
%TO.N,Net-(J6-Pin_5)*%
X117475000Y-79376396D02*
X114301396Y-82550000D01*
X107855000Y-80550000D02*
X106680000Y-79375000D01*
X117475000Y-78310000D02*
X117475000Y-79376396D01*
X108585000Y-82550000D02*
X107855000Y-81820000D01*
X106680000Y-79375000D02*
X106680000Y-78740000D01*
X114301396Y-82550000D02*
X108585000Y-82550000D01*
X107855000Y-81820000D02*
X107855000Y-80550000D01*
%TO.N,Net-(U1-URx)*%
X102870000Y-72390000D02*
X103505000Y-72390000D01*
X129775000Y-80645000D02*
X130095000Y-80965000D01*
X123675673Y-83185000D02*
X124257500Y-82603173D01*
X124257500Y-82603173D02*
X124257500Y-81226827D01*
X104775000Y-81915000D02*
X106045000Y-83185000D01*
X104775000Y-73660000D02*
X104775000Y-81915000D01*
X124257500Y-81226827D02*
X124839327Y-80645000D01*
X106045000Y-83185000D02*
X123675673Y-83185000D01*
X124839327Y-80645000D02*
X129775000Y-80645000D01*
X103505000Y-72390000D02*
X104775000Y-73660000D01*
%TO.N,Net-(U2-R1OUT)*%
X139635000Y-73660000D02*
X138430000Y-73660000D01*
X137160000Y-77471396D02*
X135891396Y-78740000D01*
X134620000Y-82070000D02*
X133825000Y-82865000D01*
X138430000Y-73660000D02*
X137160000Y-74930000D01*
X135891396Y-78740000D02*
X135255000Y-78740000D01*
X137160000Y-74930000D02*
X137160000Y-77471396D01*
X133825000Y-82865000D02*
X132795000Y-82865000D01*
X134620000Y-79375000D02*
X134620000Y-82070000D01*
X135255000Y-78740000D02*
X134620000Y-79375000D01*
%TO.N,/SDA*%
X100965000Y-68451751D02*
X100965000Y-60960000D01*
X100330000Y-69215000D02*
X100330000Y-69086751D01*
X114595305Y-57880000D02*
X112395000Y-57880000D01*
X98296751Y-71120000D02*
X100201751Y-69215000D01*
X114595305Y-57880000D02*
X116205000Y-56270305D01*
X121285000Y-78310000D02*
X121285000Y-77380500D01*
X97920000Y-71120000D02*
X98296751Y-71120000D01*
X121285000Y-77380500D02*
X120739500Y-76835000D01*
X105410000Y-57880000D02*
X113030000Y-57880000D01*
X100201751Y-69215000D02*
X100330000Y-69215000D01*
X100330000Y-69086751D02*
X100965000Y-68451751D01*
%TO.N,Net-(U2-C1+)*%
X131445000Y-68900000D02*
X131765000Y-68580000D01*
X131765000Y-68580000D02*
X134685000Y-68580000D01*
%TO.N,Net-(U2-C1-)*%
X132715000Y-71120000D02*
X134685000Y-71120000D01*
X132395000Y-70800000D02*
X132715000Y-71120000D01*
X131445000Y-70800000D02*
X132395000Y-70800000D01*
%TO.N,Net-(U2-C2+)*%
X131765000Y-72390000D02*
X131445000Y-72710000D01*
X134685000Y-72390000D02*
X131765000Y-72390000D01*
%TO.N,Net-(U2-C2-)*%
X134685000Y-73660000D02*
X132395000Y-73660000D01*
X132395000Y-73660000D02*
X131445000Y-74610000D01*
%TO.N,Net-(U2-VS+)*%
X136210000Y-66040000D02*
X136525000Y-66355000D01*
X135890000Y-69850000D02*
X134685000Y-69850000D01*
X136525000Y-69215000D02*
X135890000Y-69850000D01*
X136525000Y-66355000D02*
X136525000Y-69215000D01*
%TO.N,Net-(U2-VS-)*%
X134685000Y-74930000D02*
X133035000Y-74930000D01*
X133035000Y-74930000D02*
X131445000Y-76520000D01*
%TO.N,Net-(J7-Pin_2)*%
X132080000Y-81915000D02*
X131200000Y-81035000D01*
X131200000Y-80400000D02*
X129540000Y-78740000D01*
X128270000Y-71120000D02*
X127000000Y-71120000D01*
X129540000Y-72390000D02*
X128270000Y-71120000D01*
X129540000Y-78740000D02*
X129540000Y-72390000D01*
X131200000Y-81035000D02*
X131200000Y-80400000D01*
X132795000Y-81915000D02*
X132080000Y-81915000D01*
%TO.N,Net-(J7-Pin_3)*%
X140970000Y-74930000D02*
X141605000Y-74295000D01*
X104140000Y-71120000D02*
X104775000Y-71755000D01*
X139635000Y-74930000D02*
X140970000Y-74930000D01*
X102870000Y-71120000D02*
X104140000Y-71120000D01*
%TO.N,Net-(J8-Pin_1)*%
X88177500Y-81010000D02*
X91075000Y-81010000D01*
X87907500Y-81280000D02*
X88177500Y-81010000D01*
%TO.N,Net-(J8-Pin_2)*%
X88177500Y-79010000D02*
X91075000Y-79010000D01*
X87907500Y-78740000D02*
X88177500Y-79010000D01*
%TO.N,/ADDR0*%
X121285000Y-71120000D02*
X122555000Y-69850000D01*
X123270000Y-80725000D02*
X122555000Y-80010000D01*
X123270000Y-81915000D02*
X120380000Y-81915000D01*
X122555000Y-69850000D02*
X122555000Y-69010000D01*
X117475000Y-60895000D02*
X117475000Y-62230000D01*
X123270000Y-81915000D02*
X123270000Y-80725000D01*
X117475000Y-62230000D02*
X118110000Y-62865000D01*
%TO.N,/AN1p*%
X127065000Y-55945000D02*
X129540000Y-58420000D01*
X123825000Y-55945000D02*
X127065000Y-55945000D01*
%TO.N,/AN1n*%
X122555000Y-55568249D02*
X123513249Y-54610000D01*
X122555000Y-55945000D02*
X122555000Y-55568249D01*
X128270000Y-54610000D02*
X132080000Y-58420000D01*
X123513249Y-54610000D02*
X128270000Y-54610000D01*
%TO.N,/AN2p*%
X130360000Y-54160000D02*
X133350000Y-57150000D01*
X122693249Y-54160000D02*
X130360000Y-54160000D01*
X135890000Y-57150000D02*
X137160000Y-58420000D01*
X133350000Y-57150000D02*
X135890000Y-57150000D01*
X121285000Y-55945000D02*
X121285000Y-55568249D01*
X121285000Y-55568249D02*
X122693249Y-54160000D01*
%TO.N,/AN2n*%
X120015000Y-55568249D02*
X121873249Y-53710000D01*
X120015000Y-55568249D02*
X120015000Y-55945000D01*
X121873249Y-53710000D02*
X130546396Y-53710000D01*
X133351396Y-56515000D02*
X137795000Y-56515000D01*
X130546396Y-53710000D02*
X133351396Y-56515000D01*
X137795000Y-56515000D02*
X139700000Y-58420000D01*
%TO.N,/AN3*%
X121285000Y-63500000D02*
X123825000Y-63500000D01*
X120015000Y-60895000D02*
X120015000Y-62230000D01*
X120015000Y-62230000D02*
X121285000Y-63500000D01*
%TO.N,/AN4*%
X122555000Y-60895000D02*
X122555000Y-61271751D01*
X122555000Y-61271751D02*
X123513249Y-62230000D01*
X123513249Y-62230000D02*
X135890000Y-62230000D01*
X135890000Y-62230000D02*
X137160000Y-60960000D01*
%TD*%
M02*
