%TF.GenerationSoftware,KiCad,Pcbnew,7.0.6*%
%TF.CreationDate,2023-08-24T17:38:11-04:00*%
%TF.ProjectId,usbio,75736269-6f2e-46b6-9963-61645f706362,rev?*%
%TF.SameCoordinates,Original*%
%TF.FileFunction,Legend,Top*%
%TF.FilePolarity,Positive*%
%FSLAX46Y46*%
G04 Gerber Fmt 4.6, Leading zero omitted, Abs format (unit mm)*
G04 Created by KiCad (PCBNEW 7.0.6) date 2023-08-24 17:38:11*
%MOMM*%
%LPD*%
G01*
G04 APERTURE LIST*
%ADD10C,0.150000*%
%ADD11C,0.120000*%
G04 APERTURE END LIST*
D10*
X139525476Y-63589819D02*
X139525476Y-64304104D01*
X139525476Y-64304104D02*
X139477857Y-64446961D01*
X139477857Y-64446961D02*
X139382619Y-64542200D01*
X139382619Y-64542200D02*
X139239762Y-64589819D01*
X139239762Y-64589819D02*
X139144524Y-64589819D01*
X140525476Y-64589819D02*
X139954048Y-64589819D01*
X140239762Y-64589819D02*
X140239762Y-63589819D01*
X140239762Y-63589819D02*
X140144524Y-63732676D01*
X140144524Y-63732676D02*
X140049286Y-63827914D01*
X140049286Y-63827914D02*
X139954048Y-63875533D01*
X141144524Y-63589819D02*
X141239762Y-63589819D01*
X141239762Y-63589819D02*
X141335000Y-63637438D01*
X141335000Y-63637438D02*
X141382619Y-63685057D01*
X141382619Y-63685057D02*
X141430238Y-63780295D01*
X141430238Y-63780295D02*
X141477857Y-63970771D01*
X141477857Y-63970771D02*
X141477857Y-64208866D01*
X141477857Y-64208866D02*
X141430238Y-64399342D01*
X141430238Y-64399342D02*
X141382619Y-64494580D01*
X141382619Y-64494580D02*
X141335000Y-64542200D01*
X141335000Y-64542200D02*
X141239762Y-64589819D01*
X141239762Y-64589819D02*
X141144524Y-64589819D01*
X141144524Y-64589819D02*
X141049286Y-64542200D01*
X141049286Y-64542200D02*
X141001667Y-64494580D01*
X141001667Y-64494580D02*
X140954048Y-64399342D01*
X140954048Y-64399342D02*
X140906429Y-64208866D01*
X140906429Y-64208866D02*
X140906429Y-63970771D01*
X140906429Y-63970771D02*
X140954048Y-63780295D01*
X140954048Y-63780295D02*
X141001667Y-63685057D01*
X141001667Y-63685057D02*
X141049286Y-63637438D01*
X141049286Y-63637438D02*
X141144524Y-63589819D01*
X99633095Y-78394819D02*
X99633095Y-79204342D01*
X99633095Y-79204342D02*
X99680714Y-79299580D01*
X99680714Y-79299580D02*
X99728333Y-79347200D01*
X99728333Y-79347200D02*
X99823571Y-79394819D01*
X99823571Y-79394819D02*
X100014047Y-79394819D01*
X100014047Y-79394819D02*
X100109285Y-79347200D01*
X100109285Y-79347200D02*
X100156904Y-79299580D01*
X100156904Y-79299580D02*
X100204523Y-79204342D01*
X100204523Y-79204342D02*
X100204523Y-78394819D01*
X101204523Y-79394819D02*
X100633095Y-79394819D01*
X100918809Y-79394819D02*
X100918809Y-78394819D01*
X100918809Y-78394819D02*
X100823571Y-78537676D01*
X100823571Y-78537676D02*
X100728333Y-78632914D01*
X100728333Y-78632914D02*
X100633095Y-78680533D01*
X142150180Y-77771666D02*
X141435895Y-77771666D01*
X141435895Y-77771666D02*
X141293038Y-77724047D01*
X141293038Y-77724047D02*
X141197800Y-77628809D01*
X141197800Y-77628809D02*
X141150180Y-77485952D01*
X141150180Y-77485952D02*
X141150180Y-77390714D01*
X142054942Y-78200238D02*
X142102561Y-78247857D01*
X142102561Y-78247857D02*
X142150180Y-78343095D01*
X142150180Y-78343095D02*
X142150180Y-78581190D01*
X142150180Y-78581190D02*
X142102561Y-78676428D01*
X142102561Y-78676428D02*
X142054942Y-78724047D01*
X142054942Y-78724047D02*
X141959704Y-78771666D01*
X141959704Y-78771666D02*
X141864466Y-78771666D01*
X141864466Y-78771666D02*
X141721609Y-78724047D01*
X141721609Y-78724047D02*
X141150180Y-78152619D01*
X141150180Y-78152619D02*
X141150180Y-78771666D01*
X123448095Y-78194819D02*
X123448095Y-79004342D01*
X123448095Y-79004342D02*
X123495714Y-79099580D01*
X123495714Y-79099580D02*
X123543333Y-79147200D01*
X123543333Y-79147200D02*
X123638571Y-79194819D01*
X123638571Y-79194819D02*
X123829047Y-79194819D01*
X123829047Y-79194819D02*
X123924285Y-79147200D01*
X123924285Y-79147200D02*
X123971904Y-79099580D01*
X123971904Y-79099580D02*
X124019523Y-79004342D01*
X124019523Y-79004342D02*
X124019523Y-78194819D01*
X124400476Y-78194819D02*
X125019523Y-78194819D01*
X125019523Y-78194819D02*
X124686190Y-78575771D01*
X124686190Y-78575771D02*
X124829047Y-78575771D01*
X124829047Y-78575771D02*
X124924285Y-78623390D01*
X124924285Y-78623390D02*
X124971904Y-78671009D01*
X124971904Y-78671009D02*
X125019523Y-78766247D01*
X125019523Y-78766247D02*
X125019523Y-79004342D01*
X125019523Y-79004342D02*
X124971904Y-79099580D01*
X124971904Y-79099580D02*
X124924285Y-79147200D01*
X124924285Y-79147200D02*
X124829047Y-79194819D01*
X124829047Y-79194819D02*
X124543333Y-79194819D01*
X124543333Y-79194819D02*
X124448095Y-79147200D01*
X124448095Y-79147200D02*
X124400476Y-79099580D01*
X106346666Y-65704819D02*
X106346666Y-66419104D01*
X106346666Y-66419104D02*
X106299047Y-66561961D01*
X106299047Y-66561961D02*
X106203809Y-66657200D01*
X106203809Y-66657200D02*
X106060952Y-66704819D01*
X106060952Y-66704819D02*
X105965714Y-66704819D01*
X107251428Y-65704819D02*
X107060952Y-65704819D01*
X107060952Y-65704819D02*
X106965714Y-65752438D01*
X106965714Y-65752438D02*
X106918095Y-65800057D01*
X106918095Y-65800057D02*
X106822857Y-65942914D01*
X106822857Y-65942914D02*
X106775238Y-66133390D01*
X106775238Y-66133390D02*
X106775238Y-66514342D01*
X106775238Y-66514342D02*
X106822857Y-66609580D01*
X106822857Y-66609580D02*
X106870476Y-66657200D01*
X106870476Y-66657200D02*
X106965714Y-66704819D01*
X106965714Y-66704819D02*
X107156190Y-66704819D01*
X107156190Y-66704819D02*
X107251428Y-66657200D01*
X107251428Y-66657200D02*
X107299047Y-66609580D01*
X107299047Y-66609580D02*
X107346666Y-66514342D01*
X107346666Y-66514342D02*
X107346666Y-66276247D01*
X107346666Y-66276247D02*
X107299047Y-66181009D01*
X107299047Y-66181009D02*
X107251428Y-66133390D01*
X107251428Y-66133390D02*
X107156190Y-66085771D01*
X107156190Y-66085771D02*
X106965714Y-66085771D01*
X106965714Y-66085771D02*
X106870476Y-66133390D01*
X106870476Y-66133390D02*
X106822857Y-66181009D01*
X106822857Y-66181009D02*
X106775238Y-66276247D01*
X129373333Y-79099580D02*
X129325714Y-79147200D01*
X129325714Y-79147200D02*
X129182857Y-79194819D01*
X129182857Y-79194819D02*
X129087619Y-79194819D01*
X129087619Y-79194819D02*
X128944762Y-79147200D01*
X128944762Y-79147200D02*
X128849524Y-79051961D01*
X128849524Y-79051961D02*
X128801905Y-78956723D01*
X128801905Y-78956723D02*
X128754286Y-78766247D01*
X128754286Y-78766247D02*
X128754286Y-78623390D01*
X128754286Y-78623390D02*
X128801905Y-78432914D01*
X128801905Y-78432914D02*
X128849524Y-78337676D01*
X128849524Y-78337676D02*
X128944762Y-78242438D01*
X128944762Y-78242438D02*
X129087619Y-78194819D01*
X129087619Y-78194819D02*
X129182857Y-78194819D01*
X129182857Y-78194819D02*
X129325714Y-78242438D01*
X129325714Y-78242438D02*
X129373333Y-78290057D01*
X129849524Y-79194819D02*
X130040000Y-79194819D01*
X130040000Y-79194819D02*
X130135238Y-79147200D01*
X130135238Y-79147200D02*
X130182857Y-79099580D01*
X130182857Y-79099580D02*
X130278095Y-78956723D01*
X130278095Y-78956723D02*
X130325714Y-78766247D01*
X130325714Y-78766247D02*
X130325714Y-78385295D01*
X130325714Y-78385295D02*
X130278095Y-78290057D01*
X130278095Y-78290057D02*
X130230476Y-78242438D01*
X130230476Y-78242438D02*
X130135238Y-78194819D01*
X130135238Y-78194819D02*
X129944762Y-78194819D01*
X129944762Y-78194819D02*
X129849524Y-78242438D01*
X129849524Y-78242438D02*
X129801905Y-78290057D01*
X129801905Y-78290057D02*
X129754286Y-78385295D01*
X129754286Y-78385295D02*
X129754286Y-78623390D01*
X129754286Y-78623390D02*
X129801905Y-78718628D01*
X129801905Y-78718628D02*
X129849524Y-78766247D01*
X129849524Y-78766247D02*
X129944762Y-78813866D01*
X129944762Y-78813866D02*
X130135238Y-78813866D01*
X130135238Y-78813866D02*
X130230476Y-78766247D01*
X130230476Y-78766247D02*
X130278095Y-78718628D01*
X130278095Y-78718628D02*
X130325714Y-78623390D01*
X103171666Y-64224819D02*
X103171666Y-64939104D01*
X103171666Y-64939104D02*
X103124047Y-65081961D01*
X103124047Y-65081961D02*
X103028809Y-65177200D01*
X103028809Y-65177200D02*
X102885952Y-65224819D01*
X102885952Y-65224819D02*
X102790714Y-65224819D01*
X103552619Y-64224819D02*
X104171666Y-64224819D01*
X104171666Y-64224819D02*
X103838333Y-64605771D01*
X103838333Y-64605771D02*
X103981190Y-64605771D01*
X103981190Y-64605771D02*
X104076428Y-64653390D01*
X104076428Y-64653390D02*
X104124047Y-64701009D01*
X104124047Y-64701009D02*
X104171666Y-64796247D01*
X104171666Y-64796247D02*
X104171666Y-65034342D01*
X104171666Y-65034342D02*
X104124047Y-65129580D01*
X104124047Y-65129580D02*
X104076428Y-65177200D01*
X104076428Y-65177200D02*
X103981190Y-65224819D01*
X103981190Y-65224819D02*
X103695476Y-65224819D01*
X103695476Y-65224819D02*
X103600238Y-65177200D01*
X103600238Y-65177200D02*
X103552619Y-65129580D01*
X108886666Y-65704819D02*
X108886666Y-66419104D01*
X108886666Y-66419104D02*
X108839047Y-66561961D01*
X108839047Y-66561961D02*
X108743809Y-66657200D01*
X108743809Y-66657200D02*
X108600952Y-66704819D01*
X108600952Y-66704819D02*
X108505714Y-66704819D01*
X109839047Y-65704819D02*
X109362857Y-65704819D01*
X109362857Y-65704819D02*
X109315238Y-66181009D01*
X109315238Y-66181009D02*
X109362857Y-66133390D01*
X109362857Y-66133390D02*
X109458095Y-66085771D01*
X109458095Y-66085771D02*
X109696190Y-66085771D01*
X109696190Y-66085771D02*
X109791428Y-66133390D01*
X109791428Y-66133390D02*
X109839047Y-66181009D01*
X109839047Y-66181009D02*
X109886666Y-66276247D01*
X109886666Y-66276247D02*
X109886666Y-66514342D01*
X109886666Y-66514342D02*
X109839047Y-66609580D01*
X109839047Y-66609580D02*
X109791428Y-66657200D01*
X109791428Y-66657200D02*
X109696190Y-66704819D01*
X109696190Y-66704819D02*
X109458095Y-66704819D01*
X109458095Y-66704819D02*
X109362857Y-66657200D01*
X109362857Y-66657200D02*
X109315238Y-66609580D01*
X85598095Y-52794819D02*
X85598095Y-53604342D01*
X85598095Y-53604342D02*
X85645714Y-53699580D01*
X85645714Y-53699580D02*
X85693333Y-53747200D01*
X85693333Y-53747200D02*
X85788571Y-53794819D01*
X85788571Y-53794819D02*
X85979047Y-53794819D01*
X85979047Y-53794819D02*
X86074285Y-53747200D01*
X86074285Y-53747200D02*
X86121904Y-53699580D01*
X86121904Y-53699580D02*
X86169523Y-53604342D01*
X86169523Y-53604342D02*
X86169523Y-52794819D01*
X87121904Y-52794819D02*
X86645714Y-52794819D01*
X86645714Y-52794819D02*
X86598095Y-53271009D01*
X86598095Y-53271009D02*
X86645714Y-53223390D01*
X86645714Y-53223390D02*
X86740952Y-53175771D01*
X86740952Y-53175771D02*
X86979047Y-53175771D01*
X86979047Y-53175771D02*
X87074285Y-53223390D01*
X87074285Y-53223390D02*
X87121904Y-53271009D01*
X87121904Y-53271009D02*
X87169523Y-53366247D01*
X87169523Y-53366247D02*
X87169523Y-53604342D01*
X87169523Y-53604342D02*
X87121904Y-53699580D01*
X87121904Y-53699580D02*
X87074285Y-53747200D01*
X87074285Y-53747200D02*
X86979047Y-53794819D01*
X86979047Y-53794819D02*
X86740952Y-53794819D01*
X86740952Y-53794819D02*
X86645714Y-53747200D01*
X86645714Y-53747200D02*
X86598095Y-53699580D01*
X84121666Y-75019819D02*
X84121666Y-75734104D01*
X84121666Y-75734104D02*
X84074047Y-75876961D01*
X84074047Y-75876961D02*
X83978809Y-75972200D01*
X83978809Y-75972200D02*
X83835952Y-76019819D01*
X83835952Y-76019819D02*
X83740714Y-76019819D01*
X85121666Y-76019819D02*
X84550238Y-76019819D01*
X84835952Y-76019819D02*
X84835952Y-75019819D01*
X84835952Y-75019819D02*
X84740714Y-75162676D01*
X84740714Y-75162676D02*
X84645476Y-75257914D01*
X84645476Y-75257914D02*
X84550238Y-75305533D01*
X134453333Y-66399580D02*
X134405714Y-66447200D01*
X134405714Y-66447200D02*
X134262857Y-66494819D01*
X134262857Y-66494819D02*
X134167619Y-66494819D01*
X134167619Y-66494819D02*
X134024762Y-66447200D01*
X134024762Y-66447200D02*
X133929524Y-66351961D01*
X133929524Y-66351961D02*
X133881905Y-66256723D01*
X133881905Y-66256723D02*
X133834286Y-66066247D01*
X133834286Y-66066247D02*
X133834286Y-65923390D01*
X133834286Y-65923390D02*
X133881905Y-65732914D01*
X133881905Y-65732914D02*
X133929524Y-65637676D01*
X133929524Y-65637676D02*
X134024762Y-65542438D01*
X134024762Y-65542438D02*
X134167619Y-65494819D01*
X134167619Y-65494819D02*
X134262857Y-65494819D01*
X134262857Y-65494819D02*
X134405714Y-65542438D01*
X134405714Y-65542438D02*
X134453333Y-65590057D01*
X135024762Y-65923390D02*
X134929524Y-65875771D01*
X134929524Y-65875771D02*
X134881905Y-65828152D01*
X134881905Y-65828152D02*
X134834286Y-65732914D01*
X134834286Y-65732914D02*
X134834286Y-65685295D01*
X134834286Y-65685295D02*
X134881905Y-65590057D01*
X134881905Y-65590057D02*
X134929524Y-65542438D01*
X134929524Y-65542438D02*
X135024762Y-65494819D01*
X135024762Y-65494819D02*
X135215238Y-65494819D01*
X135215238Y-65494819D02*
X135310476Y-65542438D01*
X135310476Y-65542438D02*
X135358095Y-65590057D01*
X135358095Y-65590057D02*
X135405714Y-65685295D01*
X135405714Y-65685295D02*
X135405714Y-65732914D01*
X135405714Y-65732914D02*
X135358095Y-65828152D01*
X135358095Y-65828152D02*
X135310476Y-65875771D01*
X135310476Y-65875771D02*
X135215238Y-65923390D01*
X135215238Y-65923390D02*
X135024762Y-65923390D01*
X135024762Y-65923390D02*
X134929524Y-65971009D01*
X134929524Y-65971009D02*
X134881905Y-66018628D01*
X134881905Y-66018628D02*
X134834286Y-66113866D01*
X134834286Y-66113866D02*
X134834286Y-66304342D01*
X134834286Y-66304342D02*
X134881905Y-66399580D01*
X134881905Y-66399580D02*
X134929524Y-66447200D01*
X134929524Y-66447200D02*
X135024762Y-66494819D01*
X135024762Y-66494819D02*
X135215238Y-66494819D01*
X135215238Y-66494819D02*
X135310476Y-66447200D01*
X135310476Y-66447200D02*
X135358095Y-66399580D01*
X135358095Y-66399580D02*
X135405714Y-66304342D01*
X135405714Y-66304342D02*
X135405714Y-66113866D01*
X135405714Y-66113866D02*
X135358095Y-66018628D01*
X135358095Y-66018628D02*
X135310476Y-65971009D01*
X135310476Y-65971009D02*
X135215238Y-65923390D01*
X84288333Y-79194819D02*
X83955000Y-78718628D01*
X83716905Y-79194819D02*
X83716905Y-78194819D01*
X83716905Y-78194819D02*
X84097857Y-78194819D01*
X84097857Y-78194819D02*
X84193095Y-78242438D01*
X84193095Y-78242438D02*
X84240714Y-78290057D01*
X84240714Y-78290057D02*
X84288333Y-78385295D01*
X84288333Y-78385295D02*
X84288333Y-78528152D01*
X84288333Y-78528152D02*
X84240714Y-78623390D01*
X84240714Y-78623390D02*
X84193095Y-78671009D01*
X84193095Y-78671009D02*
X84097857Y-78718628D01*
X84097857Y-78718628D02*
X83716905Y-78718628D01*
X84669286Y-78290057D02*
X84716905Y-78242438D01*
X84716905Y-78242438D02*
X84812143Y-78194819D01*
X84812143Y-78194819D02*
X85050238Y-78194819D01*
X85050238Y-78194819D02*
X85145476Y-78242438D01*
X85145476Y-78242438D02*
X85193095Y-78290057D01*
X85193095Y-78290057D02*
X85240714Y-78385295D01*
X85240714Y-78385295D02*
X85240714Y-78480533D01*
X85240714Y-78480533D02*
X85193095Y-78623390D01*
X85193095Y-78623390D02*
X84621667Y-79194819D01*
X84621667Y-79194819D02*
X85240714Y-79194819D01*
X133858095Y-82639819D02*
X133858095Y-83449342D01*
X133858095Y-83449342D02*
X133905714Y-83544580D01*
X133905714Y-83544580D02*
X133953333Y-83592200D01*
X133953333Y-83592200D02*
X134048571Y-83639819D01*
X134048571Y-83639819D02*
X134239047Y-83639819D01*
X134239047Y-83639819D02*
X134334285Y-83592200D01*
X134334285Y-83592200D02*
X134381904Y-83544580D01*
X134381904Y-83544580D02*
X134429523Y-83449342D01*
X134429523Y-83449342D02*
X134429523Y-82639819D01*
X135334285Y-82639819D02*
X135143809Y-82639819D01*
X135143809Y-82639819D02*
X135048571Y-82687438D01*
X135048571Y-82687438D02*
X135000952Y-82735057D01*
X135000952Y-82735057D02*
X134905714Y-82877914D01*
X134905714Y-82877914D02*
X134858095Y-83068390D01*
X134858095Y-83068390D02*
X134858095Y-83449342D01*
X134858095Y-83449342D02*
X134905714Y-83544580D01*
X134905714Y-83544580D02*
X134953333Y-83592200D01*
X134953333Y-83592200D02*
X135048571Y-83639819D01*
X135048571Y-83639819D02*
X135239047Y-83639819D01*
X135239047Y-83639819D02*
X135334285Y-83592200D01*
X135334285Y-83592200D02*
X135381904Y-83544580D01*
X135381904Y-83544580D02*
X135429523Y-83449342D01*
X135429523Y-83449342D02*
X135429523Y-83211247D01*
X135429523Y-83211247D02*
X135381904Y-83116009D01*
X135381904Y-83116009D02*
X135334285Y-83068390D01*
X135334285Y-83068390D02*
X135239047Y-83020771D01*
X135239047Y-83020771D02*
X135048571Y-83020771D01*
X135048571Y-83020771D02*
X134953333Y-83068390D01*
X134953333Y-83068390D02*
X134905714Y-83116009D01*
X134905714Y-83116009D02*
X134858095Y-83211247D01*
X114736666Y-82004819D02*
X114736666Y-82719104D01*
X114736666Y-82719104D02*
X114689047Y-82861961D01*
X114689047Y-82861961D02*
X114593809Y-82957200D01*
X114593809Y-82957200D02*
X114450952Y-83004819D01*
X114450952Y-83004819D02*
X114355714Y-83004819D01*
X115212857Y-83004819D02*
X115212857Y-82004819D01*
X115212857Y-82004819D02*
X115593809Y-82004819D01*
X115593809Y-82004819D02*
X115689047Y-82052438D01*
X115689047Y-82052438D02*
X115736666Y-82100057D01*
X115736666Y-82100057D02*
X115784285Y-82195295D01*
X115784285Y-82195295D02*
X115784285Y-82338152D01*
X115784285Y-82338152D02*
X115736666Y-82433390D01*
X115736666Y-82433390D02*
X115689047Y-82481009D01*
X115689047Y-82481009D02*
X115593809Y-82528628D01*
X115593809Y-82528628D02*
X115212857Y-82528628D01*
X116736666Y-83004819D02*
X116165238Y-83004819D01*
X116450952Y-83004819D02*
X116450952Y-82004819D01*
X116450952Y-82004819D02*
X116355714Y-82147676D01*
X116355714Y-82147676D02*
X116260476Y-82242914D01*
X116260476Y-82242914D02*
X116165238Y-82290533D01*
X122388333Y-65764580D02*
X122340714Y-65812200D01*
X122340714Y-65812200D02*
X122197857Y-65859819D01*
X122197857Y-65859819D02*
X122102619Y-65859819D01*
X122102619Y-65859819D02*
X121959762Y-65812200D01*
X121959762Y-65812200D02*
X121864524Y-65716961D01*
X121864524Y-65716961D02*
X121816905Y-65621723D01*
X121816905Y-65621723D02*
X121769286Y-65431247D01*
X121769286Y-65431247D02*
X121769286Y-65288390D01*
X121769286Y-65288390D02*
X121816905Y-65097914D01*
X121816905Y-65097914D02*
X121864524Y-65002676D01*
X121864524Y-65002676D02*
X121959762Y-64907438D01*
X121959762Y-64907438D02*
X122102619Y-64859819D01*
X122102619Y-64859819D02*
X122197857Y-64859819D01*
X122197857Y-64859819D02*
X122340714Y-64907438D01*
X122340714Y-64907438D02*
X122388333Y-64955057D01*
X123293095Y-64859819D02*
X122816905Y-64859819D01*
X122816905Y-64859819D02*
X122769286Y-65336009D01*
X122769286Y-65336009D02*
X122816905Y-65288390D01*
X122816905Y-65288390D02*
X122912143Y-65240771D01*
X122912143Y-65240771D02*
X123150238Y-65240771D01*
X123150238Y-65240771D02*
X123245476Y-65288390D01*
X123245476Y-65288390D02*
X123293095Y-65336009D01*
X123293095Y-65336009D02*
X123340714Y-65431247D01*
X123340714Y-65431247D02*
X123340714Y-65669342D01*
X123340714Y-65669342D02*
X123293095Y-65764580D01*
X123293095Y-65764580D02*
X123245476Y-65812200D01*
X123245476Y-65812200D02*
X123150238Y-65859819D01*
X123150238Y-65859819D02*
X122912143Y-65859819D01*
X122912143Y-65859819D02*
X122816905Y-65812200D01*
X122816905Y-65812200D02*
X122769286Y-65764580D01*
X126666666Y-65704819D02*
X126666666Y-66419104D01*
X126666666Y-66419104D02*
X126619047Y-66561961D01*
X126619047Y-66561961D02*
X126523809Y-66657200D01*
X126523809Y-66657200D02*
X126380952Y-66704819D01*
X126380952Y-66704819D02*
X126285714Y-66704819D01*
X127047619Y-65704819D02*
X127714285Y-65704819D01*
X127714285Y-65704819D02*
X127285714Y-66704819D01*
X133858095Y-78194819D02*
X133858095Y-79004342D01*
X133858095Y-79004342D02*
X133905714Y-79099580D01*
X133905714Y-79099580D02*
X133953333Y-79147200D01*
X133953333Y-79147200D02*
X134048571Y-79194819D01*
X134048571Y-79194819D02*
X134239047Y-79194819D01*
X134239047Y-79194819D02*
X134334285Y-79147200D01*
X134334285Y-79147200D02*
X134381904Y-79099580D01*
X134381904Y-79099580D02*
X134429523Y-79004342D01*
X134429523Y-79004342D02*
X134429523Y-78194819D01*
X134858095Y-78290057D02*
X134905714Y-78242438D01*
X134905714Y-78242438D02*
X135000952Y-78194819D01*
X135000952Y-78194819D02*
X135239047Y-78194819D01*
X135239047Y-78194819D02*
X135334285Y-78242438D01*
X135334285Y-78242438D02*
X135381904Y-78290057D01*
X135381904Y-78290057D02*
X135429523Y-78385295D01*
X135429523Y-78385295D02*
X135429523Y-78480533D01*
X135429523Y-78480533D02*
X135381904Y-78623390D01*
X135381904Y-78623390D02*
X134810476Y-79194819D01*
X134810476Y-79194819D02*
X135429523Y-79194819D01*
X140636666Y-55334819D02*
X140636666Y-56049104D01*
X140636666Y-56049104D02*
X140589047Y-56191961D01*
X140589047Y-56191961D02*
X140493809Y-56287200D01*
X140493809Y-56287200D02*
X140350952Y-56334819D01*
X140350952Y-56334819D02*
X140255714Y-56334819D01*
X141160476Y-56334819D02*
X141350952Y-56334819D01*
X141350952Y-56334819D02*
X141446190Y-56287200D01*
X141446190Y-56287200D02*
X141493809Y-56239580D01*
X141493809Y-56239580D02*
X141589047Y-56096723D01*
X141589047Y-56096723D02*
X141636666Y-55906247D01*
X141636666Y-55906247D02*
X141636666Y-55525295D01*
X141636666Y-55525295D02*
X141589047Y-55430057D01*
X141589047Y-55430057D02*
X141541428Y-55382438D01*
X141541428Y-55382438D02*
X141446190Y-55334819D01*
X141446190Y-55334819D02*
X141255714Y-55334819D01*
X141255714Y-55334819D02*
X141160476Y-55382438D01*
X141160476Y-55382438D02*
X141112857Y-55430057D01*
X141112857Y-55430057D02*
X141065238Y-55525295D01*
X141065238Y-55525295D02*
X141065238Y-55763390D01*
X141065238Y-55763390D02*
X141112857Y-55858628D01*
X141112857Y-55858628D02*
X141160476Y-55906247D01*
X141160476Y-55906247D02*
X141255714Y-55953866D01*
X141255714Y-55953866D02*
X141446190Y-55953866D01*
X141446190Y-55953866D02*
X141541428Y-55906247D01*
X141541428Y-55906247D02*
X141589047Y-55858628D01*
X141589047Y-55858628D02*
X141636666Y-55763390D01*
X129373333Y-72749580D02*
X129325714Y-72797200D01*
X129325714Y-72797200D02*
X129182857Y-72844819D01*
X129182857Y-72844819D02*
X129087619Y-72844819D01*
X129087619Y-72844819D02*
X128944762Y-72797200D01*
X128944762Y-72797200D02*
X128849524Y-72701961D01*
X128849524Y-72701961D02*
X128801905Y-72606723D01*
X128801905Y-72606723D02*
X128754286Y-72416247D01*
X128754286Y-72416247D02*
X128754286Y-72273390D01*
X128754286Y-72273390D02*
X128801905Y-72082914D01*
X128801905Y-72082914D02*
X128849524Y-71987676D01*
X128849524Y-71987676D02*
X128944762Y-71892438D01*
X128944762Y-71892438D02*
X129087619Y-71844819D01*
X129087619Y-71844819D02*
X129182857Y-71844819D01*
X129182857Y-71844819D02*
X129325714Y-71892438D01*
X129325714Y-71892438D02*
X129373333Y-71940057D01*
X129706667Y-71844819D02*
X130373333Y-71844819D01*
X130373333Y-71844819D02*
X129944762Y-72844819D01*
X119372142Y-53699580D02*
X119324523Y-53747200D01*
X119324523Y-53747200D02*
X119181666Y-53794819D01*
X119181666Y-53794819D02*
X119086428Y-53794819D01*
X119086428Y-53794819D02*
X118943571Y-53747200D01*
X118943571Y-53747200D02*
X118848333Y-53651961D01*
X118848333Y-53651961D02*
X118800714Y-53556723D01*
X118800714Y-53556723D02*
X118753095Y-53366247D01*
X118753095Y-53366247D02*
X118753095Y-53223390D01*
X118753095Y-53223390D02*
X118800714Y-53032914D01*
X118800714Y-53032914D02*
X118848333Y-52937676D01*
X118848333Y-52937676D02*
X118943571Y-52842438D01*
X118943571Y-52842438D02*
X119086428Y-52794819D01*
X119086428Y-52794819D02*
X119181666Y-52794819D01*
X119181666Y-52794819D02*
X119324523Y-52842438D01*
X119324523Y-52842438D02*
X119372142Y-52890057D01*
X120324523Y-53794819D02*
X119753095Y-53794819D01*
X120038809Y-53794819D02*
X120038809Y-52794819D01*
X120038809Y-52794819D02*
X119943571Y-52937676D01*
X119943571Y-52937676D02*
X119848333Y-53032914D01*
X119848333Y-53032914D02*
X119753095Y-53080533D01*
X120943571Y-52794819D02*
X121038809Y-52794819D01*
X121038809Y-52794819D02*
X121134047Y-52842438D01*
X121134047Y-52842438D02*
X121181666Y-52890057D01*
X121181666Y-52890057D02*
X121229285Y-52985295D01*
X121229285Y-52985295D02*
X121276904Y-53175771D01*
X121276904Y-53175771D02*
X121276904Y-53413866D01*
X121276904Y-53413866D02*
X121229285Y-53604342D01*
X121229285Y-53604342D02*
X121181666Y-53699580D01*
X121181666Y-53699580D02*
X121134047Y-53747200D01*
X121134047Y-53747200D02*
X121038809Y-53794819D01*
X121038809Y-53794819D02*
X120943571Y-53794819D01*
X120943571Y-53794819D02*
X120848333Y-53747200D01*
X120848333Y-53747200D02*
X120800714Y-53699580D01*
X120800714Y-53699580D02*
X120753095Y-53604342D01*
X120753095Y-53604342D02*
X120705476Y-53413866D01*
X120705476Y-53413866D02*
X120705476Y-53175771D01*
X120705476Y-53175771D02*
X120753095Y-52985295D01*
X120753095Y-52985295D02*
X120800714Y-52890057D01*
X120800714Y-52890057D02*
X120848333Y-52842438D01*
X120848333Y-52842438D02*
X120943571Y-52794819D01*
X94916666Y-80734819D02*
X94916666Y-81449104D01*
X94916666Y-81449104D02*
X94869047Y-81591961D01*
X94869047Y-81591961D02*
X94773809Y-81687200D01*
X94773809Y-81687200D02*
X94630952Y-81734819D01*
X94630952Y-81734819D02*
X94535714Y-81734819D01*
X95535714Y-81163390D02*
X95440476Y-81115771D01*
X95440476Y-81115771D02*
X95392857Y-81068152D01*
X95392857Y-81068152D02*
X95345238Y-80972914D01*
X95345238Y-80972914D02*
X95345238Y-80925295D01*
X95345238Y-80925295D02*
X95392857Y-80830057D01*
X95392857Y-80830057D02*
X95440476Y-80782438D01*
X95440476Y-80782438D02*
X95535714Y-80734819D01*
X95535714Y-80734819D02*
X95726190Y-80734819D01*
X95726190Y-80734819D02*
X95821428Y-80782438D01*
X95821428Y-80782438D02*
X95869047Y-80830057D01*
X95869047Y-80830057D02*
X95916666Y-80925295D01*
X95916666Y-80925295D02*
X95916666Y-80972914D01*
X95916666Y-80972914D02*
X95869047Y-81068152D01*
X95869047Y-81068152D02*
X95821428Y-81115771D01*
X95821428Y-81115771D02*
X95726190Y-81163390D01*
X95726190Y-81163390D02*
X95535714Y-81163390D01*
X95535714Y-81163390D02*
X95440476Y-81211009D01*
X95440476Y-81211009D02*
X95392857Y-81258628D01*
X95392857Y-81258628D02*
X95345238Y-81353866D01*
X95345238Y-81353866D02*
X95345238Y-81544342D01*
X95345238Y-81544342D02*
X95392857Y-81639580D01*
X95392857Y-81639580D02*
X95440476Y-81687200D01*
X95440476Y-81687200D02*
X95535714Y-81734819D01*
X95535714Y-81734819D02*
X95726190Y-81734819D01*
X95726190Y-81734819D02*
X95821428Y-81687200D01*
X95821428Y-81687200D02*
X95869047Y-81639580D01*
X95869047Y-81639580D02*
X95916666Y-81544342D01*
X95916666Y-81544342D02*
X95916666Y-81353866D01*
X95916666Y-81353866D02*
X95869047Y-81258628D01*
X95869047Y-81258628D02*
X95821428Y-81211009D01*
X95821428Y-81211009D02*
X95726190Y-81163390D01*
X124533095Y-54699819D02*
X124533095Y-55509342D01*
X124533095Y-55509342D02*
X124580714Y-55604580D01*
X124580714Y-55604580D02*
X124628333Y-55652200D01*
X124628333Y-55652200D02*
X124723571Y-55699819D01*
X124723571Y-55699819D02*
X124914047Y-55699819D01*
X124914047Y-55699819D02*
X125009285Y-55652200D01*
X125009285Y-55652200D02*
X125056904Y-55604580D01*
X125056904Y-55604580D02*
X125104523Y-55509342D01*
X125104523Y-55509342D02*
X125104523Y-54699819D01*
X126009285Y-55033152D02*
X126009285Y-55699819D01*
X125771190Y-54652200D02*
X125533095Y-55366485D01*
X125533095Y-55366485D02*
X126152142Y-55366485D01*
X112061666Y-64224819D02*
X112061666Y-64939104D01*
X112061666Y-64939104D02*
X112014047Y-65081961D01*
X112014047Y-65081961D02*
X111918809Y-65177200D01*
X111918809Y-65177200D02*
X111775952Y-65224819D01*
X111775952Y-65224819D02*
X111680714Y-65224819D01*
X112966428Y-64558152D02*
X112966428Y-65224819D01*
X112728333Y-64177200D02*
X112490238Y-64891485D01*
X112490238Y-64891485D02*
X113109285Y-64891485D01*
X84288333Y-81734819D02*
X83955000Y-81258628D01*
X83716905Y-81734819D02*
X83716905Y-80734819D01*
X83716905Y-80734819D02*
X84097857Y-80734819D01*
X84097857Y-80734819D02*
X84193095Y-80782438D01*
X84193095Y-80782438D02*
X84240714Y-80830057D01*
X84240714Y-80830057D02*
X84288333Y-80925295D01*
X84288333Y-80925295D02*
X84288333Y-81068152D01*
X84288333Y-81068152D02*
X84240714Y-81163390D01*
X84240714Y-81163390D02*
X84193095Y-81211009D01*
X84193095Y-81211009D02*
X84097857Y-81258628D01*
X84097857Y-81258628D02*
X83716905Y-81258628D01*
X85240714Y-81734819D02*
X84669286Y-81734819D01*
X84955000Y-81734819D02*
X84955000Y-80734819D01*
X84955000Y-80734819D02*
X84859762Y-80877676D01*
X84859762Y-80877676D02*
X84764524Y-80972914D01*
X84764524Y-80972914D02*
X84669286Y-81020533D01*
X97623333Y-65989580D02*
X97575714Y-66037200D01*
X97575714Y-66037200D02*
X97432857Y-66084819D01*
X97432857Y-66084819D02*
X97337619Y-66084819D01*
X97337619Y-66084819D02*
X97194762Y-66037200D01*
X97194762Y-66037200D02*
X97099524Y-65941961D01*
X97099524Y-65941961D02*
X97051905Y-65846723D01*
X97051905Y-65846723D02*
X97004286Y-65656247D01*
X97004286Y-65656247D02*
X97004286Y-65513390D01*
X97004286Y-65513390D02*
X97051905Y-65322914D01*
X97051905Y-65322914D02*
X97099524Y-65227676D01*
X97099524Y-65227676D02*
X97194762Y-65132438D01*
X97194762Y-65132438D02*
X97337619Y-65084819D01*
X97337619Y-65084819D02*
X97432857Y-65084819D01*
X97432857Y-65084819D02*
X97575714Y-65132438D01*
X97575714Y-65132438D02*
X97623333Y-65180057D01*
X98480476Y-65418152D02*
X98480476Y-66084819D01*
X98242381Y-65037200D02*
X98004286Y-65751485D01*
X98004286Y-65751485D02*
X98623333Y-65751485D01*
X130643333Y-67669580D02*
X130595714Y-67717200D01*
X130595714Y-67717200D02*
X130452857Y-67764819D01*
X130452857Y-67764819D02*
X130357619Y-67764819D01*
X130357619Y-67764819D02*
X130214762Y-67717200D01*
X130214762Y-67717200D02*
X130119524Y-67621961D01*
X130119524Y-67621961D02*
X130071905Y-67526723D01*
X130071905Y-67526723D02*
X130024286Y-67336247D01*
X130024286Y-67336247D02*
X130024286Y-67193390D01*
X130024286Y-67193390D02*
X130071905Y-67002914D01*
X130071905Y-67002914D02*
X130119524Y-66907676D01*
X130119524Y-66907676D02*
X130214762Y-66812438D01*
X130214762Y-66812438D02*
X130357619Y-66764819D01*
X130357619Y-66764819D02*
X130452857Y-66764819D01*
X130452857Y-66764819D02*
X130595714Y-66812438D01*
X130595714Y-66812438D02*
X130643333Y-66860057D01*
X131500476Y-66764819D02*
X131310000Y-66764819D01*
X131310000Y-66764819D02*
X131214762Y-66812438D01*
X131214762Y-66812438D02*
X131167143Y-66860057D01*
X131167143Y-66860057D02*
X131071905Y-67002914D01*
X131071905Y-67002914D02*
X131024286Y-67193390D01*
X131024286Y-67193390D02*
X131024286Y-67574342D01*
X131024286Y-67574342D02*
X131071905Y-67669580D01*
X131071905Y-67669580D02*
X131119524Y-67717200D01*
X131119524Y-67717200D02*
X131214762Y-67764819D01*
X131214762Y-67764819D02*
X131405238Y-67764819D01*
X131405238Y-67764819D02*
X131500476Y-67717200D01*
X131500476Y-67717200D02*
X131548095Y-67669580D01*
X131548095Y-67669580D02*
X131595714Y-67574342D01*
X131595714Y-67574342D02*
X131595714Y-67336247D01*
X131595714Y-67336247D02*
X131548095Y-67241009D01*
X131548095Y-67241009D02*
X131500476Y-67193390D01*
X131500476Y-67193390D02*
X131405238Y-67145771D01*
X131405238Y-67145771D02*
X131214762Y-67145771D01*
X131214762Y-67145771D02*
X131119524Y-67193390D01*
X131119524Y-67193390D02*
X131071905Y-67241009D01*
X131071905Y-67241009D02*
X131024286Y-67336247D01*
X100798333Y-54969580D02*
X100750714Y-55017200D01*
X100750714Y-55017200D02*
X100607857Y-55064819D01*
X100607857Y-55064819D02*
X100512619Y-55064819D01*
X100512619Y-55064819D02*
X100369762Y-55017200D01*
X100369762Y-55017200D02*
X100274524Y-54921961D01*
X100274524Y-54921961D02*
X100226905Y-54826723D01*
X100226905Y-54826723D02*
X100179286Y-54636247D01*
X100179286Y-54636247D02*
X100179286Y-54493390D01*
X100179286Y-54493390D02*
X100226905Y-54302914D01*
X100226905Y-54302914D02*
X100274524Y-54207676D01*
X100274524Y-54207676D02*
X100369762Y-54112438D01*
X100369762Y-54112438D02*
X100512619Y-54064819D01*
X100512619Y-54064819D02*
X100607857Y-54064819D01*
X100607857Y-54064819D02*
X100750714Y-54112438D01*
X100750714Y-54112438D02*
X100798333Y-54160057D01*
X101179286Y-54160057D02*
X101226905Y-54112438D01*
X101226905Y-54112438D02*
X101322143Y-54064819D01*
X101322143Y-54064819D02*
X101560238Y-54064819D01*
X101560238Y-54064819D02*
X101655476Y-54112438D01*
X101655476Y-54112438D02*
X101703095Y-54160057D01*
X101703095Y-54160057D02*
X101750714Y-54255295D01*
X101750714Y-54255295D02*
X101750714Y-54350533D01*
X101750714Y-54350533D02*
X101703095Y-54493390D01*
X101703095Y-54493390D02*
X101131667Y-55064819D01*
X101131667Y-55064819D02*
X101750714Y-55064819D01*
X98258333Y-60684580D02*
X98210714Y-60732200D01*
X98210714Y-60732200D02*
X98067857Y-60779819D01*
X98067857Y-60779819D02*
X97972619Y-60779819D01*
X97972619Y-60779819D02*
X97829762Y-60732200D01*
X97829762Y-60732200D02*
X97734524Y-60636961D01*
X97734524Y-60636961D02*
X97686905Y-60541723D01*
X97686905Y-60541723D02*
X97639286Y-60351247D01*
X97639286Y-60351247D02*
X97639286Y-60208390D01*
X97639286Y-60208390D02*
X97686905Y-60017914D01*
X97686905Y-60017914D02*
X97734524Y-59922676D01*
X97734524Y-59922676D02*
X97829762Y-59827438D01*
X97829762Y-59827438D02*
X97972619Y-59779819D01*
X97972619Y-59779819D02*
X98067857Y-59779819D01*
X98067857Y-59779819D02*
X98210714Y-59827438D01*
X98210714Y-59827438D02*
X98258333Y-59875057D01*
X98591667Y-59779819D02*
X99210714Y-59779819D01*
X99210714Y-59779819D02*
X98877381Y-60160771D01*
X98877381Y-60160771D02*
X99020238Y-60160771D01*
X99020238Y-60160771D02*
X99115476Y-60208390D01*
X99115476Y-60208390D02*
X99163095Y-60256009D01*
X99163095Y-60256009D02*
X99210714Y-60351247D01*
X99210714Y-60351247D02*
X99210714Y-60589342D01*
X99210714Y-60589342D02*
X99163095Y-60684580D01*
X99163095Y-60684580D02*
X99115476Y-60732200D01*
X99115476Y-60732200D02*
X99020238Y-60779819D01*
X99020238Y-60779819D02*
X98734524Y-60779819D01*
X98734524Y-60779819D02*
X98639286Y-60732200D01*
X98639286Y-60732200D02*
X98591667Y-60684580D01*
X93178333Y-53699580D02*
X93130714Y-53747200D01*
X93130714Y-53747200D02*
X92987857Y-53794819D01*
X92987857Y-53794819D02*
X92892619Y-53794819D01*
X92892619Y-53794819D02*
X92749762Y-53747200D01*
X92749762Y-53747200D02*
X92654524Y-53651961D01*
X92654524Y-53651961D02*
X92606905Y-53556723D01*
X92606905Y-53556723D02*
X92559286Y-53366247D01*
X92559286Y-53366247D02*
X92559286Y-53223390D01*
X92559286Y-53223390D02*
X92606905Y-53032914D01*
X92606905Y-53032914D02*
X92654524Y-52937676D01*
X92654524Y-52937676D02*
X92749762Y-52842438D01*
X92749762Y-52842438D02*
X92892619Y-52794819D01*
X92892619Y-52794819D02*
X92987857Y-52794819D01*
X92987857Y-52794819D02*
X93130714Y-52842438D01*
X93130714Y-52842438D02*
X93178333Y-52890057D01*
X94130714Y-53794819D02*
X93559286Y-53794819D01*
X93845000Y-53794819D02*
X93845000Y-52794819D01*
X93845000Y-52794819D02*
X93749762Y-52937676D01*
X93749762Y-52937676D02*
X93654524Y-53032914D01*
X93654524Y-53032914D02*
X93559286Y-53080533D01*
X126833333Y-84019819D02*
X126500000Y-83543628D01*
X126261905Y-84019819D02*
X126261905Y-83019819D01*
X126261905Y-83019819D02*
X126642857Y-83019819D01*
X126642857Y-83019819D02*
X126738095Y-83067438D01*
X126738095Y-83067438D02*
X126785714Y-83115057D01*
X126785714Y-83115057D02*
X126833333Y-83210295D01*
X126833333Y-83210295D02*
X126833333Y-83353152D01*
X126833333Y-83353152D02*
X126785714Y-83448390D01*
X126785714Y-83448390D02*
X126738095Y-83496009D01*
X126738095Y-83496009D02*
X126642857Y-83543628D01*
X126642857Y-83543628D02*
X126261905Y-83543628D01*
X127166667Y-83019819D02*
X127785714Y-83019819D01*
X127785714Y-83019819D02*
X127452381Y-83400771D01*
X127452381Y-83400771D02*
X127595238Y-83400771D01*
X127595238Y-83400771D02*
X127690476Y-83448390D01*
X127690476Y-83448390D02*
X127738095Y-83496009D01*
X127738095Y-83496009D02*
X127785714Y-83591247D01*
X127785714Y-83591247D02*
X127785714Y-83829342D01*
X127785714Y-83829342D02*
X127738095Y-83924580D01*
X127738095Y-83924580D02*
X127690476Y-83972200D01*
X127690476Y-83972200D02*
X127595238Y-84019819D01*
X127595238Y-84019819D02*
X127309524Y-84019819D01*
X127309524Y-84019819D02*
X127214286Y-83972200D01*
X127214286Y-83972200D02*
X127166667Y-83924580D01*
D11*
%TO.C,J10*%
X125670000Y-62290000D02*
X125670000Y-60960000D01*
X127000000Y-62290000D02*
X125670000Y-62290000D01*
X128270000Y-62290000D02*
X141030000Y-62290000D01*
X128270000Y-62290000D02*
X128270000Y-59630000D01*
X141030000Y-62290000D02*
X141030000Y-59630000D01*
X128270000Y-59630000D02*
X141030000Y-59630000D01*
%TO.C,U1*%
X100395000Y-78095000D02*
X103845000Y-78095000D01*
X100395000Y-78095000D02*
X98445000Y-78095000D01*
X100395000Y-69225000D02*
X102345000Y-69225000D01*
X100395000Y-69225000D02*
X98445000Y-69225000D01*
%TO.C,J2*%
X143190000Y-53095000D02*
X153690000Y-53095000D01*
X154750000Y-54155000D02*
X154750000Y-83005000D01*
X150701744Y-60713530D02*
X145601744Y-61612798D01*
X152650000Y-62348311D02*
X152650000Y-74811689D01*
X155644338Y-62790000D02*
X155644338Y-63290000D01*
X155211325Y-63040000D02*
X155644338Y-62790000D01*
X144230000Y-63247579D02*
X144230000Y-73912421D01*
X155644338Y-63290000D02*
X155211325Y-63040000D01*
X150701744Y-76446470D02*
X145601744Y-75547202D01*
X142130000Y-83005000D02*
X142130000Y-54155000D01*
X153690000Y-84065000D02*
X143190000Y-84065000D01*
X154750000Y-54155000D02*
G75*
G03*
X153690000Y-53095000I-1060001J-1D01*
G01*
X143190000Y-53095000D02*
G75*
G03*
X142130000Y-54155000I1J-1060001D01*
G01*
X152650000Y-62348311D02*
G75*
G03*
X150701744Y-60713530I-1659999J1D01*
G01*
X145601744Y-61612798D02*
G75*
G03*
X144230000Y-63247579I288259J-1634783D01*
G01*
X150701742Y-76446481D02*
G75*
G03*
X152650000Y-74811689I288258J1634781D01*
G01*
X144229999Y-73912421D02*
G75*
G03*
X145601744Y-75547202I1660001J1D01*
G01*
X153690000Y-84065000D02*
G75*
G03*
X154750000Y-83005000I0J1060000D01*
G01*
X142130000Y-83005000D02*
G75*
G03*
X143190000Y-84065000I1060000J0D01*
G01*
%TO.C,U3*%
X123370000Y-69800000D02*
X123115000Y-69800000D01*
X123115000Y-69800000D02*
X123115000Y-67985000D01*
X112850000Y-69800000D02*
X113105000Y-69800000D01*
X123370000Y-73660000D02*
X123370000Y-69800000D01*
X123370000Y-73660000D02*
X123370000Y-77520000D01*
X112850000Y-73660000D02*
X112850000Y-69800000D01*
X112850000Y-73660000D02*
X112850000Y-77520000D01*
X123370000Y-77520000D02*
X123115000Y-77520000D01*
X112850000Y-77520000D02*
X113105000Y-77520000D01*
%TO.C,J6*%
X105350000Y-67250000D02*
X106680000Y-67250000D01*
X105350000Y-68580000D02*
X105350000Y-67250000D01*
X105350000Y-69850000D02*
X105350000Y-82610000D01*
X105350000Y-69850000D02*
X108010000Y-69850000D01*
X105350000Y-82610000D02*
X108010000Y-82610000D01*
X108010000Y-69850000D02*
X108010000Y-82610000D01*
%TO.C,C9*%
X132180000Y-77208748D02*
X132180000Y-77731252D01*
X130710000Y-77208748D02*
X130710000Y-77731252D01*
%TO.C,J3*%
X107520000Y-53520000D02*
X106270000Y-53520000D01*
X107220000Y-53820000D02*
X102500000Y-53820000D01*
X105910000Y-53820000D02*
X105910000Y-54430000D01*
X104610000Y-53820000D02*
X104610000Y-54430000D01*
X102500000Y-53820000D02*
X102500000Y-63940000D01*
X106610000Y-54430000D02*
X103110000Y-54430000D01*
X103110000Y-54430000D02*
X103110000Y-63330000D01*
X107520000Y-54770000D02*
X107520000Y-53520000D01*
X107420000Y-55280000D02*
X107220000Y-55280000D01*
X107420000Y-55580000D02*
X107420000Y-55280000D01*
X107320000Y-55580000D02*
X107320000Y-55280000D01*
X107220000Y-55580000D02*
X107420000Y-55580000D01*
X107220000Y-56380000D02*
X106610000Y-56380000D01*
X106610000Y-56380000D02*
X106610000Y-54430000D01*
X103610000Y-56780000D02*
X103610000Y-56980000D01*
X103110000Y-56780000D02*
X103610000Y-56780000D01*
X103110000Y-56880000D02*
X103610000Y-56880000D01*
X103610000Y-56980000D02*
X103110000Y-56980000D01*
X103610000Y-58780000D02*
X103610000Y-58980000D01*
X103110000Y-58780000D02*
X103610000Y-58780000D01*
X103110000Y-58880000D02*
X103610000Y-58880000D01*
X103610000Y-58980000D02*
X103110000Y-58980000D01*
X103610000Y-60780000D02*
X103610000Y-60980000D01*
X103110000Y-60780000D02*
X103610000Y-60780000D01*
X103110000Y-60880000D02*
X103610000Y-60880000D01*
X103610000Y-60980000D02*
X103110000Y-60980000D01*
X106610000Y-61380000D02*
X107220000Y-61380000D01*
X106610000Y-63330000D02*
X106610000Y-61380000D01*
X103110000Y-63330000D02*
X106610000Y-63330000D01*
X107220000Y-63940000D02*
X107220000Y-53820000D01*
X105910000Y-63940000D02*
X105910000Y-63330000D01*
X104610000Y-63940000D02*
X104610000Y-63330000D01*
X102500000Y-63940000D02*
X107220000Y-63940000D01*
%TO.C,J5*%
X107890000Y-67250000D02*
X109220000Y-67250000D01*
X107890000Y-68580000D02*
X107890000Y-67250000D01*
X107890000Y-69850000D02*
X107890000Y-82610000D01*
X107890000Y-69850000D02*
X110550000Y-69850000D01*
X107890000Y-82610000D02*
X110550000Y-82610000D01*
X110550000Y-69850000D02*
X110550000Y-82610000D01*
%TO.C,U5*%
X86770000Y-58380000D02*
X86770000Y-57240000D01*
X86540000Y-57240000D02*
X86770000Y-57240000D01*
X86540000Y-57240000D02*
X86540000Y-54520000D01*
X91260000Y-57240000D02*
X91030000Y-57240000D01*
X86540000Y-54520000D02*
X87850000Y-54520000D01*
X89950000Y-54520000D02*
X91260000Y-54520000D01*
X91260000Y-54520000D02*
X91260000Y-57240000D01*
%TO.C,J1*%
X95257500Y-70330000D02*
X95257500Y-69330000D01*
X95257500Y-69330000D02*
X94757500Y-69830000D01*
X94757500Y-69830000D02*
X95257500Y-70330000D01*
X94537500Y-74740000D02*
X94537500Y-62420000D01*
X94537500Y-62420000D02*
X90277500Y-62420000D01*
X90277500Y-74740000D02*
X94537500Y-74740000D01*
X86177500Y-74740000D02*
X77817500Y-74740000D01*
X77817500Y-74740000D02*
X77817500Y-62420000D01*
X77817500Y-62420000D02*
X86177500Y-62420000D01*
%TO.C,C8*%
X136898748Y-65305000D02*
X137421252Y-65305000D01*
X136898748Y-66775000D02*
X137421252Y-66775000D01*
%TO.C,R2*%
X86767936Y-78005000D02*
X87222064Y-78005000D01*
X86767936Y-79475000D02*
X87222064Y-79475000D01*
%TO.C,U6*%
X132345000Y-80305000D02*
X130545000Y-80305000D01*
X130545000Y-83525000D02*
X132995000Y-83525000D01*
%TO.C,JP1*%
X117320000Y-82975000D02*
X117320000Y-81915000D01*
X118380000Y-82975000D02*
X117320000Y-82975000D01*
X119380000Y-82975000D02*
X121440000Y-82975000D01*
X119380000Y-82975000D02*
X119380000Y-80855000D01*
X121440000Y-82975000D02*
X121440000Y-80855000D01*
X119380000Y-80855000D02*
X121440000Y-80855000D01*
%TO.C,C5*%
X119641252Y-66775000D02*
X119118748Y-66775000D01*
X119641252Y-65305000D02*
X119118748Y-65305000D01*
%TO.C,J7*%
X125670000Y-67250000D02*
X127000000Y-67250000D01*
X125670000Y-68580000D02*
X125670000Y-67250000D01*
X125670000Y-69850000D02*
X125670000Y-77530000D01*
X125670000Y-69850000D02*
X128330000Y-69850000D01*
X125670000Y-77530000D02*
X128330000Y-77530000D01*
X128330000Y-69850000D02*
X128330000Y-77530000D01*
%TO.C,U2*%
X137160000Y-67965000D02*
X133710000Y-67965000D01*
X137160000Y-67965000D02*
X139110000Y-67965000D01*
X137160000Y-78085000D02*
X135210000Y-78085000D01*
X137160000Y-78085000D02*
X139110000Y-78085000D01*
%TO.C,J9*%
X125670000Y-59750000D02*
X125670000Y-58420000D01*
X127000000Y-59750000D02*
X125670000Y-59750000D01*
X128270000Y-59750000D02*
X141030000Y-59750000D01*
X128270000Y-59750000D02*
X128270000Y-57090000D01*
X141030000Y-59750000D02*
X141030000Y-57090000D01*
X128270000Y-57090000D02*
X141030000Y-57090000D01*
%TO.C,C7*%
X132180000Y-73398748D02*
X132180000Y-73921252D01*
X130710000Y-73398748D02*
X130710000Y-73921252D01*
%TO.C,C10*%
X116578748Y-52605000D02*
X117101252Y-52605000D01*
X116578748Y-54075000D02*
X117101252Y-54075000D01*
%TO.C,J8*%
X90015000Y-82070000D02*
X90015000Y-81010000D01*
X91075000Y-82070000D02*
X90015000Y-82070000D01*
X92075000Y-82070000D02*
X94135000Y-82070000D01*
X92075000Y-82070000D02*
X92075000Y-80010000D01*
X94135000Y-82070000D02*
X94135000Y-77950000D01*
X90015000Y-80010000D02*
X90015000Y-77950000D01*
X92075000Y-80010000D02*
X90015000Y-80010000D01*
X90015000Y-77950000D02*
X94135000Y-77950000D01*
%TO.C,U4*%
X124450000Y-58420000D02*
X124450000Y-54970000D01*
X124450000Y-58420000D02*
X124450000Y-60370000D01*
X115580000Y-58420000D02*
X115580000Y-56470000D01*
X115580000Y-58420000D02*
X115580000Y-60370000D01*
%TO.C,J4*%
X114505000Y-53520000D02*
X113255000Y-53520000D01*
X114205000Y-53820000D02*
X109485000Y-53820000D01*
X112895000Y-53820000D02*
X112895000Y-54430000D01*
X111595000Y-53820000D02*
X111595000Y-54430000D01*
X109485000Y-53820000D02*
X109485000Y-63940000D01*
X113595000Y-54430000D02*
X110095000Y-54430000D01*
X110095000Y-54430000D02*
X110095000Y-63330000D01*
X114505000Y-54770000D02*
X114505000Y-53520000D01*
X114405000Y-55280000D02*
X114205000Y-55280000D01*
X114405000Y-55580000D02*
X114405000Y-55280000D01*
X114305000Y-55580000D02*
X114305000Y-55280000D01*
X114205000Y-55580000D02*
X114405000Y-55580000D01*
X114205000Y-56380000D02*
X113595000Y-56380000D01*
X113595000Y-56380000D02*
X113595000Y-54430000D01*
X110595000Y-56780000D02*
X110595000Y-56980000D01*
X110095000Y-56780000D02*
X110595000Y-56780000D01*
X110095000Y-56880000D02*
X110595000Y-56880000D01*
X110595000Y-56980000D02*
X110095000Y-56980000D01*
X110595000Y-58780000D02*
X110595000Y-58980000D01*
X110095000Y-58780000D02*
X110595000Y-58780000D01*
X110095000Y-58880000D02*
X110595000Y-58880000D01*
X110595000Y-58980000D02*
X110095000Y-58980000D01*
X110595000Y-60780000D02*
X110595000Y-60980000D01*
X110095000Y-60780000D02*
X110595000Y-60780000D01*
X110095000Y-60880000D02*
X110595000Y-60880000D01*
X110595000Y-60980000D02*
X110095000Y-60980000D01*
X113595000Y-61380000D02*
X114205000Y-61380000D01*
X113595000Y-63330000D02*
X113595000Y-61380000D01*
X110095000Y-63330000D02*
X113595000Y-63330000D01*
X114205000Y-63940000D02*
X114205000Y-53820000D01*
X112895000Y-63940000D02*
X112895000Y-63330000D01*
X111595000Y-63940000D02*
X111595000Y-63330000D01*
X109485000Y-63940000D02*
X114205000Y-63940000D01*
%TO.C,R1*%
X86767936Y-80545000D02*
X87222064Y-80545000D01*
X86767936Y-82015000D02*
X87222064Y-82015000D01*
%TO.C,C4*%
X97528748Y-66575000D02*
X98051252Y-66575000D01*
X97528748Y-68045000D02*
X98051252Y-68045000D01*
%TO.C,C6*%
X132180000Y-69588748D02*
X132180000Y-70111252D01*
X130710000Y-69588748D02*
X130710000Y-70111252D01*
%TO.C,C2*%
X98501252Y-55970000D02*
X97078748Y-55970000D01*
X98501252Y-53250000D02*
X97078748Y-53250000D01*
%TO.C,C3*%
X98501252Y-59330000D02*
X97078748Y-59330000D01*
X98501252Y-57510000D02*
X97078748Y-57510000D01*
%TO.C,C1*%
X91985000Y-57226252D02*
X91985000Y-55803748D01*
X94705000Y-57226252D02*
X94705000Y-55803748D01*
%TO.C,R3*%
X124409564Y-82650000D02*
X123955436Y-82650000D01*
X124409564Y-81180000D02*
X123955436Y-81180000D01*
%TD*%
M02*
