%TF.GenerationSoftware,KiCad,Pcbnew,7.0.6*%
%TF.CreationDate,2023-08-24T17:38:11-04:00*%
%TF.ProjectId,usbio,75736269-6f2e-46b6-9963-61645f706362,rev?*%
%TF.SameCoordinates,Original*%
%TF.FileFunction,Paste,Top*%
%TF.FilePolarity,Positive*%
%FSLAX46Y46*%
G04 Gerber Fmt 4.6, Leading zero omitted, Abs format (unit mm)*
G04 Created by KiCad (PCBNEW 7.0.6) date 2023-08-24 17:38:11*
%MOMM*%
%LPD*%
G01*
G04 APERTURE LIST*
G04 Aperture macros list*
%AMRoundRect*
0 Rectangle with rounded corners*
0 $1 Rounding radius*
0 $2 $3 $4 $5 $6 $7 $8 $9 X,Y pos of 4 corners*
0 Add a 4 corners polygon primitive as box body*
4,1,4,$2,$3,$4,$5,$6,$7,$8,$9,$2,$3,0*
0 Add four circle primitives for the rounded corners*
1,1,$1+$1,$2,$3*
1,1,$1+$1,$4,$5*
1,1,$1+$1,$6,$7*
1,1,$1+$1,$8,$9*
0 Add four rect primitives between the rounded corners*
20,1,$1+$1,$2,$3,$4,$5,0*
20,1,$1+$1,$4,$5,$6,$7,0*
20,1,$1+$1,$6,$7,$8,$9,0*
20,1,$1+$1,$8,$9,$2,$3,0*%
%AMFreePoly0*
4,1,9,5.362500,-0.866500,1.237500,-0.866500,1.237500,-0.450000,-1.237500,-0.450000,-1.237500,0.450000,1.237500,0.450000,1.237500,0.866500,5.362500,0.866500,5.362500,-0.866500,5.362500,-0.866500,$1*%
G04 Aperture macros list end*
%ADD10RoundRect,0.150000X0.825000X0.150000X-0.825000X0.150000X-0.825000X-0.150000X0.825000X-0.150000X0*%
%ADD11RoundRect,0.150000X-0.150000X0.875000X-0.150000X-0.875000X0.150000X-0.875000X0.150000X0.875000X0*%
%ADD12RoundRect,0.250000X-0.475000X0.250000X-0.475000X-0.250000X0.475000X-0.250000X0.475000X0.250000X0*%
%ADD13R,0.900000X2.300000*%
%ADD14FreePoly0,90.000000*%
%ADD15RoundRect,0.250000X-0.250000X-0.475000X0.250000X-0.475000X0.250000X0.475000X-0.250000X0.475000X0*%
%ADD16RoundRect,0.250000X-0.262500X-0.450000X0.262500X-0.450000X0.262500X0.450000X-0.262500X0.450000X0*%
%ADD17R,1.560000X0.650000*%
%ADD18RoundRect,0.250000X0.250000X0.475000X-0.250000X0.475000X-0.250000X-0.475000X0.250000X-0.475000X0*%
%ADD19RoundRect,0.150000X-0.825000X-0.150000X0.825000X-0.150000X0.825000X0.150000X-0.825000X0.150000X0*%
%ADD20RoundRect,0.150000X-0.150000X0.825000X-0.150000X-0.825000X0.150000X-0.825000X0.150000X0.825000X0*%
%ADD21RoundRect,0.250000X0.325000X1.100000X-0.325000X1.100000X-0.325000X-1.100000X0.325000X-1.100000X0*%
%ADD22RoundRect,0.250000X0.325000X0.650000X-0.325000X0.650000X-0.325000X-0.650000X0.325000X-0.650000X0*%
%ADD23RoundRect,0.250000X1.100000X-0.325000X1.100000X0.325000X-1.100000X0.325000X-1.100000X-0.325000X0*%
%ADD24RoundRect,0.250000X0.262500X0.450000X-0.262500X0.450000X-0.262500X-0.450000X0.262500X-0.450000X0*%
G04 APERTURE END LIST*
D10*
%TO.C,U1*%
X102870000Y-77470000D03*
X102870000Y-76200000D03*
X102870000Y-74930000D03*
X102870000Y-73660000D03*
X102870000Y-72390000D03*
X102870000Y-71120000D03*
X102870000Y-69850000D03*
X97920000Y-69850000D03*
X97920000Y-71120000D03*
X97920000Y-72390000D03*
X97920000Y-73660000D03*
X97920000Y-74930000D03*
X97920000Y-76200000D03*
X97920000Y-77470000D03*
%TD*%
D11*
%TO.C,U3*%
X122555000Y-69010000D03*
X121285000Y-69010000D03*
X120015000Y-69010000D03*
X118745000Y-69010000D03*
X117475000Y-69010000D03*
X116205000Y-69010000D03*
X114935000Y-69010000D03*
X113665000Y-69010000D03*
X113665000Y-78310000D03*
X114935000Y-78310000D03*
X116205000Y-78310000D03*
X117475000Y-78310000D03*
X118745000Y-78310000D03*
X120015000Y-78310000D03*
X121285000Y-78310000D03*
X122555000Y-78310000D03*
%TD*%
D12*
%TO.C,C9*%
X131445000Y-76520000D03*
X131445000Y-78420000D03*
%TD*%
D13*
%TO.C,U5*%
X87400000Y-58330000D03*
D14*
X88900000Y-58242500D03*
D13*
X90400000Y-58330000D03*
%TD*%
D15*
%TO.C,C8*%
X136210000Y-66040000D03*
X138110000Y-66040000D03*
%TD*%
D16*
%TO.C,R2*%
X86082500Y-78740000D03*
X87907500Y-78740000D03*
%TD*%
D17*
%TO.C,U6*%
X132795000Y-82865000D03*
X132795000Y-81915000D03*
X132795000Y-80965000D03*
X130095000Y-80965000D03*
X130095000Y-82865000D03*
%TD*%
D18*
%TO.C,C5*%
X120330000Y-66040000D03*
X118430000Y-66040000D03*
%TD*%
D19*
%TO.C,U2*%
X134685000Y-68580000D03*
X134685000Y-69850000D03*
X134685000Y-71120000D03*
X134685000Y-72390000D03*
X134685000Y-73660000D03*
X134685000Y-74930000D03*
X134685000Y-76200000D03*
X134685000Y-77470000D03*
X139635000Y-77470000D03*
X139635000Y-76200000D03*
X139635000Y-74930000D03*
X139635000Y-73660000D03*
X139635000Y-72390000D03*
X139635000Y-71120000D03*
X139635000Y-69850000D03*
X139635000Y-68580000D03*
%TD*%
D12*
%TO.C,C7*%
X131445000Y-72710000D03*
X131445000Y-74610000D03*
%TD*%
D15*
%TO.C,C10*%
X115890000Y-53340000D03*
X117790000Y-53340000D03*
%TD*%
D20*
%TO.C,U4*%
X123825000Y-55945000D03*
X122555000Y-55945000D03*
X121285000Y-55945000D03*
X120015000Y-55945000D03*
X118745000Y-55945000D03*
X117475000Y-55945000D03*
X116205000Y-55945000D03*
X116205000Y-60895000D03*
X117475000Y-60895000D03*
X118745000Y-60895000D03*
X120015000Y-60895000D03*
X121285000Y-60895000D03*
X122555000Y-60895000D03*
X123825000Y-60895000D03*
%TD*%
D16*
%TO.C,R1*%
X86082500Y-81280000D03*
X87907500Y-81280000D03*
%TD*%
D15*
%TO.C,C4*%
X96840000Y-67310000D03*
X98740000Y-67310000D03*
%TD*%
D12*
%TO.C,C6*%
X131445000Y-68900000D03*
X131445000Y-70800000D03*
%TD*%
D21*
%TO.C,C2*%
X99265000Y-54610000D03*
X96315000Y-54610000D03*
%TD*%
D22*
%TO.C,C3*%
X99265000Y-58420000D03*
X96315000Y-58420000D03*
%TD*%
D23*
%TO.C,C1*%
X93345000Y-57990000D03*
X93345000Y-55040000D03*
%TD*%
D24*
%TO.C,R3*%
X125095000Y-81915000D03*
X123270000Y-81915000D03*
%TD*%
M02*
