%TF.GenerationSoftware,KiCad,Pcbnew,7.0.6*%
%TF.CreationDate,2023-08-24T17:38:11-04:00*%
%TF.ProjectId,usbio,75736269-6f2e-46b6-9963-61645f706362,rev?*%
%TF.SameCoordinates,Original*%
%TF.FileFunction,Soldermask,Bot*%
%TF.FilePolarity,Negative*%
%FSLAX46Y46*%
G04 Gerber Fmt 4.6, Leading zero omitted, Abs format (unit mm)*
G04 Created by KiCad (PCBNEW 7.0.6) date 2023-08-24 17:38:11*
%MOMM*%
%LPD*%
G01*
G04 APERTURE LIST*
G04 Aperture macros list*
%AMRoundRect*
0 Rectangle with rounded corners*
0 $1 Rounding radius*
0 $2 $3 $4 $5 $6 $7 $8 $9 X,Y pos of 4 corners*
0 Add a 4 corners polygon primitive as box body*
4,1,4,$2,$3,$4,$5,$6,$7,$8,$9,$2,$3,0*
0 Add four circle primitives for the rounded corners*
1,1,$1+$1,$2,$3*
1,1,$1+$1,$4,$5*
1,1,$1+$1,$6,$7*
1,1,$1+$1,$8,$9*
0 Add four rect primitives between the rounded corners*
20,1,$1+$1,$2,$3,$4,$5,0*
20,1,$1+$1,$4,$5,$6,$7,0*
20,1,$1+$1,$6,$7,$8,$9,0*
20,1,$1+$1,$8,$9,$2,$3,0*%
G04 Aperture macros list end*
%ADD10R,1.700000X1.700000*%
%ADD11O,1.700000X1.700000*%
%ADD12C,5.600000*%
%ADD13C,4.000000*%
%ADD14R,1.600000X1.600000*%
%ADD15C,1.600000*%
%ADD16RoundRect,0.250000X-0.625000X0.350000X-0.625000X-0.350000X0.625000X-0.350000X0.625000X0.350000X0*%
%ADD17O,1.750000X1.200000*%
%ADD18C,1.700000*%
%ADD19C,3.500000*%
%ADD20R,1.350000X1.350000*%
%ADD21O,1.350000X1.350000*%
G04 APERTURE END LIST*
D10*
%TO.C,J10*%
X127000000Y-60960000D03*
D11*
X129540000Y-60960000D03*
X132080000Y-60960000D03*
X134620000Y-60960000D03*
X137160000Y-60960000D03*
X139700000Y-60960000D03*
%TD*%
D12*
%TO.C,H2*%
X138430000Y-81280000D03*
%TD*%
D13*
%TO.C,J2*%
X148440000Y-56080000D03*
X148440000Y-81080000D03*
D14*
X149860000Y-63040000D03*
D15*
X149860000Y-65810000D03*
X149860000Y-68580000D03*
X149860000Y-71350000D03*
X149860000Y-74120000D03*
X147020000Y-64425000D03*
X147020000Y-67195000D03*
X147020000Y-69965000D03*
X147020000Y-72735000D03*
%TD*%
D10*
%TO.C,J6*%
X106680000Y-68580000D03*
D11*
X106680000Y-71120000D03*
X106680000Y-73660000D03*
X106680000Y-76200000D03*
X106680000Y-78740000D03*
X106680000Y-81280000D03*
%TD*%
D16*
%TO.C,J3*%
X105410000Y-55880000D03*
D17*
X105410000Y-57880000D03*
X105410000Y-59880000D03*
X105410000Y-61880000D03*
%TD*%
D10*
%TO.C,J5*%
X109220000Y-68580000D03*
D11*
X109220000Y-71120000D03*
X109220000Y-73660000D03*
X109220000Y-76200000D03*
X109220000Y-78740000D03*
X109220000Y-81280000D03*
%TD*%
D10*
%TO.C,J1*%
X92937500Y-69830000D03*
D18*
X92937500Y-67330000D03*
X90937500Y-67330000D03*
X90937500Y-69830000D03*
D19*
X88227500Y-74600000D03*
X88227500Y-62560000D03*
%TD*%
D20*
%TO.C,JP1*%
X118380000Y-81915000D03*
D21*
X120380000Y-81915000D03*
%TD*%
D12*
%TO.C,H1*%
X82550000Y-55880000D03*
%TD*%
D10*
%TO.C,J7*%
X127000000Y-68580000D03*
D11*
X127000000Y-71120000D03*
X127000000Y-73660000D03*
X127000000Y-76200000D03*
%TD*%
D10*
%TO.C,J9*%
X127000000Y-58420000D03*
D11*
X129540000Y-58420000D03*
X132080000Y-58420000D03*
X134620000Y-58420000D03*
X137160000Y-58420000D03*
X139700000Y-58420000D03*
%TD*%
D20*
%TO.C,J8*%
X91075000Y-81010000D03*
D21*
X91075000Y-79010000D03*
X93075000Y-81010000D03*
X93075000Y-79010000D03*
%TD*%
D16*
%TO.C,J4*%
X112395000Y-55880000D03*
D17*
X112395000Y-57880000D03*
X112395000Y-59880000D03*
X112395000Y-61880000D03*
%TD*%
M02*
